<svg width="257" height="200" viewBox="0 0 257 200" fill="none" xmlns="http://www.w3.org/2000/svg">
<g clip-path="url(#clip0_188_2787)">
<path d="M146.337 97.7939C152.12 97.7939 156.808 93.0963 156.808 87.3014C156.808 81.5065 152.12 76.8089 146.337 76.8089C140.554 76.8089 135.866 81.5065 135.866 87.3014C135.866 93.0963 140.554 97.7939 146.337 97.7939Z" fill="#E6E6E6"/>
<path d="M172 100.785L161.057 89.82C161.896 88.5127 162.464 87.05 162.729 85.5185C162.993 83.9871 162.948 82.4181 162.596 80.9044C162.244 79.3908 161.593 77.9633 160.68 76.7065C159.767 75.4498 158.613 74.3894 157.284 73.5881C154.781 72.0901 151.808 71.5885 148.954 72.1826C146.1 72.7766 143.573 74.4231 141.873 76.7959C140.309 78.9938 139.557 81.6691 139.748 84.362C139.939 87.0549 141.06 89.597 142.919 91.5513C144.777 93.5056 147.257 94.75 149.932 95.0707C152.607 95.3913 155.31 94.768 157.576 93.3081L168.519 104.273C168.981 104.735 169.606 104.995 170.259 104.994C170.912 104.994 171.537 104.734 171.999 104.272C172.46 103.81 172.719 103.183 172.72 102.529C172.72 101.875 172.461 101.248 172 100.785ZM157.168 89.4107C155.812 90.7694 154.028 91.6149 152.12 91.8033C150.211 91.9916 148.297 91.5111 146.703 90.4437C145.108 89.3762 143.933 87.7878 143.376 85.9491C142.82 84.1105 142.916 82.1353 143.65 80.3601C144.384 78.585 145.709 77.1197 147.4 76.2139C149.091 75.3081 151.043 75.018 152.924 75.3928C154.805 75.7677 156.497 76.7843 157.714 78.2696C158.93 79.7549 159.595 81.6168 159.595 83.5382C159.597 84.6291 159.383 85.7094 158.966 86.7172C158.55 87.725 157.939 88.6404 157.168 89.4107Z" fill="#3F3D56"/>
<path d="M251.32 116.959C279.304 147.97 198.183 192.661 132.635 192.661C67.0879 192.661 21.7392 158.033 13.9511 116.959C-4.9325 17.3677 174.844 -45.9319 132.635 41.2568C71.1122 168.344 229.282 92.5371 251.32 116.959Z" fill="#E6E6E6"/>
<path d="M238.764 124.298C266.748 155.309 185.627 200 120.08 200C54.532 200 9.18333 165.372 1.39519 124.298C-17.4884 24.707 162.288 -38.5926 120.08 48.5961C58.5563 175.684 216.726 99.8764 238.764 124.298Z" fill="#3F3D56"/>
<path d="M39.1309 51.5915C19.4947 50.7252 4.26967 46.4808 4.46969 41.9287C4.58961 39.1996 10.1468 37.005 19.7164 35.908C19.7507 35.9038 19.7854 35.9065 19.8186 35.9158C19.8518 35.9252 19.8829 35.941 19.9099 35.9624C19.937 35.9838 19.9596 36.0104 19.9764 36.0406C19.9932 36.0708 20.0038 36.104 20.0078 36.1384C20.0117 36.1727 20.0088 36.2075 19.9992 36.2407C19.9897 36.274 19.9737 36.3049 19.9521 36.3319C19.9306 36.3589 19.9039 36.3814 19.8736 36.398C19.8434 36.4146 19.8102 36.4251 19.7759 36.4288C10.7613 37.4623 5.09662 39.5786 4.99234 41.9518C4.81146 46.0682 20.4555 50.2428 39.1539 51.0678C57.8523 51.8928 73.802 49.1121 73.9829 44.9957C74.0876 42.6126 68.5952 39.9982 59.6488 38.1732C59.6151 38.1664 59.583 38.153 59.5544 38.1338C59.5259 38.1145 59.5014 38.0898 59.4823 38.0611C59.4633 38.0324 59.4501 38.0001 59.4435 37.9663C59.4369 37.9324 59.4371 37.8976 59.444 37.8638C59.4508 37.83 59.4643 37.7979 59.4836 37.7694C59.5028 37.7408 59.5275 37.7163 59.5563 37.6973C59.585 37.6783 59.6172 37.6652 59.651 37.6587C59.6848 37.6522 59.7195 37.6524 59.7532 37.6594C69.2489 39.5966 74.6259 42.279 74.5056 45.0187C74.3055 49.5708 58.7671 52.4579 39.1309 51.5915Z" fill="#7000FF"/>
<path d="M21.6911 52.3539C23.3338 55.4808 25.7671 58.1207 28.7477 60.0094C31.7283 61.898 35.1516 62.9692 38.6751 63.1157C42.1986 63.2623 45.6987 62.479 48.8252 60.8444C51.9517 59.2098 54.5951 56.781 56.4907 53.8012C44.8731 53.9581 33.2557 53.475 21.6911 52.3539Z" fill="#7000FF"/>
<path d="M58.6629 48.2876C59.6515 45.3162 59.9363 42.155 59.4949 39.0541C59.0535 35.9533 57.8979 32.998 56.1195 30.4221C54.3412 27.8462 51.9889 25.7205 49.249 24.213C46.509 22.7056 43.4565 21.8579 40.333 21.7371C37.2095 21.6162 34.1009 22.2255 31.2531 23.5167C28.4052 24.8079 25.8964 26.7455 23.9251 29.1763C21.9538 31.6071 20.5742 34.4643 19.8954 37.5218C19.2167 40.5793 19.2574 43.7531 20.0144 46.792C32.7785 48.9633 45.7697 49.466 58.6629 48.2876Z" fill="#7000FF"/>
<path d="M44.1636 34.7571C45.4639 34.7571 46.5179 33.7009 46.5179 32.398C46.5179 31.0951 45.4639 30.039 44.1636 30.039C42.8634 30.039 41.8094 31.0951 41.8094 32.398C41.8094 33.7009 42.8634 34.7571 44.1636 34.7571Z" fill="white"/>
<path d="M32.0472 43.9287C34.2142 43.9287 35.9709 42.1684 35.9709 39.997C35.9709 37.8255 34.2142 36.0652 32.0472 36.0652C29.8802 36.0652 28.1235 37.8255 28.1235 39.997C28.1235 42.1684 29.8802 43.9287 32.0472 43.9287Z" fill="white"/>
<path d="M91.2668 40.0773C92.7115 40.0773 93.8826 38.9038 93.8826 37.4562C93.8826 36.0086 92.7115 34.8351 91.2668 34.8351C89.8222 34.8351 88.6511 36.0086 88.6511 37.4562C88.6511 38.9038 89.8222 40.0773 91.2668 40.0773Z" fill="#7000FF"/>
<path d="M32.1496 120.286C33.0164 120.286 33.7191 119.581 33.7191 118.713C33.7191 117.844 33.0164 117.14 32.1496 117.14C31.2827 117.14 30.58 117.844 30.58 118.713C30.58 119.581 31.2827 120.286 32.1496 120.286Z" fill="#E6E6E6"/>
<path d="M142.014 174.282C142.88 174.282 143.583 173.578 143.583 172.709C143.583 171.841 142.88 171.137 142.014 171.137C141.147 171.137 140.444 171.841 140.444 172.709C140.444 173.578 141.147 174.282 142.014 174.282Z" fill="#E6E6E6"/>
<path d="M39.7354 89.8799C40.1688 89.8799 40.5202 89.5278 40.5202 89.0935C40.5202 88.6592 40.1688 88.3072 39.7354 88.3072C39.302 88.3072 38.9507 88.6592 38.9507 89.0935C38.9507 89.5278 39.302 89.8799 39.7354 89.8799Z" fill="#E6E6E6"/>
<path d="M104.607 148.594C105.041 148.594 105.392 148.242 105.392 147.808C105.392 147.374 105.041 147.022 104.607 147.022C104.174 147.022 103.823 147.374 103.823 147.808C103.823 148.242 104.174 148.594 104.607 148.594Z" fill="#E6E6E6"/>
<path d="M222.58 140.993C223.014 140.993 223.365 140.641 223.365 140.207C223.365 139.772 223.014 139.42 222.58 139.42C222.147 139.42 221.796 139.772 221.796 140.207C221.796 140.641 222.147 140.993 222.58 140.993Z" fill="#E6E6E6"/>
<path d="M185.698 164.322C186.131 164.322 186.482 163.969 186.482 163.535C186.482 163.101 186.131 162.749 185.698 162.749C185.264 162.749 184.913 163.101 184.913 163.535C184.913 163.969 185.264 164.322 185.698 164.322Z" fill="#E6E6E6"/>
<path d="M147.245 136.013C147.679 136.013 148.03 135.661 148.03 135.226C148.03 134.792 147.679 134.44 147.245 134.44C146.812 134.44 146.46 134.792 146.46 135.226C146.46 135.661 146.812 136.013 147.245 136.013Z" fill="#E6E6E6"/>
<path d="M97.5448 58.4257C97.9782 58.4257 98.3296 58.0736 98.3296 57.6393C98.3296 57.205 97.9782 56.853 97.5448 56.853C97.1114 56.853 96.76 57.205 96.76 57.6393C96.76 58.0736 97.1114 58.4257 97.5448 58.4257Z" fill="#E6E6E6"/>
<path d="M103.823 19.6322C104.256 19.6322 104.607 19.2801 104.607 18.8458C104.607 18.4115 104.256 18.0594 103.823 18.0594C103.389 18.0594 103.038 18.4115 103.038 18.8458C103.038 19.2801 103.389 19.6322 103.823 19.6322Z" fill="#E6E6E6"/>
<path d="M100.161 182.932C100.594 182.932 100.945 182.58 100.945 182.146C100.945 181.711 100.594 181.359 100.161 181.359C99.7272 181.359 99.3759 181.711 99.3759 182.146C99.3759 182.58 99.7272 182.932 100.161 182.932Z" fill="#E6E6E6"/>
<path d="M61.4466 166.418C61.88 166.418 62.2314 166.066 62.2314 165.632C62.2314 165.198 61.88 164.846 61.4466 164.846C61.0132 164.846 60.6619 165.198 60.6619 165.632C60.6619 166.066 61.0132 166.418 61.4466 166.418Z" fill="#E6E6E6"/>
<path d="M184.128 138.11C184.561 138.11 184.913 137.758 184.913 137.323C184.913 136.889 184.561 136.537 184.128 136.537C183.695 136.537 183.343 136.889 183.343 137.323C183.343 137.758 183.695 138.11 184.128 138.11Z" fill="#E6E6E6"/>
<path d="M38.8117 61.2829C40.112 61.2829 41.166 60.2267 41.166 58.9239C41.166 57.621 40.112 56.5648 38.8117 56.5648C37.5115 56.5648 36.4575 57.621 36.4575 58.9239C36.4575 60.2267 37.5115 61.2829 38.8117 61.2829Z" fill="white"/>
<path d="M92.0516 95.1223C92.0516 102.168 81.1805 118.586 78.0035 123.234C77.9076 123.374 77.779 123.489 77.6288 123.568C77.4786 123.648 77.3113 123.689 77.1415 123.689C76.9717 123.689 76.8044 123.648 76.6542 123.568C76.504 123.489 76.3754 123.374 76.2795 123.234C73.1025 118.586 62.2314 102.168 62.2314 95.1223C62.2314 93.1602 62.617 91.2174 63.3663 89.4047C64.1157 87.592 65.2139 85.945 66.5985 84.5576C67.983 83.1702 69.6267 82.0697 71.4356 81.3188C73.2446 80.568 75.1835 80.1815 77.1415 80.1815C79.0995 80.1815 81.0384 80.568 82.8474 81.3188C84.6563 82.0697 86.3 83.1702 87.6845 84.5576C89.0691 85.945 90.1673 87.592 90.9167 89.4047C91.666 91.2174 92.0516 93.1602 92.0516 95.1223Z" fill="white"/>
<path d="M77.1415 101.675C81.331 101.675 84.7273 98.272 84.7273 94.0738C84.7273 89.8757 81.331 86.4724 77.1415 86.4724C72.9519 86.4724 69.5556 89.8757 69.5556 94.0738C69.5556 98.272 72.9519 101.675 77.1415 101.675Z" fill="#7000FF"/>
<path d="M77.0107 131.819C81.8504 131.819 85.7737 131.056 85.7737 130.115C85.7737 129.174 81.8504 128.411 77.0107 128.411C72.1711 128.411 68.2477 129.174 68.2477 130.115C68.2477 131.056 72.1711 131.819 77.0107 131.819Z" fill="white"/>
<path d="M213.673 83.3325C213.607 83.4614 213.551 83.5954 213.506 83.7332L201.006 87.2133L198.754 85.0045L194.983 87.9751L198.591 92.2736C198.883 92.6209 199.279 92.864 199.72 92.9665C200.161 93.069 200.624 93.0254 201.038 92.8421L214.54 86.8698C214.998 87.1884 215.542 87.3597 216.099 87.361C216.657 87.3622 217.202 87.1933 217.661 86.8767C218.121 86.5601 218.473 86.1109 218.672 85.5887C218.87 85.0665 218.905 84.4962 218.772 83.9536C218.639 83.4109 218.345 82.9217 217.927 82.551C217.51 82.1802 216.99 81.9455 216.437 81.8781C215.883 81.8107 215.322 81.9137 214.829 82.1735C214.335 82.4333 213.932 82.8376 213.673 83.3325Z" fill="#FFB8B8"/>
<path d="M200.566 87.4173L195.875 91.0763C195.741 91.1804 195.587 91.2545 195.422 91.2934C195.258 91.3324 195.086 91.3354 194.921 91.3021C194.755 91.2688 194.598 91.2001 194.461 91.1007C194.324 91.0012 194.21 90.8734 194.127 90.7258L191.211 85.5549C190.683 84.8675 190.449 83.9985 190.56 83.1382C190.67 82.278 191.117 81.4969 191.801 80.9662C192.486 80.4355 193.353 80.1985 194.211 80.3072C195.07 80.4159 195.851 80.8614 196.382 81.546L200.656 85.6334C200.778 85.7505 200.874 85.8926 200.937 86.0501C200.999 86.2075 201.027 86.3767 201.019 86.546C201.01 86.7153 200.965 86.8807 200.887 87.0311C200.809 87.1814 200.7 87.3131 200.566 87.4173Z" fill="#7000FF"/>
<path d="M214.872 81.6018L219.629 83.7467C219.829 83.8365 219.984 84.002 220.062 84.2067C220.139 84.4113 220.132 84.6385 220.043 84.8381L219.479 86.0927C219.546 86.1228 219.597 86.178 219.623 86.2462C219.649 86.3143 219.647 86.3899 219.617 86.4565L219.392 86.9583C219.362 87.0247 219.307 87.0765 219.239 87.1024C219.171 87.1282 219.095 87.1261 219.029 87.0964L218.803 87.5982C218.87 87.6283 218.921 87.6835 218.947 87.7517C218.973 87.8198 218.971 87.8955 218.941 87.962L218.716 88.4639C218.686 88.5303 218.631 88.582 218.563 88.6079C218.495 88.6338 218.419 88.6316 218.353 88.6019L215.311 95.3766C215.221 95.5763 215.056 95.7321 214.852 95.8097C214.648 95.8874 214.421 95.8805 214.222 95.7907L209.464 93.6458C209.265 93.556 209.11 93.3906 209.032 93.1859C208.955 92.9812 208.961 92.7541 209.051 92.5544L213.783 82.0159C213.872 81.8163 214.037 81.6605 214.242 81.5828C214.446 81.5052 214.673 81.512 214.872 81.6018Z" fill="#3F3D56"/>
<path d="M210.328 92.9783L214.145 94.7007C214.336 94.7864 214.553 94.7928 214.749 94.7186C214.945 94.6444 215.104 94.4956 215.191 94.3045L216.954 90.3755L217.566 89.0135L219.161 85.4587C219.247 85.2674 219.253 85.0501 219.179 84.8542C219.105 84.6583 218.956 84.4998 218.766 84.4131L217.566 83.8711L214.946 82.6908C214.755 82.6052 214.538 82.5992 214.342 82.674C214.147 82.7488 213.989 82.8983 213.903 83.0897L212.36 86.5263L210.603 90.4388L209.933 91.9328C209.847 92.124 209.841 92.3414 209.915 92.5374C209.989 92.7334 210.138 92.8919 210.328 92.9783Z" fill="#F2F2F2"/>
<path d="M202.353 141.66L205.56 141.66L207.086 129.265L202.353 129.265L202.353 141.66Z" fill="#FFB8B8"/>
<path d="M201.535 140.611L207.851 140.611C208.379 140.611 208.903 140.715 209.391 140.918C209.88 141.12 210.323 141.417 210.697 141.792C211.071 142.166 211.367 142.611 211.569 143.1C211.772 143.59 211.876 144.114 211.876 144.644V144.775L201.535 144.775L201.535 140.611Z" fill="#2F2E41"/>
<path d="M210.724 140.874L213.931 140.873L215.456 128.478L210.723 128.479L210.724 140.874Z" fill="#FFB8B8"/>
<path d="M209.906 139.825L216.221 139.824C216.75 139.824 217.273 139.929 217.762 140.131C218.25 140.334 218.694 140.631 219.067 141.005C219.441 141.38 219.738 141.825 219.94 142.314C220.142 142.803 220.246 143.328 220.246 143.857V143.988L209.906 143.989L209.906 139.825Z" fill="#2F2E41"/>
<path d="M187.968 112.574C188.651 114.604 189.947 116.37 191.677 117.629C193.406 118.888 195.483 119.577 197.62 119.602L197.783 119.604C199.438 119.651 201.382 119.117 203.289 118.349C207.056 116.831 210.673 114.401 211.633 113.733L210.006 129.405L209.347 135.758C209.331 135.923 209.348 136.089 209.4 136.246C209.451 136.403 209.535 136.547 209.645 136.67C209.755 136.793 209.89 136.891 210.041 136.958C210.191 137.026 210.354 137.061 210.519 137.061H214.581C214.842 137.061 215.095 136.975 215.301 136.816C215.508 136.656 215.656 136.433 215.722 136.18L222.429 110.585C222.63 109.819 222.646 109.015 222.476 108.242C222.306 107.468 221.954 106.746 221.451 106.136C220.947 105.525 220.305 105.044 219.578 104.731C218.852 104.419 218.062 104.284 217.273 104.338L203.341 105.295L204.314 101.395L191.879 100.566L191.842 100.593C191.544 100.81 191.254 101.038 190.976 101.277C190.283 101.864 189.668 102.539 189.148 103.285C188.217 104.622 187.623 106.166 187.417 107.784C187.212 109.402 187.401 111.045 187.968 112.574Z" fill="#2F2E41"/>
<path d="M187.968 112.574C188.651 114.604 189.947 116.37 191.677 117.629C193.406 118.888 195.483 119.577 197.62 119.602C199.664 118.565 201.637 117.392 203.524 116.092L203.289 118.349L201.238 138.118C201.222 138.282 201.239 138.448 201.291 138.605C201.342 138.762 201.425 138.907 201.536 139.029C201.646 139.152 201.781 139.25 201.932 139.318C202.082 139.385 202.245 139.42 202.41 139.42H206.472C206.733 139.42 206.986 139.334 207.192 139.175C207.399 139.015 207.547 138.792 207.613 138.54L210.006 129.405L214.32 112.944C214.521 112.178 214.537 111.374 214.367 110.601C214.197 109.827 213.845 109.105 213.341 108.495C212.838 107.884 212.196 107.403 211.469 107.09C210.743 106.778 209.953 106.643 209.164 106.697L195.232 107.654L196.205 103.754L189.148 103.285C188.216 104.622 187.623 106.166 187.417 107.784C187.212 109.402 187.401 111.045 187.968 112.574Z" fill="#2F2E41"/>
<path d="M190.959 102.181L190.865 102.17L188.695 91.4792C188.677 91.3864 186.903 82.1653 192.341 77.3447L192.435 76.6849C192.46 76.5161 192.52 76.3545 192.613 76.2113C192.705 76.0682 192.828 75.9469 192.972 75.8557C193.116 75.7646 193.278 75.7058 193.446 75.6834C193.615 75.6611 193.787 75.6756 193.949 75.7262L199.072 77.3184C199.362 77.408 199.606 77.6065 199.754 77.8724C199.901 78.1383 199.94 78.4509 199.862 78.7449L199.364 80.6431C200.054 81.4556 208.183 91.262 205.352 98.8171L204.084 103.785L190.959 102.181Z" fill="#7000FF"/>
<path d="M212.23 93.8376C212.108 93.9148 211.992 94.0016 211.883 94.0971L199.354 90.7268L198.535 87.6773L193.78 88.3145L194.707 93.8542C194.782 94.3018 194.999 94.7129 195.327 95.0259C195.655 95.3389 196.075 95.5369 196.525 95.5901L211.182 97.3251C211.415 97.8328 211.796 98.2574 212.276 98.5425C212.756 98.8276 213.31 98.9597 213.867 98.9211C214.423 98.8825 214.954 98.6752 215.39 98.3266C215.826 97.9781 216.145 97.5048 216.306 96.9698C216.467 96.4348 216.462 95.8634 216.29 95.3316C216.119 94.7999 215.791 94.3329 215.348 93.9929C214.906 93.6528 214.37 93.4559 213.813 93.4281C213.257 93.4004 212.704 93.5432 212.23 93.8376Z" fill="#FFB8B8"/>
<path d="M198.871 90.6782L192.975 91.4392C192.807 91.4609 192.636 91.446 192.475 91.3957C192.313 91.3454 192.165 91.2608 192.039 91.1477C191.913 91.0345 191.812 90.8955 191.745 90.7401C191.677 90.5847 191.644 90.4165 191.647 90.2471L191.76 84.3089C191.654 83.4481 191.893 82.5804 192.425 81.8961C192.957 81.2119 193.738 80.7668 194.596 80.6585C195.455 80.5502 196.322 80.7876 197.006 81.3186C197.69 81.8495 198.136 82.6307 198.247 83.4909L199.853 89.1879C199.899 89.351 199.91 89.5221 199.884 89.6896C199.858 89.8571 199.796 90.017 199.703 90.1584C199.61 90.2999 199.487 90.4195 199.343 90.5092C199.2 90.5989 199.039 90.6565 198.871 90.6782Z" fill="#7000FF"/>
<path d="M197.211 74.2751C200.76 74.2751 203.636 71.3928 203.636 67.8372C203.636 64.2817 200.76 61.3993 197.211 61.3993C193.663 61.3993 190.787 64.2817 190.787 67.8372C190.787 71.3928 193.663 74.2751 197.211 74.2751Z" fill="#FFB8B8"/>
<path d="M196.873 68.3749L196.069 66.9071C194.545 73.1277 197.237 78.276 197.237 78.276L186.791 73.4003L186.891 71.6704L185.857 72.8457L184.372 72.0256L184.176 70.9036L183.055 71.1818L187.147 63.741C191.118 56.6603 196.892 59.3637 196.892 59.3637C206.077 58.9261 204.956 68.0071 204.956 68.0071L196.873 68.3749Z" fill="#2F2E41"/>
<path d="M123.738 116.351C125.22 115.399 123.418 109.935 119.715 104.146C116.011 98.3573 111.808 94.4358 110.327 95.3874C108.846 96.3389 110.647 101.803 114.35 107.592C118.054 113.381 122.257 117.302 123.738 116.351Z" fill="#3F3D56"/>
</g>
<defs>
<clipPath id="clip0_188_2787">
<rect width="257" height="200" fill="white"/>
</clipPath>
</defs>
</svg>
