<svg width="267" height="284" viewBox="0 0 267 284" fill="none" xmlns="http://www.w3.org/2000/svg">
<g clip-path="url(#clip0_188_2911)">
<path d="M125.391 162.579C106.691 162.579 85.1999 141.858 66.1854 151.703C8.61468 181.512 16.5396 131.632 0 113.081L0.542998 111.994C18.7925 128.333 41.5777 141.627 66.4354 150.438C88.8989 158.402 111.531 162.091 131.876 161.118L131.912 162.425C129.763 162.528 127.59 162.58 125.391 162.579Z" fill="#F2F2F2"/>
<path d="M261.896 42.144C246.989 53.4179 217.327 49.8563 208.123 69.1679C180.253 127.638 156.411 83.098 132.009 78.2812L131.784 77.087C156.212 79.11 182.414 75.971 207.557 68.0088C230.279 60.8141 250.552 50.111 266.181 37.069L267 38.0898C265.35 39.4677 263.648 40.8191 261.896 42.144Z" fill="#F2F2F2"/>
<path d="M41.4352 75.6169C43.594 75.6169 45.3441 73.2737 45.3441 70.3831C45.3441 67.4925 43.594 65.1492 41.4352 65.1492C39.2764 65.1492 37.5264 67.4925 37.5264 70.3831C37.5264 73.2737 39.2764 75.6169 41.4352 75.6169Z" fill="#E6E6E6"/>
<path d="M205.705 124.594C207.864 124.594 209.614 122.251 209.614 119.36C209.614 116.47 207.864 114.127 205.705 114.127C203.546 114.127 201.796 116.47 201.796 119.36C201.796 122.251 203.546 124.594 205.705 124.594Z" fill="#E6E6E6"/>
<path d="M98.3512 10.4677C100.51 10.4677 102.26 8.12446 102.26 5.23387C102.26 2.34328 100.51 0 98.3512 0C96.1924 0 94.4423 2.34328 94.4423 5.23387C94.4423 8.12446 96.1924 10.4677 98.3512 10.4677Z" fill="#E6E6E6"/>
<path d="M168.429 193.198L163.884 165.902C163.792 165.349 163.924 164.783 164.25 164.328C164.576 163.872 165.07 163.564 165.623 163.472L186.268 160.044C186.822 159.953 187.389 160.084 187.845 160.41C188.301 160.736 188.61 161.229 188.702 161.781L193.248 189.077C193.339 189.63 193.207 190.196 192.881 190.651C192.555 191.107 192.061 191.415 191.508 191.507L170.863 194.935C170.31 195.026 169.743 194.895 169.286 194.569C168.83 194.243 168.522 193.75 168.429 193.198Z" fill="#3F3D56"/>
<path d="M168.64 184.69L165.717 167.142C165.632 166.625 165.755 166.094 166.061 165.668C166.366 165.241 166.829 164.953 167.347 164.866L185.089 161.92C185.608 161.835 186.139 161.958 186.566 162.263C186.993 162.568 187.282 163.03 187.369 163.547L191.414 187.837C191.499 188.354 191.376 188.885 191.07 189.311C190.765 189.738 190.302 190.026 189.784 190.113L178.793 191.938C176.485 192.319 174.119 191.769 172.216 190.411C170.312 189.052 169.026 186.995 168.64 184.69Z" fill="white"/>
<path d="M169.406 171.561C169.322 171.056 169.443 170.538 169.741 170.121C170.04 169.704 170.492 169.422 170.998 169.337L183.306 167.294C183.557 167.252 183.813 167.26 184.061 167.317C184.308 167.375 184.542 167.48 184.749 167.628C184.956 167.776 185.132 167.963 185.266 168.178C185.401 168.393 185.491 168.633 185.533 168.884C185.575 169.134 185.567 169.39 185.509 169.638C185.452 169.885 185.346 170.118 185.198 170.325C185.051 170.531 184.863 170.707 184.648 170.841C184.432 170.976 184.192 171.066 183.941 171.108L171.633 173.151C171.127 173.235 170.608 173.114 170.19 172.816C169.772 172.518 169.49 172.067 169.406 171.561Z" fill="#7000FF"/>
<path d="M170.394 177.495C170.31 176.989 170.431 176.471 170.729 176.054C171.028 175.637 171.48 175.355 171.986 175.27L184.294 173.227C184.545 173.185 184.801 173.193 185.049 173.251C185.296 173.308 185.53 173.413 185.737 173.561C185.944 173.709 186.12 173.896 186.254 174.111C186.389 174.326 186.479 174.566 186.521 174.817C186.563 175.067 186.555 175.323 186.497 175.571C186.44 175.818 186.334 176.051 186.186 176.258C186.039 176.465 185.851 176.64 185.636 176.774C185.42 176.909 185.18 176.999 184.929 177.041L172.621 179.084C172.115 179.168 171.596 179.047 171.178 178.749C170.76 178.451 170.478 178 170.394 177.495Z" fill="#7000FF"/>
<path d="M171.382 183.428C171.298 182.922 171.419 182.404 171.717 181.987C172.016 181.57 172.468 181.288 172.974 181.203L185.282 179.16C185.788 179.076 186.308 179.196 186.725 179.494C187.143 179.792 187.425 180.244 187.509 180.75C187.593 181.255 187.473 181.774 187.174 182.191C186.876 182.608 186.423 182.89 185.917 182.974L173.609 185.017C173.103 185.101 172.584 184.98 172.166 184.682C171.748 184.384 171.466 183.933 171.382 183.428Z" fill="#7000FF"/>
<path d="M159.108 167.471C158.57 166.866 158.171 166.152 157.94 165.377C157.709 164.603 157.651 163.787 157.769 162.987C157.888 162.187 158.181 161.424 158.627 160.749C159.074 160.075 159.663 159.506 160.353 159.084L153.152 124.846L162.696 128.51L168.222 161.22C168.856 162.424 169.025 163.819 168.697 165.141C168.37 166.462 167.569 167.617 166.445 168.387C165.322 169.158 163.954 169.49 162.602 169.321C161.25 169.152 160.006 168.494 159.108 167.471Z" fill="#FFB8B8"/>
<path d="M155.93 275.759L163.786 275.759L167.524 245.501L155.929 245.502L155.93 275.759Z" fill="#FFB6B6"/>
<path d="M153.926 273.198L156.137 273.198L164.771 269.692L169.398 273.197H169.398C172.013 273.198 174.521 274.235 176.37 276.081C178.219 277.927 179.258 280.431 179.258 283.043V283.362L153.927 283.363L153.926 273.198Z" fill="#2F2E41"/>
<path d="M84.945 265.56L91.9762 269.059L108.839 243.644L98.4614 238.48L84.945 265.56Z" fill="#FFB6B6"/>
<path d="M84.2956 262.375L86.2747 263.36L95.5675 264.068L98.1427 269.267L98.1432 269.267C100.483 270.432 102.264 272.477 103.094 274.953C103.924 277.429 103.736 280.133 102.569 282.47L102.426 282.756L79.7546 271.473L84.2956 262.375Z" fill="#2F2E41"/>
<path d="M159.411 138.339L109.459 139.641L110.328 163.929C110.328 163.929 109.459 170.435 111.197 172.17C112.934 173.905 113.803 173.905 112.934 176.941C112.066 179.977 109.82 208.985 109.82 208.985C109.82 208.985 89.3182 245.182 90.1869 246.05C91.0556 246.917 91.9244 246.05 91.0556 248.218C90.1869 250.387 89.3182 249.519 90.1869 250.387C90.9564 251.215 91.6814 252.084 92.3587 252.989H106.517C106.517 252.989 107.309 248.652 107.309 248.218C107.309 247.784 108.178 245.182 108.178 244.748C108.178 244.315 132.915 218.144 132.915 218.144L138.127 174.772L150.724 217.277C150.724 217.277 150.724 254.577 151.592 255.444C152.461 256.312 152.461 255.878 152.027 257.613C151.592 259.348 149.855 258.914 151.158 260.215C152.461 261.516 152.895 259.348 152.461 261.516L152.027 263.685L168.714 263.871C168.714 263.871 170.452 260.215 169.583 258.914C168.714 257.613 168.767 257.968 169.826 255.839C170.886 253.709 171.321 253.276 170.886 252.842C170.452 252.408 170.452 250.101 170.452 250.101C170.452 250.101 164.189 164.797 164.189 163.495C164.156 162.826 164.28 162.158 164.55 161.544V159.778L162.886 153.52L159.411 138.339Z" fill="#2F2E41"/>
<path d="M204.44 259.459L204.871 249.782C209.364 247.384 214.375 246.117 219.47 246.092C212.458 251.816 213.334 262.85 208.58 270.547C207.079 272.937 205.059 274.958 202.669 276.462C200.279 277.966 197.581 278.914 194.775 279.235L188.907 282.822C188.102 278.34 188.279 273.737 189.427 269.33C190.575 264.924 192.666 260.818 195.556 257.295C197.197 255.336 199.079 253.59 201.157 252.099C202.562 255.8 204.44 259.459 204.44 259.459Z" fill="#F2F2F2"/>
<path d="M133.546 53.1599L158.566 103.686L153.671 165.006L121.699 162.089L115.966 60.5389L133.546 53.1599Z" fill="#2F2E41"/>
<path d="M168.679 158.236L154.059 156.902L154.036 156.717L144.225 75.5991L146.421 69.5204C146.946 68.0773 147.836 66.7943 149.005 65.7963C150.174 64.7983 151.581 64.1192 153.09 63.8249C154.24 63.6038 155.422 63.6117 156.569 63.8489C157.716 64.086 158.804 64.5473 159.771 65.2063C160.739 65.8652 161.566 66.7088 162.205 67.6884C162.844 68.6679 163.283 69.7641 163.496 70.9138L166.122 85.0752L169.847 132.945L168.679 158.236Z" fill="#2F2E41"/>
<path d="M130.614 60.6528L133.563 53.6086L142.688 53.7686L152.204 67.2094L162.192 109.151C162.192 109.151 165.78 139.79 162.192 141.407C158.605 143.024 146.446 141.027 146.446 141.027L130.614 60.6528Z" fill="#7000FF"/>
<path d="M142.688 53.7686C142.688 53.7686 162.347 65.1155 163.116 71.0386C163.885 76.9617 166.459 149.457 166.459 149.457L159.507 144.972L157.607 118.55L149.123 64.4534L142.688 53.7686Z" fill="#2F2E41"/>
<path d="M138.048 50.4682C145.447 50.4682 151.446 44.4786 151.446 37.0901C151.446 29.7016 145.447 23.7121 138.048 23.7121C130.648 23.7121 124.65 29.7016 124.65 37.0901C124.65 44.4786 130.648 50.4682 138.048 50.4682Z" fill="#FFB8B8"/>
<path d="M122.851 28.2998C124.355 25.9758 127.179 24.4269 129.915 24.8622C130.17 23.1181 130.899 21.4773 132.023 20.1184C133.147 18.7594 134.623 17.7344 136.29 17.155C137.957 16.5755 139.751 16.4639 141.477 16.8321C143.203 17.2004 144.795 18.0345 146.079 19.2436C146.502 18.9467 146.994 18.7637 147.508 18.7123C148.022 18.661 148.54 18.743 149.013 18.9504C149.955 19.3781 150.775 20.0349 151.396 20.8607C152.967 22.8163 153.977 25.1604 154.319 27.6437C154.661 30.1269 154.322 32.6563 153.339 34.9626C153.673 33.7485 152.455 32.6062 151.224 32.3338C149.992 32.0613 148.701 32.3191 147.452 32.1416C145.852 31.9143 144.414 30.9873 142.811 30.7787C141.464 30.6034 140.109 30.9482 138.796 31.2939C137.482 31.6395 136.131 31.992 134.782 31.8321C133.433 31.6721 131.696 36.7768 131.719 40.3722C131.723 41.0535 131.583 41.9283 130.916 42.0729C130.095 42.2509 129.619 41.1192 128.837 40.8108C128.477 40.7077 128.091 40.7483 127.76 40.9239C127.429 41.0996 127.179 41.3967 127.064 41.7526C126.965 42.1144 126.955 42.4944 127.033 42.8611C127.111 43.2278 127.276 43.5705 127.514 43.8607C127.994 44.436 128.565 44.9301 129.203 45.3238L128.881 45.5911C128.345 46.2975 127.235 46.3281 126.463 45.8911C125.725 45.392 125.127 44.7124 124.727 43.9172C123.299 41.5457 122.046 39.0189 121.542 36.2978C121.038 33.5767 121.347 30.6238 122.851 28.2998Z" fill="#2F2E41"/>
<path d="M93.6687 127.377L120.436 98.702C120.978 98.1223 121.729 97.781 122.523 97.7531C123.317 97.7253 124.089 98.0131 124.671 98.5534L146.359 118.739C146.94 119.28 147.281 120.03 147.309 120.823C147.337 121.615 147.049 122.387 146.508 122.968L119.741 151.643C119.199 152.223 118.448 152.564 117.654 152.592C116.86 152.62 116.087 152.332 115.505 151.792L93.8176 131.606C93.2369 131.065 92.8952 130.315 92.8673 129.522C92.8394 128.729 93.1276 127.958 93.6687 127.377Z" fill="#E6E6E6"/>
<path d="M103.417 120.264L120.625 101.829C121.133 101.286 121.836 100.967 122.58 100.941C123.323 100.915 124.047 101.184 124.592 101.69L143.231 119.038C143.775 119.545 144.095 120.247 144.121 120.989C144.147 121.732 143.877 122.455 143.37 122.999L119.552 148.515C119.044 149.058 118.341 149.378 117.597 149.404C116.853 149.43 116.129 149.161 115.585 148.655L104.038 137.908C101.616 135.649 100.19 132.522 100.074 129.214C99.9574 125.907 101.16 122.688 103.417 120.264Z" fill="white"/>
<path d="M118.842 109.782C119.338 109.251 120.025 108.939 120.752 108.913C121.478 108.888 122.186 109.151 122.718 109.646L135.648 121.68C136.18 122.175 136.493 122.861 136.519 123.587C136.544 124.313 136.28 125.019 135.784 125.55C135.288 126.082 134.601 126.395 133.874 126.42C133.147 126.446 132.44 126.182 131.908 125.686L118.978 113.653C118.446 113.157 118.134 112.471 118.108 111.745C118.083 111.02 118.346 110.314 118.842 109.782Z" fill="#E6E6E6"/>
<path d="M113.024 116.015C113.52 115.484 114.207 115.172 114.934 115.146C115.66 115.121 116.368 115.384 116.9 115.879L129.83 127.912C130.093 128.158 130.306 128.452 130.455 128.78C130.605 129.107 130.688 129.46 130.701 129.82C130.713 130.179 130.655 130.537 130.529 130.874C130.403 131.211 130.212 131.52 129.966 131.783C129.72 132.046 129.425 132.258 129.098 132.408C128.77 132.557 128.416 132.64 128.056 132.653C127.696 132.665 127.337 132.607 127 132.481C126.662 132.355 126.353 132.164 126.09 131.919L113.16 119.885C112.628 119.39 112.316 118.704 112.29 117.978C112.265 117.252 112.528 116.546 113.024 116.015Z" fill="#E6E6E6"/>
<path d="M107.206 122.247C107.702 121.717 108.389 121.404 109.116 121.379C109.842 121.353 110.55 121.617 111.082 122.111L124.012 134.145C124.544 134.64 124.857 135.326 124.883 136.052C124.908 136.778 124.644 137.485 124.148 138.016C123.652 138.547 122.965 138.86 122.238 138.886C121.511 138.911 120.804 138.647 120.272 138.152L107.342 126.118C106.81 125.622 106.498 124.936 106.472 124.211C106.447 123.485 106.71 122.779 107.206 122.247Z" fill="#E6E6E6"/>
<path d="M138.665 156.425L129.411 169.657L128.98 170.175C128.23 171.075 127.195 171.693 126.046 171.924C125.883 171.957 125.72 171.981 125.555 171.998C125.353 172.018 125.149 172.027 124.945 172.023C124.829 172.021 124.712 172.014 124.596 172.004C123.921 171.946 123.264 171.755 122.663 171.442L118.715 168.688C118.401 168.47 118.177 168.144 118.084 167.773C118.038 167.589 118.025 167.399 118.045 167.211C118.074 166.947 118.17 166.695 118.322 166.478L129.717 150.185C129.959 149.84 130.328 149.605 130.743 149.532C131.158 149.458 131.585 149.552 131.931 149.793L138.272 154.214C138.287 154.225 138.302 154.235 138.316 154.246C138.326 154.253 138.335 154.26 138.344 154.268C138.357 154.277 138.369 154.288 138.381 154.298C138.397 154.31 138.412 154.323 138.426 154.336C138.439 154.348 138.453 154.361 138.466 154.373L138.473 154.381C138.49 154.397 138.506 154.413 138.522 154.43C138.538 154.446 138.553 154.463 138.568 154.481C138.579 154.493 138.59 154.506 138.6 154.519L138.601 154.52C138.632 154.558 138.661 154.598 138.687 154.639C138.696 154.651 138.704 154.664 138.712 154.677L138.716 154.683C138.722 154.693 138.728 154.704 138.734 154.714C138.753 154.745 138.77 154.778 138.786 154.81C138.813 154.864 138.837 154.92 138.857 154.977C138.864 154.995 138.87 155.013 138.875 155.031C138.88 155.046 138.885 155.061 138.889 155.077L138.89 155.08L138.892 155.087C138.896 155.1 138.9 155.113 138.903 155.126C138.909 155.152 138.915 155.178 138.92 155.203C138.922 155.21 138.923 155.217 138.925 155.225C138.926 155.232 138.927 155.239 138.928 155.246C138.93 155.253 138.931 155.26 138.932 155.267L138.934 155.279C138.937 155.3 138.94 155.321 138.942 155.342C138.945 155.368 138.947 155.394 138.949 155.42C138.95 155.442 138.951 155.464 138.951 155.485C138.952 155.505 138.952 155.524 138.952 155.544C138.952 155.549 138.952 155.554 138.951 155.559C138.951 155.579 138.95 155.599 138.949 155.619C138.946 155.67 138.94 155.72 138.932 155.769C138.929 155.788 138.925 155.806 138.922 155.824C138.917 155.847 138.913 155.869 138.907 155.89C138.906 155.898 138.903 155.907 138.901 155.915C138.898 155.927 138.895 155.939 138.891 155.951C138.888 155.964 138.884 155.978 138.879 155.991L138.869 156.022C138.863 156.041 138.856 156.059 138.849 156.078C138.845 156.089 138.841 156.1 138.836 156.111C138.804 156.19 138.766 156.266 138.722 156.339C138.716 156.347 138.711 156.356 138.705 156.365C138.692 156.386 138.679 156.405 138.665 156.425Z" fill="white"/>
<path d="M132.398 156.928C133.148 156.928 133.757 156.321 133.757 155.571C133.757 154.822 133.148 154.215 132.398 154.215C131.648 154.215 131.04 154.822 131.04 155.571C131.04 156.321 131.648 156.928 132.398 156.928Z" fill="#7000FF"/>
<path d="M117.052 169.905C116.515 169.301 116.116 168.586 115.885 167.812C115.654 167.037 115.595 166.221 115.714 165.421C115.833 164.622 116.126 163.858 116.572 163.184C117.019 162.509 117.608 161.941 118.298 161.518L111.097 127.28L120.641 130.944L126.167 163.654C126.8 164.859 126.97 166.254 126.642 167.575C126.315 168.896 125.514 170.051 124.39 170.822C123.267 171.592 121.899 171.925 120.547 171.756C119.194 171.587 117.951 170.928 117.052 169.905Z" fill="#FFB8B8"/>
<path d="M111.765 156.012L107.88 131.021L106.421 83.0248L107.505 68.6392C107.593 67.4733 107.911 66.3363 108.442 65.2937C108.972 64.2511 109.703 63.3236 110.594 62.5646C111.484 61.8055 112.516 61.2299 113.631 60.871C114.745 60.512 115.92 60.3769 117.087 60.4732C118.619 60.6036 120.091 61.1275 121.361 61.9941C122.63 62.8607 123.654 64.0405 124.332 65.4188L127.17 71.2263L126.156 153.114L111.765 156.012Z" fill="#2F2E41"/>
<path d="M233.943 283.282C233.943 283.377 233.925 283.47 233.889 283.557C233.853 283.644 233.8 283.724 233.733 283.79C233.666 283.857 233.587 283.91 233.499 283.946C233.412 283.982 233.319 284 233.224 284H39.7791C39.5885 284 39.4057 283.924 39.2709 283.79C39.1362 283.655 39.0604 283.473 39.0604 283.282C39.0604 283.092 39.1362 282.909 39.2709 282.775C39.4057 282.64 39.5885 282.565 39.7791 282.565H233.224C233.319 282.564 233.412 282.583 233.499 282.619C233.587 282.655 233.666 282.708 233.733 282.774C233.8 282.841 233.853 282.92 233.889 283.007C233.925 283.095 233.943 283.188 233.943 283.282Z" fill="#CCCCCC"/>
<path d="M127.556 42.5127C127.565 42.3612 127.611 42.2141 127.689 42.0844C127.768 41.9547 127.878 41.8463 128.009 41.769C128.139 41.6916 128.287 41.6475 128.439 41.6407C128.591 41.6338 128.742 41.6644 128.879 41.7297C129.016 41.795 129.135 41.8931 129.225 42.0151C129.315 42.1372 129.374 42.2796 129.396 42.4297C129.418 42.5798 129.403 42.7331 129.352 42.8759C129.3 43.0187 129.215 43.1467 129.102 43.2486L130.657 45.8009C130.721 45.9056 130.741 46.0313 130.712 46.1504C130.683 46.2694 130.608 46.3721 130.503 46.4358C130.398 46.4995 130.272 46.519 130.153 46.4901C130.034 46.4611 129.931 46.386 129.867 46.2813L128.118 43.4115C127.943 43.3376 127.795 43.2115 127.695 43.0507C127.594 42.8898 127.546 42.702 127.556 42.5127Z" fill="white"/>
<path d="M128.648 44.2478C128.705 44.3617 128.845 44.4075 128.959 44.35C129.073 44.2925 129.119 44.1536 129.061 44.0397L128.644 43.2146C128.587 43.1007 128.448 43.0549 128.334 43.1123C128.219 43.1698 128.174 43.3087 128.231 43.4227L128.648 44.2478Z" fill="#2F2E41"/>
</g>
<defs>
<clipPath id="clip0_188_2911">
<rect width="267" height="284" fill="white"/>
</clipPath>
</defs>
</svg>
