<svg width="345" height="233" viewBox="0 0 345 233" fill="none" xmlns="http://www.w3.org/2000/svg">
<g clip-path="url(#clip0_188_3082)">
<path d="M335.933 226.213H6.14441V227.118H335.933V226.213Z" fill="#3F3D56"/>
<path d="M6.34691 233C9.85221 233 12.6938 230.164 12.6938 226.665C12.6938 223.167 9.85221 220.331 6.34691 220.331C2.84161 220.331 0 223.167 0 226.665C0 230.164 2.84161 233 6.34691 233Z" fill="#3F3D56"/>
<path d="M338.653 233C342.158 233 345 230.164 345 226.665C345 223.167 342.158 220.331 338.653 220.331C335.148 220.331 332.306 223.167 332.306 226.665C332.306 230.164 335.148 233 338.653 233Z" fill="#3F3D56"/>
<path d="M185.297 226.689H56.0921C55.0104 226.687 53.9733 226.258 53.2084 225.495C52.4434 224.731 52.0132 223.696 52.012 222.616V4.07225C52.0132 2.9926 52.4434 1.95751 53.2084 1.19408C53.9733 0.430646 55.0104 0.00121675 56.0921 0H185.297C186.379 0.00121675 187.416 0.430646 188.181 1.19408C188.946 1.95751 189.376 2.9926 189.377 4.07225V222.616C189.376 223.696 188.946 224.731 188.181 225.495C187.416 226.258 186.379 226.687 185.297 226.689ZM56.0921 0.904945C55.2508 0.905924 54.4442 1.23994 53.8492 1.83371C53.2543 2.42748 52.9196 3.23253 52.9187 4.07225V222.616C52.9196 223.456 53.2543 224.261 53.8492 224.855C54.4442 225.449 55.2508 225.783 56.0921 225.784H185.297C186.138 225.783 186.945 225.449 187.54 224.855C188.135 224.261 188.47 223.456 188.471 222.616V4.07225C188.47 3.23253 188.135 2.42748 187.54 1.83371C186.945 1.23994 186.138 0.905924 185.297 0.904945H56.0921Z" fill="#3F3D56"/>
<path d="M138.375 13.1217H103.014C102.894 13.1217 102.778 13.074 102.693 12.9892C102.608 12.9043 102.561 12.7892 102.561 12.6692C102.561 12.5492 102.608 12.4341 102.693 12.3493C102.778 12.2644 102.894 12.2168 103.014 12.2168H138.375C138.495 12.2168 138.611 12.2644 138.696 12.3493C138.781 12.4341 138.829 12.5492 138.829 12.6692C138.829 12.7892 138.781 12.9043 138.696 12.9892C138.611 13.074 138.495 13.1217 138.375 13.1217Z" fill="#3F3D56"/>
<path d="M170.336 210.4H70.5993C69.5176 210.398 68.4805 209.969 67.7156 209.206C66.9506 208.442 66.5204 207.407 66.5192 206.327V28.9582C66.5204 27.8786 66.9506 26.8435 67.7156 26.0801C68.4805 25.3166 69.5176 24.8872 70.5993 24.886H170.336C171.418 24.8872 172.455 25.3166 173.22 26.0801C173.985 26.8435 174.415 27.8786 174.417 28.9582V206.327C174.415 207.407 173.985 208.442 173.22 209.206C172.455 209.969 171.418 210.398 170.336 210.4ZM70.5993 25.7909C69.758 25.7919 68.9514 26.1259 68.3564 26.7197C67.7615 27.3135 67.4268 28.1185 67.4259 28.9582V206.327C67.4268 207.167 67.7615 207.972 68.3564 208.566C68.9514 209.16 69.758 209.494 70.5993 209.495H170.336C171.178 209.494 171.984 209.16 172.579 208.566C173.174 207.972 173.509 207.167 173.51 206.327V28.9582C173.509 28.1185 173.174 27.3135 172.579 26.7197C171.984 26.1259 171.178 25.7919 170.336 25.7909H70.5993Z" fill="#3F3D56"/>
<path d="M190.511 46.6047C189.97 46.6041 189.451 46.3894 189.069 46.0076C188.686 45.6259 188.471 45.1084 188.471 44.5685V35.9716C188.471 35.4315 188.686 34.9136 189.068 34.5318C189.451 34.1499 189.97 33.9354 190.511 33.9354C191.052 33.9354 191.571 34.1499 191.953 34.5318C192.336 34.9136 192.551 35.4315 192.551 35.9716V44.5685C192.55 45.1084 192.335 45.6259 191.953 46.0076C191.57 46.3894 191.052 46.6041 190.511 46.6047ZM190.511 34.8404C190.21 34.8407 189.922 34.96 189.71 35.172C189.497 35.3841 189.378 35.6716 189.377 35.9716V44.5685C189.377 44.8685 189.497 45.1563 189.709 45.3684C189.922 45.5805 190.21 45.6997 190.511 45.6997C190.811 45.6997 191.1 45.5805 191.312 45.3684C191.525 45.1563 191.644 44.8685 191.644 44.5685V35.9716C191.644 35.6716 191.524 35.3841 191.312 35.172C191.099 34.96 190.811 34.8407 190.511 34.8404Z" fill="#3F3D56"/>
<path d="M190.511 60.6313C189.97 60.6307 189.451 60.416 189.069 60.0343C188.686 59.6526 188.471 59.135 188.471 58.5952V49.9982C188.471 49.4582 188.686 48.9403 189.068 48.5584C189.451 48.1766 189.97 47.9621 190.511 47.9621C191.052 47.9621 191.571 48.1766 191.953 48.5584C192.336 48.9403 192.551 49.4582 192.551 49.9982V58.5952C192.55 59.135 192.335 59.6526 191.953 60.0343C191.57 60.416 191.052 60.6307 190.511 60.6313ZM190.511 48.867C190.21 48.8673 189.922 48.9866 189.71 49.1987C189.497 49.4107 189.378 49.6983 189.377 49.9982V58.5952C189.377 58.8952 189.497 59.1829 189.709 59.395C189.922 59.6072 190.21 59.7263 190.511 59.7263C190.811 59.7263 191.1 59.6072 191.312 59.395C191.525 59.1829 191.644 58.8952 191.644 58.5952V49.9982C191.644 49.6983 191.524 49.4107 191.312 49.1987C191.099 48.9866 190.811 48.8673 190.511 48.867Z" fill="#3F3D56"/>
<path d="M154.469 95.9276H86.4666C85.7451 95.9276 85.0533 95.6416 84.5432 95.1324C84.033 94.6233 83.7465 93.9328 83.7465 93.2128C83.7465 92.4927 84.033 91.8022 84.5432 91.2931C85.0533 90.784 85.7451 90.4979 86.4666 90.4979H154.469C155.191 90.4979 155.882 90.784 156.393 91.2931C156.903 91.8022 157.189 92.4927 157.189 93.2128C157.189 93.9328 156.903 94.6233 156.393 95.1324C155.882 95.6416 155.191 95.9276 154.469 95.9276Z" fill="#CCCCCC"/>
<path d="M154.469 108.144H86.4666C85.7451 108.144 85.0533 107.858 84.5432 107.349C84.033 106.84 83.7465 106.15 83.7465 105.43C83.7465 104.71 84.033 104.019 84.5432 103.51C85.0533 103.001 85.7451 102.715 86.4666 102.715H154.469C155.191 102.715 155.882 103.001 156.393 103.51C156.903 104.019 157.189 104.71 157.189 105.43C157.189 106.15 156.903 106.84 156.393 107.349C155.882 107.858 155.191 108.144 154.469 108.144Z" fill="#CCCCCC"/>
<path d="M154.469 120.361H86.4666C85.7451 120.361 85.0533 120.075 84.5432 119.566C84.033 119.057 83.7465 118.366 83.7465 117.646C83.7465 116.926 84.033 116.236 84.5432 115.727C85.0533 115.217 85.7451 114.931 86.4666 114.931H154.469C155.191 114.931 155.882 115.217 156.393 115.727C156.903 116.236 157.189 116.926 157.189 117.646C157.189 118.366 156.903 119.057 156.393 119.566C155.882 120.075 155.191 120.361 154.469 120.361Z" fill="#CCCCCC"/>
<path d="M130.262 83.7108H108.272C106.949 83.7108 105.681 83.1865 104.746 82.2531C103.81 81.3197 103.285 80.0537 103.285 78.7336C103.285 77.4136 103.81 76.1476 104.746 75.2142C105.681 74.2808 106.949 73.7564 108.272 73.7564H130.262C131.584 73.7564 132.853 74.2808 133.788 75.2142C134.723 76.1476 135.249 77.4136 135.249 78.7336C135.249 80.0537 134.723 81.3197 133.788 82.2531C132.853 83.1865 131.584 83.7108 130.262 83.7108Z" fill="#232325"/>
<path d="M99.5975 161.529C97.644 161.529 95.7343 160.951 94.11 159.868C92.4857 158.785 91.2198 157.245 90.4722 155.444C89.7246 153.642 89.529 151.66 89.9101 149.748C90.2912 147.836 91.2319 146.079 92.6133 144.701C93.9946 143.322 95.7546 142.383 97.6705 142.003C99.5865 141.622 101.572 141.818 103.377 142.564C105.182 143.31 106.725 144.573 107.81 146.194C108.895 147.816 109.475 149.722 109.475 151.671C109.472 154.285 108.43 156.79 106.578 158.639C104.727 160.487 102.216 161.526 99.5975 161.529ZM99.5975 142.851C97.8496 142.851 96.141 143.368 94.6876 144.337C93.2343 145.307 92.1016 146.684 91.4327 148.296C90.7638 149.908 90.5888 151.681 90.9298 153.392C91.2708 155.103 92.1125 156.675 93.3484 157.908C94.5844 159.142 96.1591 159.982 97.8734 160.322C99.5876 160.662 101.365 160.488 102.979 159.82C104.594 159.153 105.974 158.022 106.945 156.572C107.917 155.121 108.435 153.416 108.435 151.671C108.435 150.513 108.206 149.366 107.762 148.296C107.318 147.226 106.667 146.253 105.846 145.434C105.026 144.615 104.052 143.966 102.979 143.522C101.907 143.079 100.758 142.851 99.5975 142.851Z" fill="#3F3D56"/>
<path d="M99.6145 155.084C99.4657 155.083 99.3184 155.054 99.1811 154.997C99.0437 154.94 98.9189 154.857 98.8138 154.752L95.1846 151.129C95.0793 151.024 94.9958 150.9 94.9388 150.762C94.8818 150.625 94.8525 150.478 94.8525 150.329C94.8526 150.181 94.8819 150.034 94.9389 149.897C94.9959 149.759 95.0795 149.635 95.1848 149.53L95.3725 149.342C95.5854 149.13 95.8735 149.012 96.174 149.012C96.4744 149.012 96.7626 149.13 96.9754 149.342L98.8568 151.219C98.9269 151.289 99.0115 151.343 99.1047 151.377C99.1979 151.411 99.2973 151.424 99.3961 151.416C99.4949 151.407 99.5907 151.377 99.6766 151.328C99.7626 151.279 99.8367 151.211 99.8939 151.13L107.917 139.75C108.09 139.505 108.354 139.339 108.65 139.287C108.946 139.236 109.25 139.304 109.496 139.476L109.714 139.63C109.836 139.715 109.94 139.824 110.019 139.949C110.099 140.075 110.153 140.215 110.179 140.361C110.204 140.507 110.2 140.657 110.168 140.802C110.135 140.947 110.074 141.084 109.989 141.206L100.542 154.603C100.447 154.738 100.323 154.851 100.18 154.933C100.037 155.015 99.8771 155.065 99.7124 155.079C99.6796 155.082 99.647 155.084 99.6145 155.084Z" fill="#7000FF"/>
<path d="M138.586 161.529C136.633 161.529 134.723 160.951 133.099 159.868C131.474 158.785 130.208 157.245 129.461 155.444C128.713 153.642 128.518 151.66 128.899 149.748C129.28 147.836 130.221 146.079 131.602 144.701C132.983 143.322 134.743 142.383 136.659 142.003C138.575 141.622 140.561 141.818 142.366 142.564C144.171 143.31 145.713 144.573 146.799 146.194C147.884 147.816 148.463 149.722 148.463 151.671C148.46 154.285 147.419 156.79 145.567 158.639C143.715 160.487 141.205 161.526 138.586 161.529ZM138.586 142.851C136.838 142.851 135.13 143.368 133.676 144.337C132.223 145.307 131.09 146.684 130.421 148.296C129.753 149.908 129.577 151.681 129.918 153.392C130.259 155.103 131.101 156.675 132.337 157.908C133.573 159.142 135.148 159.982 136.862 160.322C138.576 160.662 140.353 160.488 141.968 159.82C143.583 159.153 144.963 158.022 145.934 156.572C146.905 155.121 147.424 153.416 147.424 151.671C147.424 150.513 147.195 149.366 146.751 148.296C146.307 147.226 145.656 146.253 144.835 145.434C144.014 144.615 143.04 143.966 141.968 143.522C140.896 143.079 139.747 142.851 138.586 142.851Z" fill="#3F3D56"/>
<path d="M141.751 156.18H141.749C141.6 156.18 141.453 156.151 141.315 156.094C141.178 156.037 141.053 155.953 140.948 155.848L139.068 153.966C138.938 153.842 138.766 153.773 138.586 153.773C138.407 153.772 138.234 153.841 138.105 153.965L136.224 155.848C136.119 155.953 135.994 156.037 135.857 156.094C135.719 156.151 135.572 156.18 135.423 156.18H135.421C135.273 156.181 135.125 156.152 134.988 156.095C134.851 156.038 134.726 155.955 134.621 155.85L134.433 155.663C134.221 155.451 134.101 155.164 134.101 154.864C134.1 154.564 134.219 154.276 134.43 154.064L136.32 152.172C136.446 152.045 136.517 151.872 136.517 151.693C136.517 151.514 136.446 151.341 136.319 151.214L134.387 149.279C134.175 149.066 134.057 148.778 134.057 148.479C134.058 148.179 134.177 147.892 134.389 147.68L134.578 147.492C134.683 147.387 134.807 147.304 134.945 147.247C135.082 147.191 135.229 147.162 135.378 147.162H135.38C135.529 147.162 135.676 147.191 135.814 147.248C135.951 147.305 136.076 147.389 136.181 147.495L138.105 149.421C138.234 149.545 138.407 149.614 138.586 149.614C138.766 149.614 138.938 149.545 139.068 149.421L140.992 147.495C141.097 147.389 141.221 147.305 141.359 147.248C141.496 147.191 141.644 147.162 141.793 147.162H141.795C141.943 147.162 142.09 147.191 142.228 147.247C142.365 147.304 142.49 147.388 142.595 147.493L142.783 147.68C142.995 147.892 143.115 148.179 143.115 148.479C143.116 148.778 142.997 149.066 142.785 149.279L140.853 151.214C140.726 151.341 140.655 151.513 140.655 151.693C140.655 151.872 140.726 152.045 140.853 152.172L142.742 154.064C142.953 154.276 143.072 154.564 143.072 154.864C143.071 155.163 142.952 155.451 142.739 155.663L142.551 155.85C142.446 155.955 142.322 156.038 142.184 156.095C142.047 156.152 141.9 156.181 141.751 156.18Z" fill="#CCCCCC"/>
<path d="M272.673 221.035H278.469L281.228 198.722H272.673V221.035Z" fill="#FFB8B8"/>
<path d="M289.647 226.406H271.432V219.382H282.707C283.619 219.382 284.521 219.561 285.363 219.909C286.205 220.257 286.97 220.767 287.615 221.41C288.259 222.054 288.77 222.817 289.119 223.658C289.468 224.498 289.647 225.399 289.647 226.309V226.406Z" fill="#2F2E41"/>
<path d="M274.711 186.46L270.713 190.648L252.623 177.252L258.524 171.07L274.711 186.46Z" fill="#FFB8B8"/>
<path d="M266.591 192.571L274.368 184.422L279.464 189.267L266.9 202.431L266.829 202.364C265.496 201.097 264.723 199.353 264.678 197.517C264.633 195.68 265.321 193.901 266.591 192.571Z" fill="#2F2E41"/>
<path d="M315.054 125.33C315.421 124.741 315.654 124.079 315.737 123.39C315.82 122.701 315.751 122.003 315.534 121.344C315.317 120.685 314.958 120.081 314.482 119.576C314.006 119.07 313.425 118.675 312.78 118.418L290.023 60.5334L281.153 65.834L306.432 121.365C306.071 122.476 306.131 123.681 306.6 124.75C307.07 125.82 307.916 126.681 308.979 127.17C310.041 127.658 311.247 127.741 312.367 127.402C313.486 127.063 314.443 126.326 315.054 125.33Z" fill="#FFB8B8"/>
<path d="M228.679 129.479C229.373 129.43 230.047 129.229 230.654 128.891C231.261 128.554 231.786 128.087 232.193 127.525C232.601 126.963 232.879 126.318 233.01 125.637C233.14 124.956 233.119 124.254 232.949 123.582L266.52 71.2007L257.011 67.1494L226.83 120.186C225.717 120.547 224.776 121.303 224.184 122.31C223.592 123.318 223.391 124.507 223.619 125.652C223.847 126.798 224.488 127.82 225.421 128.525C226.353 129.231 227.513 129.57 228.679 129.479Z" fill="#FFB8B8"/>
<path d="M289.799 119.534L283.857 207.678L269.656 206.427L266.733 141.397L258.797 169.327L241.672 170.577L248.45 115.365L289.799 119.534Z" fill="#2F2E41"/>
<path d="M256.291 165.158L258.797 169.327L276.339 181.416L263.809 188.086C263.809 188.086 239.584 174.746 241.672 170.578L256.291 165.158Z" fill="#2F2E41"/>
<path d="M302.234 83.8709L297.291 69.9666C296.191 66.8733 294.488 64.0284 292.279 61.5965C290.07 59.1646 287.4 57.194 284.424 55.7988C277.733 53.3386 270.456 52.9411 263.536 54.6577C262.967 54.7986 262.368 54.9472 261.737 55.1033C256.94 56.2641 252.445 58.431 248.553 61.4598C245.506 63.8565 242.766 66.8912 242.522 70.1553C242.521 70.1624 242.518 70.1686 242.516 70.1756C241.672 73.8663 241.255 93.0418 241.255 93.0418H248.697L247.52 118.887L247.615 118.7C247.615 118.7 290.54 126.807 290.54 122.639V95.9599L291.42 86.2996L302.234 83.8709Z" fill="#7000FF"/>
<path d="M262.169 51.0461C268.738 51.0461 274.064 45.7307 274.064 39.1738C274.064 32.6169 268.738 27.3015 262.169 27.3015C255.599 27.3015 250.273 32.6169 250.273 39.1738C250.273 45.7307 255.599 51.0461 262.169 51.0461Z" fill="#FFB8B8"/>
<path d="M261.154 34.2505L251.151 34.2188C249.989 34.2151 248.72 34.1741 247.835 33.4227C246.501 32.291 246.725 30.1556 247.439 28.5606C249.427 24.1192 254.363 21.2985 259.235 21.4291C264.108 21.5598 268.721 24.4381 271.346 28.5369C273.971 32.6358 274.68 37.8125 273.691 42.576C272.548 40.1539 270.789 38.0733 268.588 36.542C266.388 35.0107 263.824 34.0822 261.151 33.8492L261.154 34.2505Z" fill="#2F2E41"/>
</g>
<defs>
<clipPath id="clip0_188_3082">
<rect width="345" height="233" fill="white"/>
</clipPath>
</defs>
</svg>
