<svg width="78" height="78" viewBox="0 0 78 78" fill="none" xmlns="http://www.w3.org/2000/svg">
<g clip-path="url(#clip0_612_6905)">
<rect width="77.2815" height="77.2815" rx="15" fill="white"/>
<path d="M41.6434 7.64442C42.0723 7.88325 42.7645 6.93857 42.9214 7.40065C43.0782 7.86274 42.6983 9.72722 42.5023 10.1744C42.4049 10.3966 42.2671 10.5999 42.1715 10.823C42.0619 11.0425 42.0397 11.2948 42.1092 11.5299C42.2562 11.9256 42.7416 12.0866 42.9822 12.4344C43.2624 12.8395 43.1493 13.3852 43.0182 13.8589C42.9217 14.2719 42.7702 14.6703 42.5676 15.0436C42.3614 15.4196 42.0209 15.7058 41.613 15.846C41.0915 15.9995 40.5343 15.8171 40.0316 15.6111C39.5421 15.4268 39.0803 15.1768 38.6593 14.8681C38.2365 14.5564 37.9226 14.1214 37.7616 13.6242C37.5814 12.9991 37.7319 12.3151 38.044 11.7433C38.379 11.183 38.7997 10.6777 39.2913 10.2454C40.0893 9.48771 40.9376 8.78376 41.8305 8.13828" fill="#2F2E41"/>
<path d="M35.2649 39.7148L36.159 47.9842C36.159 47.9842 34.0728 52.2666 36.308 57.4349L36.457 60.3883L38.9902 60.0929L38.3942 57.5826L39.7353 47.3935L40.7784 40.0102L35.2649 39.7148Z" fill="#FFB6B6"/>
<path d="M42.4175 39.5684C42.4175 39.5684 41.8215 46.0657 43.0136 49.4621C43.0136 49.4621 42.4175 54.6304 44.0567 60.0941V64.162L46.7389 63.6381L46.5899 48.4284L47.3349 40.159L42.4175 39.5684Z" fill="#FFB6B6"/>
<path d="M42.7986 14.2788C42.4308 14.7357 41.9138 15.051 41.3366 15.1706C40.7594 15.2901 40.1582 15.2064 39.6366 14.9338C38.1024 14.1326 36.0077 13.2144 35.6375 13.9481C35.2766 14.6741 35.0736 15.4672 35.0414 16.2759L34.4454 30.0438C34.4454 30.0438 34.1473 35.6029 37.8726 35.1122C41.598 34.6215 47.4094 36.6889 47.4094 36.6889L45.9938 22.1436L45.6958 16.3846L44.3547 15.7939C44.3547 15.7939 44.2057 14.7603 43.7586 14.7603C43.3116 14.7603 43.2037 13.7673 42.8106 14.2638L42.7986 14.2788Z" fill="#6C63FF"/>
<path d="M34.9669 29.8213L32.4337 40.3057C32.4337 40.3057 38.5432 43.8497 41.3744 40.4533L41.8215 38.829L42.1195 40.601C42.1195 40.601 46.4409 43.1113 47.633 41.487L47.4094 36.6878L44.6527 31.1503L34.9669 29.8213Z" fill="#2F2E41"/>
<path d="M36.3692 58.6494C36.3692 58.6494 35.4139 59.3558 35.712 60.2418C36.01 61.1278 38.2452 64.5242 40.1823 64.0812C42.1195 63.6382 41.2254 62.6045 41.2254 62.6045L38.9902 59.3558C38.9902 59.3558 38.0962 59.5035 37.6491 59.7988C37.2021 60.0942 36.3692 58.6494 36.3692 58.6494Z" fill="#2F2E41"/>
<path d="M44.0567 62.9C44.0567 62.9 42.4175 64.5243 43.3116 65.2627C44.2057 66.001 50.3152 66.5917 50.1662 65.7057C50.0172 64.8197 46.8879 62.3093 46.8879 62.3093C46.8879 62.3093 45.9938 62.014 45.6958 62.7523C45.3978 63.4907 44.0567 62.9 44.0567 62.9Z" fill="#2F2E41"/>
<path d="M44.8017 46.8048C43.7526 47.4318 43.6491 47.7276 43.0136 47.9862C42.6919 48.117 42.0896 48.297 40.9274 48.1338C39.326 47.909 38.3386 47.2681 35.5629 45.7711C33.5832 44.7035 32.6153 44.2366 31.2416 43.9991C30.2122 43.8212 29.614 43.886 29.1554 43.9991C27.5556 44.3938 26.6823 45.6166 26.4732 45.9188C25.7502 46.9635 25.6588 47.9837 25.5791 48.8722C25.4788 49.9912 25.3338 51.6083 26.1751 52.8592C27.2295 54.4266 28.6979 53.7319 31.2416 55.2219C34.053 56.8686 33.5828 58.4926 35.861 59.3565C38.7761 60.462 41.9498 58.7147 42.1195 58.6182C45.1377 56.9028 45.7552 53.7901 47.3349 54.0405C48.2788 54.1902 48.3728 55.3512 49.8681 55.6649C50.148 55.7236 51.2995 55.9651 52.1033 55.2219C52.5972 54.7652 52.5819 55.7875 52.3268 55.148C51.9994 54.327 51.3386 52.7244 50.9112 51.8255C50.6829 51.3453 50.9403 51.1971 50.7622 49.9058C50.6752 49.2751 50.6313 48.9568 50.4642 48.5768C50.05 47.6354 49.2458 47.1493 48.676 46.8048C47.9829 46.3858 47.3014 45.9738 46.4408 46.0665C45.9484 46.1195 45.5662 46.348 44.8017 46.8048Z" fill="#3F3D56"/>
<path d="M26.6222 50.3474C26.3579 50.562 26.2949 50.997 26.1752 51.8241C26.0644 52.5893 26.1318 53.0587 26.1752 53.8914C26.2403 55.1414 26.1376 55.0251 26.1752 56.6971C26.2061 58.0729 26.2215 58.7607 26.3242 59.3551C26.5087 60.4239 26.6071 60.0133 27.5163 62.7515C27.7007 63.307 27.8477 63.7786 28.2613 63.9328C28.7797 64.1261 29.3768 63.6944 29.4534 63.6375C29.5791 63.5442 30.0218 63.2154 30.0495 62.7515C30.0847 62.1626 29.412 62.0133 28.8574 61.1271C28.5111 60.5738 28.4278 60.0199 28.2613 58.9121C28.103 57.8586 28.0238 57.3319 28.2613 56.8448C28.6947 55.956 29.6862 55.6805 29.7515 55.6634C30.3448 55.508 30.5365 55.7281 31.2416 55.6634C31.9011 55.603 32.9874 55.2954 33.1788 54.7774C33.7032 53.3577 27.885 49.3223 26.6222 50.3474Z" fill="#3F3D56"/>
<path d="M29.0064 48.28C28.7421 48.4946 28.6791 48.9296 28.5594 49.7567C28.4486 50.5219 28.516 50.9913 28.5594 51.8241C28.6245 53.0741 28.5218 52.9577 28.5594 54.6297C28.5903 56.0055 28.6057 56.6934 28.7084 57.2877C28.8929 58.3566 28.9913 57.9459 29.9005 60.6841C30.0849 61.2396 30.2319 61.7112 30.6455 61.8654C31.1639 62.0587 31.761 61.627 31.8376 61.5701C31.9633 61.4768 32.406 61.148 32.4337 60.6841C32.4689 60.0952 31.7962 59.9459 31.2416 59.0598C30.8953 58.5064 30.812 57.9525 30.6455 56.8447C30.4872 55.7912 30.408 55.2645 30.6455 54.7774C31.0789 53.8886 32.0704 53.6132 32.1357 53.5961C32.729 53.4407 32.9207 53.6607 33.6258 53.5961C34.2853 53.5356 35.3716 53.228 35.563 52.7101C36.0874 51.2903 30.2692 47.255 29.0064 48.28Z" fill="#3F3D56"/>
<path d="M33.4768 55.5162C33.3091 55.7697 33.1166 56.4235 32.7317 57.7312C32.5601 58.3143 31.4487 62.1511 31.0926 63.3425C30.9869 63.776 30.7831 64.18 30.4965 64.5239C30.1927 64.8701 30.0304 64.8592 29.9005 65.1145C29.5625 65.779 30.2221 66.7163 30.3475 66.8866C30.4935 67.0848 31.1713 68.0052 32.1357 67.9202C32.2364 67.9114 32.8881 67.8539 33.0297 67.4772C33.2469 66.8998 31.9701 66.3579 31.9867 65.4099C31.9964 64.85 32.4491 64.6181 33.0297 63.9332C34.2754 62.464 33.7441 61.7007 34.6689 60.5369C36.0521 58.7962 38.6228 58.7643 38.9902 58.7649C39.9421 58.7662 41.2668 58.7682 42.1195 59.6509C43.3083 60.8815 42.817 63.0343 43.3116 66.2959C43.3878 66.7437 43.4873 67.1873 43.6096 67.6249C43.9691 68.9454 44.2559 69.2864 44.3547 69.3969C44.62 69.7152 44.9702 69.9532 45.3654 70.0837C45.7607 70.2142 46.1849 70.2321 46.5899 70.1352C46.94 70.0567 47.2593 69.9851 47.484 69.6922C47.596 69.547 47.6686 69.3757 47.6947 69.1947C47.7208 69.0137 47.6995 68.8291 47.633 68.6586C47.4536 68.2599 47.084 68.3246 46.5899 67.9202C46.2412 67.6348 46.0594 67.2377 45.6958 66.4436C45.4479 65.9211 45.2484 65.3774 45.0998 64.8192C44.8752 63.9631 44.8477 63.3016 44.8017 62.0135C44.763 60.9284 44.7817 60.0264 44.8017 59.0602C44.825 57.9353 44.8568 57.5679 44.8017 56.8452C44.7439 56.0869 44.6877 55.3486 44.5037 54.9255C43.514 52.6496 35.6612 52.2146 33.4768 55.5162Z" fill="#3F3D56"/>
<path d="M27.2182 45.474C26.5813 45.1249 26.4904 44.3082 26.3242 42.816C26.2031 41.7291 26.131 41.0818 26.4732 40.3057C26.7817 39.6202 27.304 39.0509 27.9633 38.6813C28.1396 38.5854 29.2972 37.977 30.4965 38.386C30.6639 38.4431 31.1071 38.7694 31.9866 39.4197C33.0362 40.1957 33.1902 40.3437 33.3278 40.601C33.6957 41.2895 33.6565 42.2201 33.3278 42.373C33.078 42.4892 32.6464 42.1633 32.4337 41.93C32.1794 41.6511 32.2176 41.4822 31.9866 41.1917C31.8035 40.9614 31.6313 40.8811 31.0926 40.601C29.7582 39.9072 29.6907 39.8151 29.4534 39.8627C28.8622 39.9811 28.5804 40.6934 28.5594 40.7487C28.3789 41.2234 28.5026 41.6551 28.7084 42.373C28.832 42.7758 28.9813 43.1703 29.1554 43.5544C29.5439 44.475 29.6461 44.544 29.6024 44.7357C29.4591 45.3645 28.0594 45.9351 27.2182 45.474Z" fill="#3F3D56"/>
<path d="M46.6882 36.7603C46.6649 37.604 47.0853 38.2997 47.6271 38.3143C48.169 38.3289 48.6269 37.6569 48.6501 36.8129C48.664 36.4759 48.5962 36.1405 48.4525 35.8347L48.5056 32.2588L46.8117 32.2699L46.9392 35.7939C46.7789 36.0916 46.6928 36.4229 46.6882 36.7603Z" fill="#FFB6B6"/>
<path d="M45.4723 16.3096C45.4723 16.3096 47.7075 17.0479 47.8565 19.5583C48.0055 22.0686 48.1545 23.5453 48.1545 23.5453L48.378 24.571C48.378 24.571 49.0486 26.2033 48.7506 27.3846C48.4525 28.566 48.7868 33.3494 48.7868 33.3494L46.6644 33.2913L45.1743 27.8276L45.4723 16.3096Z" fill="#6C63FF"/>
<path d="M42.492 48.0585C42.2457 48.0988 42.1261 49.4947 42.492 50.7165C42.7035 51.3562 42.9869 51.9702 43.3371 52.547C43.408 52.6645 43.4763 52.7717 43.6841 53.0792C44.7005 54.5831 45.214 55.3342 45.4723 55.2942C45.8167 55.2408 44.874 54.4336 44.8017 53.6619C44.6673 52.227 44.0172 52.0496 42.8646 49.9702C42.2408 48.845 42.6843 48.027 42.492 48.0585Z" fill="#6C63FF"/>
<path d="M47.7075 47.6161C47.832 46.9878 47.1237 46.1152 46.3663 45.9918C45.2619 45.8119 44.3032 47.2657 43.9821 48.2068C43.5406 49.5011 44.0365 50.6135 44.2802 51.1602C44.5858 51.8458 44.8144 51.8908 44.8762 51.8985C45.3271 51.9544 45.8615 51.1361 46.0683 50.4218C46.2503 49.7934 46.0449 49.7074 46.2173 49.2405C46.5722 48.2793 47.5745 48.2867 47.7075 47.6161Z" fill="#2F2E41"/>
<path d="M43.6841 10.7568C43.6841 11.3667 43.5016 11.9629 43.1597 12.4701C42.8177 12.9772 42.3317 13.3725 41.763 13.6059C41.1944 13.8393 40.5687 13.9004 39.965 13.7814C39.3613 13.6624 38.8068 13.3687 38.3716 12.9374C37.9364 12.5061 37.64 11.9566 37.5199 11.3584C37.3999 10.7602 37.4615 10.1401 37.697 9.5766C37.9326 9.01309 38.3314 8.53145 38.8432 8.19258C39.355 7.85372 39.9566 7.67285 40.5721 7.67285C41.3975 7.67285 42.189 7.99776 42.7727 8.57611C43.3563 9.15445 43.6841 9.93885 43.6841 10.7568Z" fill="#FFB6B6"/>
<path d="M37.064 15.5856C37.7936 16.6234 38.1586 17.87 38.1028 19.1336C38.9264 18.7383 39.4822 17.903 39.6714 17.0158C39.8605 16.1286 39.7162 15.197 39.4122 14.3417C39.4092 14.3331 39.4061 14.3246 39.4031 14.3161C39.1748 13.6928 39.1568 13.013 39.352 12.3788C39.5471 11.7446 39.9448 11.1903 40.4852 10.7993C41.24 10.2607 41.8861 9.58643 42.3899 8.81157C42.6725 8.37454 42.9127 7.82632 42.7016 7.3513C42.5071 6.91358 42.0045 6.709 41.5421 6.57211C40.4861 6.25954 39.3641 6.08168 38.2803 6.27947C37.1964 6.47725 36.153 7.09492 35.6408 8.06191C35.1285 9.0289 35.2627 10.3486 36.0942 11.0655C35.9618 11.1079 35.8478 11.1933 35.7705 11.308C35.6933 11.4226 35.6574 11.5598 35.6687 11.6971C35.6799 11.8345 35.7376 11.9641 35.8325 12.065C35.9273 12.1658 36.0538 12.2319 36.1913 12.2526C36.0135 12.2464 35.9086 12.4784 35.972 12.6431C36.0542 12.8011 36.1896 12.9256 36.3548 12.9949C36.577 13.1156 36.8232 13.2419 36.8242 13.5581C36.8225 13.6853 36.7806 13.8087 36.7044 13.911C36.5237 14.1608 36.2321 14.2732 35.9513 14.3788C36.2481 14.4698 36.5142 14.6393 36.721 14.869C36.9278 15.0987 37.0674 15.3799 37.125 15.6824" fill="#2F2E41"/>
<path d="M38.7609 31.5444L38.3249 31.6426L42.7115 50.7655L43.1474 50.6673L38.7609 31.5444Z" fill="#6C63FF"/>
<path d="M37.9761 32.9337C38.6599 33.4369 39.4761 33.4951 39.7992 33.0638C40.1223 32.6325 39.8298 31.8752 39.1457 31.3719C38.8752 31.1672 38.5592 31.0296 38.2241 30.9707L35.2997 28.875L34.3366 30.2559L37.3217 32.1753C37.4756 32.4762 37.7 32.7363 37.9761 32.9337Z" fill="#FFB6B6"/>
<path d="M36.1338 15.8672C36.1338 15.8672 33.7748 15.941 33.3277 17.5654C32.4224 20.7835 32.0203 24.1202 32.1356 27.4591C32.1356 27.4591 31.3906 30.5601 33.3277 30.4124L36.01 31.5938L37.7981 29.2311L36.308 27.4591L36.1338 15.8672Z" fill="#6C63FF"/>
</g>
<defs>
<clipPath id="clip0_612_6905">
<rect width="77.2815" height="77.2815" fill="white"/>
</clipPath>
</defs>
</svg>
