<svg width="78" height="78" viewBox="0 0 78 78" fill="none" xmlns="http://www.w3.org/2000/svg">
<g clip-path="url(#clip0_612_7078)">
<rect width="77.2815" height="77.2815" rx="15" fill="white"/>
</g>
<g clip-path="url(#clip1_612_7078)">
<path d="M67.1503 60.2381H29.1651C28.9398 60.2378 28.7239 60.1483 28.5646 59.9891C28.4053 59.8299 28.3157 59.6141 28.3154 59.389V5.04541C28.3157 4.82028 28.4053 4.60445 28.5646 4.44527C28.7239 4.28608 28.9398 4.19654 29.1651 4.19629H67.1503C67.3756 4.19654 67.5916 4.28608 67.7509 4.44527C67.9101 4.60445 67.9997 4.82028 68 5.04541V59.389C67.9997 59.6141 67.9101 59.8299 67.7509 59.9891C67.5916 60.1483 67.3756 60.2378 67.1503 60.2381Z" fill="#3F3D56"/>
<path d="M66.3506 59.4386H29.9648C29.7395 59.4383 29.5236 59.3488 29.3643 59.1896C29.205 59.0304 29.1154 58.8146 29.1151 58.5894V5.84423C29.1154 5.61911 29.205 5.40328 29.3643 5.2441C29.5236 5.08491 29.7395 4.99537 29.9648 4.99512H66.3506C66.5759 4.99537 66.7919 5.08491 66.9512 5.2441C67.1105 5.40328 67.2001 5.61911 67.2003 5.84423V58.5894C67.2001 58.8146 67.1105 59.0304 66.9512 59.1896C66.7919 59.3488 66.5759 59.4383 66.3506 59.4386Z" fill="white"/>
<path d="M39.9177 56.6737C36.6809 52.4037 37.9645 47.5303 36.0682 44.1304C28.8004 31.1 37.7497 32.3005 47.8678 34.8345L47.8919 35.1156C41.4521 36.1088 37.2169 39.421 36.2723 44.2028C35.5381 47.9191 36.8853 52.2764 40.0658 56.4722L39.9177 56.6737Z" fill="#F0F0F0"/>
<path d="M47.0277 40.782L46.9601 40.5141C50.573 38.8771 50.2626 34.0013 53.4951 32.8879C78.1188 24.4064 53.8125 23.4499 48.3452 18.9635C43.4561 14.9516 38.1278 10.2871 31.3561 7.88483L31.4101 7.61133C38.2114 10.0242 44.2742 13.9791 48.4815 18.7475C52.71 23.5399 54.563 28.5874 53.6991 32.9603C53.0179 36.4086 50.7109 39.1133 47.0277 40.782Z" fill="#F0F0F0"/>
<path d="M37.1927 31.3845C35.5416 31.2541 37.4899 30.1622 37.6203 28.5122C37.6512 28.1197 37.7591 27.7372 37.9379 27.3864C38.1167 27.0357 38.3629 26.7235 38.6625 26.4679C38.9621 26.2123 39.3091 26.0181 39.6838 25.8965C40.0584 25.7749 40.4534 25.7283 40.8461 25.7593C41.2388 25.7903 41.6215 25.8983 41.9725 26.0772C42.3234 26.2561 42.6356 26.5023 42.8913 26.8017C43.1469 27.1012 43.3411 27.4481 43.4626 27.8226C43.5841 28.1971 43.6305 28.5918 43.5993 28.9842C43.4689 30.6342 38.8438 31.5148 37.1927 31.3845Z" fill="#6C63FF"/>
<path d="M53.0456 21.1123C52.653 21.0813 52.2704 20.9733 51.9195 20.7946C51.5687 20.6158 51.2565 20.3697 51.0009 20.0704C50.7452 19.771 50.551 19.4243 50.4294 19.05C50.3079 18.6756 50.2612 18.281 50.2922 17.8887C50.4227 16.2387 47.1439 15.135 48.795 15.2653C50.4461 15.3957 56.4017 16.7107 56.2713 18.3607C56.2403 18.7531 56.1322 19.1354 55.9533 19.4861C55.7745 19.8367 55.5282 20.1486 55.2287 20.4041C54.9292 20.6596 54.5822 20.8537 54.2076 20.9752C53.833 21.0967 53.4382 21.1433 53.0456 21.1123Z" fill="#6C63FF"/>
<path d="M56.6594 17.351C56.877 17.8021 56.7487 18.3232 56.4613 18.7127C56.1345 19.1556 55.6146 19.374 55.0813 19.4462C54.5089 19.5156 53.9283 19.4678 53.3749 19.3058C52.8411 19.1518 52.2871 18.8218 52.177 18.2323C52.1036 17.8393 52.2714 17.42 52.6797 17.3111C52.8434 17.2697 53.0151 17.2712 53.1781 17.3154C53.3412 17.3596 53.4901 17.445 53.6104 17.5634C53.9495 17.9161 53.9237 18.4821 53.7082 18.8917C53.4548 19.3734 52.9477 19.6392 52.4263 19.7269C51.8065 19.8312 51.1837 19.6856 50.6006 19.4783C49.9668 19.253 49.352 18.9724 48.731 18.7147C47.52 18.2121 46.2829 17.74 44.9807 17.5399C42.9913 17.2341 40.6303 17.7102 39.4125 19.4532C38.7551 20.3941 38.5689 21.5741 38.7104 22.6967C38.8596 23.8805 39.3794 24.9684 40.0676 25.9317C40.4321 26.4328 40.83 26.9087 41.2587 27.3561C41.3983 27.4917 41.4943 27.6658 41.5347 27.8561C41.575 28.0464 41.5579 28.2444 41.4853 28.4249C41.1081 29.3513 39.5996 29.056 39.4872 28.1011C39.4362 27.6672 39.6784 27.2204 39.9811 26.9261C40.3246 26.605 40.7574 26.3955 41.2224 26.3251C42.2012 26.1618 43.2358 26.5244 43.984 27.1544C44.8293 27.8661 45.3051 28.9476 45.5557 30.0004C45.8411 31.1991 45.8557 32.432 45.8828 33.6572C45.9105 34.9111 45.9582 36.1798 46.3182 37.3901C46.6109 38.3642 47.0628 39.2832 47.6556 40.1099C48.8395 41.7755 50.5226 43.0219 52.4617 43.6692C52.9307 43.8213 53.4117 43.9339 53.8995 44.0058C54.0905 44.0341 54.1133 43.7352 53.9232 43.707C51.7966 43.392 49.8409 42.2413 48.441 40.6239C47.7394 39.817 47.1849 38.8933 46.8027 37.8949C46.3462 36.6923 46.2304 35.415 46.1932 34.1387C46.1551 32.8352 46.1758 31.5199 45.9147 30.2358C45.6838 29.1007 45.231 27.9512 44.3924 27.1241C43.6529 26.3948 42.595 25.9436 41.5495 25.992C40.5767 26.0371 39.5365 26.5725 39.2474 27.5644C39.1118 28.0299 39.1981 28.5295 39.5536 28.8752C39.7563 29.0674 40.0084 29.1997 40.2817 29.2574C40.5551 29.3152 40.8391 29.2961 41.1023 29.2023C41.3883 29.0787 41.618 28.8532 41.7467 28.5697C41.8755 28.2862 41.8941 27.9649 41.7989 27.6685C41.7189 27.4508 41.5903 27.2542 41.4229 27.0936C40.5453 26.157 39.7399 25.1089 39.3029 23.8893C38.8953 22.7517 38.8116 21.4432 39.2817 20.3113C40.1717 18.1684 42.7546 17.5246 44.8585 17.8241C46.2353 18.0201 47.5391 18.541 48.8145 19.0739C49.4658 19.346 50.1128 19.6484 50.7883 19.8567C51.3931 20.0432 52.042 20.1368 52.6651 19.9839C53.2089 19.8504 53.7087 19.5344 53.9721 19.0289C54.2114 18.5698 54.2527 17.9872 53.9681 17.5373C53.5567 16.887 52.4207 16.7407 52.0067 17.4712C51.732 17.9558 51.867 18.5765 52.2277 18.9785C52.6322 19.4291 53.2378 19.6132 53.8175 19.7061C54.9128 19.8817 56.2615 19.7437 56.8475 18.6626C57.0889 18.2172 57.154 17.6862 56.9294 17.2206C56.9113 17.1862 56.8805 17.1601 56.8436 17.148C56.8066 17.1358 56.7664 17.1385 56.7314 17.1554C56.6963 17.1723 56.6692 17.2021 56.6558 17.2386C56.6424 17.2751 56.6437 17.3154 56.6594 17.351Z" fill="#3F3D56"/>
<path d="M53.1363 44.0665C51.3854 43.9282 46.7039 46.3224 45.4367 45.2924C45.2783 45.1647 45.1251 45.0307 44.9771 44.8904C44.4926 44.4363 44.0647 43.9254 43.7026 43.3688C43.6399 43.2747 43.5802 43.1798 43.5226 43.084C43.3195 42.744 43.1408 42.39 42.9876 42.0247C42.9608 41.9584 42.934 41.8912 42.9072 41.824C42.1941 39.9821 42.158 37.9471 42.8053 36.0811C43.4526 34.2151 44.7414 32.6392 46.4424 31.6337C48.1433 30.6283 50.146 30.2585 52.0942 30.5902C54.0423 30.9219 55.8095 31.9336 57.0813 33.4453C57.1492 33.5248 57.215 33.6061 57.2796 33.6894C57.9251 34.5156 58.4084 35.4565 58.7038 36.4623C58.7038 36.4633 58.7048 36.4634 58.7047 36.4644C59.1453 37.9727 59.1525 39.5745 58.7254 41.0866L58.7252 41.0886C58.7155 41.1219 58.7059 41.1552 58.6952 41.1885C57.6017 44.887 57.1372 44.3823 53.1363 44.0665Z" fill="#6C63FF"/>
<path d="M43.0254 42.0293C43.0127 42.0295 43 42.0282 42.9876 42.0253C42.9608 41.9591 42.934 41.8918 42.9072 41.8246C42.9186 41.7964 42.9382 41.7723 42.9635 41.7555C42.9888 41.7387 43.0186 41.73 43.049 41.7305C43.2006 41.73 43.3516 41.7127 43.4993 41.6789C44.7816 41.3893 45.5291 40.0775 45.8493 38.9063C46.2423 37.4733 46.2477 35.9335 46.958 34.5967C47.234 34.0474 47.6397 33.5735 48.1401 33.216C48.6895 32.8439 49.3572 32.6878 50.0147 32.7778C51.5618 32.9821 52.6911 34.1725 54.1273 34.6627C54.719 34.8647 55.3488 34.9144 55.9405 34.6846C56.4432 34.4898 56.9018 34.1051 57.0057 33.5521C57.0091 33.5298 57.0177 33.5085 57.0309 33.4901C57.044 33.4716 57.0613 33.4565 57.0813 33.4459C57.1492 33.5254 57.215 33.6067 57.2796 33.69C57.2565 33.7898 57.2229 33.8869 57.1795 33.9797C56.9271 34.5089 56.4237 34.851 55.8757 35.0222C55.2414 35.2196 54.5816 35.1445 53.9643 34.9234C52.5251 34.4079 51.3413 33.134 49.7522 33.0547C48.3749 32.986 47.4231 34.1174 46.9648 35.2977C46.3981 36.7581 46.4823 38.3951 45.8461 39.834C45.3455 40.9659 44.3424 42.024 43.0254 42.0293Z" fill="#3F3D56"/>
<path d="M43.7026 43.3693C43.6399 43.2752 43.5802 43.1803 43.5226 43.0846C43.5365 43.0735 43.5527 43.0655 43.57 43.0611C43.5873 43.0568 43.6053 43.0562 43.6228 43.0594C44.908 43.211 46.2025 42.8662 47.2417 42.0955C47.6976 41.7623 48.0939 41.3545 48.4139 40.8894C48.7462 40.4025 48.9469 39.8552 49.1721 39.3148C49.3936 38.7832 49.6537 38.2456 50.0943 37.8605C50.5434 37.4681 51.123 37.3034 51.71 37.2856C53.101 37.2441 54.314 38.0343 55.6679 38.1973C56.2718 38.27 56.8713 38.1831 57.3882 37.8461C57.8344 37.5546 58.1593 37.0983 58.1384 36.5505C58.1306 36.3695 58.3944 36.3813 58.433 36.5407C58.4356 36.5516 58.4371 36.5628 58.4374 36.5741C58.4612 37.2113 58.0691 37.7566 57.5532 38.0936C56.9536 38.4862 56.253 38.5832 55.552 38.4837C54.1955 38.2905 52.9418 37.47 51.5382 37.5937C51.2437 37.6107 50.956 37.6893 50.6938 37.8245C50.4316 37.9597 50.2008 38.1484 50.0162 38.3784C49.6469 38.8523 49.4517 39.4311 49.2238 39.9803C49.0075 40.5292 48.7052 41.0401 48.328 41.4939C47.9464 41.9369 47.4963 42.3161 46.9949 42.6172C46.0084 43.2188 44.8527 43.4829 43.7026 43.3693Z" fill="#3F3D56"/>
<path d="M45.4367 45.2927C45.2783 45.165 45.1251 45.031 44.9771 44.8907C45.7408 45.085 46.5366 45.1181 47.3138 44.988C48.2917 44.8312 49.2142 44.4305 49.9959 43.8229C50.3852 43.5183 50.7287 43.1593 51.0157 42.757C51.3429 42.2968 51.6288 41.7883 52.1221 41.4836C53.1932 40.8226 54.475 41.4268 55.5443 41.7517C56.1024 41.922 56.7019 42.0375 57.2703 41.8489C57.7111 41.7023 58.1389 41.3773 58.226 40.8972C58.2599 40.7085 58.56 40.7312 58.5249 40.9208C58.5181 40.9563 58.5103 40.9918 58.5015 41.0272C58.364 41.5484 57.9372 41.9246 57.4334 42.1073C56.776 42.344 56.0949 42.2331 55.4418 42.0342C54.3676 41.7069 52.9639 41.0339 51.9921 41.9623C51.5821 42.3538 51.3306 42.8841 50.9609 43.3118C50.6311 43.6953 50.2506 44.032 49.8299 44.3128C48.5379 45.1729 46.972 45.5221 45.4367 45.2927Z" fill="#3F3D56"/>
<path d="M66.4006 66.5814H59.3034C59.0781 66.5811 58.8622 66.4916 58.7029 66.3324C58.5436 66.1732 58.454 65.9574 58.4537 65.7323V63.2349C58.454 63.0097 58.5436 62.7939 58.7029 62.6347C58.8621 62.4755 59.0781 62.386 59.3034 62.3857H66.4006C66.6259 62.386 66.8419 62.4755 67.0012 62.6347C67.1604 62.7939 67.25 63.0097 67.2503 63.2349V65.7323C67.25 65.9574 67.1604 66.1732 67.0012 66.3324C66.8419 66.4916 66.6259 66.5811 66.4006 66.5814Z" fill="#E6E6E6"/>
<path d="M25.2427 37.5977L25.43 39.3341L25.3197 41.6109L30.3663 41.0117L30.8405 37.5977L30.2363 37.6036L25.2427 37.5977Z" fill="#FFB6B6"/>
<path d="M31.2643 32.2175L29.704 31.6409L29.0373 30.6733L26.639 30.4336L25.1596 31.3807L23.9194 32.0118L23.9407 35.3072L25.3666 41.2082L30.4646 41.0084L31.1356 36.8004C31.1356 36.8004 32.6946 34.708 31.0157 33.5096L31.2643 32.2175Z" fill="#CCCCCC"/>
<path d="M22.6251 69.1231H23.7284L24.2534 64.8701H22.6251V69.1231Z" fill="#FFB6B6"/>
<path d="M22.265 68.3678L24.0277 68.2627V69.0174L25.7036 70.1741C25.7864 70.2312 25.8487 70.3133 25.8815 70.4083C25.9143 70.5033 25.9158 70.6064 25.8859 70.7023C25.856 70.7983 25.7961 70.8822 25.7151 70.9418C25.6341 71.0013 25.5361 71.0335 25.4355 71.0335H23.3369L22.9752 70.2869L22.834 71.0335H22.0427L22.265 68.3678Z" fill="#2F2E41"/>
<path d="M28.8227 69.1231H29.926L30.451 64.8701H28.8227V69.1231Z" fill="#FFB6B6"/>
<path d="M28.4626 68.3678L30.2253 68.2627V69.0174L31.9012 70.1741C31.9839 70.2312 32.0463 70.3133 32.0791 70.4083C32.1119 70.5033 32.1134 70.6064 32.0835 70.7023C32.0536 70.7983 31.9937 70.8822 31.9127 70.9418C31.8317 71.0013 31.7337 71.0335 31.6331 71.0335H29.5345L29.1728 70.2869L29.0316 71.0335H28.2403L28.4626 68.3678Z" fill="#2F2E41"/>
<path d="M22.149 65.4548H22.161L22.3732 58.5396C22.2359 58.2749 22.1662 57.9804 22.1703 57.6822C22.1745 57.3841 22.2523 57.0916 22.397 56.8309L22.4273 56.7759L22.3486 56.411C22.2474 55.9422 22.2938 55.4536 22.4815 55.0122L22.6794 48.5616C21.9722 43.9813 25.3426 40.9941 25.3426 40.9941H30.3914L31.4754 44.7159C32.1919 51.6927 32.0619 58.4913 30.9248 65.0781L30.9558 65.0938C31.0674 65.1323 31.1153 65.2868 31.0628 65.4389C31.0102 65.5911 30.8772 65.6832 30.7655 65.6447L28.0992 65.552C27.9875 65.5135 27.9396 65.359 27.9922 65.2068C28.0447 65.0547 28.1778 64.9626 28.2894 65.0011L28.4707 65.0927L28.0841 58.4199L28.127 57.201L28.0386 55.8183L27.6299 49.5987L26.0829 57.2471L24.5027 65.5317C24.5463 65.5712 24.5769 65.6229 24.5904 65.68C24.604 65.7372 24.5999 65.7972 24.5786 65.852C24.5574 65.9067 24.52 65.9538 24.4715 65.9869C24.4229 66.0201 24.3655 66.0377 24.3067 66.0375H22.149C22.0717 66.0375 21.9975 66.0068 21.9428 65.9522C21.8882 65.8975 21.8574 65.8234 21.8574 65.7461C21.8574 65.6689 21.8882 65.5947 21.9428 65.5401C21.9975 65.4854 22.0717 65.4548 22.149 65.4548Z" fill="#2F2E41"/>
<path d="M21.6241 45.8637C21.5278 45.7709 21.453 45.6581 21.405 45.5332C21.357 45.4084 21.337 45.2745 21.3463 45.1411C21.3557 45.0077 21.3942 44.878 21.4591 44.7611C21.5241 44.6441 21.6139 44.5429 21.7223 44.4644L23.0675 36.2129L24.6451 36.7676L23.0465 44.7164C23.1663 44.907 23.2121 45.135 23.175 45.3571C23.1379 45.5792 23.0205 45.78 22.8452 45.9214C22.6699 46.0628 22.4488 46.135 22.2237 46.1244C21.9986 46.1138 21.7853 46.021 21.6241 45.8637Z" fill="#FFB6B6"/>
<path d="M24.1316 32.004C24.1316 32.004 23.6791 31.8336 23.5149 32.8442C23.3834 33.6533 22.0998 38.5372 22.2212 39.6687C22.0706 39.7215 21.9418 39.8228 21.8551 39.9567C21.7684 40.0907 21.7288 40.2496 21.7425 40.4086L24.1094 40.4207C24.4718 40.0256 24.5188 39.549 24.3438 39.4319L24.6713 37.988L26.2134 33.3296L24.4609 32.1214L24.1316 32.004Z" fill="#CCCCCC"/>
<path d="M32.5211 46.2151C32.6251 46.1309 32.7094 46.0249 32.7679 45.9047C32.8265 45.7844 32.858 45.6528 32.8601 45.5191C32.8623 45.3854 32.8351 45.2528 32.7804 45.1307C32.7258 45.0086 32.645 44.9 32.5438 44.8125L32.064 36.5127L30.2946 36.8929L31.2028 44.9497C31.067 45.1294 31.0018 45.3526 31.0197 45.577C31.0375 45.8015 31.1371 46.0116 31.2996 46.1676C31.4621 46.3235 31.6762 46.4145 31.9013 46.4233C32.1265 46.432 32.347 46.3579 32.5211 46.2151Z" fill="#FFB6B6"/>
<path d="M31.2164 32.191C31.2164 32.191 31.6819 32.0601 31.7585 33.0812C31.8198 33.8986 32.6781 38.8746 32.4597 39.9916C32.6052 40.0571 32.7248 40.1691 32.7997 40.31C32.8745 40.4509 32.9003 40.6127 32.873 40.7698L30.5138 40.5784C30.1867 40.1536 30.1809 39.6748 30.3654 39.5731L30.1635 38.1064L29.0281 33.3327L30.8782 32.2796L31.2164 32.191Z" fill="#CCCCCC"/>
<path d="M26.7859 30.2634C28.104 30.2634 29.1725 29.1955 29.1725 27.8783C29.1725 26.561 28.104 25.4932 26.7859 25.4932C25.4678 25.4932 24.3992 26.561 24.3992 27.8783C24.3992 29.1955 25.4678 30.2634 26.7859 30.2634Z" fill="#FFB8B8"/>
<path d="M22.0426 32.8901C21.5376 32.7113 21.0325 32.5321 20.5275 32.3525C20.6145 32.2066 20.7254 32.0762 20.8555 31.9668C21.3364 31.5655 22.0001 31.493 22.6106 31.3576C23.2221 31.2222 23.8858 30.9447 24.1093 30.3607C24.3415 29.7535 24.0048 29.0979 23.8094 28.4791C23.5356 27.6157 23.5414 26.6517 23.9081 25.824C24.2748 24.9963 25.0198 24.3253 25.9041 24.1281C26.7884 23.9318 27.7879 24.2518 28.3316 24.9751C28.6819 24.87 29.0586 24.8968 29.3905 25.0504C29.7225 25.2039 29.9866 25.4736 30.1332 25.8085C30.2599 26.1257 30.2638 26.5076 30.0751 26.7928C29.8864 27.0781 29.483 27.2241 29.1792 27.0655L29.3553 26.6188C28.8106 26.8035 28.4564 27.7878 28.53 28.3583C28.6025 28.9278 28.9354 29.4267 29.273 29.8918C29.6107 30.3568 29.9706 30.8268 30.1158 31.3827C30.3247 32.1824 30.0422 33.0564 29.5198 33.6975C28.9973 34.3386 28.261 34.7737 27.4986 35.0937C26.9279 35.3335 26.3348 35.5162 25.728 35.639C25.8364 35.4283 25.9437 35.2175 26.0521 35.0067L24.7663 35.7841C24.5176 35.8083 24.267 35.8228 24.0164 35.8276C23.2869 35.8402 22.5429 35.7638 21.8753 35.4727C21.2067 35.1807 20.6194 34.6518 20.3775 33.9644C20.3 33.742 20.2633 33.5075 20.2692 33.2721C20.8603 33.1444 21.4515 33.0171 22.0426 32.8901Z" fill="#2F2E41"/>
<path d="M19.6357 68.4055C19.5617 68.4089 19.4885 68.3895 19.4259 68.3499C19.3634 68.3103 19.3145 68.2524 19.2859 68.1842C19.2573 68.1159 19.2505 68.0405 19.2662 67.9682C19.282 67.8958 19.3196 67.8301 19.374 67.7799C19.3831 67.7437 19.3896 67.7177 19.3987 67.6815C19.3955 67.6737 19.3922 67.6658 19.3889 67.6579C19.3143 67.482 19.1895 67.332 19.0299 67.2268C18.8704 67.1216 18.6832 67.0658 18.4921 67.0665C18.3009 67.0673 18.1142 67.1244 17.9555 67.2308C17.7967 67.3372 17.6729 67.4881 17.5997 67.6646C17.3071 68.3689 16.9345 69.0744 16.8428 69.8191C16.8024 70.1483 16.8194 70.482 16.8932 70.8053C16.2059 69.3071 15.849 67.6786 15.8467 66.0304C15.8465 65.6168 15.8695 65.2035 15.9156 64.7925C15.9536 64.4555 16.0064 64.121 16.0739 63.7888C16.4423 61.9865 17.2332 60.2973 18.3817 58.8598C18.9376 58.5567 19.3871 58.0906 19.6697 57.5243C19.7721 57.3207 19.8445 57.1034 19.8846 56.8791C19.8219 56.8873 19.7581 56.8925 19.6954 56.8966C19.6759 56.8976 19.6553 56.8986 19.6358 56.8997L19.6284 56.9C19.5595 56.9031 19.4912 56.8862 19.4317 56.8514C19.3721 56.8165 19.3239 56.7653 19.2929 56.7037C19.2618 56.6421 19.2492 56.5729 19.2566 56.5044C19.264 56.4358 19.2911 56.3709 19.3345 56.3174C19.3616 56.2841 19.3887 56.2508 19.4158 56.2175C19.4569 56.1662 19.4991 56.1158 19.5402 56.0645C19.545 56.0596 19.5494 56.0544 19.5536 56.049C19.6009 55.9905 19.6481 55.933 19.6954 55.8744C19.6091 55.7405 19.493 55.6284 19.3562 55.5467C18.8823 55.2693 18.2285 55.4614 17.8862 55.8898C17.5428 56.3182 17.4781 56.9192 17.5973 57.4544C17.7146 57.9098 17.9086 58.342 18.1709 58.7324C18.1452 58.7653 18.1185 58.7971 18.0928 58.83C17.623 59.4337 17.2136 60.0819 16.8703 60.7654C16.9538 59.9997 16.8542 59.2251 16.5796 58.5053C16.3014 57.8346 15.7799 57.2696 15.3206 56.6897C14.769 55.9932 13.6378 56.2972 13.5406 57.1801C13.5397 57.1887 13.5387 57.1972 13.5378 57.2058C13.6061 57.2442 13.6728 57.2851 13.7382 57.3282C13.8202 57.3831 13.8838 57.4613 13.9206 57.5529C13.9574 57.6444 13.9657 57.7449 13.9443 57.8412C13.923 57.9376 13.873 58.0252 13.801 58.0926C13.7289 58.1601 13.6382 58.2042 13.5406 58.2192L13.5307 58.2208C13.555 58.4665 13.5979 58.71 13.6591 58.9491C13.8366 59.6169 14.1502 60.2408 14.5802 60.7817C15.0102 61.3226 15.5474 61.769 16.1582 62.0927C16.1983 62.1133 16.2373 62.1338 16.2774 62.1533C15.9325 63.13 15.7162 64.1473 15.6339 65.1798C15.5873 65.7889 15.59 66.4008 15.6421 67.0094L15.639 66.9878C15.5074 66.311 15.1462 65.7003 14.6162 65.2589C13.8291 64.6127 12.717 64.3748 11.8678 63.8554C11.7776 63.7975 11.6726 63.7665 11.5654 63.7663C11.4581 63.766 11.3531 63.7964 11.2625 63.8539C11.172 63.9113 11.0998 63.9935 11.0545 64.0906C11.0091 64.1877 10.9925 64.2958 11.0066 64.402C11.0077 64.4096 11.0089 64.4172 11.0101 64.4247C11.1366 64.4762 11.2599 64.5356 11.3791 64.6024C11.4473 64.6409 11.5141 64.6817 11.5794 64.7249C11.6615 64.7797 11.7251 64.858 11.7619 64.9495C11.7987 65.0411 11.8069 65.1416 11.7856 65.2379C11.7642 65.3342 11.7143 65.4218 11.6422 65.4893C11.5702 65.5567 11.4795 65.6008 11.3819 65.6159L11.3719 65.6174C11.3647 65.6184 11.3585 65.6195 11.3513 65.6205C11.5676 66.1366 11.8712 66.6117 12.2488 67.0248C12.7152 67.525 13.2789 67.9247 13.9054 68.1993C14.5318 68.474 15.2078 68.618 15.8919 68.6223H15.893C16.0787 69.4287 16.3477 70.2137 16.6958 70.9646H19.5639C19.5741 70.9327 19.5834 70.8998 19.5926 70.868C19.3272 70.8847 19.0607 70.8688 18.799 70.8208C19.0118 70.5598 19.2246 70.2968 19.4374 70.0359C19.4422 70.031 19.4466 70.0259 19.4508 70.0205C19.5587 69.8869 19.6677 69.7544 19.7756 69.6209L19.7757 69.6207C19.7814 69.2113 19.7344 68.8029 19.6358 68.4055L19.6357 68.4055Z" fill="#F2F2F2"/>
<path d="M38.8996 71.1656L11.3353 71.1963C11.3037 71.1963 11.2735 71.1838 11.2511 71.1615C11.2288 71.1392 11.2163 71.1089 11.2163 71.0774C11.2163 71.0458 11.2288 71.0156 11.2511 70.9933C11.2735 70.971 11.3037 70.9584 11.3353 70.9584L38.8996 70.9277C38.9311 70.9277 38.9614 70.9403 38.9837 70.9626C39.0061 70.9849 39.0186 71.0151 39.0186 71.0467C39.0186 71.0782 39.0061 71.1085 38.9837 71.1308C38.9614 71.1531 38.9311 71.1656 38.8996 71.1656Z" fill="#CACACA"/>
</g>
<defs>
<clipPath id="clip0_612_7078">
<rect width="77.2815" height="77.2815" fill="white"/>
</clipPath>
<clipPath id="clip1_612_7078">
<rect width="57" height="67" fill="white" transform="translate(11 4.19629)"/>
</clipPath>
</defs>
</svg>
