<svg width="78" height="78" viewBox="0 0 78 78" fill="none" xmlns="http://www.w3.org/2000/svg">
<g clip-path="url(#clip0_612_6845)">
<rect width="77.2815" height="77.2815" rx="15" fill="white"/>
<g clip-path="url(#clip1_612_6845)">
<path opacity="0.1" d="M40.3039 67.1027C52.3524 67.1027 62.1196 65.5304 62.1196 63.5909C62.1196 61.6514 52.3524 60.0791 40.3039 60.0791C28.2553 60.0791 18.4881 61.6514 18.4881 63.5909C18.4881 65.5304 28.2553 67.1027 40.3039 67.1027Z" fill="black"/>
<path opacity="0.1" d="M37.9485 55.4001C42.5053 52.8779 47.7106 52.0727 52.7974 53.1546C60.0062 54.6871 69.0652 54.0861 70.8176 42.2638C73.8143 22.0719 61.2555 16.7425 61.2555 16.7425C61.2555 16.7425 52.9038 16.043 47.9653 13.3797C40.9502 9.59686 32.9319 9.11372 25.8813 12.3155C21.3727 14.3609 17.6601 17.2107 17.0252 21.1206C15.2515 32.0589 18.1646 38.0851 12.7152 41.6558C7.26591 45.2265 11.9228 55.0297 16.1022 54.6906C20.2816 54.3515 29.7202 50.6283 33.3987 54.9403C34.7063 56.4678 36.3593 56.2798 37.9485 55.4001Z" fill="black"/>
<path opacity="0.1" d="M65.8599 62.3337C67.6231 62.3337 69.0524 61.8255 69.0524 61.1986C69.0524 60.5717 67.6231 60.0635 65.8599 60.0635C64.0967 60.0635 62.6673 60.5717 62.6673 61.1986C62.6673 61.8255 64.0967 62.3337 65.8599 62.3337Z" fill="black"/>
<path d="M65.7308 61.3595C65.7308 61.3595 66.5821 58.4621 65.5704 56.3295C65.1396 55.4377 65.0096 54.4302 65.2001 53.4583C65.2941 52.9975 65.4302 52.5463 65.6066 52.1104" stroke="#535461" stroke-width="2" stroke-miterlimit="10"/>
<path d="M64.9766 50.7632C64.9766 51.118 65.6194 52.1481 65.6194 52.1481C65.6194 52.1481 66.2622 51.1187 66.2622 50.7632C66.2622 50.5927 66.1944 50.4291 66.0738 50.3085C65.9532 50.1879 65.7896 50.1201 65.619 50.1201C65.4485 50.1201 65.2849 50.1879 65.1643 50.3085C65.0437 50.4291 64.9759 50.5927 64.9759 50.7632H64.9766Z" fill="#7000FF"/>
<path d="M63.9139 52.7305C64.1068 53.0285 65.2065 53.5435 65.2065 53.5435C65.2065 53.5435 65.1866 52.3296 64.9936 52.0317C64.901 51.8886 64.7553 51.7882 64.5886 51.7525C64.4218 51.7168 64.2478 51.7489 64.1047 51.8415C63.9616 51.9342 63.8612 52.0799 63.8255 52.2466C63.7899 52.4133 63.8219 52.5874 63.9146 52.7305H63.9139Z" fill="#7000FF"/>
<path d="M63.96 56.0908C64.2771 56.2504 65.486 56.1404 65.486 56.1404C65.486 56.1404 64.856 55.1025 64.5389 54.9429C64.4635 54.9049 64.3814 54.8821 64.2972 54.8758C64.213 54.8695 64.1284 54.8799 64.0483 54.9063C63.9681 54.9327 63.8939 54.9747 63.8299 55.0298C63.766 55.0849 63.7135 55.152 63.6755 55.2274C63.6375 55.3027 63.6147 55.3849 63.6084 55.469C63.6021 55.5532 63.6125 55.6378 63.6389 55.718C63.6653 55.7982 63.7073 55.8724 63.7624 55.9363C63.8174 56.0003 63.8846 56.0528 63.96 56.0908Z" fill="#7000FF"/>
<path d="M64.568 58.627C64.8518 58.8398 66.0635 58.9335 66.0635 58.9335C66.0635 58.9335 65.618 57.8047 65.3328 57.5919C65.2649 57.5417 65.1878 57.5053 65.1059 57.4849C65.024 57.4645 64.9388 57.4604 64.8553 57.4729C64.7718 57.4854 64.6916 57.5142 64.6192 57.5577C64.5468 57.6012 64.4837 57.6585 64.4335 57.7263C64.3833 57.7942 64.347 57.8713 64.3265 57.9532C64.3061 58.0352 64.302 58.1203 64.3145 58.2038C64.327 58.2873 64.3558 58.3675 64.3993 58.4399C64.4428 58.5123 64.5001 58.5754 64.568 58.6256V58.627Z" fill="#7000FF"/>
<path d="M66.5559 53.6119C66.3012 53.8595 65.1143 54.1156 65.1143 54.1156C65.1143 54.1156 65.4051 52.9372 65.6598 52.6896C65.7821 52.5708 65.9466 52.5054 66.1171 52.5079C66.2876 52.5103 66.4502 52.5804 66.569 52.7027C66.6878 52.825 66.7532 52.9895 66.7507 53.16C66.7483 53.3305 66.6782 53.4931 66.5559 53.6119Z" fill="#7000FF"/>
<path d="M67.2277 56.5859C66.9106 56.7455 65.7017 56.6356 65.7017 56.6356C65.7017 56.6356 66.3317 55.5976 66.6488 55.438C66.801 55.3612 66.9775 55.3481 67.1394 55.4014C67.3014 55.4548 67.4354 55.5703 67.5122 55.7225C67.589 55.8747 67.6021 56.0512 67.5488 56.2131C67.4954 56.375 67.3799 56.5091 67.2277 56.5859Z" fill="#7000FF"/>
<path d="M67.4874 59.566C67.2036 59.7789 65.9919 59.8725 65.9919 59.8725C65.9919 59.8725 66.4374 58.743 66.7226 58.5323C66.8597 58.4309 67.0314 58.3881 67.2001 58.4133C67.3687 58.4385 67.5204 58.5297 67.6218 58.6668C67.7232 58.8039 67.7661 58.9756 67.7408 59.1442C67.7156 59.3129 67.6245 59.4646 67.4874 59.566Z" fill="#7000FF"/>
<path opacity="0.1" d="M9.81285 60.9148C11.576 60.9148 13.0054 60.4066 13.0054 59.7797C13.0054 59.1527 11.576 58.6445 9.81285 58.6445C8.04965 58.6445 6.6203 59.1527 6.6203 59.7797C6.6203 60.4066 8.04965 60.9148 9.81285 60.9148Z" fill="black"/>
<path d="M9.81569 59.7909C9.81569 59.7909 11.6369 53.6065 9.47444 49.0554C8.56634 47.1448 8.26837 45.0008 8.68482 42.9278C8.88426 41.9438 9.17351 40.9801 9.54893 40.0488" stroke="#535461" stroke-width="2" stroke-miterlimit="10"/>
<path d="M8.20593 37.1719C8.20593 37.9296 9.57802 40.1275 9.57802 40.1275C9.57802 40.1275 10.9501 37.9282 10.9501 37.1719C10.9501 36.808 10.8056 36.459 10.5482 36.2017C10.2909 35.9444 9.94192 35.7998 9.57802 35.7998C9.21412 35.7998 8.86513 35.9444 8.60781 36.2017C8.35049 36.459 8.20593 36.808 8.20593 37.1719Z" fill="#7000FF"/>
<path d="M5.9378 41.3694C6.35 42.0079 8.69617 43.1047 8.69617 43.1047C8.69617 43.1047 8.6536 40.5138 8.24141 39.8781C8.14574 39.7222 8.01986 39.587 7.87117 39.4804C7.72249 39.3739 7.55399 39.2981 7.37561 39.2577C7.19722 39.2172 7.01254 39.2128 6.83242 39.2447C6.65231 39.2766 6.48039 39.3443 6.32679 39.4436C6.1732 39.5429 6.04101 39.672 5.93801 39.8232C5.83502 39.9743 5.76329 40.1446 5.72705 40.3239C5.6908 40.5032 5.69078 40.6879 5.72697 40.8672C5.76316 41.0465 5.83485 41.2168 5.9378 41.368V41.3694Z" fill="#7000FF"/>
<path d="M6.03642 48.5437C6.71111 48.8849 9.29353 48.6522 9.29353 48.6522C9.29353 48.6522 7.94556 46.4373 7.27229 46.0982C7.11139 46.017 6.93608 45.9684 6.75638 45.955C6.57667 45.9416 6.39609 45.9637 6.22493 46.0201C5.87927 46.134 5.59301 46.3805 5.42912 46.7055C5.26524 47.0304 5.23715 47.4072 5.35104 47.7528C5.46493 48.0985 5.71147 48.3848 6.03642 48.5486V48.5437Z" fill="#7000FF"/>
<path d="M7.33401 53.9548C7.94344 54.4053 10.5266 54.6089 10.5266 54.6089C10.5266 54.6089 9.57589 52.1968 8.96576 51.7484C8.67317 51.532 8.30661 51.4407 7.94671 51.4946C7.58682 51.5485 7.26307 51.7432 7.04668 52.0357C6.8303 52.3283 6.73901 52.6949 6.79289 53.0548C6.84678 53.4147 7.04142 53.7384 7.33401 53.9548Z" fill="#7000FF"/>
<path d="M11.5773 43.2523C11.0338 43.7802 8.50107 44.3272 8.50107 44.3272C8.50107 44.3272 9.12113 41.8114 9.66458 41.2836C9.79385 41.1578 9.94662 41.0587 10.1142 40.992C10.2817 40.9253 10.4608 40.8922 10.6412 40.8947C10.8215 40.8971 10.9996 40.9351 11.1653 41.0064C11.3309 41.0777 11.4809 41.1809 11.6067 41.3102C11.7325 41.4395 11.8316 41.5922 11.8983 41.7598C11.965 41.9274 11.9981 42.1064 11.9956 42.2868C11.9932 42.4671 11.9552 42.6452 11.8839 42.8109C11.8126 42.9765 11.7094 43.1266 11.5801 43.2523H11.5773Z" fill="#7000FF"/>
<path d="M13.0139 49.5992C12.3371 49.9405 9.75681 49.705 9.75681 49.705C9.75681 49.705 11.1048 47.49 11.778 47.1509C12.103 46.987 12.4797 46.9589 12.8254 47.0728C13.1711 47.1867 13.4573 47.4333 13.6212 47.7582C13.7851 48.0832 13.8132 48.4599 13.6993 48.8056C13.5854 49.1512 13.3389 49.4375 13.0139 49.6014V49.5992Z" fill="#7000FF"/>
<path d="M13.5637 55.9597C12.9543 56.4102 10.3712 56.6138 10.3712 56.6138C10.3712 56.6138 11.3219 54.2017 11.932 53.7533C12.2246 53.5369 12.5911 53.4456 12.951 53.4995C13.3109 53.5534 13.6347 53.748 13.8511 54.0406C14.0675 54.3332 14.1587 54.6998 14.1049 55.0597C14.051 55.4196 13.8563 55.7433 13.5637 55.9597Z" fill="#7000FF"/>
<path d="M62.6269 36.489C62.8005 36.4051 62.946 36.2725 63.0455 36.1074C62.8035 36.0322 62.5681 35.9373 62.3417 35.8236L62.5453 34.9368C62.5636 34.854 62.5652 34.7684 62.55 34.685C62.5349 34.6016 62.5033 34.522 62.457 34.451C62.4108 34.3799 62.3509 34.3188 62.2808 34.2711C62.2107 34.2234 62.1318 34.1902 62.0487 34.1734L61.8075 34.1202C61.6401 34.0823 61.4646 34.1116 61.3187 34.2019C61.1727 34.2921 61.068 34.436 61.0271 34.6026L60.9824 34.797C60.65 34.4387 60.3779 34.0291 60.1764 33.5838C60.1055 33.4499 60.0687 33.3005 60.0693 33.1489C60.0828 32.968 60.1899 32.8091 60.2772 32.6523C60.5753 32.1082 60.6727 31.4767 60.5524 30.868C60.4425 30.3232 60.1637 29.8273 59.9849 29.3008C59.6315 28.2585 59.6719 27.1229 60.0984 26.1083C60.3446 25.5279 60.7227 24.927 60.5638 24.3183C60.3871 23.6394 59.6415 23.2946 59.003 22.9704C58.3645 22.6461 57.6884 22.0779 57.821 21.389C57.8629 21.1719 57.9856 20.9591 57.936 20.7441C57.8693 20.4603 57.5394 20.3184 57.2521 20.2304C56.4837 19.9864 55.704 19.7402 54.8967 19.7026C54.234 19.6721 53.5416 19.7998 52.9896 20.1446C52.826 20.2343 52.6736 20.3431 52.5356 20.4688C52.4098 20.5995 52.2754 20.7215 52.1333 20.8342C51.8425 20.981 51.4948 20.9619 51.1663 20.9931C50.7877 21.028 50.4222 21.1493 50.0979 21.3478C49.8988 21.453 49.7191 21.5915 49.5665 21.7572C49.1941 22.1687 49.0302 22.7717 49.2118 23.2903C49.2489 23.393 49.2997 23.4901 49.3629 23.5791C49.0813 24.0409 48.9326 24.5713 48.933 25.1122C48.933 26.6503 50.1156 27.9181 51.6417 28.099C51.7311 28.4417 51.8176 28.8007 51.885 29.1334C51.8669 29.1498 51.8477 29.1649 51.8276 29.1788C51.702 29.2391 51.5587 29.2774 51.4274 29.3292C51.3305 29.3673 51.2376 29.4149 51.15 29.4711C50.5009 29.8209 50.1681 30.5786 49.9 31.271C50.0844 31.2377 50.2675 31.2001 50.4491 31.1554C50.4399 31.1781 50.4328 31.2 50.4264 31.2206C50.2398 31.8591 49.2111 35.4163 49.2111 35.4163L49.4296 34.9467C49.4384 35.0137 49.4273 35.0818 49.3977 35.1425C49.3069 35.3192 49.4807 35.1907 49.7567 34.936C49.7567 34.9509 49.7602 34.9595 49.7708 34.9602C49.1224 36.0187 47.0806 39.324 46.0646 40.6649C44.8025 40.8345 43.8831 40.9799 43.8831 40.9799C43.6833 40.9817 43.4867 41.0303 43.3091 41.1218C43.06 41.2498 42.8498 41.4425 42.7008 41.6797C42.5517 41.9168 42.4693 42.1897 42.462 42.4698L42.3911 44.7166C42.3911 44.7166 41.8505 47.4189 41.8611 48.9577C41.8528 49.2177 41.8737 49.4778 41.9235 49.7332C42.0085 50.1187 42.0501 50.5125 42.0477 50.9073C42.044 51.3699 42.0025 51.8314 41.9235 52.2872C41.9271 52.2908 41.9335 52.2943 41.9377 52.2979C41.9292 52.3496 41.9235 52.378 41.9235 52.378C42.0264 52.4781 42.3414 52.5511 42.7437 52.6036C42.6302 53.2351 42.213 53.8807 40.9892 53.9282C39.2014 53.9956 38.8303 54.3092 38.7594 54.4702C38.7439 54.4999 38.7394 54.534 38.7466 54.5667C38.8403 55.7522 41.5035 55.6153 42.2981 55.6614C42.4153 55.6643 42.5325 55.6536 42.6472 55.6295C42.7181 55.6167 42.7891 55.6004 42.865 55.5812C43.0558 55.533 43.2701 55.4649 43.4936 55.384C43.7618 55.2868 44.0441 55.1712 44.318 55.0456C44.4549 54.9832 44.589 54.9186 44.7188 54.8533C44.8054 54.8093 44.8891 54.7653 44.97 54.7214C45.3751 54.5014 45.7035 54.2815 45.849 54.1105C45.8624 54.0949 45.8747 54.0783 45.8859 54.0609C45.8894 54.0545 45.893 54.0481 45.8965 54.0417C45.9001 54.0353 45.9093 54.019 45.915 54.0069C45.9206 53.9949 45.922 53.9906 45.9249 53.9821C45.9277 53.9736 45.9327 53.9608 45.9362 53.9502C45.9398 53.9395 45.9419 53.931 45.9447 53.9211C45.9476 53.9112 45.949 53.9012 45.9511 53.8913C45.9533 53.8814 45.9554 53.8693 45.9568 53.858C45.9582 53.8466 45.9568 53.8416 45.9568 53.8331C45.9937 53.4507 45.7064 52.9307 45.473 52.5802V51.0989C45.473 51.0989 45.8036 47.6105 45.7972 46.071C45.8069 45.8308 45.7921 45.5902 45.7532 45.353C45.734 45.2794 45.7221 45.204 45.7177 45.1281C45.718 45.0099 45.7588 44.8954 45.8333 44.8036C45.9078 44.7118 46.0115 44.6483 46.1271 44.6237C46.9586 44.1909 49.1068 44.3676 50.713 44.5832C49.3175 44.7961 46.1959 45.1636 46.1959 45.5821V46.5754C46.1986 46.8164 46.2913 47.0478 46.4558 47.224C46.6202 47.4003 46.8446 47.5087 47.0848 47.5282V64.4615H48.1958V47.5331H58.0694V64.4615H59.1804V47.3388C59.4468 47.202 59.6706 46.9947 59.8274 46.7395C59.9841 46.4843 60.0678 46.191 60.0693 45.8915V45.6453L62.1374 36.7061C62.3102 36.6578 62.4751 36.5847 62.6269 36.489ZM58.505 45.5126C58.4397 45.2288 57.9785 44.977 57.2435 44.7812C58.4908 44.1696 58.754 42.9564 58.7448 42.0143C58.747 41.6947 58.7206 41.3756 58.666 41.0608C58.745 40.9942 58.8053 40.9083 58.841 40.8114C58.8767 40.7145 58.8865 40.61 58.8696 40.5081C58.8855 40.3207 58.8448 40.1329 58.7526 39.9689C58.0147 38.4791 57.9012 37.6277 57.8856 36.4699C58.0323 36.6068 58.2015 36.7175 58.3858 36.7969C58.8214 36.985 59.3081 37.0183 59.7855 37.014C60.0161 37.014 60.2467 37.0006 60.4772 36.9828L58.505 45.5126ZM50.8996 36.5969C50.9592 36.709 50.9954 36.7799 50.9954 36.7799L51.199 36.5997C52.1731 36.6331 52.3816 37.1041 52.4114 37.417C52.4088 37.448 52.404 37.4789 52.3973 37.5092L51.5558 39.9718C50.0951 39.7469 49.4566 40.1385 49.2764 40.2846C48.8258 40.3272 48.3675 40.3769 47.9163 40.4265C48.8223 39.2474 50.0709 37.6554 50.8996 36.5969Z" fill="url(#paint0_linear_612_6845)"/>
<path d="M48.5435 33.5029C48.5435 33.5029 45.2346 39.0814 44.4591 39.8221C44.4591 39.8221 41.1502 43.2558 42.8324 43.0146C42.9558 42.9969 45.3772 40.9501 45.5184 40.6152C45.6595 40.2804 50.2384 34.3323 50.2384 34.3323L49.5857 33.7314L48.5435 33.5029Z" fill="#F8BDC5"/>
<path d="M57.6735 63.5967H58.7228V46.8932H57.6735V63.5967Z" fill="#40414D"/>
<path d="M47.182 63.5967H48.2313V46.8932H47.182V63.5967Z" fill="#40414D"/>
<path d="M46.342 45.3183C46.342 45.9569 50.7031 46.4726 53.3699 46.4726C56.0368 46.4726 58.0928 45.9569 58.0928 45.3183C58.0928 44.6798 56.0353 44.1641 53.3692 44.1641C50.7031 44.1641 46.342 44.6798 46.342 45.3183Z" fill="#F6C6CD"/>
<path d="M58.285 47.207H47.087C46.9889 47.2075 46.8916 47.1886 46.8008 47.1513C46.71 47.1141 46.6275 47.0593 46.5579 46.9901C46.4884 46.9209 46.4332 46.8386 46.3955 46.748C46.3579 46.6574 46.3385 46.5602 46.3385 46.4621V45.3177H59.5621V45.93C59.5621 46.2687 59.4275 46.5935 59.188 46.833C58.9485 47.0725 58.6237 47.207 58.285 47.207Z" fill="#40414D"/>
<path d="M58.2748 47.0098L57.717 46.8839L60.4967 34.5696C60.5257 34.4411 60.6045 34.3294 60.7159 34.2591C60.8272 34.1888 60.962 34.1655 61.0905 34.1945L61.5576 34.3C61.6861 34.329 61.7978 34.4078 61.8681 34.5192C61.9384 34.6305 61.9617 34.7653 61.9327 34.8938L59.3508 46.3319C59.2983 46.5642 59.1557 46.7663 58.9543 46.8935C58.7529 47.0207 58.5093 47.0627 58.2769 47.0102L58.2748 47.0098Z" fill="#40414D"/>
<path d="M45.5184 51.7196C45.5184 51.7196 46.5776 53.0441 46.1363 53.5741C45.695 54.1041 43.4914 55.1172 42.7813 55.0753C42.0307 55.0313 39.5178 55.1633 39.4263 54.0161C39.4263 54.0161 39.2496 53.4861 41.5454 53.3981C43.8412 53.3102 43.1317 50.9229 43.1317 50.9229L45.5184 51.7196Z" fill="#594C76"/>
<path opacity="0.1" d="M58.1424 40.5941C58.1424 40.5941 59.2016 44.2123 56.0233 44.8324L52.5796 44.6557C52.5796 44.6557 47.7234 43.6844 46.3988 44.3911C46.3988 44.3911 45.8688 44.479 46.0441 45.1857C46.2193 45.8923 45.7794 50.6598 45.7794 50.6598V52.249C45.7794 52.249 42.777 52.249 42.4244 51.8943C42.4244 51.8943 42.6891 50.4817 42.4244 49.3338C42.1598 48.1859 42.8657 44.5656 42.8657 44.5656L42.9367 42.3904C42.9419 42.1211 43.0188 41.8581 43.1594 41.6284C43.3001 41.3987 43.4994 41.2106 43.7369 41.0836C43.904 40.9951 44.0899 40.9479 44.2789 40.9459C44.2789 40.9459 50.2831 39.9747 52.4022 40.1514C54.5214 40.328 58.1424 40.5941 58.1424 40.5941Z" fill="black"/>
<path d="M58.1424 40.5051C58.1424 40.5051 59.2016 44.1233 56.0233 44.7434L52.5796 44.5667C52.5796 44.5667 47.7234 43.5955 46.3988 44.3021C46.3988 44.3021 45.8688 44.3901 46.0441 45.0967C46.2193 45.8033 45.7802 50.568 45.7802 50.568V52.1572C45.7802 52.1572 42.7777 52.1572 42.4251 51.8025C42.4251 51.8025 42.6898 50.39 42.4251 49.2421C42.1605 48.0942 42.8664 44.4738 42.8664 44.4738L42.9374 42.2986C42.9426 42.0293 43.0195 41.7663 43.1601 41.5366C43.3008 41.3069 43.5001 41.1188 43.7376 40.9918C43.9047 40.9033 44.0906 40.8561 44.2797 40.8542C44.2797 40.8542 50.2838 39.8829 52.4029 40.0596C54.5221 40.2362 58.1424 40.5051 58.1424 40.5051Z" fill="#8B9CD1"/>
<path d="M52.2263 28.9385C52.2263 28.9385 50.6371 30.793 50.4604 31.4109C50.2838 32.0289 48.3413 33.618 48.3413 33.618C48.3413 33.618 49.7538 34.6758 49.4913 35.2072C49.2288 35.7386 51.343 33.4414 51.343 33.4414L53.8155 29.8232L52.2263 28.9385Z" fill="#7000FF"/>
<path opacity="0.1" d="M52.2263 28.9385C52.2263 28.9385 50.6371 30.793 50.4604 31.4109C50.2838 32.0289 48.3413 33.618 48.3413 33.618C48.3413 33.618 49.7538 34.6758 49.4913 35.2072C49.2288 35.7386 51.343 33.4414 51.343 33.4414L53.8155 29.8232L52.2263 28.9385Z" fill="black"/>
<path d="M51.1663 26.8193C51.1663 26.8193 51.9609 29.3798 51.9609 30.351C51.9609 31.3223 55.316 30.0864 55.2244 29.5564C55.1329 29.0265 53.2819 27.084 53.1933 26.2929C53.1046 25.5019 51.1663 26.8193 51.1663 26.8193Z" fill="#F8BDC5"/>
<path opacity="0.1" d="M53.819 28.5853C53.819 28.5853 56.9094 27.7907 57.3507 32.2936C57.792 36.7966 56.9959 37.3265 58.3219 40.0636C59.6479 42.8007 49.3154 40.4183 49.3154 40.4183C49.3154 40.4183 49.8453 39.8004 51.5225 40.0636L52.3171 37.6798C52.3171 37.6798 52.5817 36.6206 51.0812 36.6206C49.5807 36.6206 50.2866 33.5302 50.2866 33.5302C50.2866 33.5302 51.0812 30.8811 51.5225 30.6165C51.9638 30.3519 52.7548 28.762 53.819 28.5853Z" fill="black"/>
<path d="M53.819 28.4086C53.819 28.4086 56.9094 27.614 57.3507 32.1169C57.792 36.6198 56.9959 37.1498 58.3219 39.8869C59.6479 42.6239 49.3154 40.2416 49.3154 40.2416C49.3154 40.2416 49.8453 39.6236 51.5225 39.8869L52.3171 37.5031C52.3171 37.5031 52.5817 36.4439 51.0812 36.4439C49.5807 36.4439 50.2866 33.3535 50.2866 33.3535C50.2866 33.3535 51.0812 30.7044 51.5225 30.4397C51.9638 30.1751 52.7548 28.5852 53.819 28.4086Z" fill="#7000FF"/>
<path d="M50.0333 34.709C50.0333 34.709 46.7244 40.2874 45.949 41.0281C45.949 41.0281 42.6401 44.4619 44.3222 44.2207C44.4457 44.2029 46.867 42.1561 47.0082 41.8213C47.1494 41.4864 51.7282 35.5383 51.7282 35.5383L51.0755 34.9374L50.0333 34.709Z" fill="#F8BDC5"/>
<path opacity="0.1" d="M55.67 32.5587L50.9876 36.797C50.9876 36.797 50.1071 35.0312 49.8425 35.0312C49.5779 35.0312 53.0209 29.8216 53.0209 29.8216C53.0209 29.8216 53.9041 28.7624 54.4334 29.2917C54.9626 29.8209 56.5525 29.4683 55.67 32.5587Z" fill="black"/>
<path d="M55.7579 32.382L51.0755 36.6203C51.0755 36.6203 50.1923 34.8544 49.9276 34.8544C49.663 34.8544 53.1095 29.6449 53.1095 29.6449C53.1095 29.6449 53.9928 28.5857 54.5221 29.1149C55.0513 29.6442 56.6412 29.2916 55.7579 32.382Z" fill="#7000FF"/>
<path d="M51.9609 28.4085C53.5701 28.4085 54.8747 27.104 54.8747 25.4948C54.8747 23.8856 53.5701 22.5811 51.9609 22.5811C50.3517 22.5811 49.0472 23.8856 49.0472 25.4948C49.0472 27.104 50.3517 28.4085 51.9609 28.4085Z" fill="#F8BDC5"/>
<path opacity="0.1" d="M50.5442 24.5372C50.017 24.6081 49.4856 24.2335 49.3111 23.7313C49.1366 23.229 49.2913 22.6451 49.6431 22.2471C49.995 21.8491 50.5186 21.6263 51.0479 21.5745C51.3693 21.5433 51.7119 21.566 51.9922 21.4057C52.1688 21.3049 52.3001 21.1417 52.4483 21.0027C53.0038 20.4791 53.8091 20.289 54.5717 20.3244C55.3344 20.3599 56.0708 20.599 56.7973 20.8353C57.0683 20.9232 57.3805 21.0545 57.4429 21.3319C57.4904 21.5405 57.372 21.7469 57.3344 21.9562C57.2095 22.6224 57.8515 23.1701 58.451 23.4872C59.0505 23.8043 59.7571 24.1378 59.9239 24.7954C60.0736 25.385 59.7167 25.966 59.484 26.5279C59.0815 27.5119 59.0435 28.6074 59.3769 29.6169C59.5472 30.1263 59.8111 30.6101 59.9146 31.1344C60.0284 31.723 59.9368 32.3328 59.655 32.862C59.572 33.0166 59.4705 33.1706 59.4585 33.3451C59.4576 33.4916 59.4921 33.6362 59.5592 33.7665C59.8149 34.3405 60.1881 34.8545 60.6548 35.2752C61.1215 35.696 61.6713 36.0142 62.2686 36.2092C62.0792 36.5525 61.6656 36.6959 61.2839 36.786C60.6326 36.9389 59.9664 37.0193 59.2974 37.0258C58.8476 37.03 58.3858 36.9981 57.975 36.8129C57.5642 36.6277 57.2074 36.2737 57.13 35.8303C57.0853 35.5735 57.135 35.3082 57.1031 35.0499C57.0321 34.4682 56.5646 34.012 56.3936 33.4515C56.2297 32.9159 56.1347 32.8343 56.1978 32.2774C56.261 31.7204 56.2489 31.1018 55.8856 30.6754C55.5054 30.2285 54.8371 30.1291 54.2638 30.2561C53.6906 30.3831 53.394 30.2036 52.8705 30.469C51.9544 30.935 50.9763 31.2676 49.9659 31.4565C50.2398 30.7315 50.5839 29.9319 51.3019 29.6389C51.5076 29.5552 51.746 29.5105 51.8857 29.3381C52.1085 29.0628 51.9567 28.6215 52.1489 28.325C52.3412 28.0284 52.7988 28.0149 53.062 27.7681C53.2855 27.5552 53.3266 27.2069 53.2401 26.9132C53.1535 26.6194 52.9627 26.369 52.7697 26.1328C52.599 25.9204 52.4242 25.7113 52.2454 25.5056C52.0789 25.3329 51.9396 25.1357 51.8325 24.921C51.7722 24.7791 51.7836 24.5109 51.685 24.3981C51.4352 24.1122 50.8485 24.4968 50.5442 24.5372Z" fill="black"/>
<path d="M50.6513 24.4727C50.1242 24.5437 49.5928 24.1691 49.4182 23.6668C49.2437 23.1645 49.3984 22.5806 49.7503 22.1826C50.1022 21.7846 50.6257 21.5618 51.155 21.5101C51.4764 21.4788 51.819 21.5015 52.0993 21.3412C52.2759 21.2405 52.4072 21.0773 52.5555 20.9382C53.111 20.4147 53.9162 20.2245 54.6789 20.26C55.4415 20.2955 56.1779 20.5346 56.9044 20.7708C57.1754 20.8588 57.4876 20.99 57.55 21.2674C57.5976 21.476 57.4791 21.6825 57.4415 21.8917C57.3166 22.5579 57.9587 23.1056 58.5582 23.4227C59.1577 23.7399 59.8643 24.0733 60.031 24.731C60.1807 25.3205 59.8238 25.9016 59.5911 26.4635C59.1886 27.4475 59.1506 28.5429 59.484 29.5524C59.6543 30.0618 59.9182 30.5457 60.0218 31.07C60.1356 31.6586 60.0439 32.2684 59.7621 32.7975C59.6791 32.9522 59.5777 33.1061 59.5656 33.2806C59.5647 33.4272 59.5993 33.5718 59.6663 33.7021C59.922 34.2761 60.2952 34.79 60.7619 35.2108C61.2286 35.6315 61.7784 35.9497 62.3758 36.1447C62.1863 36.4881 61.7727 36.6314 61.391 36.7215C60.7397 36.8745 60.0735 36.9549 59.4045 36.9613C58.9548 36.9656 58.4929 36.9336 58.0821 36.7485C57.6714 36.5633 57.3145 36.2093 57.2372 35.7659C57.1925 35.509 57.2421 35.2437 57.2102 34.9855C57.1393 34.4037 56.6717 33.9475 56.5007 33.3871C56.3369 32.8514 56.2418 32.7698 56.3049 32.2129C56.3681 31.656 56.356 31.0373 55.9928 30.611C55.6125 30.164 54.9442 30.0647 54.371 30.1917C53.7977 30.3187 53.5012 30.1392 52.9776 30.4045C52.0615 30.8706 51.0834 31.2031 50.0731 31.3921C50.3469 30.667 50.691 29.8674 51.409 29.5744C51.6147 29.4907 51.8531 29.446 51.9929 29.2736C52.2156 28.9984 52.0638 28.5571 52.2561 28.2605C52.4483 27.964 52.9059 27.9505 53.1691 27.7036C53.3926 27.4908 53.4338 27.1424 53.3472 26.8487C53.2607 26.555 53.0698 26.3046 52.8768 26.0683C52.7061 25.8559 52.5313 25.6469 52.3526 25.4411C52.1881 25.2682 52.0508 25.0714 51.9453 24.8573C51.885 24.7154 51.8964 24.4472 51.7978 24.3344C51.5424 24.0478 50.9556 24.433 50.6513 24.4727Z" fill="#EB6475"/>
<g opacity="0.1">
<path d="M43.2325 51.6201C43.2258 51.3852 43.192 51.1519 43.1318 50.9248L43.1764 50.9397C43.2203 51.1637 43.2391 51.3919 43.2325 51.6201Z" fill="white"/>
<path d="M42.7784 54.8952C43.4879 54.9371 45.6922 53.924 46.1335 53.394C46.1913 53.3223 46.2268 53.2352 46.2356 53.1436C46.2484 53.2177 46.2459 53.2937 46.2284 53.3669C46.2108 53.4401 46.1785 53.5089 46.1335 53.5692C45.6922 54.0992 43.4886 55.1123 42.7784 55.0704C42.0278 55.0264 39.5149 55.1584 39.4234 54.0112C39.4168 53.9798 39.4211 53.947 39.4355 53.9183C39.6377 54.9782 42.047 54.8541 42.7784 54.8952Z" fill="white"/>
</g>
<path d="M23.9261 55.4586C24.3517 55.3167 24.9902 55.155 25.4933 55.2124C25.9714 55.0379 27.0966 54.5824 27.865 53.9077C27.8426 53.2395 27.8594 52.5705 27.9153 51.9042C28.3084 47.4347 27.4244 44.4911 27.4244 44.4911C27.4244 44.4911 26.7305 42.2443 26.8065 40.3798C26.7618 40.4643 26.7355 40.5146 26.7355 40.5146C26.6745 38.9063 26.1268 37.2419 25.7167 36.2054C25.701 36.2008 25.6856 36.1951 25.6706 36.1884L25.2045 35.1015C25.168 35.0381 25.1389 34.9708 25.118 34.9007L25.047 34.7283L25.069 34.7191C25.0619 34.6907 25.0541 34.6609 25.047 34.6304C24.754 33.391 24.5305 30.4517 24.5305 30.4517C23.7452 27.3585 25.6103 25.4444 25.6103 25.4444L28.7752 22.7179C28.7595 22.7533 28.749 22.7909 28.744 22.8293L28.7702 22.8066C28.8149 22.6789 28.8639 22.5228 28.9121 22.3497C28.7992 22.2698 28.6933 22.1803 28.5957 22.0822C28.2358 21.7422 27.9883 21.3004 27.8862 20.8159C27.8096 20.4391 27.8245 20.0511 27.8401 19.6673L27.8926 18.3533C27.895 18.0961 27.9211 17.8396 27.9707 17.5871C28.2098 16.5414 29.2782 15.8135 30.3502 15.7674C30.6914 15.7532 31.032 15.7965 31.3718 15.822C31.6479 15.8446 31.9251 15.8506 32.2019 15.8397C32.2334 15.8415 32.2647 15.8333 32.2913 15.8163C32.3156 15.7923 32.3296 15.7597 32.3303 15.7255C32.3357 15.6646 32.3287 15.6031 32.3097 15.545C32.2906 15.4868 32.26 15.4331 32.2196 15.3871C32.1782 15.3506 32.1299 15.3227 32.0777 15.3048L32.1543 15.3233C32.1167 15.2938 32.0742 15.271 32.0288 15.2559C32.3026 15.3204 32.5828 15.3878 32.8184 15.5396C32.8858 15.584 32.9477 15.6361 33.0028 15.695C33.1487 15.823 33.2434 15.9994 33.2696 16.1916C33.3923 16.0717 33.5101 15.9398 33.5534 15.7752C33.5697 15.709 33.5697 15.6399 33.5534 15.5737C33.5718 15.5969 33.5898 15.6205 33.6073 15.6446C33.6073 15.6375 33.6073 15.6305 33.6023 15.6234C33.8025 15.8722 33.9434 16.1634 34.0145 16.4747C34.0413 16.4404 34.0611 16.4011 34.0727 16.3591C34.0842 16.317 34.0874 16.2732 34.0819 16.2299C34.0975 16.2782 34.1124 16.3271 34.1259 16.3768C34.1323 16.3446 34.134 16.3116 34.1309 16.2789C34.2537 16.6548 34.3092 17.0494 34.2948 17.4445C34.2948 17.839 34.1202 18.4527 33.6974 18.591C33.6761 18.5981 33.6534 18.6038 33.6307 18.6087C33.8681 18.9774 34.0103 19.3993 34.0445 19.8365C34.0788 20.2736 34.004 20.7125 33.8268 21.1136C33.6497 21.5148 33.3758 21.8657 33.0297 22.1349C32.6835 22.4041 32.276 22.5833 31.8436 22.6562C31.837 22.7035 31.8304 22.7539 31.8237 22.8073H31.8067C31.7954 22.9137 31.7861 23.0258 31.779 23.1429C31.8854 23.2473 32.0019 23.3409 32.1267 23.4224C32.4811 23.632 32.8764 23.7629 33.2859 23.8062C33.7748 23.8437 34.25 23.985 34.68 24.2205C35.1851 24.5043 35.7442 24.9151 35.918 25.4153C36.2103 26.2503 37.8165 27.5436 38.8977 27.7047L39.2808 27.6827L39.3085 27.6742V27.6813L39.4021 27.6756H39.4078H39.4326V27.6813L39.5298 27.6756C39.5298 27.6756 39.5398 27.7203 39.5525 27.7998C40.0953 27.6139 41.2467 27.096 42.7451 25.7367C44.4152 24.222 46.6691 24.5199 47.5382 24.7108C47.5678 24.7173 47.5946 24.7327 47.6152 24.7549C47.6358 24.7771 47.6492 24.8051 47.6535 24.835C47.6578 24.865 47.6529 24.8956 47.6394 24.9227C47.6259 24.9498 47.6044 24.9722 47.5779 24.9868C47.2274 25.1797 46.6826 25.46 46.4272 25.4912C46.4272 25.4912 46.9536 26.036 46.3945 26.3269C46.3276 26.3599 46.2528 26.3736 46.1785 26.3664C46.1042 26.3593 46.0333 26.3316 45.9738 26.2865C45.7049 26.09 44.9572 26.5355 43.8746 26.7675C43.8746 26.7675 40.8182 29.9303 39.3021 30.4198C39.2672 30.4889 39.2286 30.5562 39.1865 30.6213L39.0928 30.6135L39.0879 30.6213H39.0751L39.0637 30.7206C39.0637 30.7206 36.7048 30.5964 35.9421 29.7401C35.8876 29.6915 35.8375 29.638 35.7924 29.5805L36.6126 39.9017H36.6048L36.6126 39.9996H36.0095C35.957 41.2701 36.0111 42.5429 36.1713 43.8044V50.53C36.1713 50.53 36.2025 51.1224 34.973 51.9844C33.6834 52.8819 32.4407 53.845 31.2498 54.8698L31.1008 54.9989C31.3271 57.0563 31.8003 60.893 32.1948 61.0364L31.9514 61.0789C32.3707 61.6075 33.552 63.0576 33.9131 63.098C34.3551 63.147 34.6495 63.8345 33.9131 63.982C33.2334 64.1182 31.4669 64.2956 29.5393 63.5507C29.4 63.4965 29.2828 63.3972 29.2067 63.2685C29.1305 63.1399 29.0998 62.9894 29.1193 62.8412L29.2612 61.7572C29.2341 61.7723 29.2123 61.7953 29.1987 61.8231C29.1008 62.1176 29.1987 61.4301 29.1987 61.4301C28.795 60.132 28.4779 58.8086 28.2495 57.4685L26.7887 58.7264C26.7887 58.7264 26.7589 58.6902 26.7086 58.6249C26.3538 59.4365 25.7153 61.0945 25.8572 62.3105C26.0537 63.9799 24.1879 62.5071 24.3844 61.5252C24.5433 60.7306 23.8345 57.3649 23.5579 56.1092C23.5283 55.9744 23.5495 55.8335 23.6174 55.7134C23.6854 55.5934 23.7953 55.5026 23.9261 55.4586Z" fill="url(#paint1_linear_612_6845)"/>
<path d="M39.1702 28.2198C39.1702 28.2198 40.5607 27.98 42.6217 26.1106C44.2534 24.6314 46.4527 24.923 47.3041 25.1089C47.3342 25.1134 47.3621 25.1275 47.3836 25.1491C47.4051 25.1707 47.4191 25.1986 47.4235 25.2288C47.4278 25.259 47.4224 25.2897 47.4079 25.3166C47.3934 25.3434 47.3707 25.3648 47.3431 25.3777C47.0004 25.5657 46.4683 25.8396 46.2193 25.8708C46.2193 25.8708 46.733 26.4029 46.1874 26.6874C46.122 26.7195 46.0489 26.7328 45.9764 26.7258C45.9038 26.7188 45.8347 26.6917 45.7766 26.6477C45.5141 26.4561 44.7834 26.891 43.727 27.1173C43.727 27.1173 39.6043 31.384 38.6459 30.6646L39.1702 28.2198Z" fill="#FEC3BE"/>
<path d="M32.0749 22.4223C32.0749 22.4223 31.6911 24.054 32.0749 25.2027L30.3488 25.4425L28.8156 24.6727V23.6688C28.8156 23.6688 29.535 22.135 29.3428 20.3613L32.0749 22.4223Z" fill="#FEC3BE"/>
<path d="M27.1853 57.7535C27.1853 57.7535 25.9374 60.1983 26.1311 61.8279C26.3247 63.4575 24.4993 62.0194 24.693 61.061C24.8484 60.2855 24.1559 56.9986 23.8863 55.7727C23.8567 55.6401 23.8774 55.5013 23.9446 55.3833C24.0118 55.2652 24.1205 55.1764 24.2496 55.1342C24.8264 54.9447 25.7905 54.7085 26.2758 55.0675C26.9938 55.596 27.1853 57.7535 27.1853 57.7535Z" fill="#5A5773"/>
<path d="M31.9316 60.437C31.9316 60.437 33.5633 62.5462 33.9932 62.5944C34.4232 62.6427 34.7126 63.3138 33.9932 63.4571C33.3299 63.5898 31.6045 63.7636 29.7223 63.0357C29.5861 62.9828 29.4716 62.8856 29.3972 62.7598C29.3229 62.6339 29.2929 62.4868 29.3123 62.3419L29.5826 60.293L31.9316 60.437Z" fill="#5A5773"/>
<path d="M34.6162 38.0498L36.177 38.2584C36.177 38.2584 35.8123 40.8777 36.1954 43.7545V50.322C36.1954 50.322 36.2259 50.9002 35.0255 51.7409C33.7664 52.6172 32.5531 53.5575 31.3903 54.5581L27.0399 58.3268C27.0399 58.3268 25.3138 56.2176 25.5536 54.971C25.5536 54.971 28.4297 54.0601 28.8135 52.5738C29.0334 51.7224 30.1487 51.013 31.0618 50.5625C32.2381 49.9814 32.8794 48.6611 32.5573 47.3898C32.5041 47.1741 32.4217 46.9667 32.3125 46.7733C31.5456 45.431 30.4431 42.4108 30.4431 42.4108L32.5523 38.384L34.6162 38.0498Z" fill="#605D82"/>
<path opacity="0.05" d="M34.6232 38.0498L36.184 38.2584C36.184 38.2584 35.8194 40.8777 36.2025 43.7545V50.322C36.2025 50.322 36.233 50.9002 35.0326 51.7409C33.7744 52.6178 32.562 53.5586 31.4002 54.5596L27.0498 58.3282C27.0498 58.3282 25.3237 56.219 25.5635 54.9725C25.5635 54.9725 28.4396 54.0615 28.8234 52.5752C29.0434 51.7239 30.1586 51.0144 31.0717 50.5639C32.248 49.9829 32.8893 48.6626 32.5672 47.3912C32.514 47.1755 32.4317 46.9681 32.3225 46.7747C31.5556 45.4324 30.4531 42.4123 30.4531 42.4123L32.5623 38.3854L34.6232 38.0498Z" fill="black"/>
<path d="M32.3147 60.5813C32.3147 60.5813 29.4847 61.0609 29.3903 61.3518C29.2959 61.6426 29.3903 60.9679 29.3903 60.9679C29.3903 60.9679 27.7585 56.0301 28.1438 51.6677C28.529 47.3052 27.6642 44.4312 27.6642 44.4312C27.6642 44.4312 26.6575 41.1713 27.2328 39.3019C27.8082 37.4324 33.8485 38.2469 33.8485 38.2469C33.8485 38.2469 31.7393 43.1797 31.7875 45.5309C31.7875 45.5309 31.5478 52.6254 31.1164 53.4406C31.1164 53.4385 31.7875 60.3897 32.3147 60.5813Z" fill="#605D82"/>
<path d="M31.9791 23.6689C31.9791 23.6689 31.6918 25.4426 28.8149 24.6757L30.7305 39.2486C30.7305 39.2486 36.2912 39.4402 36.2436 38.769L35.095 29.9491L31.9791 23.6689Z" fill="white"/>
<path opacity="0.1" d="M31.9074 23.5732C31.9074 23.5732 32.4523 24.1578 33.2923 24.2309C33.7695 24.2678 34.2334 24.4059 34.653 24.636C35.1497 24.912 35.691 25.3135 35.8591 25.8031C36.1947 26.7615 38.3039 28.3436 39.2645 28.0081L38.9289 30.8842C38.9289 30.8842 36.1968 30.7423 35.7172 29.6859L36.5324 39.9447H35.8144C35.8144 39.9447 35.4306 37.1643 35.1433 36.5889C34.8559 36.0136 34.2806 32.8501 34.2323 32.0825C34.1841 31.3148 33.4654 26.9034 32.8418 26.1379L31.9067 23.8606L31.9074 23.5732Z" fill="black"/>
<path opacity="0.1" d="M31.9074 23.7168C31.9074 23.7168 32.546 24.2539 33.3881 24.3262C33.8653 24.3631 34.3292 24.5012 34.7488 24.7313C35.2454 25.0073 35.7868 25.4088 35.9549 25.8984C36.2905 26.8568 38.3997 28.4389 39.3603 28.1034L39.0247 30.9795C39.0247 30.9795 36.2926 30.8376 35.813 29.7812L36.6289 40.0393H35.9102C35.9102 40.0393 35.5264 37.2589 35.2391 36.6835C34.9517 36.1082 34.3764 32.9447 34.3281 32.1771C34.2799 31.4094 33.5612 26.998 32.9376 26.2325L31.9067 24.0034L31.9074 23.7168Z" fill="black"/>
<path d="M31.9074 23.6211C31.9074 23.6211 32.546 24.1582 33.3881 24.2305C33.8653 24.2674 34.3292 24.4055 34.7488 24.6356C35.2454 24.9116 35.7868 25.3131 35.9549 25.8027C36.2905 26.7611 38.3997 28.3432 39.3603 28.0077L39.0247 30.8838C39.0247 30.8838 36.2926 30.7419 35.813 29.6855L36.6282 39.9443H35.9102C35.9102 39.9443 35.5264 37.1639 35.2391 36.5885C34.9517 36.0132 34.3764 32.8497 34.3281 32.0821C34.2799 31.3144 33.5612 26.903 32.9376 26.1375L31.9067 23.9084L31.9074 23.6211Z" fill="#67647E"/>
<path opacity="0.1" d="M29.4627 21.7755C29.5251 21.3215 29.4002 21.0377 29.3428 20.5049L32.0749 22.5666C32.0749 22.5666 32.0096 22.8454 31.9599 23.2526C31.8236 23.2746 31.6858 23.2858 31.5478 23.286C30.5942 23.286 29.9103 22.5446 29.4627 21.7755Z" fill="black"/>
<path d="M31.5478 23.1425C32.9775 23.1425 34.1366 21.9834 34.1366 20.5536C34.1366 19.1239 32.9775 17.9648 31.5478 17.9648C30.118 17.9648 28.9589 19.1239 28.9589 20.5536C28.9589 21.9834 30.118 23.1425 31.5478 23.1425Z" fill="#FEC3BE"/>
<path opacity="0.1" d="M34.3728 18.0161C34.3881 17.5791 34.3157 17.1434 34.16 16.7348C34.202 16.7989 34.2196 16.8759 34.2096 16.9518C34.1995 17.0277 34.1625 17.0975 34.1053 17.1484C34.0225 16.7034 33.7947 16.2983 33.4576 15.9963C33.6421 16.0261 33.7364 16.2552 33.6917 16.4369C33.647 16.6185 33.5066 16.7582 33.3718 16.8874C33.3874 16.6128 33.2065 16.3574 32.9766 16.2063C32.7467 16.0552 32.4729 15.9934 32.2054 15.9268C32.2984 15.9598 32.3779 16.0226 32.4314 16.1055C32.4849 16.1884 32.5095 16.2867 32.5013 16.3851C32.5006 16.4185 32.4868 16.4503 32.4629 16.4737C32.437 16.4905 32.4065 16.4987 32.3757 16.4972C32.1055 16.5078 31.835 16.5021 31.5655 16.4801C31.2343 16.4428 30.9012 16.4251 30.568 16.4269C29.5208 16.4709 28.4779 17.1825 28.2445 18.2006C28.1962 18.4469 28.1708 18.6973 28.1686 18.9483L28.1175 20.231C28.1026 20.6056 28.0877 20.9852 28.1629 21.3527C28.2346 21.6956 28.3812 22.0185 28.5923 22.2982C28.8034 22.5778 29.0737 22.8073 29.3839 22.9702C29.7599 22.4254 29.7933 21.7251 29.9238 21.076C29.9441 20.9256 29.9997 20.7821 30.0863 20.6574C30.1806 20.5396 30.3466 20.4651 30.4871 20.5212C30.6276 20.5772 30.6886 20.7922 30.5715 20.888C30.6723 21.0107 30.8709 20.9192 30.9866 20.8099C31.3156 20.498 31.5423 20.0935 31.6364 19.65C31.6833 19.4265 31.7301 19.1534 31.9458 19.076C32.0213 19.0553 32.1002 19.05 32.1778 19.0604C32.6339 19.0916 33.3476 19.2804 33.7903 19.1356C34.2025 18.9973 34.3728 18.4006 34.3728 18.0161Z" fill="black"/>
<path d="M34.3253 17.9677C34.3405 17.5307 34.2682 17.0951 34.1124 16.6864C34.1545 16.7505 34.1721 16.8275 34.162 16.9034C34.152 16.9793 34.115 17.0491 34.0578 17.1001C33.9752 16.6545 33.7475 16.2489 33.4101 15.9465C33.5945 15.9763 33.6889 16.2054 33.6442 16.3871C33.5995 16.5687 33.459 16.7084 33.3242 16.8376C33.3398 16.563 33.1589 16.3076 32.9291 16.1565C32.6992 16.0054 32.4254 15.9436 32.1579 15.877C32.2509 15.91 32.3303 15.9728 32.3838 16.0557C32.4374 16.1386 32.4619 16.2369 32.4537 16.3353C32.4531 16.3687 32.4393 16.4005 32.4154 16.4239C32.3895 16.4407 32.359 16.4489 32.3282 16.4474C32.058 16.458 31.7874 16.4523 31.518 16.4303C31.1868 16.393 30.8537 16.3753 30.5205 16.3771C29.4733 16.4211 28.4304 17.1327 28.197 18.1508C28.1487 18.3971 28.1233 18.6475 28.1211 18.8985L28.07 20.1812C28.0551 20.5558 28.0402 20.9354 28.1154 21.3029C28.1876 21.6451 28.3345 21.9671 28.5456 22.246C28.7566 22.5249 29.0267 22.7537 29.3364 22.9162C29.7124 22.3713 29.7457 21.6711 29.8763 21.0219C29.8965 20.8715 29.9522 20.728 30.0387 20.6033C30.1331 20.4856 30.2991 20.4111 30.4396 20.4671C30.5801 20.5232 30.6411 20.7381 30.524 20.8339C30.6248 20.9567 30.8234 20.8651 30.939 20.7559C31.2681 20.4439 31.4947 20.0395 31.5889 19.5959C31.6357 19.3724 31.6826 19.0993 31.8982 19.022C31.9737 19.0012 32.0526 18.9959 32.1302 19.0064C32.5864 19.0376 33.3001 19.2263 33.7428 19.0816C34.1543 18.9524 34.3253 18.353 34.3253 17.9677Z" fill="#916168"/>
<path opacity="0.1" d="M39.4816 28.0068C39.4816 28.0068 39.8654 29.7805 39.146 30.883L38.7388 30.8496L38.9609 28.0366L39.4816 28.0068Z" fill="black"/>
<path d="M39.3858 28.0068C39.3858 28.0068 39.7696 29.7805 39.0503 30.883L38.643 30.8496L38.8651 28.0366L39.3858 28.0068Z" fill="#FD6F8D"/>
<path opacity="0.1" d="M29.0788 23.166L25.987 25.8265C25.987 25.8265 24.1637 27.6959 24.9321 30.716C24.9321 30.716 25.2676 35.126 25.6515 35.3183C25.6515 35.3183 26.9938 38.0029 27.0895 40.5434C27.0895 40.5434 28.8873 36.9252 29.7025 39.1295C30.5176 41.3338 32.4112 41.6459 32.4112 41.6459L31.3562 28.6068C31.3562 28.6068 28.6957 23.9805 29.0788 23.166Z" fill="black"/>
<path d="M28.9831 23.166L25.8913 25.8265C25.8913 25.8265 24.0694 27.6959 24.8363 30.716C24.8363 30.716 25.1719 35.126 25.5557 35.3183C25.5557 35.3183 26.898 38.0029 26.9938 40.5434C26.9938 40.5434 28.8873 36.7322 29.7025 38.9372C30.5176 41.1422 32.3154 41.6459 32.3154 41.6459L31.2583 28.6068C31.2583 28.6068 28.5993 23.9805 28.9831 23.166Z" fill="#67647E"/>
<path d="M27.5691 34.4068C27.5691 34.4068 26.8022 33.8797 25.5557 35.3178L28.6234 40.8785L29.6542 39.3177C29.6542 39.3177 27.4733 35.0304 27.5691 34.4068Z" fill="#FEC3BE"/>
<path opacity="0.1" d="M28.3119 34.7185C28.3119 34.7185 26.6156 36.6241 25.9537 36.3183L25.3407 34.8888L27.6401 33.9033L28.3119 34.7185Z" fill="black"/>
<path d="M28.3119 34.6228C28.3119 34.6228 26.6156 36.5284 25.9537 36.2226L25.3407 34.7959L27.6401 33.8076L28.3119 34.6228Z" fill="#FD6F8D"/>
<path opacity="0.1" d="M29.5506 38.96C29.5506 38.96 28.7433 40.6151 28.3119 40.7116L28.9348 41.431L29.8458 39.7049L29.5506 38.96Z" fill="black"/>
<path d="M29.5989 39.0068C29.5989 39.0068 28.7915 40.662 28.3602 40.7585L28.9831 41.4779L29.894 39.7518L29.5989 39.0068Z" fill="#4D4981"/>
<path opacity="0.1" d="M28.0721 28.7744C28.0721 28.7744 27.9764 32.2259 28.3595 33.52L28.0721 28.7744Z" fill="black"/>
<path opacity="0.1" d="M35.8385 29.4456C35.8385 29.4456 35.2632 29.254 35.2632 28.7744L35.8385 29.4456Z" fill="black"/>
<path d="M47.4278 25.9086L43.407 25.2588L43.3606 25.5459L47.3814 26.1957L47.4278 25.9086Z" fill="#40414D"/>
<path d="M48.7471 26.2644C48.7471 26.2644 48.3307 26.5482 47.9305 26.5993C47.8573 26.6097 47.7831 26.6097 47.7099 26.5993C47.3431 26.5404 47.153 26.3609 47.1182 26.1502C47.1045 26.0531 47.1206 25.9541 47.1643 25.8664C47.2636 25.677 47.5006 25.567 47.8674 25.6266C47.9793 25.6479 48.0862 25.6903 48.1824 25.7515C48.3978 25.8899 48.5887 26.0632 48.7471 26.2644Z" fill="#40414D"/>
<path d="M48.7471 26.2647C48.7471 26.2647 48.3306 26.5485 47.9305 26.5996C47.9181 26.5554 47.9211 26.5084 47.939 26.4662C47.9778 26.4061 48.023 26.3505 48.0738 26.3002C48.1157 26.242 48.127 26.1455 48.0653 26.11C48.0507 26.1039 48.0366 26.0963 48.0235 26.0873C47.9866 26.054 48.0235 25.9944 48.0547 25.9589C48.1143 25.8986 48.1824 25.827 48.1817 25.7461C48.3978 25.8861 48.5889 26.0614 48.7471 26.2647Z" fill="#F8BDC5"/>
</g>
</g>
<defs>
<linearGradient id="paint0_linear_612_6845" x1="50.8975" y1="64.4615" x2="50.8975" y2="19.6948" gradientUnits="userSpaceOnUse">
<stop stop-color="#808080" stop-opacity="0.25"/>
<stop offset="0.54" stop-color="#808080" stop-opacity="0.12"/>
<stop offset="1" stop-color="#808080" stop-opacity="0.1"/>
</linearGradient>
<linearGradient id="paint1_linear_612_6845" x1="35.5966" y1="64.1033" x2="35.5966" y2="15.2559" gradientUnits="userSpaceOnUse">
<stop stop-color="#808080" stop-opacity="0.25"/>
<stop offset="0.54" stop-color="#808080" stop-opacity="0.12"/>
<stop offset="1" stop-color="#808080" stop-opacity="0.1"/>
</linearGradient>
<clipPath id="clip0_612_6845">
<rect width="77.2815" height="77.2815" fill="white"/>
</clipPath>
<clipPath id="clip1_612_6845">
<rect width="66" height="56.9062" fill="white" transform="translate(5.28156 10.1963)"/>
</clipPath>
</defs>
</svg>
