<svg width="67" height="43" viewBox="0 0 67 43" fill="none" xmlns="http://www.w3.org/2000/svg">
<g clip-path="url(#clip0_612_6726)">
<path d="M14.5066 9.93359L17.0027 13.3506C17.0027 13.3506 19.1309 14.248 21.6182 16.0498L21.0228 16.9819C21.0228 16.9819 16.9173 15.2961 15.8667 14.5838L13.9483 11.5677L14.5066 9.93359Z" fill="#FFAFAF"/>
<path d="M23.1108 17.7048C23.349 17.3553 23.0661 16.7457 22.479 16.3434C21.8919 15.9411 21.2229 15.8983 20.9846 16.2479C20.7464 16.5975 21.0293 17.207 21.6164 17.6093C22.2035 18.0117 22.8725 18.0544 23.1108 17.7048Z" fill="#FFAFAF"/>
<path d="M13.2865 7.01653L14.1034 6.78418C14.1034 6.78418 14.5789 6.78509 14.8472 7.25345C15.1154 7.7218 17.0148 11.8977 16.9247 12.0595C16.8347 12.2213 16.709 12.257 16.8704 12.3473C17.0317 12.4376 17.1794 12.3918 17.0694 12.5271C16.9595 12.6624 17.1114 12.9596 17.1114 12.9596L15.016 14.5099L13.2865 7.01653Z" fill="#7000FF"/>
<path d="M10.1173 41.3539L11.1138 41.3538L11.5879 37.499L10.1171 37.4991L10.1173 41.3539Z" fill="#FFAFAF"/>
<path d="M13.5317 41.3316C13.5627 41.384 13.5791 41.5532 13.5791 41.6141C13.5791 41.8015 13.4276 41.9533 13.2408 41.9533H10.1545C10.0271 41.9533 9.92378 41.8497 9.92378 41.7219V41.5931C9.92378 41.5931 9.7711 41.2058 10.0854 40.7285C10.0854 40.7285 10.4761 41.1022 11.0599 40.5168L11.232 40.2041L12.4781 41.118L13.1689 41.2032C13.32 41.2219 13.4539 41.2004 13.5317 41.3316Z" fill="#2F2E41"/>
<path d="M13.7242 40.3806L14.707 40.5461L15.8115 36.8234L14.3609 36.5791L13.7242 40.3806Z" fill="#FFAFAF"/>
<path d="M17.0952 40.9257C17.1171 40.9825 17.1053 41.152 17.0953 41.2121C17.0643 41.3969 16.8899 41.5215 16.7057 41.4904L13.662 40.9777C13.5363 40.9565 13.4516 40.8372 13.4727 40.7111L13.494 40.584C13.494 40.584 13.4074 40.1768 13.7962 39.7583C13.7962 39.7583 14.1198 40.1918 14.7922 39.7114L15.0136 39.4316L16.0915 40.5399L16.7586 40.7388C16.9045 40.7823 17.0402 40.7833 17.0952 40.9257Z" fill="#2F2E41"/>
<path d="M15.7671 20.6006C15.7671 20.6006 17.1061 22.1725 17.1061 23.6135C17.1061 25.0545 17.1388 29.581 17.1388 29.581C17.1388 29.581 16.355 36.6476 16.159 37.2371C15.9631 37.8266 15.8651 38.8091 15.8651 38.8091L13.971 38.3506C13.971 38.3506 13.7097 31.7025 14.4935 30.1306L12.5993 24.7597L11.9462 39.9553H9.74733C9.74733 39.9553 8.61511 31.9645 9.20295 29.8686C9.20295 29.8686 7.89664 21.8778 8.22322 21.4193C8.5498 20.9608 15.7671 20.6006 15.7671 20.6006Z" fill="#2F2E41"/>
<path d="M10.9011 4.94727L12.6647 5.07826L13.2525 6.06074C13.2525 6.06074 14.6241 6.65022 14.8201 7.50169C15.016 8.35317 15.0813 18.3089 15.0813 18.3089L16.0611 19.7498L15.9957 20.9943L8.15791 21.3873V20.1908L7.43944 18.7674C7.43944 18.7674 8.22322 7.3707 8.41917 7.3052C8.61511 7.2397 10.1174 6.19173 10.1174 6.19173L10.9011 4.94727Z" fill="#7000FF"/>
<path d="M11.6993 4.7029C12.9258 4.7029 13.92 3.70586 13.92 2.47596C13.92 1.24606 12.9258 0.249023 11.6993 0.249023C10.4728 0.249023 9.47857 1.24606 9.47857 2.47596C9.47857 3.70586 10.4728 4.7029 11.6993 4.7029Z" fill="#FFAFAF"/>
<path d="M13.4731 0.685351C13.3601 0.363972 13.0466 0.168999 12.7069 0.176593C12.6925 0.176911 12.6781 0.176778 12.6639 0.176191C12.4928 0.169176 12.3285 0.110576 12.1608 0.076198C11.8481 0.0121212 11.5184 0.0335741 11.2166 0.137629C11.1228 0.169975 11.0289 0.210649 10.9297 0.21066C10.8305 0.210674 10.7225 0.156128 10.6983 0.0596616C10.6925 0.147001 10.6868 0.234335 10.6811 0.321669C10.6488 0.250982 10.6165 0.180291 10.5842 0.109601L10.5196 0.391506L10.3125 0.155905C10.331 0.25975 10.2706 0.364413 10.1889 0.430806C10.1071 0.497202 10.0062 0.533928 9.90938 0.575293C9.4917 0.753832 9.09951 1.06993 8.97916 1.50897C8.90312 1.78635 8.94289 2.08074 8.98319 2.36555C9.0188 2.61734 9.05753 2.87784 9.19401 3.09217C9.2815 3.22957 9.40761 3.34519 9.46088 3.49922C9.51053 3.64278 9.49172 3.80716 9.56237 3.94159C9.63331 4.07663 9.77978 4.15303 9.92312 4.20433C10.0665 4.25566 10.2188 4.29195 10.3423 4.38124C10.4657 4.47054 10.609 4.72776 10.8779 4.71392L10.9647 4.55039C11.054 4.47743 10.7236 4.53527 10.7201 4.41982C10.7167 4.30437 11.1177 4.23304 11.0609 4.13257C10.9737 3.97852 10.8558 3.84445 10.7576 3.69723C10.6427 3.52506 10.5523 3.32389 10.592 3.11375C10.6074 3.03201 10.6455 2.95479 10.7037 2.89541C10.8712 2.72424 11.058 2.79948 11.2395 2.82396C11.3646 2.84085 11.5141 2.82135 11.579 2.7128C11.655 2.58579 11.5703 2.42422 11.5807 2.27647C11.5917 2.11991 11.7099 1.99154 11.8387 1.90228C11.9674 1.81303 12.1136 1.748 12.2294 1.64243C12.3452 1.53686 12.4277 1.37193 12.3772 1.22338C12.9261 0.994204 13.0101 0.972528 13.5882 1.11229C13.5606 0.96733 13.522 0.824508 13.4731 0.685351Z" fill="#2F2E41"/>
<path d="M4.09797 29.1672V22.4077C4.09797 22.2223 4.17677 22.0449 4.31418 21.9208C4.45158 21.7968 4.63578 21.7368 4.81969 21.7563C6.52321 21.5264 8.12765 21.6357 9.58171 22.2598C9.74642 22.2598 9.88041 22.3942 9.88041 22.5593V29.3424C9.88041 29.5076 9.74642 29.642 9.58171 29.642C7.98112 29.2655 6.29293 29.3635 4.57142 29.642C4.31036 29.642 4.09797 29.429 4.09797 29.1672Z" fill="#E6E6E6"/>
<path d="M4.09797 29.7688V22.9378C4.09797 22.5766 4.39101 22.2827 4.7512 22.2827C6.38018 21.8553 7.99039 21.8546 9.58171 22.2827C9.74642 22.2827 9.88041 22.4171 9.88041 22.5823V29.296C9.88041 29.4609 9.74681 29.5951 9.58245 29.5955C8.01337 29.3218 6.33257 29.5884 4.57142 30.2435C4.31036 30.2435 4.09797 30.0306 4.09797 29.7688Z" fill="#F2F2F2"/>
<path d="M7.85953 25.106H6.3363C5.78924 25.106 5.34418 24.6597 5.34418 24.1111C5.34418 23.5626 5.78924 23.1162 6.3363 23.1162H7.85953C8.40663 23.1162 8.85169 23.5626 8.85169 24.1111C8.85169 24.6597 8.40663 25.106 7.85953 25.106Z" fill="#E6E6E6"/>
<path d="M9.25561 11.6895L9.19738 15.2162C9.19738 15.2162 9.01129 17.9646 8.54916 21.0577L7.44762 21.1282C7.44762 21.1282 7.58315 16.2987 7.53377 15.028L7.61167 12.2055L9.25561 11.6895Z" fill="#FFAFAF"/>
<path d="M8.10245 23.2433C8.52442 23.2289 8.84691 22.6395 8.82275 21.9268C8.7986 21.2141 8.43694 20.6481 8.01497 20.6624C7.593 20.6768 7.27051 21.2662 7.29466 21.9789C7.31882 22.6916 7.68048 23.2576 8.10245 23.2433Z" fill="#FFAFAF"/>
<path d="M9.23849 7.19922L8.38996 7.23021C8.38996 7.23021 7.93781 7.37781 7.82628 7.90621C7.71475 8.43462 6.93298 13.9031 7.06828 14.0293C7.20358 14.1554 7.33412 14.1506 7.20833 14.2863C7.08255 14.422 6.92797 14.424 7.07409 14.5188C7.22022 14.6136 7.16683 14.9432 7.16683 14.9432L9.51369 14.7765L9.23849 7.19922Z" fill="#7000FF"/>
<path d="M65.223 38.7078H42.6461C42.5152 38.7078 42.3854 38.6877 42.2606 38.6481L42.2473 38.6428C35.178 35.1196 29.1169 33.1967 23.7178 32.7642L23.6973 32.7601C23.1632 32.5907 22.8044 32.0994 22.8044 31.5377V1.28322C22.8044 0.870105 22.995 0.49312 23.3273 0.248982C23.6597 0.00484346 24.0755 -0.0636621 24.4685 0.0608065L42.3164 5.72195C42.4232 5.75587 42.5342 5.77303 42.6461 5.77303H65.223C65.928 5.77303 66.5015 6.34819 66.5015 7.05512V37.4257C66.5015 38.1327 65.928 38.7078 65.223 38.7078ZM42.323 38.4734C42.4278 38.5059 42.5365 38.5223 42.6461 38.5223H65.223C65.826 38.5223 66.3165 38.0304 66.3165 37.4257V7.05512C66.3165 6.45043 65.826 5.95849 65.223 5.95849H42.6461C42.5152 5.95849 42.3856 5.93843 42.2606 5.89881L24.4127 0.237662C24.0766 0.130988 23.7209 0.189759 23.4366 0.39858C23.1524 0.607447 22.9893 0.929871 22.9893 1.28322V31.5377C22.9893 32.0147 23.2918 32.4323 23.7433 32.5802C29.1619 33.0163 35.2397 34.944 42.323 38.4734Z" fill="#3F3D56"/>
<path d="M43.249 37.3339C49.4048 35.1495 56.2722 35.4003 63.5677 37.1161C64.4836 37.3315 65.3616 36.64 65.3616 35.6966V8.05274C65.3616 7.38144 64.9053 6.79449 64.255 6.63503C56.5588 4.74776 49.3702 4.40053 43.035 6.64315C42.5709 6.80745 42.0557 6.71843 41.6641 6.41948C36.3257 2.34439 30.8621 0.301171 25.2355 0.907853C24.4994 0.987219 23.9442 1.61628 23.9442 2.35867V30.304C23.9442 31.0523 24.5088 31.6779 25.2509 31.7553C31.3072 32.3869 36.8722 34.3013 42.0477 37.2328C42.4141 37.4404 42.8522 37.4747 43.249 37.3339Z" fill="#F2F2F2"/>
<path d="M43.0513 35.7839C42.6321 35.7839 42.2192 35.6684 41.8553 35.4418C37.5088 32.7348 32.7733 31.1535 27.7806 30.7416C26.6101 30.645 25.6932 29.6438 25.6932 28.4622V4.59232C25.6932 3.36719 26.6406 2.36334 27.8502 2.30696C31.4853 2.13699 35.899 3.7626 41.7397 7.42102C42.2338 7.7304 42.8346 7.82227 43.3881 7.6734C48.939 6.17923 54.956 6.13558 61.7834 7.53996C62.8433 7.75802 63.6127 8.70143 63.6127 9.78326V33.0825C63.6127 33.7856 63.2973 34.4386 62.7475 34.8741C62.1936 35.3129 61.4808 35.4702 60.792 35.3057C54.3333 33.7642 48.7873 33.8756 43.8367 35.6465C43.5796 35.7385 43.3142 35.7839 43.0513 35.7839ZM28.3691 2.48047C28.1971 2.48047 28.0273 2.48436 27.8588 2.49224C26.7481 2.54399 25.8781 3.46644 25.8781 4.59232V28.4622C25.8781 29.548 26.7205 30.468 27.7958 30.5567C32.818 30.9711 37.5812 32.5616 41.9529 35.2843C42.4968 35.6231 43.1608 35.6914 43.7746 35.4719C48.7597 33.6885 54.3402 33.5751 60.8348 35.1253C61.4683 35.2765 62.1236 35.132 62.6328 34.7286C63.138 34.3284 63.4277 33.7285 63.4277 33.0825V9.78326C63.4277 8.78909 62.7206 7.92206 61.7462 7.72162C54.9477 6.32307 48.9584 6.36591 43.4361 7.85252C42.833 8.0147 42.1791 7.91486 41.6417 7.57831C36.1067 4.11134 31.868 2.48047 28.3691 2.48047Z" fill="white"/>
<path d="M42.6314 7.81176L42.4465 7.81348L42.7038 35.7414L42.8887 35.7397L42.6314 7.81176Z" fill="white"/>
<path d="M27.4961 5.9685L27.438 6.14453L40.3869 10.4411L40.445 10.2651L27.4961 5.9685Z" fill="#3F3D56"/>
<path d="M27.4961 9.406L27.438 9.58203L40.3869 13.8786L40.445 13.7026L27.4961 9.406Z" fill="#3F3D56"/>
<path d="M27.4961 12.8435L27.438 13.0195L40.3869 17.3161L40.445 17.1401L27.4961 12.8435Z" fill="#3F3D56"/>
<path d="M27.4961 16.28L27.438 16.4561L40.3869 20.7526L40.445 20.5766L27.4961 16.28Z" fill="#3F3D56"/>
<path d="M61.2675 10.4512H45.7479V10.6366H61.2675V10.4512Z" fill="#3F3D56"/>
<path d="M61.2675 13.6982H45.7479V13.8837H61.2675V13.6982Z" fill="#3F3D56"/>
<path d="M61.2675 16.9443H45.7479V17.1298H61.2675V16.9443Z" fill="#3F3D56"/>
<path d="M61.2675 20.1904H45.7479V20.3759H61.2675V20.1904Z" fill="#3F3D56"/>
<path d="M61.2675 23.4365H45.7479V23.622H61.2675V23.4365Z" fill="#3F3D56"/>
<path d="M61.2675 26.6826H45.7479V26.8681H61.2675V26.6826Z" fill="#3F3D56"/>
<path d="M5.5188 40.5728C5.32777 40.5848 5.22219 40.3467 5.36672 40.208L5.3811 40.1507C5.37921 40.1461 5.3773 40.1415 5.37539 40.1369C5.18219 39.675 4.52744 39.6782 4.33589 40.1408C4.16587 40.5514 3.94942 40.9628 3.89612 41.3969C3.87223 41.5886 3.88298 41.7838 3.92539 41.9719C3.52702 41.0992 3.31738 40.1464 3.31738 39.1881C3.31738 38.9473 3.33052 38.7065 3.3574 38.4664C3.3795 38.2699 3.40995 38.0747 3.44938 37.8812C3.66259 36.8355 4.12427 35.8395 4.79021 35.0076C5.11034 34.8321 5.37731 34.5578 5.53857 34.229C5.5965 34.1104 5.64189 33.9828 5.66339 33.8528C5.62696 33.8576 5.52602 33.3012 5.5535 33.2671C5.50273 33.1898 5.41186 33.1514 5.35641 33.076C5.08063 32.7011 4.70068 32.7666 4.50233 33.2761C4.07861 33.4905 4.07451 33.8462 4.3345 34.1882C4.49991 34.4059 4.52264 34.7003 4.66777 34.9333C4.65284 34.9525 4.63731 34.971 4.62238 34.9902C4.34857 35.3424 4.11175 35.7209 3.91211 36.1186C3.96853 35.6766 3.88523 35.1442 3.74322 34.8009C3.58156 34.4099 3.27856 34.0805 3.01174 33.7424C2.69123 33.3364 2.03401 33.5136 1.97755 34.0284C1.977 34.0333 1.97647 34.0383 1.97595 34.0433C2.01558 34.0657 2.05441 34.0895 2.09233 34.1147C2.30867 34.2582 2.2339 34.5945 1.97757 34.6341L1.97177 34.635C1.9861 34.7782 2.01059 34.9201 2.04642 35.0597C1.70412 36.3872 2.44313 36.8707 3.49834 36.8924C3.52164 36.9044 3.54434 36.9163 3.56763 36.9277C3.46072 37.2296 3.37531 37.5392 3.312 37.8531C3.25527 38.1304 3.21584 38.4107 3.19375 38.6922C3.16627 39.0473 3.16866 39.4043 3.19853 39.7588L3.19673 39.7463C3.12089 39.3558 2.90946 38.991 2.60246 38.7383C2.14514 38.3616 1.49903 38.2228 1.00566 37.92C0.768167 37.7742 0.463836 37.9626 0.505285 38.2387L0.507303 38.252C0.580764 38.2819 0.652432 38.3166 0.721715 38.3556C0.761348 38.378 0.800174 38.4018 0.838102 38.427C1.05444 38.5704 0.97967 38.9067 0.72334 38.9464L0.717531 38.9473C0.713351 38.9479 0.709766 38.9485 0.705592 38.9491C0.831612 39.2492 1.0072 39.5277 1.22699 39.7678C1.44102 40.9267 2.36031 41.0366 3.34366 40.6992H3.34426C3.45176 41.1687 3.60884 41.6275 3.81071 42.0647H5.47705C5.48302 42.0461 5.4884 42.027 5.49377 42.0084C5.33968 42.018 5.1844 42.009 5.03269 41.9809C5.15632 41.8287 5.27995 41.6754 5.40359 41.5233C5.40657 41.5203 5.40896 41.5173 5.41135 41.5143C5.47406 41.4364 5.53737 41.3592 5.60008 41.2813L5.60012 41.2812C5.60404 41.0422 5.57542 40.804 5.5188 40.5728Z" fill="#F2F2F2"/>
<path d="M24.1563 42.0703C24.1563 42.1315 24.1073 42.1807 24.0463 42.1807H0.624467C0.563439 42.1807 0.514427 42.1315 0.514427 42.0703C0.514427 42.0091 0.563439 41.96 0.624467 41.96H24.0463C24.1073 41.96 24.1563 42.0091 24.1563 42.0703Z" fill="#CCCCCC"/>
<path d="M61.9193 36.204C63.094 36.204 64.0462 35.2491 64.0462 34.0712C64.0462 32.8934 63.094 31.9385 61.9193 31.9385C60.7447 31.9385 59.7925 32.8934 59.7925 34.0712C59.7925 35.2491 60.7447 36.204 61.9193 36.204Z" fill="#7000FF"/>
<path d="M62.9153 33.9906L61.5957 33.2264C61.5341 33.1907 61.457 33.2354 61.457 33.3067V33.9781H61.0611C61.0101 33.9781 60.9687 34.0197 60.9687 34.0709C60.9687 34.1221 61.0101 34.1636 61.0611 34.1636H61.457V34.835C61.457 34.9064 61.5341 34.951 61.5957 34.9153L62.9153 34.1512C62.977 34.1155 62.977 34.0263 62.9153 33.9906Z" fill="white"/>
<path d="M31.6333 28.0601C31.7162 27.1096 32.1097 26.2017 32.7394 25.4871C33.3529 24.7911 34.1915 24.3136 35.0957 24.1191C35.6005 24.0105 36.1234 23.9893 36.6346 24.0625C36.757 24.08 36.7538 24.2748 36.6301 24.2571C35.76 24.1326 34.8608 24.2847 34.079 24.6876C33.2777 25.1006 32.6363 25.7722 32.2401 26.5821C32.0135 27.0453 31.8722 27.5507 31.8274 28.0646C31.8166 28.189 31.6224 28.1852 31.6333 28.0601Z" fill="white"/>
<path d="M36.4194 23.2805L37.9139 24.02C37.9683 24.0469 37.9772 24.1357 37.931 24.1739L36.5162 25.3467C36.4204 25.4261 36.2856 25.2859 36.3821 25.2059L37.797 24.0331L37.8141 24.187L36.3195 23.4476C36.2073 23.3921 36.308 23.2255 36.4194 23.2805Z" fill="white"/>
</g>
<defs>
<clipPath id="clip0_612_6726">
<rect width="66" height="42.1805" fill="white" transform="translate(0.501465)"/>
</clipPath>
</defs>
</svg>
