<svg width="78" height="78" viewBox="0 0 78 78" fill="none" xmlns="http://www.w3.org/2000/svg">
<g clip-path="url(#clip0_709_4933)">
<rect width="77.2815" height="77.2815" rx="15" fill="white"/>
<g clip-path="url(#clip1_709_4933)">
<path opacity="0.1" d="M72 44.074C72.0011 45.1739 71.8681 46.2698 71.6038 47.3375C71.5149 47.6973 71.4116 48.0496 71.294 48.3944C71.15 48.82 70.9831 49.2375 70.7941 49.6451C70.6989 49.8513 70.5982 50.0534 70.4921 50.2514C70.4938 51.3793 70.2616 52.4953 69.8101 53.5289C68.994 55.3834 67.5387 56.8828 65.7094 57.754C64.5657 58.2997 63.3158 58.5867 62.0486 58.5945H18.529C16.5928 58.5987 14.6899 58.09 13.014 57.1202L12.9882 57.1057C12.7495 56.966 12.5168 56.818 12.29 56.6619C11.7798 56.3094 11.3005 55.9142 10.8572 55.4806C10.2572 54.8943 9.72846 54.2392 9.28201 53.5289C8.23347 51.864 7.678 49.9361 7.67995 47.9685C6.61807 46.1053 5.99888 43.8734 5.99888 41.4751C5.99888 38.4491 6.98287 35.6888 8.5995 33.5992C8.93653 33.1627 9.30572 32.7519 9.70396 32.3704C10.0969 31.9928 10.5192 31.6471 10.967 31.3365C11.3252 31.0878 11.6996 30.8631 12.0877 30.6641C12.2497 30.5817 12.4122 30.5038 12.5775 30.4315C12.7226 30.3671 12.8694 30.3071 13.0179 30.2506C13.1961 30.1829 13.3765 30.1207 13.5592 30.064C13.7419 30.0072 13.9221 29.9575 14.1 29.9149C14.3615 29.851 14.6274 29.7991 14.8979 29.7591C15.1221 29.7261 15.3462 29.7031 15.5703 29.6857C15.7485 29.6723 15.9284 29.665 16.1094 29.6627H16.2075C16.407 29.6627 16.6053 29.6706 16.802 29.684C16.8227 29.6426 16.8452 29.6005 16.8659 29.5596C16.9443 29.41 17.0256 29.261 17.1074 29.1153C17.1072 29.114 17.1072 29.1126 17.1074 29.1113C17.1214 29.0856 17.1354 29.0604 17.15 29.0357C17.2161 28.9163 17.285 28.7981 17.3556 28.681C17.3881 28.625 17.4201 28.5723 17.4531 28.5196C17.4601 28.5065 17.4678 28.4938 17.4761 28.4815C17.5097 28.4255 17.5439 28.3694 17.5787 28.3134C17.7516 28.037 17.9315 27.7654 18.1183 27.4986L18.1659 27.4303C18.1951 27.3888 18.222 27.3485 18.2545 27.307C18.3318 27.1988 18.4114 27.0901 18.4915 26.9837C18.5475 26.9075 18.6036 26.8318 18.6641 26.7595C18.8098 26.5727 18.9592 26.386 19.1124 26.1992C19.2655 26.0124 19.4247 25.828 19.5898 25.6461C19.6122 25.6209 19.6346 25.5962 19.6581 25.5716L19.8974 25.3104C19.9092 25.2981 19.9193 25.2869 19.9305 25.2757C19.9591 25.2449 19.9865 25.2141 20.0173 25.1844C20.1457 25.0482 20.2773 24.9148 20.4096 24.782C21.0826 24.1117 21.7996 23.487 22.5558 22.9121C22.5855 22.8886 22.6157 22.8662 22.6454 22.8438C22.7877 22.7367 22.9323 22.6308 23.0769 22.5266C23.8721 21.9561 24.7033 21.4376 25.5654 20.9744C25.6248 20.9402 25.6854 20.9083 25.7464 20.8769C26.5193 20.468 27.3142 20.1021 28.1274 19.7808C28.5706 19.6054 29.024 19.4407 29.4801 19.29C29.7838 19.1902 30.0886 19.0955 30.3974 19.0064C30.8801 18.8675 31.3661 18.7429 31.8554 18.6327C33.2972 18.3092 34.7639 18.1093 36.2397 18.0353C36.688 18.0125 37.1413 18.0008 37.5997 18C39.8114 17.9971 42.0145 18.2758 44.1558 18.8294C44.178 18.8628 44.2083 18.8901 44.2439 18.9086C44.2794 18.9271 44.3192 18.9363 44.3593 18.9353H44.5475C44.6293 18.9577 44.7106 18.9801 44.7924 19.0036C45.2493 19.1351 45.6996 19.2788 46.1434 19.4345L46.2555 19.4749C47.3509 19.8644 48.4167 20.3326 49.4445 20.8758C50.371 21.3643 51.2631 21.9154 52.1146 22.5255C52.2457 22.6196 52.375 22.7145 52.5024 22.8101C52.657 22.7111 52.8143 22.6162 52.9742 22.5255C53.5917 22.1738 54.2475 21.8942 54.9287 21.6922C56.353 21.2707 57.8601 21.2118 59.313 21.5207C61.1761 21.9158 62.8628 22.8964 64.2251 24.2912C64.7797 24.8618 65.2734 25.4887 65.6982 26.1616C65.729 26.2098 65.7599 26.2586 65.7896 26.3079C66.1547 26.9035 66.4685 27.529 66.7276 28.1778C66.7371 28.2019 66.7467 28.2243 66.7551 28.2478C66.9943 28.8553 67.1872 29.48 67.3322 30.1166C67.339 30.1491 67.3468 30.1811 67.3535 30.2136C67.4891 30.8296 67.5813 31.4545 67.6292 32.0835C67.6292 32.1059 67.6292 32.1289 67.6337 32.1524C67.6572 32.4778 67.6692 32.8065 67.6696 33.1386C67.6696 33.4356 67.6595 33.7304 67.641 34.0229C67.641 34.0548 67.6365 34.0879 67.6337 34.1209C67.6287 34.2056 67.6214 34.289 67.6141 34.3742C68.0421 34.7194 68.4426 35.0973 68.8121 35.5045C68.9754 35.6827 69.1334 35.8676 69.2862 36.0592C69.7516 36.6425 70.1606 37.2686 70.5078 37.9291C71.4553 39.7178 72 41.8219 72 44.074Z" fill="#6C63FF"/>
<path opacity="0.1" d="M65.668 57.5468C65.668 57.9296 64.3494 58.2882 62.0486 58.5964H18.529C16.5928 58.6005 14.6899 58.0918 13.014 57.1221L12.9882 57.1075C13.6494 56.8666 14.843 56.6419 16.4675 56.439L16.5403 56.4301C17.2688 56.341 18.083 56.2563 18.9728 56.1762C18.9952 56.1762 19.0182 56.1728 19.0406 56.17C19.7467 56.1073 20.4978 56.0484 21.2938 55.9935C21.319 55.9935 21.3437 55.989 21.3689 55.9879C21.676 55.9659 21.9894 55.945 22.3092 55.9252L22.4325 55.9173C24.7608 55.7728 27.4073 55.6573 30.2775 55.5811H30.2808C30.6828 55.5699 31.0891 55.56 31.4996 55.5514C31.9561 55.5406 32.4182 55.5311 32.8859 55.5228C33.2429 55.515 33.6043 55.5094 33.9669 55.5038H33.9753C35.611 55.4791 37.301 55.4668 39.0291 55.4668C43.3024 55.4668 47.3415 55.5447 50.9205 55.6848H50.9306C51.4808 55.7061 52.021 55.7296 52.5478 55.7537L52.996 55.775C53.5904 55.8034 54.1694 55.8338 54.7332 55.8663C61.3622 56.2435 65.668 56.8559 65.668 57.5468Z" fill="#6C63FF"/>
<g opacity="0.2">
<path d="M44.12 55.2099C44.1182 55.2703 44.1113 55.3305 44.0993 55.3898C43.7092 55.3278 43.317 55.2717 42.9225 55.2217C42.9225 55.206 42.9225 55.1897 42.9225 55.1735C42.9262 55.0054 42.9745 54.8414 43.0626 54.6983C43.178 54.5156 43.3534 54.4013 43.5467 54.4075C43.7401 54.4136 43.9076 54.5386 44.0113 54.7274C44.0897 54.8758 44.1272 55.0423 44.12 55.2099Z" fill="#3F3D56"/>
<path d="M44.1522 54.2522C44.1659 53.8189 43.9087 53.4591 43.5777 53.4486C43.2467 53.4382 42.9673 53.781 42.9536 54.2144C42.9399 54.6477 43.1971 55.0075 43.5281 55.018C43.8591 55.0284 44.1385 54.6856 44.1522 54.2522Z" fill="#3F3D56"/>
<path d="M44.1827 53.2932C44.1964 52.8599 43.9392 52.5001 43.6083 52.4896C43.2773 52.4792 42.9979 52.822 42.9842 53.2554C42.9705 53.6887 43.2277 54.0485 43.5587 54.059C43.8896 54.0694 44.1691 53.7266 44.1827 53.2932Z" fill="#3F3D56"/>
<path d="M44.2128 52.3333C44.2265 51.8999 43.9693 51.5401 43.6383 51.5297C43.3073 51.5192 43.0279 51.8621 43.0142 52.2954C43.0005 52.7288 43.2577 53.0886 43.5887 53.099C43.9197 53.1095 44.1991 52.7666 44.2128 52.3333Z" fill="#3F3D56"/>
<path d="M44.2428 51.3743C44.2565 50.9409 43.9993 50.5812 43.6683 50.5707C43.3373 50.5602 43.0579 50.9031 43.0442 51.3364C43.0305 51.7698 43.2877 52.1296 43.6187 52.14C43.9497 52.1505 44.2291 51.8077 44.2428 51.3743Z" fill="#3F3D56"/>
<path d="M41.604 44.7177C41.5251 44.6108 41.4539 44.4985 41.391 44.3814L42.9746 44.1724L41.27 44.1315C41.1179 43.7707 41.041 43.3827 41.044 42.9911C41.0469 42.5995 41.1298 42.2127 41.2874 41.8542L43.5355 43.1122L41.4762 41.4962C41.684 41.1602 41.9587 40.8706 42.2834 40.6456C42.6081 40.4206 42.9757 40.2649 43.3632 40.1883C43.7508 40.1117 44.1499 40.1159 44.5358 40.2005C44.9217 40.2851 45.2859 40.4484 45.6059 40.6801C45.9258 40.9118 46.1945 41.207 46.3952 41.5473C46.596 41.8875 46.7244 42.2655 46.7725 42.6576C46.8205 43.0497 46.7873 43.4475 46.6747 43.8261C46.5621 44.2048 46.3727 44.5562 46.1182 44.8583C46.241 45.0245 46.3452 45.2036 46.4292 45.3923L44.3509 46.3898L46.5547 45.7269C46.6935 46.1848 46.7159 46.6702 46.6198 47.1389C46.5237 47.6077 46.3122 48.0451 46.0045 48.4115C46.3244 48.8457 46.5158 49.3611 46.5566 49.8988C46.5974 50.4366 46.4861 50.975 46.2354 51.4524C45.9846 51.9299 45.6046 52.3272 45.1387 52.5988C44.6728 52.8704 44.1398 53.0055 43.6008 52.9885C43.0618 52.9715 42.5384 52.8031 42.0905 52.5027C41.6427 52.2023 41.2884 51.7818 41.0682 51.2895C40.848 50.7972 40.7709 50.2529 40.8455 49.7188C40.9201 49.1846 41.1435 48.6823 41.4902 48.2692C41.108 47.7504 40.9112 47.1181 40.9315 46.474C40.9518 45.8299 41.1881 45.2113 41.6023 44.7177H41.604Z" fill="#6C63FF"/>
<path opacity="0.1" d="M46.6769 46.655C46.6573 47.2995 46.4203 47.9184 46.0045 48.4112C46.3244 48.8453 46.5158 49.3607 46.5566 49.8985C46.5974 50.4362 46.4861 50.9746 46.2354 51.4521C45.9846 51.9296 45.6046 52.3268 45.1387 52.5985C44.6728 52.8701 44.1398 53.0051 43.6008 52.9881C43.0618 52.9711 42.5384 52.8028 42.0905 52.5023C41.6427 52.2019 41.2884 51.7815 41.0682 51.2892C40.848 50.7969 40.7709 50.2525 40.8455 49.7184C40.9201 49.1843 41.1435 48.682 41.4902 48.2688C41.1221 47.7685 46.687 46.3328 46.6769 46.655Z" fill="black"/>
</g>
<g opacity="0.2">
<path d="M35.6026 55.2099C35.6008 55.2703 35.5938 55.3305 35.5818 55.3898C35.1918 55.3278 34.7996 55.2717 34.4051 55.2217C34.4051 55.206 34.4051 55.1897 34.4051 55.1735C34.4087 55.0054 34.4571 54.8414 34.5452 54.6983C34.6606 54.5156 34.836 54.4013 35.0293 54.4075C35.2226 54.4136 35.3902 54.5386 35.4938 54.7274C35.5723 54.8758 35.6098 55.0423 35.6026 55.2099Z" fill="#3F3D56"/>
<path d="M35.6341 54.2522C35.6478 53.8189 35.3906 53.4591 35.0596 53.4486C34.7287 53.4382 34.4493 53.781 34.4356 54.2144C34.4219 54.6477 34.6791 55.0075 35.0101 55.018C35.341 55.0284 35.6204 54.6856 35.6341 54.2522Z" fill="#3F3D56"/>
<path d="M35.6647 53.2932C35.6784 52.8599 35.4212 52.5001 35.0902 52.4896C34.7592 52.4792 34.4798 52.822 34.4661 53.2554C34.4524 53.6887 34.7097 54.0485 35.0406 54.059C35.3716 54.0694 35.651 53.7266 35.6647 53.2932Z" fill="#3F3D56"/>
<path d="M35.6947 52.3333C35.7084 51.8999 35.4512 51.5401 35.1202 51.5297C34.7893 51.5192 34.5098 51.8621 34.4962 52.2954C34.4825 52.7288 34.7397 53.0886 35.0706 53.099C35.4016 53.1095 35.681 52.7666 35.6947 52.3333Z" fill="#3F3D56"/>
<path d="M35.7247 51.3743C35.7384 50.9409 35.4812 50.5812 35.1502 50.5707C34.8193 50.5602 34.5399 50.9031 34.5262 51.3364C34.5125 51.7698 34.7697 52.1296 35.1006 52.14C35.4316 52.1505 35.711 51.8077 35.7247 51.3743Z" fill="#3F3D56"/>
<path d="M33.0866 44.7177C33.0076 44.6108 32.9365 44.4985 32.8736 44.3814L34.4572 44.1724L32.7526 44.1315C32.6005 43.7707 32.5235 43.3827 32.5265 42.9911C32.5295 42.5995 32.6123 42.2127 32.77 41.8542L35.0181 43.1122L32.9588 41.4962C33.1665 41.1602 33.4413 40.8706 33.766 40.6456C34.0907 40.4206 34.4583 40.2649 34.8458 40.1883C35.2333 40.1117 35.6325 40.1159 36.0184 40.2005C36.4042 40.2851 36.7685 40.4484 37.0884 40.6801C37.4084 40.9118 37.6771 41.207 37.8778 41.5473C38.0785 41.8875 38.2069 42.2655 38.255 42.6576C38.3031 43.0497 38.2698 43.4475 38.1573 43.8261C38.0447 44.2048 37.8553 44.5562 37.6008 44.8583C37.7235 45.0245 37.8278 45.2036 37.9118 45.3923L35.8334 46.3898L38.0373 45.7269C38.1761 46.1848 38.1985 46.6702 38.1024 47.1389C38.0063 47.6077 37.7948 48.0451 37.487 48.4115C37.807 48.8457 37.9984 49.3611 38.0392 49.8988C38.08 50.4366 37.9687 50.975 37.7179 51.4524C37.4672 51.9299 37.0871 52.3272 36.6212 52.5988C36.1553 52.8704 35.6224 53.0055 35.0834 52.9885C34.5443 52.9715 34.021 52.8031 33.5731 52.5027C33.1252 52.2023 32.771 51.7818 32.5508 51.2895C32.3306 50.7972 32.2534 50.2529 32.3281 49.7188C32.4027 49.1846 32.6261 48.6823 32.9728 48.2692C32.5905 47.7504 32.3937 47.1181 32.4141 46.474C32.4344 45.8299 32.6706 45.2113 33.0849 44.7177H33.0866Z" fill="#6C63FF"/>
<path opacity="0.1" d="M38.1595 46.655C38.1399 47.2995 37.9029 47.9184 37.487 48.4112C37.807 48.8453 37.9984 49.3607 38.0392 49.8985C38.08 50.4362 37.9687 50.9746 37.7179 51.4521C37.4672 51.9296 37.0871 52.3268 36.6212 52.5985C36.1553 52.8701 35.6224 53.0051 35.0834 52.9881C34.5443 52.9711 34.021 52.8028 33.5731 52.5023C33.1252 52.2019 32.771 51.7815 32.5508 51.2892C32.3306 50.7969 32.2534 50.2525 32.3281 49.7184C32.4027 49.1843 32.6261 48.682 32.9728 48.2688C32.6046 47.7685 38.1696 46.3328 38.1595 46.655Z" fill="black"/>
</g>
<g opacity="0.2">
<path d="M58.8686 55.8227C58.8643 55.9372 58.8506 56.0511 58.8277 56.1634C58.0768 56.0435 57.3205 55.9362 56.5588 55.8417C56.5588 55.8115 56.5588 55.7806 56.5588 55.7493C56.5659 55.4257 56.6591 55.1098 56.8289 54.8342C57.053 54.4829 57.3892 54.2626 57.7608 54.2738C58.1323 54.2851 58.4556 54.5266 58.6573 54.8902C58.8095 55.1767 58.8824 55.4986 58.8686 55.8227Z" fill="#3F3D56"/>
<path d="M58.9296 53.9779C58.9559 53.1433 58.4605 52.4505 57.823 52.4303C57.1855 52.4102 56.6473 53.0704 56.6209 53.9049C56.5945 54.7395 57.09 55.4323 57.7275 55.4525C58.365 55.4726 58.9032 54.8124 58.9296 53.9779Z" fill="#3F3D56"/>
<path d="M58.9878 52.1312C59.0142 51.2967 58.5187 50.6038 57.8812 50.5836C57.2437 50.5635 56.7055 51.2237 56.6792 52.0582C56.6528 52.8928 57.1482 53.5857 57.7857 53.6058C58.4232 53.626 58.9614 52.9658 58.9878 52.1312Z" fill="#3F3D56"/>
<path d="M59.0466 50.2835C59.073 49.449 58.5775 48.7561 57.94 48.736C57.3025 48.7158 56.7643 49.376 56.738 50.2106C56.7116 51.0451 57.207 51.738 57.8445 51.7582C58.482 51.7783 59.0202 51.1181 59.0466 50.2835Z" fill="#3F3D56"/>
<path d="M59.0391 48.3533C59.0642 47.5184 58.5674 46.826 57.9296 46.8069C57.2918 46.7877 56.7544 47.4491 56.7293 48.2841C56.7043 49.119 57.2011 49.8114 57.8389 49.8305C58.4767 49.8497 59.0141 49.1883 59.0391 48.3533Z" fill="#3F3D56"/>
<path d="M54.0243 35.6242C53.8731 35.4185 53.7362 35.2026 53.6147 34.9781L56.663 34.5758L53.3821 34.4968C53.0891 33.8022 52.9408 33.0551 52.9464 32.3013C52.952 31.5474 53.1113 30.8027 53.4146 30.1125L57.7434 32.5338L53.7794 29.4227C54.1802 28.7774 54.7096 28.2216 55.3347 27.7898C55.9597 27.3581 56.667 27.0597 57.4124 26.9133C58.1578 26.7669 58.9254 26.7756 59.6673 26.9388C60.4092 27.102 61.1095 27.4163 61.7246 27.862C62.3397 28.3078 62.8565 28.8754 63.2426 29.5296C63.6287 30.1838 63.8759 30.9106 63.9689 31.6645C64.0619 32.4184 63.9985 33.1834 63.7829 33.9118C63.5672 34.6402 63.2039 35.3164 62.7154 35.8982C62.9515 36.2184 63.1523 36.5632 63.3145 36.9265L59.313 38.8479L63.5554 37.5703C63.8228 38.4509 63.8663 39.3842 63.6821 40.2858C63.4978 41.1875 63.0916 42.0289 62.5003 42.734C63.1161 43.5698 63.4844 44.562 63.5629 45.5972C63.6414 46.6324 63.4271 47.6688 62.9443 48.5879C62.4616 49.507 61.7299 50.2717 60.8331 50.7946C59.9362 51.3175 58.9102 51.5774 57.8726 51.5447C56.8349 51.512 55.8274 51.1879 54.9653 50.6096C54.1031 50.0313 53.4211 49.222 52.9972 48.2743C52.5733 47.3266 52.4246 46.2787 52.5682 45.2505C52.7118 44.2223 53.1418 43.2553 53.8091 42.46C53.0736 41.4612 52.695 40.2443 52.734 39.0046C52.773 37.7648 53.2274 36.5742 54.0243 35.6236V35.6242Z" fill="#6C63FF"/>
<path opacity="0.1" d="M63.7913 39.3535C63.7546 40.5935 63.3005 41.7848 62.5025 42.7346C63.1184 43.5704 63.4866 44.5626 63.5651 45.5978C63.6437 46.633 63.4293 47.6694 62.9466 48.5885C62.4638 49.5077 61.7322 50.2724 60.8353 50.7952C59.9384 51.3181 58.9125 51.5781 57.8748 51.5454C56.8372 51.5126 55.8297 51.1886 54.9675 50.6102C54.1053 50.0319 53.4233 49.2226 52.9994 48.2749C52.5755 47.3272 52.4269 46.2794 52.5705 45.2512C52.714 44.223 53.1441 43.2559 53.8114 42.4606C53.0975 41.4963 63.8109 38.7331 63.7913 39.3535Z" fill="black"/>
</g>
<path d="M14.8436 55.9213L15.4314 55.9196H16.2601L17.308 38.8971L27.6853 21.5803L27.2342 21.0962V19.8701L16.0113 38.4958L14.8436 55.9213Z" fill="#F1C0C0"/>
<path opacity="0.1" d="M15.4941 55.9191H16.2601L17.308 38.8966L27.6853 21.5799L27.2342 21.0957L16.5302 38.6371L15.4941 55.9191Z" fill="black"/>
<path d="M13.1115 56.0632L40.0002 58.1209L40.0232 58.1226L66.0456 56.5222L66.0653 56.5211V55.4222L37.3918 54.896L13.4696 54.873H13.2947L13.2757 54.9963L13.1115 56.0632Z" fill="#F1C0C0"/>
<path opacity="0.1" d="M13.1115 56.0632L40.0002 58.1209L40.0232 58.1226L66.0456 56.5222L66.0653 56.5009V55.4452H66.0423L40.0002 56.3148L13.4696 54.873H13.4656L13.4186 54.9039L13.2757 54.9963L13.1115 56.0632Z" fill="black"/>
<path opacity="0.1" d="M13.1115 56.0627L40.0002 58.1203V56.3143L13.4186 54.9033L13.2757 54.9958L13.1115 56.0627Z" fill="black"/>
<path d="M27.2308 21.073L39.0852 33.7965L38.7187 56.1772L39.7257 56.2988L39.7425 56.301H40.7494L40.8699 34.7575L63.0673 42.1721L63.4417 55.3742L64.2519 55.4649L64.5265 55.4958L63.8911 41.2565L40.6867 33.11L27.9632 19.8828H27.2308V21.073Z" fill="#F1C0C0"/>
<path opacity="0.1" d="M40.7786 34.3457L40.8699 34.7576L63.0673 42.1722L63.4417 55.3742L64.2519 55.465L63.6165 41.8976L40.7786 34.3457Z" fill="black"/>
<path opacity="0.1" d="M27.2308 21.073L39.0852 33.7965L38.7187 56.1772L39.7257 56.2988L40.0002 33.0641L27.2308 19.8828V21.073Z" fill="black"/>
<path d="M40.8217 43.3276L48.9632 44.9308L48.966 44.9313L63.2254 47.7404L63.8782 47.4787L63.8759 47.4328L63.8334 46.5222L40.8301 41.874L40.8217 43.3276Z" fill="#F1C0C0"/>
<path opacity="0.1" d="M48.966 44.9316L63.2254 47.7407L63.8782 47.479L63.8759 47.4331L48.966 44.9316Z" fill="black"/>
<path d="M49.5112 37.6436L49.7314 49.7663L49.8452 55.9857L50.8476 55.9521L51.4786 55.9308L51.2825 37.8189L50.8476 37.6744L50.7524 37.6436H49.5112Z" fill="#F1C0C0"/>
<path opacity="0.1" d="M49.5201 37.6406V37.6434L49.7314 49.7662L49.8452 55.9856L50.8476 55.952V37.6406H49.5201Z" fill="black"/>
<path d="M33.8083 40.7395C33.8671 40.7715 33.9233 40.808 33.9764 40.8488C34.0392 40.9037 34.0956 40.9656 34.1445 41.0332C34.3849 41.3442 34.6068 41.7056 34.5833 42.0978C34.5838 42.1549 34.573 42.2115 34.5515 42.2644C34.5301 42.3173 34.4984 42.3654 34.4583 42.406C34.3591 42.4906 34.2168 42.4946 34.0868 42.4946C33.9456 42.4946 33.7971 42.4946 33.6749 42.4217C33.5528 42.3489 33.4508 42.2071 33.3062 42.2105C33.2858 42.2138 33.265 42.2138 33.2446 42.2105C33.1947 42.1942 33.1846 42.1287 33.1521 42.0872C33.0961 42.0127 32.9778 42.0311 32.8899 42.0637C32.8019 42.0962 32.7044 42.1449 32.6175 42.1074C32.5671 42.0808 32.5259 42.0395 32.4993 41.9891C32.2914 41.6529 32.2471 41.2489 32.2079 40.8583C32.1838 40.6207 32 39.8105 32.5071 39.9948C32.7313 40.0755 32.9409 40.2369 33.1448 40.3551L33.8083 40.7395Z" fill="#3F3D56"/>
<path d="M33.3073 40.8198C33.3526 40.8524 33.4075 40.8689 33.4633 40.8667C33.519 40.8644 33.5724 40.8436 33.615 40.8075C33.6984 40.7321 33.7516 40.629 33.7646 40.5173C33.8206 40.4999 33.8492 40.5733 33.8851 40.6181C33.9478 40.6943 34.0756 40.6932 34.1327 40.7745C34.1725 40.8305 34.1636 40.9084 34.1916 40.9717C34.228 41.0535 34.3182 41.0961 34.3799 41.1622C34.4381 41.2345 34.4801 41.3184 34.5031 41.4082L34.595 41.6839C34.639 41.7986 34.6673 41.9186 34.6791 42.0409C34.6849 42.102 34.6785 42.1636 34.6602 42.2222C34.6419 42.2808 34.6121 42.3352 34.5726 42.3821C34.4493 42.5149 34.2471 42.5289 34.0683 42.525C34.0086 42.5263 33.949 42.5193 33.8912 42.5043C33.7326 42.455 33.6312 42.2953 33.5892 42.1344C33.5472 41.9736 33.5516 41.805 33.527 41.6402C33.5004 41.4784 33.4533 41.3206 33.3869 41.1706C33.3376 41.0541 33.202 40.8804 33.2042 40.7565C33.2446 40.7565 33.2737 40.7935 33.3073 40.8198Z" fill="#3F3D56"/>
<path d="M33.5085 40.2526C33.4823 40.173 33.467 40.0903 33.4631 40.0066C33.4631 39.8385 33.5399 39.6804 33.6172 39.5303L32.9767 39.6171C32.8994 39.6278 32.8131 39.6435 32.7694 39.7079C32.7528 39.7398 32.7441 39.7753 32.7441 39.8113C32.7441 39.8473 32.7528 39.8827 32.7694 39.9147C32.8015 39.9786 32.827 40.0456 32.8456 40.1147C32.8471 40.1752 32.854 40.2354 32.8663 40.2946C32.8863 40.3381 32.9142 40.3774 32.9487 40.4106C33.1319 40.6134 33.2692 40.8527 33.406 41.0897C33.402 41.083 33.792 40.781 33.7764 40.6824C33.7674 40.6263 33.6548 40.5591 33.6189 40.5053C33.5694 40.4272 33.5321 40.342 33.5085 40.2526Z" fill="#BE6F72"/>
<path d="M39 38.0635V38.6154L29.5485 40.459L29.0581 40.756H27.3664V40.445L36.6527 38.2013L39 38.0635Z" fill="#F1C0C0"/>
<path opacity="0.1" d="M39 38.6152L29.5485 40.4588L29.0581 40.7558H27.3664L36.7216 38.7536L39 38.6152Z" fill="black"/>
<path d="M31.4116 53.7319C31.3063 53.6044 31.161 53.5162 30.9992 53.4818C30.8374 53.4474 30.6688 53.4688 30.5207 53.5425C30.489 53.5574 30.461 53.5792 30.4389 53.6064C30.3828 53.6848 30.4187 53.793 30.4237 53.8899C30.4366 54.1264 30.2483 54.3186 30.0791 54.4839C29.9883 54.5724 29.8959 54.6671 29.855 54.7876C29.8141 54.9081 29.8443 55.0611 29.9542 55.1238C30.0021 55.1478 30.0542 55.1623 30.1077 55.1664C30.2868 55.2013 30.4705 55.2065 30.6512 55.1815C30.83 55.1473 31.0054 55.0459 31.0827 54.8812C31.0976 54.8365 31.1223 54.7957 31.155 54.7618C31.2536 54.6839 31.4049 54.7753 31.517 54.7198C31.6095 54.6738 31.6134 54.6016 31.6145 54.5063C31.6179 54.2429 31.5786 53.9448 31.4116 53.7319Z" fill="#6C63FF"/>
<path d="M32.7565 53.7212C32.8254 53.9027 32.835 54.1005 32.8439 54.2944C32.849 54.4065 32.8523 54.5264 32.7918 54.6211C32.7313 54.7158 32.613 54.7657 32.4999 54.7892C32.2662 54.8374 31.9955 54.792 31.8448 54.6065C31.7294 54.4648 31.7053 54.2703 31.7266 54.0865C31.7445 53.9358 31.7826 53.7593 31.6745 53.6523C31.6464 53.6237 31.61 53.6035 31.5842 53.5727C31.5282 53.5043 31.5372 53.4012 31.5674 53.3172C31.6068 53.2368 31.6364 53.1519 31.6554 53.0644C31.6599 53.023 32.4141 53.0936 32.4836 53.1278C32.5783 53.1743 32.5637 53.2522 32.5923 53.3463C32.6321 53.4774 32.7083 53.5957 32.7565 53.7212Z" fill="#6C63FF"/>
<path d="M32.8949 45.6713C33.0428 45.7671 33.1 45.9554 33.123 46.1302C33.1863 46.6093 33.0753 47.0934 33.0669 47.577C33.0591 48.2545 33.2552 48.9443 33.0877 49.6005C32.9874 49.9927 33.0725 50.441 32.9784 50.8372C32.9504 50.9549 32.8988 51.0658 32.8719 51.1835C32.8159 51.4385 32.8747 51.7052 32.9537 51.9545C32.979 52.0218 32.995 52.0921 33.0014 52.1636C32.9976 52.2736 32.9696 52.3815 32.9196 52.4796L32.5833 53.2747C32.5458 53.3638 32.3979 53.3784 32.3032 53.3902C32.125 53.4115 31.9261 53.4266 31.7843 53.3162C31.6425 53.2058 31.6083 53.0209 31.5865 52.8483C31.5446 52.517 31.5258 52.1831 31.5304 51.8492C31.5366 51.762 31.5288 51.6745 31.5075 51.5898C31.4766 51.4939 31.4088 51.411 31.3904 51.3096C31.3668 51.1785 31.4335 51.0496 31.4582 50.9173C31.4751 50.7965 31.4732 50.6739 31.4525 50.5537C31.4307 50.3743 31.4055 50.195 31.3769 50.0168C31.3366 49.7675 31.3943 49.5215 31.4329 49.2716C31.4694 49.0368 31.4228 48.7975 31.3769 48.5644C31.3809 48.7536 31.3573 48.9423 31.3069 49.1247C31.2772 49.2138 31.2346 49.299 31.2088 49.3898C31.0939 49.7972 31.3388 50.2247 31.3041 50.6467C31.2878 50.8439 31.2105 51.0389 31.2323 51.2334C31.2475 51.3757 31.3136 51.5063 31.359 51.6419C31.4044 51.7775 31.4279 51.9327 31.359 52.0593C31.1769 52.4034 31.313 52.8713 31.4761 53.2243C31.5092 53.2869 31.538 53.3517 31.5624 53.4182C31.6106 53.5773 31.5702 53.7482 31.5831 53.9141C31.5362 53.9218 31.4881 53.9187 31.4426 53.905C31.397 53.8913 31.3552 53.8674 31.3203 53.8351C31.2956 53.8093 31.2755 53.7791 31.2514 53.7522C31.1841 53.688 31.1044 53.6382 31.0172 53.6059C30.966 53.5773 30.9076 53.5638 30.849 53.5673C30.7875 53.5845 30.7321 53.6189 30.6893 53.6664C30.6339 53.7152 30.5751 53.7599 30.5134 53.8004C30.4871 53.8206 30.4564 53.8342 30.4237 53.8401C30.4073 53.8427 30.3905 53.84 30.3758 53.8324C30.361 53.8249 30.3489 53.8129 30.3414 53.7981C30.3379 53.7888 30.3358 53.7789 30.3352 53.769C30.3144 53.5998 30.3033 53.4295 30.3021 53.2591C30.3021 52.966 29.9514 52.7643 29.9071 52.4746C29.8718 52.2409 29.9373 52.0027 29.9155 51.7674C29.9048 51.6463 29.8712 51.5276 29.8735 51.4065C29.8735 51.3281 29.8914 51.2513 29.8976 51.1734C29.9027 51.0869 29.9014 51.0002 29.8936 50.914L29.8763 50.6433C29.8595 50.376 29.841 50.1031 29.7356 49.8588C29.6107 49.5735 29.5367 49.2686 29.5171 48.9578C29.5059 48.7616 29.5132 48.5655 29.4907 48.3688C29.4706 48.1912 29.4257 48.0147 29.4386 47.8365C29.4493 47.6986 29.4947 47.5653 29.5053 47.4274C29.5272 47.1624 29.4263 46.9046 29.3473 46.6508C29.2683 46.3969 29.21 46.1156 29.3137 45.8707C29.3285 45.8306 29.3531 45.7947 29.3854 45.7665C29.4251 45.7402 29.4704 45.7234 29.5176 45.7172C30.4791 45.5152 31.4645 45.4524 32.4438 45.5306C32.6035 45.5397 32.7584 45.588 32.8949 45.6713Z" fill="#3F3D56"/>
<path d="M29.7138 39.7202C30.2095 39.7202 30.6115 39.3183 30.6115 38.8225C30.6115 38.3267 30.2095 37.9248 29.7138 37.9248C29.218 37.9248 28.8161 38.3267 28.8161 38.8225C28.8161 39.3183 29.218 39.7202 29.7138 39.7202Z" fill="#BE6F72"/>
<path d="M29.54 39.9432C29.553 39.9946 29.553 40.0483 29.54 40.0996C29.5259 40.1354 29.5061 40.1687 29.4812 40.1982C29.3943 40.3103 29.2982 40.4149 29.1937 40.5109C29.2469 40.6297 29.3427 40.7242 29.4622 40.7759C29.5808 40.8264 29.7052 40.862 29.8326 40.8818C29.8961 40.8986 29.9623 40.9031 30.0276 40.8953C30.0877 40.8802 30.1447 40.8544 30.1957 40.8191L30.6944 40.5204C30.7696 40.4796 30.8393 40.4294 30.9017 40.3708C30.9932 40.2768 31.045 40.1512 31.0463 40.02C31.0486 39.9965 31.0422 39.973 31.0284 39.9539C31.0092 39.9372 30.9853 39.9272 30.96 39.9253C30.7846 39.8866 30.6462 39.7443 30.5677 39.5829C30.4968 39.4175 30.4509 39.2424 30.4316 39.0635L29.8998 39.3437C29.8208 39.3857 29.7423 39.4277 29.6605 39.4641C29.6084 39.4877 29.5031 39.5073 29.4661 39.5549C29.3955 39.6429 29.5216 39.8373 29.54 39.9432Z" fill="#BE6F72"/>
<path d="M29.1971 40.3483C29.1214 40.4104 29.0623 40.4903 29.0251 40.5808C28.9903 40.6929 29.0251 40.8112 29.0565 40.9221C29.2035 41.395 29.3159 41.878 29.3927 42.3673C29.4397 42.7035 29.4571 43.0447 29.4801 43.3849C29.5272 44.0786 29.5955 45.1847 29.6869 45.874C30.0231 45.8891 30.3509 45.7911 30.6843 45.7552C31.3074 45.6891 31.949 45.8404 32.5593 45.6992C32.4113 45.1147 32.2634 44.1167 32.1155 43.5328C32.05 43.3028 32.0046 43.0675 31.9798 42.8296C31.967 42.6587 31.9748 42.4872 31.977 42.3152C31.9821 41.9789 31.9636 41.6427 31.9451 41.3065C31.9238 40.9143 31.9025 40.522 31.8095 40.1382C31.803 40.0893 31.7801 40.044 31.7445 40.0098C31.6885 39.9689 31.6156 39.9835 31.5489 39.9925C31.3448 40.0184 31.1381 39.9694 30.9673 39.8546C30.8933 39.8042 30.7941 39.7426 30.7252 39.7986C30.6958 39.8324 30.6764 39.8737 30.6692 39.9179C30.6387 39.9972 30.5916 40.0691 30.5311 40.1287C30.4706 40.1883 30.3981 40.2343 30.3184 40.2637C30.1587 40.3215 29.9915 40.3559 29.8219 40.3657C29.77 40.3768 29.7159 40.3707 29.6678 40.3483C29.5882 40.2995 29.5826 40.1242 29.4823 40.1124C29.3944 40.1023 29.2565 40.2917 29.1971 40.3483Z" fill="#3F3D56"/>
<path d="M30.5229 41.7166C30.3161 41.5188 30.2254 41.2319 30.0746 40.9882C29.972 40.8243 29.8409 40.68 29.6874 40.5623C29.6103 40.5114 29.5396 40.4514 29.4767 40.3836C29.4235 40.318 29.3832 40.2306 29.3025 40.2054C29.2691 40.1981 29.2345 40.1991 29.2016 40.2081C29.1687 40.2172 29.1385 40.2341 29.1136 40.2575C29.0642 40.3046 29.0175 40.3543 28.9735 40.4065C28.7359 40.6525 28.3185 40.6867 28.1302 40.9714C28.0794 41.0317 28.0449 41.1041 28.0299 41.1815C27.9757 41.5958 28.0828 42.0151 28.3291 42.3527C28.3768 42.4309 28.45 42.4903 28.5364 42.5208C28.5247 42.6252 28.5386 42.731 28.5768 42.829C28.6805 43.1836 28.808 43.5309 28.9584 43.8684C28.9224 44.0005 28.8973 44.1352 28.8833 44.2713C28.8441 44.6137 28.8805 44.9611 28.8435 45.3041C28.8133 45.5842 28.7315 45.8571 28.7287 46.1379C28.7287 46.1827 28.7326 46.2359 28.7712 46.2589C28.7918 46.2695 28.8148 46.2743 28.8379 46.2729L29.5272 46.2936C29.9273 46.3054 30.3313 46.3172 30.7252 46.2432C30.7777 46.2355 30.8285 46.2194 30.8759 46.1956C31.0093 46.1211 31.0536 45.9529 31.0749 45.8033C31.1027 45.6093 31.1137 45.4132 31.1079 45.2172C31.1914 45.4811 31.2906 45.754 31.5428 45.8683C31.6761 45.9289 31.8285 45.9244 31.9748 45.9204C32.29 45.9064 32.6042 45.874 32.9156 45.8235C32.9348 45.8259 32.9543 45.8237 32.9725 45.8172C32.9908 45.8107 33.0072 45.8001 33.0205 45.7861C33.0339 45.7721 33.0438 45.7551 33.0494 45.7366C33.055 45.7181 33.0562 45.6986 33.0529 45.6795L33.0563 45.3735C33.063 44.7521 32.9089 44.1581 32.849 43.5395C32.8299 43.3445 32.8316 43.1472 32.784 42.9562C32.7643 42.876 32.7358 42.7976 32.7184 42.7169C32.7034 42.6379 32.6941 42.5579 32.6904 42.4776L32.6467 41.8612C32.6259 41.576 32.5962 41.3009 32.5744 41.0162C32.5624 40.739 32.5222 40.4638 32.4545 40.1947C32.4057 40.0266 32.3043 39.8361 32.1289 39.8154C32.0353 39.8047 31.9445 39.8456 31.8554 39.8742C31.6365 39.9431 31.4014 39.9422 31.183 39.8714C31.1155 39.8447 31.0452 39.8259 30.9734 39.8154C30.9373 39.8104 30.9005 39.8152 30.8669 39.8292C30.8332 39.8432 30.8038 39.8659 30.7818 39.8949C30.7601 39.9387 30.7498 39.9873 30.7521 40.0361C30.7258 40.5959 30.677 41.1725 30.5229 41.7166Z" fill="#6C63FF"/>
<path d="M29.6213 41.7329C29.363 41.4606 29.0979 41.1832 28.7651 41.0101C28.634 40.9417 28.4849 40.8902 28.3398 40.9159C28.1946 40.9417 28.0596 41.0678 28.0663 41.2152C28.0708 41.3065 28.1263 41.3872 28.1436 41.4769C28.1638 41.5777 28.1347 41.6853 28.1661 41.7828C28.1916 41.8471 28.2297 41.9056 28.2781 41.9548L28.6749 42.425C28.843 42.6211 29.0111 42.82 29.2274 42.9556C29.4437 43.0912 29.7238 43.1546 29.9614 43.0582C30.1305 42.9796 30.271 42.8506 30.3638 42.6889C30.4624 42.532 30.5319 42.3605 30.6243 42.1986C30.7682 41.9398 30.9581 41.7095 31.1847 41.5189C31.0681 41.4886 30.9219 41.446 30.8485 41.3508C30.8276 41.3205 30.8098 41.2882 30.7953 41.2544L30.7045 41.0583C30.6736 41.0567 30.6427 41.0615 30.6138 41.0723C30.5849 41.0832 30.5585 41.1 30.5364 41.1216C30.4974 41.1666 30.4557 41.2091 30.4114 41.2488C30.3324 41.3082 30.2254 41.3244 30.1536 41.3922C30.1259 41.4213 30.1008 41.4528 30.0786 41.4864C30.0243 41.5577 29.9554 41.6166 29.8766 41.6591C29.7977 41.7016 29.7107 41.7268 29.6213 41.7329Z" fill="#3F3D56"/>
<path d="M31.2054 40.5617C31.3999 40.207 31.3909 39.7817 31.4464 39.381C31.4524 39.2749 31.4896 39.173 31.5534 39.088C31.6655 38.9613 31.8633 38.9597 32.0325 38.9759C32.0824 38.9815 32.1446 39.005 32.1418 39.0549C32.1379 39.0728 32.1291 39.0893 32.1166 39.1026C31.9526 39.3142 31.8561 39.5704 31.8398 39.8377C31.9277 39.8988 32.0639 39.7733 32.1485 39.8377C32.2046 39.8848 32.1788 39.9778 32.1452 40.0451C32.0671 40.2009 31.9866 40.3555 31.9036 40.509C31.8374 40.6444 31.7511 40.7689 31.6476 40.8783C31.5764 40.9467 31.4929 41.0005 31.4206 41.0677C31.2525 41.2252 31.1511 41.4476 30.9774 41.6012C30.9627 41.6171 30.9428 41.6272 30.9213 41.6298C30.8992 41.6282 30.8784 41.6189 30.8625 41.6034C30.7757 41.5328 30.7037 41.4458 30.6507 41.3473C30.5846 41.2252 30.5946 41.1893 30.6989 41.103C30.8939 40.9489 31.0838 40.7836 31.2054 40.5617Z" fill="#BE6F72"/>
<path d="M29.2963 41.4925C29.3299 41.5133 29.3714 41.5368 29.4084 41.5194C29.4235 41.5103 29.4363 41.4979 29.4459 41.483C29.51 41.3975 29.5634 41.3046 29.6051 41.2062C29.6122 41.1923 29.6162 41.177 29.6168 41.1614C29.6168 41.1255 29.5849 41.0992 29.5552 41.0784C29.396 40.977 29.225 40.8957 29.0458 40.8364C28.8979 40.7803 28.7432 40.7316 28.5863 40.7456C28.5274 40.7496 28.4698 40.7654 28.4171 40.7922C28.3645 40.8189 28.3178 40.8561 28.2798 40.9014C28.1677 41.0454 28.3555 41.0891 28.4731 41.1412C28.7455 41.265 29.0402 41.3368 29.2963 41.4925Z" fill="#6C63FF"/>
<path opacity="0.1" d="M29.1198 42.4449C29.1179 42.4577 29.119 42.4708 29.1231 42.483C29.1272 42.4953 29.1341 42.5064 29.1433 42.5155C29.1596 42.436 29.1383 42.3519 29.1551 42.2718C29.1797 42.1513 29.2969 42.0605 29.3069 41.9395C29.0923 41.8975 29.1215 42.3149 29.1198 42.4449Z" fill="black"/>
<path opacity="0.2" d="M39 38.0635V38.6154L36.7216 38.7538L36.6527 38.2013L39 38.0635Z" fill="black"/>
<path d="M28.9057 38.9557C29.0481 38.8397 28.9657 38.5965 29.0621 38.4407C29.1181 38.3555 29.2128 38.3107 29.3058 38.2726C29.4181 38.2201 29.5384 38.1867 29.6616 38.174C29.7234 38.168 29.7857 38.1761 29.8439 38.1975C29.9021 38.219 29.9547 38.2533 29.9979 38.2978C30.0343 38.3393 30.0589 38.3897 30.0931 38.4329C30.1355 38.4832 30.1906 38.5211 30.2528 38.5426C30.3149 38.5642 30.3818 38.5684 30.4461 38.555C30.5207 38.5382 30.598 38.4816 30.593 38.4054C30.5845 38.3591 30.5609 38.3168 30.5257 38.2855L30.3655 38.1079C30.1833 37.9061 29.981 37.6921 29.7138 37.6416C29.5277 37.6063 29.3372 37.6562 29.1579 37.7162C29.0856 37.7403 29.0043 37.7761 28.9842 37.8495C28.9707 37.9 28.9909 37.9549 28.9791 38.0059C28.9562 38.1073 28.8262 38.1415 28.7656 38.2267C28.7051 38.3118 28.7236 38.4127 28.7062 38.5068C28.6889 38.601 28.6384 38.6929 28.6323 38.7904C28.6283 38.8492 28.658 38.9585 28.7242 38.9798C28.7903 39.0011 28.8648 38.8856 28.9057 38.9557Z" fill="#3F3D56"/>
<path d="M30.5386 38.3248C30.4914 38.0783 30.3895 37.8455 30.2405 37.6434C30.108 37.4547 29.9237 37.3083 29.7098 37.222C29.6029 37.1803 29.488 37.1632 29.3735 37.1723C29.2591 37.1813 29.1482 37.2161 29.0492 37.2742C28.9022 37.3791 28.7878 37.5234 28.7191 37.6905C28.574 38.0032 28.5202 38.3853 28.6889 38.6857C28.7561 38.6039 28.8715 38.6409 28.9735 38.6112C29.1013 38.5747 29.2094 38.4896 29.331 38.4363C29.6981 38.2744 30.1464 38.4055 30.5386 38.3248Z" fill="#FED253"/>
<path opacity="0.1" d="M28.7746 38.3071C28.7617 38.2062 28.7533 38.0891 28.825 38.0174C28.8286 38.013 28.8331 38.0095 28.8383 38.0072C28.8434 38.0048 28.8491 38.0037 28.8547 38.0039C28.8597 38.0056 28.8643 38.0082 28.8683 38.0117C28.8722 38.0151 28.8754 38.0194 28.8777 38.0241C28.9191 38.0894 28.9544 38.1585 28.9831 38.2303C28.9413 38.2207 28.8976 38.2238 28.8576 38.2393C28.8177 38.2548 28.7833 38.2819 28.7589 38.3172" fill="black"/>
<path opacity="0.1" d="M30.0842 38.0227L30.064 37.8226C30.0607 37.8061 30.0621 37.7891 30.0679 37.7733C30.0764 37.7601 30.0894 37.7505 30.1045 37.7464C30.1196 37.7423 30.1357 37.7439 30.1497 37.7509C30.1773 37.7662 30.2 37.7889 30.2153 37.8165C30.2619 37.8881 30.3006 37.9645 30.3307 38.0445C30.2405 38.0271 30.1476 38.0283 30.0578 38.0479" fill="black"/>
<path opacity="0.1" d="M30.5857 46.1416V46.5989L30.1996 46.6246H28.1689V46.1416H30.5857Z" fill="black"/>
<path d="M30.5857 46.1419V46.6249H28.1689L21.7483 38.5821V38.2021H23.0943L30.5857 46.1419Z" fill="#F1C0C0"/>
<path opacity="0.1" d="M30.5857 46.1419V46.6249H28.1689L21.7483 38.5821V38.2021H23.0943L30.5857 46.1419Z" fill="black"/>
<path opacity="0.1" d="M30.5857 46.1419V46.6249H28.1689L21.7483 38.5821V38.2021L28.2036 46.1419H30.5857Z" fill="black"/>
<path d="M22.5899 54.2034C22.5942 54.2261 22.5937 54.2495 22.5884 54.272C22.5832 54.2945 22.5734 54.3158 22.5596 54.3343C22.5459 54.3529 22.5284 54.3684 22.5084 54.3799C22.4883 54.3914 22.4661 54.3987 22.4431 54.4012C22.2873 54.4539 22.122 54.506 22.0116 54.6254C21.9013 54.7447 21.8794 54.9661 22.0116 55.063C22.0792 55.1038 22.1569 55.1249 22.2358 55.1241C22.4896 55.1414 22.7541 55.1381 22.9844 55.0305C23.1492 54.9543 23.3044 54.8243 23.4854 54.8361C23.579 54.8417 23.6787 54.8854 23.7622 54.8428C23.8457 54.8002 23.8692 54.6814 23.8698 54.5822C23.8719 54.3752 23.8407 54.1691 23.7773 53.972C23.7689 53.9451 23.4125 53.9244 23.37 53.9159L22.9379 53.8599C22.8561 53.8493 22.6796 53.7876 22.6152 53.856C22.5507 53.9244 22.5899 54.1222 22.5899 54.2034Z" fill="#6C63FF"/>
<path d="M25.1681 52.8048C25.1864 52.9057 25.2161 53.0042 25.2567 53.0984C25.3166 53.2508 25.3934 53.4128 25.5402 53.4867C25.6736 53.5534 25.8372 53.5293 25.9728 53.466C26.0294 53.4426 26.079 53.4049 26.1168 53.3567C26.1606 53.2805 26.1801 53.1927 26.1729 53.1051C26.1729 52.8883 26.16 52.6641 26.0608 52.4714C25.9756 52.3033 25.8271 52.1587 25.8249 51.9727L25.3144 52.0713C25.2871 52.0739 25.261 52.0842 25.2393 52.101C25.2231 52.118 25.2119 52.1391 25.2068 52.1621C25.1523 52.3718 25.1392 52.5901 25.1681 52.8048Z" fill="#6C63FF"/>
<path d="M19.072 47.4811C19.0507 47.6615 19.0597 47.8549 19.1538 48.0106C19.248 48.1664 19.4463 48.2695 19.6178 48.2073C19.6266 48.2051 19.6348 48.2011 19.6421 48.1956C19.6493 48.1901 19.6553 48.1833 19.6598 48.1754C19.6644 48.1565 19.6618 48.1365 19.6525 48.1194C19.5768 47.9173 19.5831 47.6937 19.6699 47.4962C19.6811 47.4705 19.7052 47.4402 19.7316 47.4503C19.7426 47.4559 19.7514 47.4649 19.7568 47.4761C19.7839 47.523 19.7975 47.5765 19.796 47.6307C19.7881 47.6798 19.7866 47.7297 19.7915 47.7792C19.8022 47.8274 19.8537 47.8728 19.8985 47.8521C19.9115 47.8441 19.9227 47.8336 19.9315 47.8212C19.9402 47.8087 19.9464 47.7947 19.9495 47.7798C20.0745 47.4184 20.0179 47.0233 19.9607 46.6451C19.9612 46.6364 19.9598 46.6277 19.9565 46.6196C19.9533 46.6116 19.9483 46.6043 19.9419 46.5984C19.9356 46.5924 19.928 46.588 19.9197 46.5853C19.9115 46.5826 19.9027 46.5818 19.8941 46.5829C19.6296 46.5565 19.485 46.4932 19.3337 46.7392C19.2037 46.9465 19.072 47.2318 19.072 47.4811Z" fill="#6C63FF"/>
<path d="M22.1641 46.5613C22.0856 46.8874 22.0066 47.2175 22.0016 47.5526C22.0029 47.7613 22.0187 47.9697 22.0486 48.1763L22.1075 48.6615C22.1276 48.8251 22.1473 48.9882 22.1758 49.1502C22.1941 49.2336 22.204 49.3186 22.2055 49.404C22.2 49.4882 22.1867 49.5716 22.1657 49.6534C22.1305 49.8249 22.1108 49.9994 22.1069 50.1745C22.1007 50.4547 22.1355 50.7348 22.1573 51.015C22.201 51.5733 22.1944 52.1345 22.1377 52.6916C22.1151 52.842 22.1478 52.9955 22.2296 53.1236C22.2629 53.1641 22.2902 53.209 22.3109 53.257C22.3529 53.3853 22.2548 53.5137 22.2296 53.6453C22.2135 53.748 22.2388 53.8529 22.2999 53.937C22.3611 54.021 22.4531 54.0774 22.5558 54.0936C23.004 54.1469 23.4647 54.1228 23.8687 54.3279C23.9113 54.2035 23.8182 54.0622 23.8608 53.9356C23.8877 53.8572 23.9617 53.8062 24.0121 53.74C24.0799 53.6393 24.1136 53.5195 24.1085 53.3982C24.1105 53.2399 24.0823 53.0826 24.0256 52.9348C23.9779 52.8115 23.9096 52.6899 23.9135 52.5577C23.9135 52.4927 23.9365 52.4243 23.9101 52.3644C23.8921 52.3299 23.8675 52.2993 23.8379 52.2741C23.6704 52.0907 23.5675 51.8575 23.5448 51.6101C23.5229 51.3646 23.5308 51.1174 23.5683 50.8738C23.5958 50.6418 23.6328 50.3969 23.7801 50.216C23.7118 49.6671 23.752 49.1102 23.8984 48.5769C23.9129 48.5276 23.9359 48.4704 23.9864 48.4587C24.0064 48.4566 24.0266 48.4594 24.0453 48.4668C24.0641 48.4742 24.0807 48.4861 24.0939 48.5013C24.1819 48.5836 24.2239 48.703 24.262 48.8173C24.3041 48.9411 24.3467 49.0734 24.3147 49.2C24.3013 49.2561 24.2744 49.3054 24.2587 49.3592C24.2246 49.4673 24.2306 49.584 24.2755 49.6881C24.2974 49.7261 24.3111 49.7683 24.3158 49.8119C24.3106 49.8494 24.2993 49.8858 24.2822 49.9195C24.2614 49.9858 24.2548 50.0558 24.2628 50.1248C24.2709 50.1938 24.2933 50.2604 24.3287 50.3202C24.4002 50.4392 24.4883 50.5473 24.5904 50.6413C24.5416 50.8563 24.5542 51.0808 24.6268 51.289C24.6321 51.2984 24.6354 51.3087 24.6367 51.3194C24.6379 51.3301 24.6371 51.3409 24.6341 51.3512C24.624 51.3725 24.5983 51.3804 24.5781 51.3955C24.5221 51.4415 24.5568 51.5283 24.5943 51.5883C24.6972 51.7528 24.8109 51.9105 24.9345 52.0601C25.0465 52.194 25.0365 52.4523 25.2034 52.5005C25.2736 52.5157 25.3462 52.5157 25.4164 52.5005C25.5811 52.4753 25.7649 52.4277 25.8456 52.282C25.8787 52.222 25.8921 52.1492 25.9437 52.1044C25.9952 52.0595 26.0619 52.0517 26.0905 51.9979C26.1191 51.9441 26.0871 51.8735 26.0967 51.8113C26.1062 51.7491 26.1605 51.6992 26.1779 51.6337C26.2194 51.4824 26.0429 51.358 26.0188 51.2033C25.984 50.9792 26.2664 50.8111 26.2547 50.5869C26.23 50.1 26.2143 49.6108 26.1891 49.1238C26.1575 48.6876 26.153 48.2499 26.1757 47.8131C26.1953 47.5414 26.2317 47.2567 26.132 47.004C25.9885 46.6476 25.5929 46.4476 25.2102 46.4094C24.8274 46.3713 24.4458 46.4621 24.0665 46.5215C23.4369 46.6185 22.7972 46.6319 22.1641 46.5613Z" fill="#3F3D56"/>
<path d="M23.3016 41.2055C23.7974 41.2055 24.1993 40.8036 24.1993 40.3078C24.1993 39.8121 23.7974 39.4102 23.3016 39.4102C22.8058 39.4102 22.4039 39.8121 22.4039 40.3078C22.4039 40.8036 22.8058 41.2055 23.3016 41.2055Z" fill="#FBBEBE"/>
<path d="M22.9362 41.3734C22.9057 41.4444 22.8545 41.5046 22.7892 41.5459C22.7238 41.5872 22.6476 41.6077 22.5703 41.6049C22.5378 41.7393 22.6157 41.875 22.7048 41.9809C22.8898 42.1962 23.1289 42.3582 23.3974 42.4503C23.6659 42.5424 23.9541 42.5612 24.2323 42.5048C24.3406 42.4854 24.4433 42.4426 24.5333 42.3793C24.6545 42.278 24.7359 42.137 24.763 41.9814C24.7888 41.8269 24.7961 41.6698 24.7849 41.5135C24.788 41.4827 24.7792 41.4518 24.7602 41.4272C24.7378 41.4099 24.7101 41.4008 24.6818 41.4015C24.4924 41.3846 24.2945 41.3774 24.1281 41.2843C23.9617 41.1913 23.8435 40.9812 23.9236 40.8086C23.9107 40.8355 23.5835 40.8484 23.5403 40.854C23.4053 40.873 23.2702 40.8943 23.1357 40.919C23.0711 40.9225 23.0072 40.9346 22.9458 40.9548C22.8645 40.9969 22.8948 40.9761 22.9138 41.0523C22.9424 41.1689 22.9844 41.2524 22.9362 41.3734Z" fill="#FBBEBE"/>
<path d="M23.6193 41.919C23.4984 41.9204 23.3778 41.907 23.2601 41.8792C23.1413 41.8515 23.0366 41.7816 22.9654 41.6825C22.9239 41.6198 22.897 41.5408 22.8309 41.5055C22.7227 41.4494 22.5995 41.5441 22.5132 41.631C22.4346 41.7166 22.3435 41.7899 22.2431 41.8484C22.1232 41.9117 21.9831 41.9341 21.8699 42.0087C21.7815 42.0755 21.7056 42.1574 21.6457 42.2507L20.8517 43.3322C20.5329 43.7671 20.2555 44.2338 19.9714 44.6928C19.7254 45.0901 19.5965 45.5473 19.411 45.976C19.3963 46.0022 19.3903 46.0324 19.3937 46.0623C19.4004 46.0914 19.4357 46.115 19.4603 46.0981C19.3769 46.1811 19.4503 46.3223 19.4306 46.4388C19.4083 46.5204 19.3618 46.5933 19.2973 46.6479C19.4206 46.6318 19.5458 46.6376 19.6671 46.6652C19.7925 46.7008 19.9108 46.7576 20.0168 46.8333C20.0846 46.8227 20.0784 46.7022 20.1289 46.6574C20.1591 46.631 20.2039 46.6344 20.2437 46.6266C20.3933 46.5974 20.4527 46.4176 20.5676 46.3161C20.6634 46.2315 20.799 46.2041 20.9005 46.1245C21.0652 45.995 21.1005 45.7647 21.1868 45.5737C21.2602 45.4117 21.3756 45.2705 21.4401 45.1046C21.4821 44.997 21.5023 44.8805 21.5622 44.7813C21.6581 44.621 21.8385 44.5359 22.0105 44.4591C22.1192 44.4103 22.2347 44.3599 22.3518 44.3678C22.3456 44.6283 22.3126 44.885 22.3692 45.1394C22.3888 45.229 22.4162 45.3164 22.4398 45.4055C22.5468 45.8068 22.572 46.2248 22.5771 46.6383C22.8345 46.5794 23.0975 46.5479 23.3616 46.5442C23.5694 46.538 23.7768 46.5649 23.9847 46.561C24.2312 46.5565 24.475 46.5089 24.7215 46.4921C24.9681 46.4753 25.2259 46.4921 25.4438 46.6041C25.4261 46.249 25.4361 45.8931 25.4735 45.5395L25.5329 44.9825C25.5463 44.8206 25.5712 44.66 25.6075 44.5017C25.64 44.3739 25.687 44.2506 25.7229 44.1234C25.849 43.6752 25.826 43.1966 25.8019 42.7298C25.7896 42.49 25.6971 42.2541 25.5884 42.0406C25.5491 41.9613 25.5041 41.8849 25.4539 41.812C25.3226 41.631 25.1475 41.4862 24.9451 41.3912C24.7426 41.2961 24.5194 41.2539 24.2962 41.2684C24.2677 41.2693 24.2396 41.2754 24.2133 41.2864C24.166 41.3166 24.1291 41.3606 24.1074 41.4124C23.9915 41.6208 23.8232 41.7954 23.6193 41.919Z" fill="#3F3D56"/>
<path d="M22.5121 40.6054C22.5373 40.5494 22.6051 40.5286 22.6465 40.4838C22.7261 40.3986 22.6902 40.2625 22.7026 40.1476C22.7227 39.9795 22.8623 39.8388 23.022 39.7789C23.1848 39.7266 23.3581 39.7156 23.5263 39.7469C23.6072 39.7528 23.6854 39.7788 23.7538 39.8226C23.7829 39.8439 23.8098 39.8713 23.8373 39.8909C23.8873 39.9212 23.9472 39.9307 24.0042 39.9174C24.0611 39.9041 24.1106 39.8691 24.1421 39.8198C23.9438 39.5811 23.7241 39.3289 23.4226 39.2555C23.3192 39.2344 23.2138 39.2244 23.1083 39.2258C22.9687 39.223 22.8247 39.2208 22.6958 39.274C22.5205 39.3463 22.3972 39.5127 22.3339 39.692C22.2785 39.8738 22.2489 40.0624 22.2459 40.2524C22.2344 40.3791 22.2344 40.5067 22.2459 40.6334C22.2675 40.8065 22.3319 40.9715 22.433 41.1136C22.4467 41.1357 22.4661 41.1537 22.4891 41.1658C22.7446 41.2778 22.4913 40.6519 22.5121 40.6054Z" fill="#3F3D56"/>
<path d="M24.113 39.6809C24.0822 39.4169 23.8939 39.199 23.6938 39.0236C23.5326 38.8715 23.3405 38.7559 23.1307 38.6845C22.9194 38.6223 22.6762 38.6358 22.4952 38.7619C22.3495 38.8633 22.2571 39.0247 22.1859 39.1872C22.0924 39.379 22.0461 39.5903 22.0509 39.8036C22.0649 40.0154 22.168 40.23 22.3518 40.337C22.4179 40.2395 22.5328 40.1891 22.6432 40.1493C23.1243 39.9668 23.615 39.8104 24.113 39.6809Z" fill="#FED253"/>
<path opacity="0.1" d="M22.4134 39.5713C22.4314 39.5713 22.4431 39.5898 22.4521 39.6049C22.4977 39.676 22.5369 39.751 22.5692 39.8291C22.5036 39.8431 22.391 39.8588 22.3585 39.8011C22.3411 39.7719 22.3619 39.5685 22.4134 39.5713Z" fill="black"/>
<path opacity="0.1" d="M23.6905 39.4447C23.677 39.4576 23.6613 39.4312 23.6613 39.4122V39.1948C23.661 39.1887 23.6623 39.1827 23.6653 39.1774C23.6676 39.1747 23.6704 39.1726 23.6736 39.171C23.6768 39.1695 23.6802 39.1686 23.6838 39.1684C23.7291 39.1634 23.7667 39.202 23.7958 39.239C23.84 39.299 23.8785 39.3629 23.9107 39.4301L23.6737 39.4228" fill="black"/>
<path d="M26.6486 43.0449C26.7002 42.996 26.7552 42.9508 26.8134 42.9099C26.9686 42.8062 27.1563 42.7653 27.3306 42.6992C27.5048 42.633 27.6819 42.526 27.7497 42.3523C27.7837 42.2437 27.7947 42.1292 27.7822 42.0161C27.7838 41.9687 27.7754 41.9216 27.7576 41.8777C27.7362 41.8389 27.7059 41.8058 27.669 41.7813C27.4325 41.6065 27.1154 41.5925 26.8218 41.6104C26.1744 41.6505 25.5399 41.8089 24.9496 42.0777C24.9184 42.088 24.891 42.1076 24.8712 42.1338C24.8597 42.158 24.8545 42.1848 24.856 42.2117C24.8456 42.3769 24.8671 42.5426 24.9193 42.6997C24.9967 42.8992 25.1558 43.06 25.2225 43.2634C25.2528 43.3548 25.2628 43.4517 25.2892 43.5436C25.3108 43.6385 25.3669 43.722 25.4466 43.7778C25.668 43.9101 25.877 43.7325 26.0305 43.5946L26.6486 43.0449Z" fill="#3F3D56"/>
<path d="M23.7499 43.8215L23.4658 43.2017C23.4241 43.1158 23.3882 43.0273 23.3582 42.9367C23.3257 42.8285 23.31 42.7165 23.2797 42.6078C23.18 42.2458 22.9284 41.9443 22.8057 41.5896C22.7979 41.5576 22.7821 41.528 22.7597 41.5039C22.7418 41.4912 22.7213 41.4826 22.6997 41.4787C22.6781 41.4749 22.656 41.4758 22.6348 41.4814C22.4633 41.5111 22.3294 41.6417 22.1725 41.7157C22.0996 41.7493 22.0212 41.7717 21.9483 41.8104C21.9119 41.8276 21.8797 41.8525 21.8537 41.8834C21.8278 41.9142 21.8089 41.9503 21.7982 41.9891C21.7808 42.0749 21.8234 42.1572 21.8592 42.2407C22.0116 42.5848 22.0464 42.9692 22.0531 43.3457C22.0582 43.599 22.0453 43.8708 21.8957 44.0742C21.6082 44.4665 21.792 45.0425 21.8996 45.5171C21.9125 45.5732 21.9276 45.6337 21.9366 45.6931C21.946 45.7674 21.9503 45.8423 21.9495 45.9172C21.9495 46.1688 21.9354 46.4283 21.8301 46.6563C21.9341 46.7117 22.0487 46.7441 22.1663 46.7516C22.4917 46.7931 22.8184 46.8222 23.1464 46.839C23.2491 46.8487 23.3528 46.8434 23.454 46.8233C23.5742 46.7908 23.6802 46.7192 23.7552 46.6198C23.8302 46.5203 23.8699 46.3987 23.8681 46.2742C23.886 46.4294 23.9191 46.5981 24.0317 46.7056C24.1444 46.8132 24.3086 46.8295 24.4615 46.8379C24.8933 46.8608 25.3262 46.8486 25.756 46.8015C25.7834 46.8002 25.8104 46.794 25.8355 46.783C25.9185 46.7415 25.9229 46.6272 25.9162 46.5353C25.9039 46.3633 25.891 46.1912 25.8703 46.0203C25.8527 45.9114 25.8437 45.8012 25.8434 45.6908C25.8519 45.5773 25.8707 45.4648 25.8994 45.3546C25.9745 45.005 26.0339 44.648 26.0087 44.2899C25.9987 44.2027 25.9952 44.1149 25.998 44.0271C26.0126 43.8293 26.1168 43.6411 26.0972 43.4444C26.0412 42.8661 25.9958 42.2727 25.8344 41.7145C25.8053 41.6148 25.7683 41.5078 25.6814 41.4506C25.5694 41.3755 25.4119 41.4148 25.2836 41.3671C25.2234 41.3391 25.1661 41.3051 25.1127 41.2657C24.9965 41.1931 24.8634 41.1521 24.7266 41.1469C24.6235 41.143 24.5086 41.166 24.4464 41.2489C24.4176 41.2956 24.3985 41.3476 24.3904 41.4019C24.3091 41.7437 24.2139 42.0816 24.1186 42.4195L24.0273 42.7434L23.7824 43.613C23.7583 43.7055 23.7745 43.7341 23.7499 43.8215Z" fill="#6C63FF"/>
<path d="M25.1827 40.4287L30.603 46.1247V46.6078H28.1862L24.113 41.2917" fill="#F1C0C0"/>
<path opacity="0.1" d="M25.1827 40.4287L30.603 46.1247V46.6078H28.1862L24.113 41.2917" fill="black"/>
<path opacity="0.1" d="M24.1993 41.2158L24.2167 41.222L28.221 46.124H30.603V46.607H28.1862L24.113 41.2909L24.1993 41.2158Z" fill="black"/>
<path d="M24.823 41.3357C24.6268 41.4215 24.4089 41.5313 24.35 41.7375C24.3384 41.7737 24.3359 41.8122 24.3427 41.8496C24.3571 41.8936 24.3844 41.9321 24.4211 41.9602C24.4578 41.9884 24.5022 42.0047 24.5484 42.007C24.6407 42.0093 24.7324 41.9925 24.8179 41.9577L25.9751 41.5756C26.0064 41.5655 26.0423 41.5504 26.0501 41.5195C26.0522 41.5002 26.0483 41.4806 26.0389 41.4635C26.0031 41.3761 25.9678 41.1973 25.8927 41.1362C25.831 41.0869 25.7089 41.1043 25.6344 41.1054C25.3475 41.1077 25.0779 41.2237 24.823 41.3357Z" fill="#6C63FF"/>
<path d="M25.8546 41.6216C26.0495 41.6211 26.2433 41.6511 26.4289 41.7107C26.6154 41.7712 26.7805 41.8841 26.9047 42.0357C26.9408 42.0781 26.9666 42.1284 26.9798 42.1825C26.991 42.2386 27.1737 42.2722 27.1333 42.3103C27.256 42.2907 27.2269 42.3484 27.3513 42.3473C27.4757 42.3462 27.6102 42.3142 27.6847 42.215C27.7365 42.1336 27.7596 42.0371 27.7503 41.941C27.7519 41.8745 27.7393 41.8084 27.7133 41.7471C27.6572 41.6295 27.5284 41.5661 27.4096 41.5118L26.4088 41.054C26.3507 41.0231 26.2884 41.001 26.2239 40.9884C26.1695 40.9833 26.1148 40.9846 26.0608 40.9923L25.6075 41.0445C25.7066 41.1086 25.7873 41.1975 25.8416 41.3023C25.896 41.4072 25.9221 41.5244 25.9173 41.6424" fill="#3F3D56"/>
</g>
</g>
<defs>
<clipPath id="clip0_709_4933">
<rect width="77.2815" height="77.2815" fill="white"/>
</clipPath>
<clipPath id="clip1_709_4933">
<rect width="66" height="40.5962" fill="white" transform="translate(6 18)"/>
</clipPath>
</defs>
</svg>
