<svg width="78" height="78" viewBox="0 0 78 78" fill="none" xmlns="http://www.w3.org/2000/svg">
<g clip-path="url(#clip0_709_4457)">
<rect width="77.2815" height="77.2815" rx="15" fill="white"/>
<path d="M35.0857 37.0225L25.6253 29.5949C25.2254 29.279 24.9669 28.82 24.9054 28.3167C24.8439 27.8135 24.9844 27.3065 25.2966 26.9051C25.4581 26.6975 25.6606 26.5246 25.8917 26.3971C26.1228 26.2696 26.3777 26.19 26.6408 26.1633C26.9039 26.1367 27.1698 26.1634 27.4221 26.2419C27.6745 26.3204 27.9081 26.449 28.1086 26.6199L37.6971 34.6341L43.7305 39.2603C44.0346 39.0905 44.3841 39.0177 44.7314 39.0517C45.0787 39.0857 45.4071 39.2249 45.6718 39.4504C45.9366 39.6759 46.1249 39.9767 46.2113 40.312C46.2976 40.6473 46.2777 41.0008 46.1543 41.3245C46.0309 41.6482 45.8101 41.9264 45.5217 42.1213C45.2333 42.3162 44.8913 42.4183 44.5423 42.4139C44.1933 42.4094 43.8542 42.2985 43.571 42.0963C43.2878 41.894 43.0742 41.6102 42.9593 41.2835L35.0857 37.0225Z" fill="#FFB6B6"/>
<path d="M26.8647 31.9718C26.7401 31.9887 26.6133 31.9646 26.5038 31.9032C26.3943 31.8418 26.3082 31.7465 26.2587 31.6319C26.1949 31.4916 26.0884 31.3746 25.9543 31.2972C25.9282 31.2825 25.9011 31.2696 25.8733 31.2584C25.704 31.1952 25.5526 31.0924 25.432 30.9588C25.3113 30.8252 25.225 30.6646 25.1803 30.4908C25.0415 29.9168 24.5965 29.3598 24.1493 28.9303C23.66 28.4603 23.1376 28.0096 22.7759 27.4371C22.2543 26.6113 22.1079 25.4523 23.1144 24.7634C23.5471 24.4769 24.0661 24.3471 24.5841 24.3958C25.6683 24.4832 26.565 25.1392 27.4168 25.7749L27.2036 25.3599C28.1217 26.0703 29.1751 26.5896 30.3006 26.8865C30.1058 27.062 30.2746 27.4131 30.5246 27.4947C30.7745 27.5764 31.044 27.4903 31.3014 27.4362C31.6259 27.3679 32.0271 27.3737 32.1551 27.7578C32.1831 27.8506 32.1915 27.9481 32.1797 28.0442C32.1679 28.1403 32.1361 28.2329 32.0865 28.3163C31.1824 29.9113 29.9553 31.3037 28.4824 32.406C28.1551 32.6506 27.7752 32.8913 27.3681 32.8435C26.9611 32.7956 26.6149 32.294 26.8647 31.9718Z" fill="#6C63FF"/>
<path d="M19.365 42.3387L18.4819 38.1184L27.7633 35.2197L26.5134 44.9345L19.365 42.3387Z" fill="#FFB6B6"/>
<path d="M27.506 38.5655L18.5612 42.3903C18.5612 42.3903 17.4114 42.3402 17.4114 41.6514C17.4114 40.9627 18.0541 40.8185 17.2118 40.288C16.3694 39.7574 16.0221 40.1018 16.1957 39.2409C16.3694 38.3799 16.5431 38.0952 16.5431 37.8932C16.5431 37.6912 16.3694 36.8303 16.3694 35.9694C16.3694 35.552 17.7218 34.7942 17.3854 32.3483C16.9754 29.3684 17.1193 24.808 20.0164 23.9166L22.1003 20.3008H26.0728L27.3103 23.9166L28.7772 25.8226C28.7772 25.8226 31.6707 29.4504 30.8024 31.3444C29.9341 33.2384 27.506 38.5655 27.506 38.5655Z" fill="#2F2E41"/>
<path d="M45.181 44.3006C45.1653 41.2268 44.6517 38.1755 43.6598 35.2632C43.375 34.4277 43.0513 33.6067 42.6888 32.8004C42.5558 32.5042 42.0991 32.7249 42.2321 33.0213C43.4643 35.7698 44.2442 38.6963 44.542 41.6894C44.6271 42.5449 44.6712 43.4027 44.6744 44.2628C44.676 44.5848 45.1826 44.6253 45.181 44.3006Z" fill="#3F3D56"/>
<path d="M42.6362 32.4091L42.9233 33.2535C40.4839 33.0124 40.1912 29.9672 38.5849 28.132C36.9774 26.2987 34.0744 25.6936 34.1749 23.2658C34.1899 22.9147 34.2458 22.5216 34.5238 22.3024C34.8715 22.0313 35.3796 22.1648 35.788 22.3329C36.2191 22.5117 36.6374 22.7196 37.04 22.9549C37.1673 23.2908 37.2942 23.6267 37.4207 23.9627C37.4635 24.0779 37.5383 24.1788 37.6364 24.2537C37.7346 24.3286 37.8521 24.3745 37.9754 24.386C38.0987 24.3975 38.2228 24.3743 38.3333 24.3189C38.4439 24.2635 38.5364 24.1783 38.6002 24.073L38.6064 24.0623C43.4654 24.0551 44.0223 28.0118 42.6362 32.4091Z" fill="#6C63FF"/>
<path d="M42.765 33.3666C41.5713 33.835 40.5635 32.8373 39.3715 32.3663C38.1778 31.8934 36.8114 31.9533 36.2689 30.7983C36.2203 30.7194 36.1889 30.6312 36.1768 30.5395C36.1648 30.4479 36.1723 30.3547 36.1989 30.2661C36.2946 30.056 36.5639 29.9986 36.7946 29.9788C37.1161 29.9534 37.4392 29.9567 37.7601 29.9884C37.8379 30.1272 37.9139 30.2676 37.9915 30.408C38.123 30.6451 38.2528 30.8821 38.3843 31.1192C38.622 30.8551 38.8171 30.5561 38.9626 30.2329C41.1611 29.3219 42.1194 30.9413 42.4262 33.0417L42.765 33.3666Z" fill="#6C63FF"/>
<path d="M42.434 33.341C43.5437 33.981 44.6905 33.1438 45.9402 32.8547C47.1917 32.5641 48.5338 32.8257 49.2443 31.7641C49.3043 31.6933 49.3486 31.6107 49.3743 31.5219C49.4001 31.433 49.4067 31.3398 49.3938 31.2482C49.3308 31.0263 49.0732 30.9297 48.848 30.8759C48.534 30.8032 48.214 30.7585 47.8919 30.7423C47.794 30.8681 47.6978 30.9956 47.5998 31.123C47.4341 31.3379 47.27 31.553 47.1043 31.7679C46.909 31.4716 46.7612 31.1471 46.6661 30.8059C44.6295 29.5793 43.4379 31.0386 42.818 33.0699L42.434 33.341Z" fill="#6C63FF"/>
<path d="M42.4558 33.3849C43.6581 32.9389 43.731 31.5287 44.2969 30.3868C44.8627 29.2425 45.917 28.3785 45.5384 27.161C45.5211 27.0701 45.4847 26.9839 45.4317 26.9078C45.3786 26.8318 45.3101 26.7676 45.2304 26.7195C45.0173 26.6273 44.7787 26.7638 44.5941 26.9024C44.3385 27.0974 44.1009 27.3146 43.8843 27.5515C43.9205 27.7061 43.959 27.8608 43.9964 28.0166C44.0592 28.2799 44.1232 28.542 44.186 28.8053C43.831 28.7674 43.4841 28.6753 43.1575 28.5322C40.9103 29.3179 41.2945 31.1563 42.4874 32.9186L42.4558 33.3849Z" fill="#6C63FF"/>
<path d="M22.427 16.6564C25.3468 18.8586 28.5985 20.6112 29.2114 23.0347C29.2114 23.0347 28.8443 19.2269 30.5569 19.9486C33.4345 21.1613 32.4609 14.5661 31.6539 13.4877C30.309 11.6903 25.7738 10.6689 25.7738 10.6689L22.5566 12.42L22.427 16.6564Z" fill="#2F2E41"/>
<path d="M27.5113 19.3294C30.2963 19.3294 32.554 17.091 32.554 14.3297C32.554 11.5685 30.2963 9.33008 27.5113 9.33008C24.7263 9.33008 22.4686 11.5685 22.4686 14.3297C22.4686 17.091 24.7263 19.3294 27.5113 19.3294Z" fill="#FFB6B6"/>
<path d="M25.6951 12.4167L25.5011 13.2617L28.8932 14.0273C28.8963 13.8564 28.9349 13.688 29.0066 13.5326C29.0784 13.3772 29.1818 13.2381 29.3104 13.1242C29.2372 13.4556 29.2456 13.7995 29.3347 14.127C31.1641 15.1448 31.059 15.5053 32.5375 15.2458C32.7379 15.291 32.9481 15.2555 33.122 15.147C33.2959 15.0385 33.4192 14.866 33.4648 14.6674C34.0596 12.0766 34.2551 9.42864 31.6548 8.78555C31.0228 8.62887 30.3655 8.59887 29.7216 8.69732C29.0777 8.79577 28.4601 9.02069 27.905 9.35889C27.35 9.69709 26.8686 10.1418 26.4891 10.6668C26.1096 11.1919 25.8397 11.7868 25.6951 12.4167Z" fill="#2F2E41"/>
<path d="M26.5248 15.7877C26.6909 15.066 27.0165 14.3899 27.4781 13.808C27.9397 13.2262 28.5258 12.7531 29.1941 12.4231C29.8624 12.093 30.5962 11.9141 31.3427 11.8993C32.0892 11.8846 32.8297 12.0342 33.5108 12.3376C33.2749 11.6472 32.7974 11.0635 32.1649 10.692L28.3466 9.04844C26.4632 8.62334 23.4818 7.4168 22.1215 8.57222C20.8681 9.63364 21.4782 11.7114 20.324 12.875C19.0592 14.1502 18.9517 15.6581 19.3104 16.5253C19.7254 17.5287 20.5556 18.8975 21.5916 19.1938C21.6456 18.8407 21.8232 18.5177 22.0934 18.2816C22.0187 18.6181 22.0122 18.966 22.0743 19.305L28.3466 24.2648C27.7608 23.7596 27.2617 22.458 26.918 20.992C26.7145 20.1242 25.5005 19.8196 26.4851 18.3468C27.4696 16.874 26.3912 16.37 26.5248 15.7877Z" fill="#2F2E41"/>
<path d="M21.5011 10.2553L21.5187 10.2902C21.5402 10.3367 21.5617 10.3832 21.5793 10.4317L21.5813 10.4336C21.6771 10.4685 21.7846 10.4123 21.8902 10.3231C21.8737 10.5327 21.862 10.7356 21.8532 10.9344L25.1924 9.63886C24.6117 9.73825 24.5258 7.68974 24.1092 8.08228C24.0858 8.1036 24.0643 8.12493 24.0428 8.14625C24.0946 8.02273 24.1301 7.89307 24.1483 7.7605C24.1661 7.59411 24.1529 7.42589 24.1092 7.26426C24.1085 7.2635 24.1079 7.26258 24.1076 7.26157C24.1073 7.26057 24.1072 7.2595 24.1073 7.25844C24.0657 7.11229 24.001 6.97359 23.9157 6.84749C23.7927 6.6641 23.637 6.50448 23.4562 6.37645C23.2256 6.20175 22.9568 6.08334 22.6715 6.03081C22.3862 5.97827 22.0924 5.99309 21.8139 6.07406C21.1761 6.31329 20.6488 6.77605 20.3319 7.37475C20.068 7.8458 19.8666 8.37498 19.9077 8.91193C19.9196 9.05426 19.9505 9.1944 19.9996 9.32869C20.0605 9.5173 20.1646 9.68941 20.3036 9.83163C20.4427 9.97386 20.6129 10.0823 20.8012 10.1487C20.8481 10.1642 20.9028 10.1816 20.9615 10.2029C20.9928 9.9507 20.9947 9.69574 20.9673 9.44306C21.1847 9.68619 21.3646 9.9599 21.5011 10.2553Z" fill="#2F2E41"/>
<path d="M24.7349 9.5071C24.7305 9.61522 24.7175 9.72282 24.6958 9.82887C24.6941 9.8426 24.6915 9.85621 24.6879 9.86958C24.5511 10.4724 23.8101 9.21827 23.2372 9.63891C22.7954 9.96262 22.551 10.0305 22.0642 10.2204C22.0466 10.172 21.8902 10.267 21.8687 10.2204C21.8628 10.2088 21.8745 10.0382 21.8687 10.0266C22.3437 9.83855 22.422 9.75521 22.8462 9.44507C23.3839 9.05156 23.3076 9.41986 23.4328 8.86353C23.5774 8.22191 24.4299 8.49716 23.9919 8.19283L24.0428 8.12305C24.3537 8.33598 24.5831 8.64674 24.6938 9.00503C24.6937 9.00609 24.6938 9.00716 24.6941 9.00816C24.6945 9.00917 24.695 9.01009 24.6958 9.01085C24.7285 9.17416 24.7416 9.34073 24.7349 9.5071Z" fill="#6C63FF"/>
<path d="M63.3249 53.2577C63.3249 52.9288 62.9383 52.6621 62.4613 52.6621C61.9844 52.6621 61.5978 52.9288 61.5978 53.2577C61.5978 53.5867 61.9844 53.8533 62.4613 53.8533C62.9383 53.8533 63.3249 53.5867 63.3249 53.2577Z" fill="#F2F2F2"/>
<path d="M56.9795 55.1922C57.4565 55.1922 57.8431 54.9255 57.8431 54.5966C57.8431 54.2676 57.4565 54.001 56.9795 54.001C56.5026 54.001 56.116 54.2676 56.116 54.5966C56.116 54.9255 56.5026 55.1922 56.9795 55.1922Z" fill="#F2F2F2"/>
<path d="M64.639 58.0965C65.1159 58.0965 65.5026 57.8298 65.5026 57.5009C65.5026 57.1719 65.1159 56.9053 64.639 56.9053C64.1621 56.9053 63.7754 57.1719 63.7754 57.5009C63.7754 57.8298 64.1621 58.0965 64.639 58.0965Z" fill="#F2F2F2"/>
<path d="M66.9114 59.4667C66.8692 59.4708 66.8265 59.467 66.7857 59.4555C66.6936 59.4128 66.6147 59.3462 66.5575 59.2628C66.5002 59.1794 66.4667 59.0823 66.4603 58.9816C66.4353 58.8765 66.4432 58.7663 66.4829 58.6658C66.5226 58.5652 66.5922 58.479 66.6825 58.4186C66.7071 58.4062 66.7337 58.3979 66.761 58.3942C66.9698 58.3652 67.1718 58.5833 67.2121 58.8792C67.2525 59.1752 67.1179 59.4378 66.9114 59.4667Z" fill="#F2F2F2"/>
<path d="M60.8293 56.606C60.6215 56.6344 60.4865 56.8974 60.5276 57.1934C60.5688 57.4895 60.7705 57.7065 60.9783 57.6781C61.186 57.6497 61.321 57.3867 61.2799 57.0907C61.2387 56.7946 61.037 56.5776 60.8293 56.606Z" fill="#F2F2F2"/>
<path d="M63.7718 55.3729C63.7307 55.0769 63.5289 54.8599 63.3212 54.8882C63.1135 54.9166 62.9785 55.1796 63.0196 55.4757C63.0608 55.7717 63.2625 55.9887 63.4702 55.9603C63.6779 55.932 63.813 55.669 63.7718 55.3729Z" fill="#F2F2F2"/>
<path d="M59.3688 54.0422C59.5765 54.0138 59.7116 53.7508 59.6704 53.4548C59.6293 53.1587 59.4275 52.9417 59.2198 52.9701C59.0121 52.9985 58.8771 53.2615 58.9182 53.5575C58.9593 53.8536 59.1611 54.0706 59.3688 54.0422Z" fill="#F2F2F2"/>
<path d="M60.1051 58.5125C60.1033 58.2868 59.8367 58.1059 59.5095 58.1084C59.1823 58.1109 58.9185 58.2959 58.9203 58.5215C58.922 58.7472 59.1887 58.9281 59.5158 58.9256C59.843 58.9231 60.1068 58.7382 60.1051 58.5125Z" fill="#F2F2F2"/>
<path d="M55.7625 59.8732C56.0897 59.8707 56.3535 59.6858 56.3517 59.4601C56.35 59.2345 56.0833 59.0535 55.7562 59.056C55.429 59.0585 55.1652 59.2435 55.1669 59.4691C55.1687 59.6948 55.4353 59.8757 55.7625 59.8732Z" fill="#F2F2F2"/>
<path d="M61.0323 61.8254C61.3594 61.8229 61.6232 61.6379 61.6215 61.4122C61.6197 61.1866 61.3531 61.0057 61.0259 61.0082C60.6988 61.0107 60.435 61.1956 60.4367 61.4213C60.4384 61.6469 60.7051 61.8278 61.0323 61.8254Z" fill="#F2F2F2"/>
<path d="M62.5984 62.7535C62.5695 62.7566 62.5402 62.7542 62.5121 62.7465C62.4487 62.7177 62.3943 62.6724 62.3545 62.6155C62.3148 62.5586 62.2913 62.4921 62.2864 62.4231C62.2687 62.3511 62.2735 62.2755 62.3002 62.2063C62.3269 62.1372 62.3742 62.0777 62.4358 62.0358C62.4526 62.0271 62.4708 62.0213 62.4896 62.0186C62.6326 61.9976 62.7723 62.1462 62.8016 62.349C62.8309 62.5518 62.7399 62.7326 62.5984 62.7535Z" fill="#F2F2F2"/>
<path d="M58.4109 60.8232C58.2686 60.8437 58.1773 61.0249 58.2071 61.2277C58.2369 61.4306 58.3765 61.5784 58.5188 61.5579C58.6612 61.5373 58.7524 61.3562 58.7226 61.1533C58.6928 60.9504 58.5533 60.8026 58.4109 60.8232Z" fill="#F2F2F2"/>
<path d="M60.4229 59.9619C60.3931 59.7591 60.2536 59.6112 60.1113 59.6318C59.9689 59.6523 59.8777 59.8335 59.9075 60.0363C59.9373 60.2392 60.0768 60.387 60.2192 60.3665C60.3615 60.3459 60.4527 60.1648 60.4229 59.9619Z" fill="#F2F2F2"/>
<path d="M57.3954 59.0705C57.5378 59.05 57.629 58.8688 57.5992 58.666C57.5694 58.4631 57.4299 58.3153 57.2875 58.3358C57.1452 58.3564 57.0539 58.5375 57.0837 58.7404C57.1135 58.9433 57.2531 59.0911 57.3954 59.0705Z" fill="#F2F2F2"/>
<path d="M51.8571 57.6955C51.8546 57.3666 51.4659 57.1028 50.989 57.1065C50.5121 57.1101 50.1275 57.3797 50.1301 57.7087C50.1326 58.0376 50.5213 58.3013 50.9982 58.2977C51.4751 58.294 51.8597 58.0244 51.8571 57.6955Z" fill="#F2F2F2"/>
<path d="M45.527 59.6797C46.0039 59.6761 46.3885 59.4065 46.3859 59.0776C46.3834 58.7486 45.9947 58.4849 45.5178 58.4885C45.0409 58.4922 44.6563 58.7618 44.6589 59.0907C44.6614 59.4197 45.0501 59.6834 45.527 59.6797Z" fill="#F2F2F2"/>
<path d="M53.2088 62.5254C53.6857 62.5218 54.0702 62.2522 54.0677 61.9233C54.0651 61.5943 53.6764 61.3306 53.1995 61.3342C52.7226 61.3379 52.3381 61.6075 52.3406 61.9364C52.3432 62.2653 52.7318 62.5291 53.2088 62.5254Z" fill="#F2F2F2"/>
<path d="M55.4918 63.8769C55.4496 63.8814 55.4069 63.8779 55.366 63.8668C55.2735 63.8247 55.1942 63.7587 55.1363 63.6758C55.0784 63.5928 55.0441 63.4959 55.0369 63.3953C55.0111 63.2904 55.0182 63.1802 55.0571 63.0793C55.096 62.9785 55.1649 62.8917 55.2548 62.8307C55.2793 62.818 55.3058 62.8095 55.3331 62.8056C55.5416 62.7751 55.7453 62.9916 55.788 63.2872C55.8306 63.5828 55.698 63.8464 55.4918 63.8769Z" fill="#F2F2F2"/>
<path d="M49.3876 61.0633C49.1801 61.0933 49.0471 61.3573 49.0906 61.653C49.134 61.9488 49.3374 62.1642 49.5449 62.1343C49.7524 62.1043 49.8854 61.8403 49.842 61.5445C49.7985 61.2488 49.5951 61.0334 49.3876 61.0633Z" fill="#F2F2F2"/>
<path d="M52.3205 59.8082C52.2771 59.5125 52.0737 59.297 51.8662 59.327C51.6587 59.357 51.5257 59.621 51.5691 59.9167C51.6126 60.2124 51.816 60.4279 52.0235 60.3979C52.231 60.368 52.364 60.1039 52.3205 59.8082Z" fill="#F2F2F2"/>
<path d="M47.9073 58.5098C48.1148 58.4799 48.2478 58.2159 48.2044 57.9201C48.161 57.6244 47.9575 57.409 47.75 57.4389C47.5425 57.4689 47.4095 57.7329 47.453 58.0286C47.4964 58.3244 47.6998 58.5398 47.9073 58.5098Z" fill="#F2F2F2"/>
<path d="M57.196 56.3309C57.196 58.7273 51.4768 54.4472 46.5928 57.8157C40.6329 61.9263 35.6502 58.9933 35.6508 56.3309C35.6515 53.9345 40.6432 49.1377 46.5928 49.1377C52.5423 49.1377 57.196 53.9345 57.196 56.3309Z" fill="#F2F2F2"/>
<path d="M51.979 53.5929C51.979 54.7911 49.5675 54.755 46.5928 54.755C43.618 54.755 41.2065 54.7911 41.2065 53.5929C41.2065 52.3947 43.618 50.416 46.5928 50.416C49.5675 50.416 51.979 52.3947 51.979 53.5929Z" fill="#E6E6E6"/>
<path d="M9.52166 61.6113L9.51404 63.2929L16.1985 64.123L16.2098 61.641L9.52166 61.6113Z" fill="#FFB6B6"/>
<path d="M10.4333 63.4068L10.3334 61.6136L10.3097 61.1755L6.02541 60.8027L6.01864 62.0636L7.21925 62.2936L6.01525 62.8645L6.00001 66.2072C5.99914 66.3676 6.05003 66.524 6.14524 66.6536C6.24045 66.7832 6.37498 66.8793 6.52918 66.9277C6.68337 66.9761 6.84914 66.9743 7.00225 66.9226C7.15535 66.8709 7.28776 66.772 7.38012 66.6404L7.93724 65.8496L9.25131 63.9793L10.4655 63.9843L10.4333 63.4068Z" fill="#2F2E41"/>
<path d="M39.1463 58.8712C38.0287 61.7673 37.0838 64.0087 36.696 64.3915C36.2659 64.8179 33.3532 64.9959 29.7531 65.0446C25.9531 65.0949 21.3878 65.0026 18.1619 64.9153H18.1602C15.7234 64.8481 14.0504 64.7827 14.0504 64.7827L14.0537 63.8559L14.0622 61.6296L14.0639 61.1847C14.0639 61.1847 14.1452 61.1629 14.2942 61.1176C14.5702 61.0386 15.0816 60.8909 15.7522 60.6945C17.8588 60.0766 21.5233 58.9904 24.2885 58.1039C25.1945 57.8118 26.0056 57.5431 26.6322 57.3182C27.3502 57.063 27.8277 56.8648 27.9344 56.7591C28.566 56.1479 28.8454 56.7591 29.2451 57.3685C29.6447 57.9796 29.7683 57.3685 30.2916 56.9202C30.8148 56.472 31.9951 57.0881 31.9951 57.0881C31.9951 57.0881 32.0053 56.6818 32.0222 56.0354C32.0476 55.0801 32.0849 53.5926 32.1204 52.1051C32.1188 52.1034 32.1188 52.1034 32.1204 52.1034C32.1221 52.0379 32.1238 51.9708 32.1255 51.9053C32.9383 52.6054 33.8071 53.2467 34.6724 54.0493C35.2363 54.5714 36.0965 55.4361 36.7095 56.0539C36.8331 56.1798 36.9923 56.346 37.1176 56.477C37.8568 57.2205 38.5351 58.0211 39.1463 58.8712Z" fill="#2F2E41"/>
<path d="M11.5835 66.4416L11.7129 68.1183L18.4432 68.4103L18.252 65.9355L11.5835 66.4416Z" fill="#FFB6B6"/>
<path d="M12.6381 68.1581L12.3942 66.3801L12.3333 65.9436L8.03207 65.915L8.1286 67.1726L9.34275 67.3052L8.19125 67.9717L8.44864 71.3061C8.46103 71.4659 8.52461 71.6175 8.63009 71.7389C8.73556 71.8603 8.87742 71.9451 9.03495 71.981C9.19248 72.0168 9.35743 72.0017 9.50572 71.938C9.65401 71.8743 9.77788 71.7652 9.85924 71.6268L11.5086 68.823L12.7177 68.7323L12.6381 68.1581Z" fill="#2F2E41"/>
<path d="M40.5789 65.8282C39.2208 67.9336 22.4919 69.992 16.2111 68.8235C16.223 68.6556 16.2416 68.486 16.2636 68.3164C16.3568 67.571 16.5312 66.8104 16.6768 66.0549C16.7378 65.7376 16.7953 65.4203 16.8394 65.1046C17.051 65.071 16.819 65.0929 17.0968 65.0492C17.4488 64.9872 17.8037 64.943 18.1602 64.9166H18.1619C18.2703 64.9082 18.3922 64.8998 18.5361 64.8897C21.7349 64.6731 25.8075 65.5865 28.666 64.0335C29.4737 63.5936 29.5245 63.4694 29.643 63.33C30.3306 62.514 30.3966 63.189 30.9893 63.4811C31.582 63.7732 31.4736 63.2612 31.6395 62.8146C31.8055 62.368 32.5387 62.4267 32.9638 62.3613C32.5692 61.9986 32.8283 61.9348 32.1763 61.6242C31.2145 61.1642 29.621 60.4859 28.4932 60.0343C28.4896 60.0319 28.4856 60.0302 28.4814 60.0292C28.0055 59.8479 27.335 59.5608 26.9065 59.3812C26.5746 59.2418 25.9955 58.9799 25.8126 58.9111C25.4096 58.7583 24.7136 60.2021 24.2886 59.952C24.1378 59.8613 24.0227 59.7908 23.9651 59.7572C23.2488 59.3325 23.811 59.5541 23.7365 59.0387C23.7264 58.9749 23.7551 58.8103 23.7467 58.7549C23.728 58.624 23.7721 58.4057 23.7077 58.3268C23.6417 58.2496 23.4232 58.6391 23.2861 58.6961C23.2251 58.723 22.9847 58.9094 22.7882 58.8892C21.9415 58.7969 21.3658 57.9776 21.0728 57.1566C18.6073 56.0972 16.9782 53.6224 16.5904 51.3122C16.2619 49.3613 16.8461 47.8033 17.3626 46.5189C17.8266 45.3671 17.9705 45.5266 18.4853 44.7039C18.4701 44.5562 18.4701 44.5948 18.4701 44.6049C18.4701 44.5898 18.4667 44.5293 18.4565 44.3312C18.4295 43.8007 18.3651 42.2342 18.3346 41.5039C18.5471 41.2701 18.7864 41.0616 19.0475 40.8827C19.8485 40.2917 21.0474 39.9526 21.9229 39.7864C22.9203 39.5966 24.2124 39.7326 24.9338 39.8367C26.0582 39.9979 26.4307 40.2145 27.3688 40.4327C27.3705 42.204 27.7431 41.7104 27.5602 44.0072C27.3756 46.304 33.8071 53.248 34.6724 54.0505C35.2363 54.5727 36.0965 55.4373 36.7095 56.0552C36.8332 56.1811 36.9923 56.3473 37.1176 56.4783C37.8356 57.2288 39.2936 59.089 39.3631 59.1998C39.4511 59.3392 39.4884 59.4483 39.5595 59.5826C39.5612 59.586 41.9353 63.7229 40.5789 65.8282Z" fill="#2F2E41"/>
<path d="M62.6453 46.9559L62.2988 52.9828C62.2986 53.1358 62.3289 53.2873 62.3879 53.4287C62.4468 53.57 62.5334 53.6984 62.6425 53.8066C62.7516 53.9148 62.8811 54.0006 63.0237 54.059C63.1662 54.1175 63.3191 54.1475 63.4733 54.1473C66.8028 55.8294 67.8423 55.8764 70.8255 54.1473C70.9797 54.1475 71.1326 54.1175 71.2751 54.059C71.4177 54.0006 71.5472 53.9148 71.6563 53.8066C71.7654 53.6984 71.852 53.57 71.9109 53.4287C71.9699 53.2873 72.0002 53.1358 72 52.9828L71.6535 46.8099L72 45.1782C72.0002 45.0252 71.9699 44.8737 71.9109 44.7324C71.8519 44.591 71.7654 44.4626 71.6563 44.3544C71.5472 44.2462 71.4177 44.1605 71.2751 44.102C71.1325 44.0435 70.9797 44.0135 70.8254 44.0137H63.4733C63.319 44.0135 63.1662 44.0435 63.0237 44.102C62.8811 44.1605 62.7515 44.2462 62.6424 44.3544C62.5333 44.4626 62.4468 44.591 62.3879 44.7324C62.3289 44.8737 62.2986 45.0252 62.2988 45.1782L62.6453 46.9559Z" fill="#E6E6E6"/>
<path d="M56.9285 43.5L56.5425 44.2653L63.165 48.1374L62.6453 51.5726L56.12 45.1031L55.7158 45.9046L55.5878 45.6507C55.4735 45.4242 55.4196 45.1724 55.4311 44.9193C55.4425 44.6663 55.5191 44.4203 55.6534 44.2048C55.7877 43.9893 55.9754 43.8115 56.1985 43.6881C56.4217 43.5648 56.673 43.5 56.9285 43.5Z" fill="#E6E6E6"/>
<path d="M64.5509 44.0996C64.5509 45.0957 65.7912 45.903 67.3226 45.903C68.854 45.903 70.0944 45.0957 70.0944 44.0995C70.0944 44.0703 70.0927 44.0429 70.0909 44.0137H64.5543C64.5526 44.0429 64.5509 44.0703 64.5509 44.0996Z" fill="#F2F2F2"/>
<path d="M68.1022 41.2474C68.102 41.0477 68.0218 40.8562 67.8794 40.715C67.737 40.5738 67.5438 40.4944 67.3424 40.4941H67.3028C67.1014 40.4944 66.9083 40.5738 66.7658 40.715C66.6234 40.8562 66.5433 41.0477 66.5431 41.2474V46.5056H68.1022V41.2474Z" fill="#E6E6E6"/>
<path d="M37.3268 50.4646C37.2292 50.3531 37.1095 50.2628 36.9751 50.1993C36.8407 50.1359 36.6945 50.1006 36.5457 50.0959C36.5457 50.0959 31.1676 49.4549 30.3731 48.9136C30.1042 48.9051 29.8417 48.9965 29.6372 49.1698C29.4327 49.3431 29.3008 49.5859 29.2673 49.8506L24.14 50.8087C23.8978 50.8545 23.6838 50.9938 23.5449 51.1959C23.4061 51.398 23.3538 51.6464 23.3995 51.8867C23.4451 52.127 23.5851 52.3395 23.7886 52.4776C23.9921 52.6158 24.2425 52.6682 24.485 52.6235L29.586 51.6704C29.6826 51.8945 29.8535 52.0793 30.0704 52.1941C30.2872 52.3089 30.5371 52.3469 30.7787 52.3018L36.5226 51.2286C37.3418 51.0755 37.8729 51.0891 37.3268 50.4646Z" fill="#E6E6E6"/>
<path d="M22.2706 42.0455L21.0312 30.1443C20.9802 29.64 21.1312 29.1359 21.4517 28.741C21.7722 28.3461 22.2365 28.092 22.7443 28.0334C23.0071 28.0031 23.2732 28.0262 23.5267 28.1013C23.7801 28.1763 24.0154 28.3017 24.2184 28.4699C24.4213 28.6381 24.5876 28.8455 24.707 29.0794C24.8265 29.3134 24.8967 29.569 24.9132 29.8307L25.8185 42.2322L26.6889 49.7448C27.0238 49.8422 27.3203 50.0395 27.5382 50.3098C27.7561 50.5802 27.8848 50.9104 27.9068 51.2558C27.9288 51.6011 27.843 51.9448 27.6611 52.2402C27.4792 52.5355 27.21 52.7682 26.8901 52.9065C26.5702 53.0449 26.215 53.0823 25.873 53.0136C25.5309 52.9449 25.2184 52.7734 24.9781 52.5225C24.7377 52.2716 24.581 51.9535 24.5294 51.6112C24.4778 51.269 24.5336 50.9193 24.6894 50.6096L22.2706 42.0455Z" fill="#FFB6B6"/>
<path d="M20.1808 32.6844C20.0815 32.6077 20.0104 32.5009 19.9784 32.3804C19.9463 32.2598 19.955 32.1321 20.0032 32.0169C20.06 31.8737 20.0702 31.7165 20.0325 31.5672C20.0248 31.5384 20.0153 31.5102 20.004 31.4826C19.9314 31.3183 19.9 31.1391 19.9122 30.9601C19.9245 30.7812 19.9802 30.6079 20.0745 30.4548C20.3923 29.9556 20.4839 29.2508 20.4819 28.6336C20.4797 27.9581 20.4406 27.2726 20.6016 26.6162C20.8339 25.6694 21.5688 24.7565 22.7689 24.9901C23.2779 25.0973 23.7339 25.3752 24.0603 25.7769C24.754 26.6077 24.9062 27.7022 25.0416 28.7507L25.1925 28.3096C25.3203 29.4573 25.6806 30.5676 26.2518 31.5739C25.9891 31.5582 25.8534 31.9231 25.9689 32.1575C26.0844 32.392 26.3347 32.5232 26.5535 32.6681C26.8293 32.8508 27.1052 33.1397 26.9171 33.4987C26.8697 33.5834 26.8051 33.6574 26.7275 33.7161C26.6498 33.7748 26.5608 33.8169 26.4659 33.8399C24.6828 34.3114 22.8207 34.4122 20.9964 34.136C20.5913 34.0744 20.1522 33.9727 19.9026 33.6503C19.6531 33.328 19.7737 32.732 20.1808 32.6844Z" fill="#6C63FF"/>
</g>
<defs>
<clipPath id="clip0_709_4457">
<rect width="77.2815" height="77.2815" fill="white"/>
</clipPath>
</defs>
</svg>
