<svg width="78" height="78" viewBox="0 0 78 78" fill="none" xmlns="http://www.w3.org/2000/svg">
<g clip-path="url(#clip0_709_4630)">
<rect width="77.2815" height="77.2815" rx="15" fill="white"/>
<g clip-path="url(#clip1_709_4630)">
<path d="M23.7825 49.9674L23.2433 54.1611C18.7074 53.2571 14.385 54.2055 13.481 58.7413L11.2937 58.3054C11.8471 55.5452 13.4727 53.1172 15.814 51.554C18.1553 49.9909 21.021 49.4203 23.7825 49.9674Z" fill="#6C63FF"/>
<path d="M41.0169 33.2482C43.007 34.536 45.7366 34.5727 47.7606 33.3389C47.8417 32.9507 47.9228 32.5625 48.0038 32.1742C48.481 32.6698 49.4193 32.5763 49.7893 31.9962C47.8538 27.8689 45.013 24.2308 41.478 21.3524C42.4991 21.9877 43.9736 21.7487 44.7417 20.8234C45.8969 20.4333 46.9907 19.8809 47.9904 19.1829C44.5621 13.6749 38.0249 9.29903 36.471 3C31.7964 8.01999 31.2717 9.78799 26.597 14.808C26.597 14.808 22.1707 18.8021 21.2153 20.9486C21.4501 21.1952 23.5517 21.7869 23.6325 22.2718C24.4366 22.3308 25.244 22.2159 25.9997 21.9349C26.7554 21.654 27.4417 21.2135 28.0119 20.6435C25.0073 23.8368 21.9513 27.1048 20.1113 31.0846C19.9456 31.443 19.7882 31.8522 19.927 32.2219C20.0378 32.517 20.4354 32.6871 20.6915 32.5699C20.3856 32.8649 20.14 33.2166 19.9683 33.6053C21.0147 34.3126 22.5578 34.1572 23.4421 33.2555C23.1858 33.7343 22.9295 34.2131 22.6732 34.692C23.5466 35.0104 24.4742 35.1536 25.4029 35.1135C26.3317 35.0733 27.2434 34.8505 28.0861 34.4579C26.0559 35.7315 20.9795 40.1472 19.8737 42.2735C19.3727 43.2367 24.5163 44.3978 25.6733 44.3502C26.8302 44.3026 27.9116 43.7943 28.9565 43.2953C28.9056 43.7718 28.9967 44.2527 29.2184 44.6774C29.7907 44.8163 30.3849 44.8394 30.9662 44.7455C31.5475 44.6515 32.1042 44.4423 32.6035 44.1302C32.5412 45.4187 34.762 45.9288 35.2681 44.7421C35.0782 45.4397 36.0014 45.8716 36.7132 45.998C38.7444 46.3585 41.1955 46.5777 42.5171 44.9938C44.0383 46.5277 46.8259 46.4986 48.3383 44.9701C48.1895 45.2338 48.4173 45.6776 48.7543 45.7475C49.1515 45.8299 49.5379 45.5939 49.8751 45.3685C51.4015 44.3479 52.928 43.3274 54.4545 42.3069C49.9753 39.2873 45.4961 36.2678 41.0169 33.2482Z" fill="#F1F2F2"/>
<path d="M35.8747 42.1348H33.8505V58.8346H35.8747V42.1348Z" fill="#F1F2F2"/>
<path d="M37.7836 35.6504C37.7222 35.8491 37.639 36.0404 37.5355 36.2208C37.3482 36.547 37.0965 36.8318 36.7958 37.0578C36.6945 37.1335 36.5884 37.2024 36.4782 37.2641C35.9932 37.5372 35.4379 37.6597 34.883 37.6161C34.7831 37.6083 34.6838 37.5945 34.5856 37.5748C34.4797 37.5556 34.3751 37.5299 34.2724 37.4977C33.9364 37.3941 33.6229 37.2282 33.3482 37.0086C33.2694 36.9462 33.1944 36.8793 33.1234 36.8081C32.6155 36.3024 32.3196 35.6219 32.2961 34.9054C32.2926 34.8028 32.2951 34.7 32.3035 34.5976C32.3096 34.5188 32.3193 34.44 32.3326 34.3609C32.3536 34.2344 32.3832 34.1093 32.421 33.9868C32.5029 33.7213 32.6238 33.4694 32.7797 33.2394C32.8109 33.1927 32.8441 33.1477 32.8783 33.1029C33.8253 31.8754 35.3003 32.923 36.8156 32.5952C38.2422 32.2865 38.2559 32.9983 37.7845 33.9944C37.9515 34.5338 37.9513 35.1111 37.7836 35.6504Z" fill="white"/>
<path opacity="0.1" d="M32.8785 33.1064L32.2963 34.909C32.2928 34.8063 32.2953 34.7035 32.3038 34.6011C32.3099 34.5223 32.3195 34.4436 32.3328 34.3644L32.7813 33.2434C32.8134 33.1954 32.8443 33.1512 32.8785 33.1064Z" fill="black"/>
<path opacity="0.1" d="M36.2126 33.5029L34.8835 37.6189C34.7836 37.6111 34.6843 37.5973 34.5861 37.5776L36.2126 33.5029Z" fill="black"/>
<path opacity="0.1" d="M37.7867 33.9902L37.7852 33.9949L36.7951 37.0599C36.6938 37.1355 36.5877 37.2044 36.4774 37.2662L37.7832 33.9932L37.7867 33.9902Z" fill="black"/>
<path d="M38.6858 41.6119C38.2991 42.8688 37.4676 43.9416 36.3469 44.6296C36.1991 44.7199 36.0483 44.8037 35.8934 44.8796C35.0991 45.2715 34.2208 45.4625 33.3355 45.4357C33.1899 45.4322 33.043 45.4213 32.8971 45.4041C32.162 45.3216 31.4514 45.0904 30.8084 44.7247C30.6822 44.6536 30.5598 44.5767 30.4412 44.4958C29.7292 44.0106 29.1432 43.3626 28.7319 42.6054C28.654 42.4651 28.5832 42.3198 28.5194 42.1717C27.3216 39.4218 31.3527 36.222 31.3298 35.0237C31.3069 33.8254 37.28 35.0842 38.4778 37.8341C38.9977 39.0277 39.0715 40.3684 38.6858 41.6119Z" fill="#6C63FF"/>
<path opacity="0.1" d="M33.3132 36.8857L30.806 44.7264C30.6798 44.6553 30.5574 44.5784 30.4388 44.4975L33.3132 36.8857Z" fill="black"/>
<path opacity="0.1" d="M35.8197 37.6611L33.333 45.4375C33.1873 45.4341 33.0405 45.4231 32.8945 45.4059L35.8197 37.6611Z" fill="black"/>
<path d="M33.046 41.465C37.8012 43.1746 40.854 46.006 38.5556 52.1439C36.8953 56.5779 32.4198 59.2189 27.9771 57.8441C23.5345 56.4692 21.3322 51.7616 22.4675 47.1652C24.23 40.0293 28.5884 39.8625 33.046 41.465Z" fill="#E6E6E6"/>
<path d="M36.8179 61.4746C36.1217 63.7375 34.6039 65.658 32.563 66.8582C32.3411 66.9902 32.1134 67.1126 31.8799 67.2254C31.1048 67.6021 30.2823 67.872 29.4347 68.0275C29.2053 68.0702 28.9735 68.1041 28.7394 68.1291C28.0449 68.2039 27.3443 68.2014 26.6503 68.1217C26.4268 68.0961 26.2034 68.0624 25.9802 68.0204C25.6187 67.9523 25.2615 67.8633 24.9104 67.7538C24.6353 67.6686 24.3672 67.5725 24.1063 67.4653C23.8983 67.3796 23.6945 67.2871 23.4953 67.1894C22.8884 66.8897 22.3157 66.5252 21.7871 66.1024C21.6097 65.9626 21.4381 65.8163 21.2722 65.6634C20.6914 65.1279 20.1798 64.522 19.7492 63.8596C19.6192 63.661 15.3806 61.997 15.2667 61.7888C14.0174 59.5273 17.8612 58.3146 18.6283 55.8475C18.7135 55.5723 18.8097 55.3042 18.9169 55.0429C21.7941 44.6777 25.7552 48.8015 30.5358 49.5683C35.9187 50.4317 39.7466 51.5636 37.0313 60.6488C36.9738 60.9241 36.9027 61.1993 36.8179 61.4746Z" fill="#6C63FF"/>
<path opacity="0.1" d="M23.0393 53.5713L19.7507 63.8583C19.6207 63.6597 19.4987 63.4563 19.3848 63.2481L23.0393 53.5713Z" fill="black"/>
<path opacity="0.1" d="M25.5459 54.3467L21.7869 66.1028C21.6097 65.9627 21.4381 65.8162 21.2722 65.6633L25.5459 54.3467Z" fill="black"/>
<path opacity="0.1" d="M24.1059 67.4657L28.0528 55.1221L23.4953 67.19L24.1059 67.4657Z" fill="black"/>
<path opacity="0.1" d="M26.6514 68.1203L30.5589 55.8975L25.9812 68.0191L26.6514 68.1203Z" fill="black"/>
<path opacity="0.1" d="M33.0651 56.6738L29.4355 68.0269C29.206 68.0695 28.9742 68.1034 28.7401 68.1284L33.0651 56.6738Z" fill="black"/>
<path opacity="0.1" d="M35.5717 57.4492L32.5638 66.8572C32.3419 66.9892 32.1142 67.1116 31.8806 67.2244L35.5717 57.4492Z" fill="black"/>
<path d="M36.7975 46.267C36.4219 47.4754 35.6016 48.4962 34.5024 49.1232C33.4031 49.7501 32.1069 49.9364 30.8756 49.6445C29.6443 49.3525 28.5697 48.604 27.869 47.5503C27.1682 46.4965 26.8936 45.2161 27.1006 43.9677C27.3076 42.7193 27.9808 41.596 28.9841 40.8248C29.9874 40.0535 31.246 39.6919 32.5056 39.8129C33.7653 39.934 34.9321 40.5287 35.7701 41.4768C36.6082 42.425 37.0552 43.6559 37.0207 44.9209C37.0082 45.3777 36.9331 45.8306 36.7975 46.267Z" fill="#FFAB9E"/>
<path d="M29.12 38.654L38.8235 41.6569C39.2411 41.7861 39.4496 42.3111 39.2892 42.8294C39.6972 43.7017 39.9448 44.5773 38.4663 45.4884C38.3059 46.0067 37.8373 46.3222 37.4197 46.1929C34.8198 43.3735 31.6836 42.0909 27.7162 43.19C27.2986 43.0608 27.0902 42.5358 27.2506 42.0175C26.7595 40.3966 26.9218 39.4028 28.0734 39.3585C28.2338 38.8402 28.7024 38.5247 29.12 38.654Z" fill="#CCCCCC"/>
<path d="M35.8667 53.1966C35.3986 54.709 34.3808 55.0488 33.1083 55.2799C32.9702 55.3047 32.8292 55.3287 32.6854 55.3521C32.2343 55.4272 31.7577 55.5025 31.2667 55.6211C31.0976 55.6622 30.9267 55.7078 30.7545 55.7606C30.2392 55.9153 29.7447 56.1324 29.282 56.4069C29.012 56.5683 28.7546 56.7498 28.5119 56.9498L28.5112 56.9506C28.3927 57.0479 28.2752 57.1506 28.1575 57.2619C24.9989 60.2447 23.0859 52.8042 24.0922 49.5527C24.3314 48.7796 24.7206 48.0612 25.2375 47.4384C25.7544 46.8157 26.3889 46.3009 27.1048 45.9234C27.8207 45.5459 28.6039 45.3131 29.4097 45.2383C30.2155 45.1635 31.0282 45.2481 31.8013 45.4874C32.5745 45.7266 33.2929 46.1158 33.9156 46.6327C34.5383 47.1497 35.0531 47.7842 35.4306 48.5C35.8081 49.2159 36.0409 49.9991 36.1157 50.8049C36.1906 51.6108 36.1059 52.4234 35.8667 53.1966Z" fill="#EEEFF0"/>
<path opacity="0.1" d="M36.8538 61.3583C36.6359 62.0649 36.3364 62.7437 35.9614 63.381L18.2635 57.9041C18.314 57.1663 18.4503 56.437 18.6695 55.7308C18.7547 55.4557 18.8509 55.1873 18.9583 54.9258L37.0708 60.5311C37.0111 60.807 36.9388 61.0827 36.8538 61.3583Z" fill="black"/>
<path opacity="0.1" d="M36.7817 61.5917C36.5637 62.2984 36.2641 62.9774 35.8891 63.6149L18.1912 58.1379C18.2418 57.4001 18.3782 56.6706 18.5974 55.9642C18.6826 55.6891 18.7788 55.4207 18.8862 55.1592L36.9987 60.7645C36.939 61.0404 36.8667 61.3161 36.7817 61.5917Z" fill="black"/>
<path d="M36.8178 61.475C36.5998 62.1818 36.3003 62.8608 35.9252 63.4982L18.2273 58.0213C18.2779 57.2834 18.4142 56.5539 18.6335 55.8475C18.7187 55.5724 18.8149 55.3042 18.9221 55.043C25.5605 55.8326 31.8982 57.1618 37.0346 60.6482C36.9749 60.9242 36.9027 61.1998 36.8178 61.475Z" fill="#373E46"/>
<path opacity="0.1" d="M29.5662 59.9335C29.9149 58.8068 29.2842 57.6108 28.1575 57.2621C27.0308 56.9134 25.8347 57.5441 25.4861 58.6708C25.1374 59.7976 25.7681 60.9936 26.8948 61.3423C28.0215 61.691 29.2175 61.0603 29.5662 59.9335Z" fill="black"/>
<path d="M29.4495 59.897C29.7782 58.8347 29.1836 57.7071 28.1214 57.3784C27.0591 57.0497 25.9315 57.6443 25.6028 58.7065C25.2741 59.7688 25.8687 60.8964 26.9309 61.2251C27.9932 61.5538 29.1208 60.9592 29.4495 59.897Z" fill="#EEEFF0"/>
<path d="M29.0418 59.7711C29.3009 58.934 28.8323 58.0453 27.9952 57.7863C27.1581 57.5272 26.2695 57.9958 26.0104 58.8329C25.7514 59.67 26.22 60.5586 27.0571 60.8177C27.8942 61.0768 28.7828 60.6082 29.0418 59.7711Z" fill="#373E46"/>
<path opacity="0.1" d="M26.9075 47.6768L24.6919 54.5391C24.5826 54.3569 24.4828 54.1691 24.3929 53.9765L26.9075 47.6768Z" fill="black"/>
<path opacity="0.1" d="M28.4811 48.1641L25.9414 56.0312C25.7895 55.9004 25.6447 55.7618 25.5076 55.6157L28.4811 48.1641Z" fill="black"/>
<path opacity="0.1" d="M30.0552 48.6514L27.3728 56.9581C27.1936 56.8752 27.0188 56.7833 26.8489 56.6827L30.0552 48.6514Z" fill="black"/>
<path opacity="0.1" d="M31.6288 49.1387L29.282 56.4071C29.012 56.5685 28.7546 56.75 28.5119 56.95L31.6288 49.1387Z" fill="black"/>
<path opacity="0.1" d="M33.2028 49.625L31.2667 55.6206C31.0976 55.6616 30.9267 55.7072 30.7545 55.76L33.2028 49.625Z" fill="black"/>
<path opacity="0.1" d="M34.7765 50.1123L33.1083 55.2796C32.9702 55.3044 32.8292 55.3285 32.6855 55.3518L34.7765 50.1123Z" fill="black"/>
<path opacity="0.1" d="M31.7386 41.8996L32.4448 39.6914L31.6242 41.8642L31.7386 41.8996Z" fill="black"/>
<path opacity="0.1" d="M34.9509 40.4668L34.2447 42.675L34.1302 42.6396L34.9509 40.4668Z" fill="black"/>
<path d="M31.6113 48.0241C32.657 48.0241 33.5047 47.1764 33.5047 46.1307C33.5047 45.085 32.657 44.2373 31.6113 44.2373C30.5656 44.2373 29.7179 45.085 29.7179 46.1307C29.7179 47.1764 30.5656 48.0241 31.6113 48.0241Z" fill="#FFAB9E"/>
<path d="M22.96 44.0293C23.7244 44.5088 24.6059 44.7689 25.5082 44.781C26.4105 44.7932 27.2987 44.5569 28.0757 44.0981C28.1372 43.8036 28.1987 43.5091 28.2602 43.2146C28.6222 43.5905 29.334 43.5196 29.6147 43.0795C28.1464 39.9485 25.9914 37.1887 23.3098 35.0051C24.0844 35.487 25.2029 35.3057 25.7856 34.6038C26.6619 34.3079 27.4917 33.8889 28.25 33.3594C25.6493 29.1809 20.6902 25.8614 19.5115 21.083C15.9653 24.8912 15.5672 26.2324 12.021 30.0405C12.021 30.0405 8.66324 33.0705 7.93848 34.6988C8.11656 34.8859 9.71085 35.3348 9.77214 35.7026C10.3821 35.7473 10.9946 35.6602 11.5679 35.447C12.1412 35.2339 12.6618 34.8998 13.0944 34.4674C10.8151 36.8898 8.49682 39.3689 7.10095 42.388C6.97525 42.6599 6.85586 42.9703 6.96117 43.2507C7.04524 43.4746 7.34684 43.6037 7.54109 43.5147C7.30905 43.7385 7.12274 44.0053 6.99253 44.3002C7.39759 44.5589 7.87804 44.6734 8.35622 44.6252C8.8344 44.577 9.28237 44.369 9.62771 44.0348C9.43329 44.398 9.23887 44.7613 9.04444 45.1245C9.70699 45.3661 10.4107 45.4747 11.1152 45.4443C11.8198 45.4138 12.5114 45.2448 13.1506 44.9469C11.6105 45.9131 7.75959 49.2628 6.92072 50.8758C6.5407 51.6066 10.4426 52.4874 11.3203 52.4513C12.1979 52.4151 13.0183 52.0295 13.811 51.651C13.7723 52.0125 13.8415 52.3772 14.0097 52.6995C14.4438 52.8048 14.8945 52.8224 15.3355 52.7511C15.7765 52.6798 16.1988 52.5211 16.5776 52.2843C16.5303 53.2618 18.215 53.6487 18.5989 52.7485C18.4549 53.2777 19.1552 53.6054 19.6952 53.7012C21.236 53.9747 23.0954 54.141 24.098 52.9395C25.252 54.1031 27.3667 54.081 28.514 52.9215C28.4011 53.1215 28.5739 53.4582 28.8296 53.5112C29.1308 53.5737 29.424 53.3947 29.6797 53.2237C30.8377 52.4495 31.9957 51.6753 33.1537 50.9012C29.7558 48.6105 26.3579 46.3199 22.96 44.0293Z" fill="#3F3D56"/>
<path d="M19.0591 50.7705H17.5235V63.439H19.0591V50.7705Z" fill="#3F3D56"/>
<path d="M65.4694 52.9862C60.3892 64.9474 48.5337 73.3363 34.7184 73.3363C23.5281 73.3363 13.6226 67.8322 7.56296 59.3823C8.79253 59.0342 10.0328 58.8771 11.306 59.1253C14.3596 59.7217 16.587 62.5299 19.6134 63.2524C22.2296 63.8768 24.9584 62.8238 27.273 61.4545C29.5887 60.0844 31.7317 58.3651 34.2626 57.4526C35.9412 56.8475 38.3935 57.0153 38.8047 58.752C38.9918 59.5442 38.7484 60.6109 39.466 60.9968C45.1533 58.9459 50.8406 56.8947 56.5278 54.8431C58.3712 54.1789 60.2214 53.5118 62.1385 53.1035C63.2284 52.8717 64.4047 52.7389 65.4694 52.9862Z" fill="#E6E7E8"/>
<path d="M62.7491 33.2434C64.5055 34.38 66.9144 34.4124 68.7007 33.3235C68.7723 32.9808 68.8438 32.6382 68.9154 32.2956C69.3365 32.733 70.1646 32.6504 70.4911 32.1385C68.783 28.4959 66.2758 25.2851 63.156 22.7448C64.0572 23.3054 65.3585 23.0945 66.0364 22.2779C67.0559 21.9336 68.0212 21.4461 68.9035 20.8301C65.8779 15.9689 60.1084 12.1071 58.7371 6.54785C54.6115 10.9782 54.1484 12.5386 50.0228 16.969C50.0228 16.969 46.1163 20.494 45.2732 22.3884C45.4803 22.606 47.3351 23.1283 47.4064 23.5562C48.1161 23.6082 48.8286 23.5069 49.4956 23.2589C50.1626 23.0109 50.7683 22.6222 51.2715 22.1191C48.6198 24.9374 45.9227 27.8215 44.2988 31.3339C44.1526 31.6502 44.0137 32.0114 44.1362 32.3376C44.234 32.5981 44.5849 32.7482 44.8108 32.6448C44.5409 32.9051 44.3241 33.2155 44.1726 33.5586C45.0961 34.1828 46.458 34.0456 47.2384 33.2498C47.0122 33.6724 46.786 34.095 46.5598 34.5176C47.3306 34.7986 48.1493 34.9251 48.969 34.8896C49.7886 34.8542 50.5933 34.6575 51.337 34.311C49.5452 35.4351 45.065 39.3321 44.0891 41.2087C43.647 42.0588 48.1865 43.0835 49.2075 43.0415C50.2286 42.9995 51.183 42.5508 52.1052 42.1105C52.0602 42.531 52.1407 42.9554 52.3363 43.3303C52.8414 43.4528 53.3658 43.4732 53.8788 43.3903C54.3919 43.3074 54.8832 43.1227 55.3238 42.8473C55.2688 43.9845 57.2288 44.4346 57.6755 43.3873C57.5079 44.003 58.3226 44.3842 58.9509 44.4957C60.7434 44.8139 62.9067 45.0074 64.0731 43.6095C65.4156 44.9632 67.8758 44.9375 69.2106 43.5885C69.0792 43.8213 69.2803 44.2129 69.5777 44.2746C69.9282 44.3474 70.2692 44.1391 70.5668 43.9401C71.914 43.0395 69.5156 41.4785 70.8628 40.5778C66.9097 37.9129 66.7022 35.9083 62.7491 33.2434Z" fill="#3F3D56"/>
<path d="M58.2108 41.0859H56.4244V55.8244H58.2108V41.0859Z" fill="#3F3D56"/>
<path d="M9.05591 24.1704C9.35834 24.1704 9.6035 23.9252 9.6035 23.6228C9.6035 23.3204 9.35834 23.0752 9.05591 23.0752C8.75348 23.0752 8.50832 23.3204 8.50832 23.6228C8.50832 23.9252 8.75348 24.1704 9.05591 24.1704Z" fill="#E6E7E8"/>
<path d="M7.01538 36.8413C7.31781 36.8413 7.56297 36.5961 7.56297 36.2937C7.56297 35.9913 7.31781 35.7461 7.01538 35.7461C6.71295 35.7461 6.46779 35.9913 6.46779 36.2937C6.46779 36.5961 6.71295 36.8413 7.01538 36.8413Z" fill="#E6E7E8"/>
<path d="M8.16693 46.0229C8.46936 46.0229 8.71453 45.7778 8.71453 45.4753C8.71453 45.1729 8.46936 44.9277 8.16693 44.9277C7.8645 44.9277 7.61934 45.1729 7.61934 45.4753C7.61934 45.7778 7.8645 46.0229 8.16693 46.0229Z" fill="#E6E7E8"/>
<path d="M51.8066 18.2231C52.109 18.2231 52.3542 17.9779 52.3542 17.6755C52.3542 17.3731 52.109 17.1279 51.8066 17.1279C51.5042 17.1279 51.259 17.3731 51.259 17.6755C51.259 17.9779 51.5042 18.2231 51.8066 18.2231Z" fill="#E6E7E8"/>
<path d="M14.8988 39.4692C15.2013 39.4692 15.4464 39.224 15.4464 38.9216C15.4464 38.6192 15.2013 38.374 14.8988 38.374C14.5964 38.374 14.3512 38.6192 14.3512 38.9216C14.3512 39.224 14.5964 39.4692 14.8988 39.4692Z" fill="white"/>
<path d="M23.4413 42.1811C23.7437 42.1811 23.9889 41.936 23.9889 41.6335C23.9889 41.3311 23.7437 41.0859 23.4413 41.0859C23.1388 41.0859 22.8937 41.3311 22.8937 41.6335C22.8937 41.936 23.1388 42.1811 23.4413 42.1811Z" fill="white"/>
<path d="M54.6589 31.4741C54.9613 31.4741 55.2065 31.2289 55.2065 30.9265C55.2065 30.6241 54.9613 30.3789 54.6589 30.3789C54.3564 30.3789 54.1113 30.6241 54.1113 30.9265C54.1113 31.2289 54.3564 31.4741 54.6589 31.4741Z" fill="white"/>
<path d="M57.3176 21.5083C57.62 21.5083 57.8652 21.2631 57.8652 20.9607C57.8652 20.6583 57.62 20.4131 57.3176 20.4131C57.0152 20.4131 56.77 20.6583 56.77 20.9607C56.77 21.2631 57.0152 21.5083 57.3176 21.5083Z" fill="#E6E7E8"/>
<path d="M47.4258 30.9272C47.7283 30.9272 47.9734 30.6821 47.9734 30.3796C47.9734 30.0772 47.7283 29.832 47.4258 29.832C47.1234 29.832 46.8783 30.0772 46.8783 30.3796C46.8783 30.6821 47.1234 30.9272 47.4258 30.9272Z" fill="white"/>
<path d="M22.8937 35.1977C23.1961 35.1977 23.4413 34.9526 23.4413 34.6501C23.4413 34.3477 23.1961 34.1025 22.8937 34.1025C22.5913 34.1025 22.3461 34.3477 22.3461 34.6501C22.3461 34.9526 22.5913 35.1977 22.8937 35.1977Z" fill="white"/>
<path d="M23.9889 21.5083C24.2913 21.5083 24.5365 21.2631 24.5365 20.9607C24.5365 20.6583 24.2913 20.4131 23.9889 20.4131C23.6864 20.4131 23.4413 20.6583 23.4413 20.9607C23.4413 21.2631 23.6864 21.5083 23.9889 21.5083Z" fill="#E6E7E8"/>
<path d="M37.6521 22.1811C37.9545 22.1811 38.1997 21.936 38.1997 21.6335C38.1997 21.3311 37.9545 21.0859 37.6521 21.0859C37.3497 21.0859 37.1045 21.3311 37.1045 21.6335C37.1045 21.936 37.3497 22.1811 37.6521 22.1811Z" fill="#E6E7E8"/>
<path d="M41.4252 37.4809C41.7276 37.4809 41.9728 37.2358 41.9728 36.9333C41.9728 36.6309 41.7276 36.3857 41.4252 36.3857C41.1228 36.3857 40.8776 36.6309 40.8776 36.9333C40.8776 37.2358 41.1228 37.4809 41.4252 37.4809Z" fill="white"/>
<path d="M47.1305 36.144C47.4329 36.144 47.6781 35.8988 47.6781 35.5964C47.6781 35.294 47.4329 35.0488 47.1305 35.0488C46.8281 35.0488 46.5829 35.294 46.5829 35.5964C46.5829 35.8988 46.8281 36.144 47.1305 36.144Z" fill="#E6E7E8"/>
<path d="M51.259 46.644C51.5614 46.644 51.8066 46.3988 51.8066 46.0964C51.8066 45.794 51.5614 45.5488 51.259 45.5488C50.9566 45.5488 50.7114 45.794 50.7114 46.0964C50.7114 46.3988 50.9566 46.644 51.259 46.644Z" fill="white"/>
<path d="M48.521 49.5503C48.8235 49.5503 49.0686 49.3051 49.0686 49.0027C49.0686 48.7002 48.8235 48.4551 48.521 48.4551C48.2186 48.4551 47.9734 48.7002 47.9734 49.0027C47.9734 49.3051 48.2186 49.5503 48.521 49.5503Z" fill="#E6E7E8"/>
<path d="M34.7184 39.4692C35.0208 39.4692 35.266 39.224 35.266 38.9216C35.266 38.6192 35.0208 38.374 34.7184 38.374C34.416 38.374 34.1708 38.6192 34.1708 38.9216C34.1708 39.224 34.416 39.4692 34.7184 39.4692Z" fill="white"/>
<path d="M57.3176 37.9868C57.62 37.9868 57.8652 37.7416 57.8652 37.4392C57.8652 37.1368 57.62 36.8916 57.3176 36.8916C57.0152 36.8916 56.77 37.1368 56.77 37.4392C56.77 37.7416 57.0152 37.9868 57.3176 37.9868Z" fill="#E6E7E8"/>
<path d="M70.4457 45.7307C71.3041 45.7307 72 45.0348 72 44.1764C72 43.318 71.3041 42.6221 70.4457 42.6221C69.5872 42.6221 68.8913 43.318 68.8913 44.1764C68.8913 45.0348 69.5872 45.7307 70.4457 45.7307Z" fill="#6C63FF"/>
<path d="M60.8675 46.8255C61.7259 46.8255 62.4218 46.1296 62.4218 45.2711C62.4218 44.4127 61.7259 43.7168 60.8675 43.7168C60.009 43.7168 59.3131 44.4127 59.3131 45.2711C59.3131 46.1296 60.009 46.8255 60.8675 46.8255Z" fill="#FF6584"/>
<path d="M43.7423 43.7356C44.6008 43.7356 45.2967 43.0397 45.2967 42.1813C45.2967 41.3228 44.6008 40.627 43.7423 40.627C42.8839 40.627 42.188 41.3228 42.188 42.1813C42.188 43.0397 42.8839 43.7356 43.7423 43.7356Z" fill="#6C63FF"/>
<path d="M42.8255 33.5764C43.684 33.5764 44.3799 32.8805 44.3799 32.0221C44.3799 31.1637 43.684 30.4678 42.8255 30.4678C41.9671 30.4678 41.2712 31.1637 41.2712 32.0221C41.2712 32.8805 41.9671 33.5764 42.8255 33.5764Z" fill="#6C63FF"/>
<path d="M70.4457 33.0286C71.3041 33.0286 72 32.3327 72 31.4742C72 30.6158 71.3041 29.9199 70.4457 29.9199C69.5872 29.9199 68.8913 30.6158 68.8913 31.4742C68.8913 32.3327 69.5872 33.0286 70.4457 33.0286Z" fill="#6C63FF"/>
<path d="M68.9035 22.384C69.7619 22.384 70.4578 21.6881 70.4578 20.8297C70.4578 19.9713 69.7619 19.2754 68.9035 19.2754C68.0451 19.2754 67.3492 19.9713 67.3492 20.8297C67.3492 21.6881 68.0451 22.384 68.9035 22.384Z" fill="#FF6584"/>
<path d="M14.3512 52.3325C14.6537 52.3325 14.8988 52.0873 14.8988 51.7849C14.8988 51.4825 14.6537 51.2373 14.3512 51.2373C14.0488 51.2373 13.8036 51.4825 13.8036 51.7849C13.8036 52.0873 14.0488 52.3325 14.3512 52.3325Z" fill="white"/>
<path d="M21.6378 52.854C21.9402 52.854 22.1854 52.6088 22.1854 52.3064C22.1854 52.004 21.9402 51.7588 21.6378 51.7588C21.3354 51.7588 21.0902 52.004 21.0902 52.3064C21.0902 52.6088 21.3354 52.854 21.6378 52.854Z" fill="white"/>
<path d="M32.528 54.4057C32.8304 54.4057 33.0756 54.1606 33.0756 53.8581C33.0756 53.5557 32.8304 53.3105 32.528 53.3105C32.2256 53.3105 31.9804 53.5557 31.9804 53.8581C31.9804 54.1606 32.2256 54.4057 32.528 54.4057Z" fill="white"/>
<path d="M30.2314 27.9702C30.5339 27.9702 30.779 27.725 30.779 27.4226C30.779 27.1202 30.5339 26.875 30.2314 26.875C29.929 26.875 29.6838 27.1202 29.6838 27.4226C29.6838 27.725 29.929 27.9702 30.2314 27.9702Z" fill="white"/>
<path d="M31.2266 25.2475C31.529 25.2475 31.7742 25.0024 31.7742 24.6999C31.7742 24.3975 31.529 24.1523 31.2266 24.1523C30.9242 24.1523 30.679 24.3975 30.679 24.6999C30.679 25.0024 30.9242 25.2475 31.2266 25.2475Z" fill="#E6E7E8"/>
<path d="M18.0749 32.0219C18.3773 32.0219 18.6225 31.7768 18.6225 31.4744C18.6225 31.1719 18.3773 30.9268 18.0749 30.9268C17.7724 30.9268 17.5273 31.1719 17.5273 31.4744C17.5273 31.7768 17.7724 32.0219 18.0749 32.0219Z" fill="white"/>
<g opacity="0.35">
<path d="M66.193 30.8171C67.128 30.4095 65.2319 30.1721 63.0807 30.0941C60.9295 30.0161 58.3272 30.0204 56.9524 29.7985C55.6229 29.5838 55.7208 29.2022 55.609 28.8564C55.4971 28.5107 54.986 28.1561 52.9113 28.0793C50.3261 27.9835 46.0628 28.3522 44.1112 28.1308C42.29 27.9243 43.3725 27.2763 40.7169 27.2515C39.2004 27.2374 37.2468 27.451 35.5595 27.5025C33.9753 27.5509 32.8034 27.4507 31.981 27.316C31.1585 27.1812 30.5857 27.0104 29.6601 26.8914C27.2299 26.5789 22.4754 26.6839 18.2319 27.0844C13.9883 27.4849 10.3508 28.1412 8.29938 28.7912C6.24794 29.4413 5.68117 30.0813 6.15903 30.624C6.46416 30.9706 7.24501 31.2947 9.13914 31.4339C12.682 31.6944 18.9897 31.2461 22.6506 31.483C24.691 31.6151 25.5962 31.9426 27.3864 32.1218C29.3098 32.3143 32.1253 32.3245 34.8916 32.3199C40.6513 32.3104 46.5584 32.2513 52.5818 32.1427C55.0976 32.0974 57.7338 32.0385 60.4109 31.8225C63.088 31.6064 65.8185 31.1896 66.3833 30.7989" fill="white"/>
</g>
<path d="M46.8783 23.5217C47.7367 23.5217 48.4326 22.8258 48.4326 21.9674C48.4326 21.109 47.7367 20.4131 46.8783 20.4131C46.0198 20.4131 45.3239 21.109 45.3239 21.9674C45.3239 22.8258 46.0198 23.5217 46.8783 23.5217Z" fill="#6C63FF"/>
<path d="M32.3569 36.5561C32.6593 36.5561 32.9045 36.311 32.9045 36.0085C32.9045 35.7061 32.6593 35.4609 32.3569 35.4609C32.0544 35.4609 31.8093 35.7061 31.8093 36.0085C31.8093 36.311 32.0544 36.5561 32.3569 36.5561Z" fill="white"/>
<path d="M57.5261 11.8706C57.8285 11.8706 58.0737 11.6254 58.0737 11.323C58.0737 11.0206 57.8285 10.7754 57.5261 10.7754C57.2237 10.7754 56.9785 11.0206 56.9785 11.323C56.9785 11.6254 57.2237 11.8706 57.5261 11.8706Z" fill="white"/>
<path d="M33.6232 43.9546C33.9256 43.9546 34.1708 43.7094 34.1708 43.407C34.1708 43.1045 33.9256 42.8594 33.6232 42.8594C33.3208 42.8594 33.0756 43.1045 33.0756 43.407C33.0756 43.7094 33.3208 43.9546 33.6232 43.9546Z" fill="white"/>
<path d="M44.0589 52.8803C44.3613 52.8803 44.6065 52.6352 44.6065 52.3328C44.6065 52.0303 44.3613 51.7852 44.0589 51.7852C43.7565 51.7852 43.5113 52.0303 43.5113 52.3328C43.5113 52.6352 43.7565 52.8803 44.0589 52.8803Z" fill="white"/>
<path d="M48.521 60.7397C48.8235 60.7397 49.0686 60.4946 49.0686 60.1921C49.0686 59.8897 48.8235 59.6445 48.521 59.6445C48.2186 59.6445 47.9734 59.8897 47.9734 60.1921C47.9734 60.4946 48.2186 60.7397 48.521 60.7397Z" fill="white"/>
<path d="M35.1992 60.9673C35.5017 60.9673 35.7468 60.7221 35.7468 60.4197C35.7468 60.1172 35.5017 59.8721 35.1992 59.8721C34.8968 59.8721 34.6516 60.1172 34.6516 60.4197C34.6516 60.7221 34.8968 60.9673 35.1992 60.9673Z" fill="white"/>
<path d="M19.9049 65.6958C20.2073 65.6958 20.4525 65.4506 20.4525 65.1482C20.4525 64.8458 20.2073 64.6006 19.9049 64.6006C19.6025 64.6006 19.3573 64.8458 19.3573 65.1482C19.3573 65.4506 19.6025 65.6958 19.9049 65.6958Z" fill="white"/>
<path d="M38.2252 39.4692C38.5276 39.4692 38.7728 39.224 38.7728 38.9216C38.7728 38.6192 38.5276 38.374 38.2252 38.374C37.9228 38.374 37.6776 38.6192 37.6776 38.9216C37.6776 39.224 37.9228 39.4692 38.2252 39.4692Z" fill="white"/>
<path d="M30.9432 27.2544C31.2456 27.2544 31.4908 27.0092 31.4908 26.7068C31.4908 26.4043 31.2456 26.1592 30.9432 26.1592C30.6408 26.1592 30.3956 26.4043 30.3956 26.7068C30.3956 27.0092 30.6408 27.2544 30.9432 27.2544Z" fill="#6C63FF"/>
<path d="M36.4062 56.4073L36.1152 52.1891C40.7403 52.1891 44.794 50.4142 44.794 45.7891H47.0243C47.0212 48.6042 45.9015 51.3031 43.9108 53.2937C41.9202 55.2844 39.2213 56.4041 36.4062 56.4073Z" fill="#6C63FF"/>
<path d="M42.9721 44.6135C43.0845 44.5935 43.1983 44.5824 43.3124 44.5805C43.3756 44.5477 43.4406 44.5186 43.5071 44.4932L42.9721 44.6135Z" fill="#6C63FF"/>
<path d="M56.5886 55.299C56.5416 54.3293 56.252 53.3869 55.7465 52.5581C55.241 51.7293 54.5357 51.0405 53.6951 50.5548C51.7279 49.4458 49.2826 49.5874 47.2048 48.7029C46.8 48.5306 46.3945 48.3048 46.156 47.9352C45.8493 47.4597 45.8784 46.8489 45.721 46.3053C45.4247 45.2821 44.3683 44.5527 43.3124 44.5798C42.9855 44.7429 42.7091 44.9918 42.5127 45.2998C42.3162 45.6078 42.2072 45.9634 42.1973 46.3286C42.1873 46.6937 42.2768 47.0548 42.4562 47.373C42.6355 47.6913 42.898 47.9548 43.2155 48.1354C42.1443 47.9502 41.047 48.5778 40.4393 49.4793C39.8317 50.3807 39.6438 51.5049 39.641 52.5921C39.648 54.1459 39.9954 55.6793 40.6589 57.0844C41.3223 58.4895 42.2857 59.7321 43.4811 60.7247C44.1882 61.3035 44.9923 61.7976 45.888 61.9784C47.0746 62.2179 48.2995 61.8883 49.4376 61.4758C51.236 60.8236 52.9503 59.9596 54.5445 58.9021C55.1054 58.5299 55.6631 58.1216 56.0361 57.5611C56.4732 56.9042 56.6185 56.0875 56.5886 55.299Z" fill="#D1D3D4"/>
<path d="M43.1434 48.3061C43.4083 48.4186 43.6943 48.4085 43.9756 48.3895C44.2573 48.3704 44.5395 48.3542 44.8206 48.329C45.2757 48.2881 45.7465 48.2004 46.0906 47.8755C46.2268 47.7468 46.0317 47.5309 45.8955 47.6596C45.591 47.9472 45.1601 48.0117 44.7583 48.0445C44.5094 48.0648 44.2599 48.0799 44.0107 48.097C43.7467 48.1152 43.4804 48.1346 43.2312 48.0288C43.059 47.9556 42.9723 48.2334 43.1434 48.3061Z" fill="#3F3D56"/>
<path d="M46.0498 47.9545C46.1323 47.7669 46.1282 47.5169 46.27 47.359C46.2951 47.333 46.3255 47.3127 46.3592 47.2996C46.3928 47.2864 46.4289 47.2807 46.465 47.2828C46.5115 47.2834 46.5579 47.2868 46.604 47.2929C46.6385 47.2929 46.6727 47.2985 46.7054 47.3094C46.7091 47.3116 46.7055 47.3058 46.7045 47.3042C46.7027 47.3014 46.6986 47.3303 46.6967 47.3348C46.6795 47.3695 46.6572 47.4015 46.6307 47.4297C46.5756 47.493 46.5122 47.5485 46.4423 47.5948C46.2982 47.6909 46.1307 47.7459 45.9578 47.754C45.9228 47.7532 45.8888 47.765 45.8617 47.7871C45.8347 47.8092 45.8164 47.8403 45.8102 47.8747C45.8039 47.9092 45.8103 47.9448 45.8284 47.9749C45.8464 48.005 45.8749 48.0275 45.9083 48.0381L46.3308 48.1327C46.4674 48.1633 46.6093 48.186 46.7427 48.2288C46.7912 48.2443 46.9155 48.3001 46.871 48.3644C46.833 48.4192 46.7115 48.4272 46.6562 48.4293C46.479 48.4355 46.3048 48.3822 46.1614 48.2778C46.018 48.1735 45.9137 48.0241 45.8651 47.8535C45.82 47.6721 45.536 47.7353 45.5813 47.9176C45.6337 48.1131 45.7398 48.2899 45.8875 48.4281C46.0353 48.5663 46.2189 48.6603 46.4174 48.6995C46.6242 48.739 46.8797 48.734 47.0502 48.5934C47.0991 48.5536 47.1353 48.5005 47.1546 48.4406C47.1739 48.3806 47.1754 48.3164 47.159 48.2556C47.1392 48.193 47.1057 48.1356 47.061 48.0876C47.0162 48.0396 46.9612 48.0022 46.9001 47.9781C46.7612 47.9274 46.6177 47.8902 46.4715 47.8672L45.9962 47.7607L45.9467 48.0448C46.1458 48.0387 46.3405 47.9856 46.515 47.8898C46.6938 47.7982 46.8428 47.6577 46.9449 47.4848C46.9726 47.4387 46.9889 47.3867 46.9924 47.3331C46.996 47.2795 46.9867 47.2258 46.9654 47.1764C46.9064 47.0581 46.7773 47.0244 46.6574 47.0076C46.4498 46.9785 46.2249 46.9846 46.0712 47.1484C45.881 47.351 45.8792 47.6241 45.7725 47.8666C45.7611 47.9034 45.7647 47.9432 45.7824 47.9774C45.8001 48.0116 45.8306 48.0374 45.8672 48.0492C45.904 48.06 45.9435 48.0561 45.9775 48.0385C46.0115 48.0209 46.0374 47.9908 46.0498 47.9545Z" fill="#3F3D56"/>
<path d="M45.8122 46.7589C46.7226 46.7589 47.4607 46.0208 47.4607 45.1104C47.4607 44.2 46.7226 43.4619 45.8122 43.4619C44.9018 43.4619 44.1637 44.2 44.1637 45.1104C44.1637 46.0208 44.9018 46.7589 45.8122 46.7589Z" fill="#FFAB9E"/>
<path d="M30.3901 48.7862C30.9237 49.0303 31.52 49.1026 32.0965 48.9933C32.673 48.884 33.2014 48.5983 33.6086 48.1759C33.738 48.0406 33.5326 47.8345 33.4029 47.9702C33.0418 48.3484 32.5725 48.6057 32.0594 48.7068C31.5463 48.8079 31.0145 48.7479 30.5369 48.535C30.3677 48.4583 30.2196 48.709 30.3901 48.7862Z" fill="#FFAB9E"/>
<path d="M12.3498 60.8565C13.2602 60.8565 13.9983 60.1185 13.9983 59.2081C13.9983 58.2976 13.2602 57.5596 12.3498 57.5596C11.4393 57.5596 10.7013 58.2976 10.7013 59.2081C10.7013 60.1185 11.4393 60.8565 12.3498 60.8565Z" fill="#FFAB9E"/>
</g>
</g>
<defs>
<clipPath id="clip0_709_4630">
<rect width="77.2815" height="77.2815" fill="white"/>
</clipPath>
<clipPath id="clip1_709_4630">
<rect width="66" height="70.3364" fill="white" transform="translate(6 3)"/>
</clipPath>
</defs>
</svg>
