<svg width="67" height="55" viewBox="0 0 67 55" fill="none" xmlns="http://www.w3.org/2000/svg">
<g clip-path="url(#clip0_612_6847)">
<path d="M9.17458 51.3212C9.09887 51.3247 9.02392 51.3048 8.95988 51.2642C8.89584 51.2237 8.84581 51.1644 8.81657 51.0945C8.78733 51.0246 8.7803 50.9474 8.79642 50.8733C8.81253 50.7992 8.85103 50.7319 8.90668 50.6805C8.916 50.6434 8.92269 50.6168 8.93201 50.5798C8.92868 50.5717 8.92532 50.5637 8.92195 50.5556C8.84567 50.3754 8.71786 50.2218 8.55457 50.1141C8.39127 50.0063 8.19978 49.9492 8.00414 49.95C7.80849 49.9507 7.61743 50.0092 7.45494 50.1182C7.29245 50.2271 7.16578 50.3817 7.09085 50.5624C6.79136 51.2837 6.41006 52.0062 6.31618 52.7689C6.27483 53.106 6.29227 53.4477 6.36773 53.7789C5.66432 52.2445 5.29906 50.5768 5.29671 48.8888C5.29656 48.4653 5.32009 48.042 5.36719 47.6211C5.40612 47.276 5.46013 46.9334 5.52922 46.5932C5.90623 44.7474 6.7157 43.0175 7.89113 41.5453C8.46004 41.2349 8.92013 40.7576 9.20939 40.1776C9.31418 39.9691 9.38824 39.7466 9.42927 39.5169C9.3651 39.5253 9.29987 39.5306 9.23569 39.5348C9.2157 39.5358 9.19466 39.5369 9.17467 39.5379L9.16713 39.5383C9.0966 39.5414 9.02666 39.5242 8.96572 39.4885C8.90479 39.4528 8.85546 39.4003 8.82368 39.3373C8.7919 39.2742 8.77901 39.2033 8.78658 39.1331C8.79415 39.0629 8.82185 38.9964 8.86634 38.9416C8.89405 38.9075 8.92178 38.8734 8.94952 38.8394C8.99161 38.7868 9.03474 38.7352 9.07682 38.6826C9.08168 38.6776 9.08625 38.6723 9.0905 38.6668C9.1389 38.6068 9.18729 38.5479 9.23569 38.488C9.14735 38.3508 9.02853 38.236 8.8885 38.1524C8.4035 37.8683 7.73437 38.065 7.38403 38.5037C7.03263 38.9425 6.96636 39.5579 7.08839 40.1061C7.2084 40.5725 7.40693 41.0151 7.67546 41.4148C7.64915 41.4485 7.62179 41.4811 7.59549 41.5148C7.11469 42.1331 6.69564 42.7969 6.34434 43.4969C6.42977 42.7127 6.32781 41.9194 6.04684 41.1823C5.76207 40.4954 5.22833 39.9168 4.75831 39.323C4.19373 38.6096 3.03602 38.9209 2.93655 39.8252C2.93559 39.834 2.93465 39.8427 2.93373 39.8515C3.00354 39.8908 3.07188 39.9326 3.13875 39.9769C3.22275 40.033 3.28784 40.1132 3.32548 40.2069C3.36313 40.3007 3.37159 40.4036 3.34973 40.5022C3.32788 40.6009 3.27675 40.6906 3.20303 40.7597C3.12931 40.8287 3.03644 40.8739 2.9366 40.8893L2.92637 40.8909C2.95124 41.1425 2.9952 41.3919 3.05788 41.6368C3.23949 42.3207 3.56041 42.9596 4.00052 43.5136C4.44063 44.0676 4.99044 44.5247 5.61549 44.8562C5.65652 44.8772 5.69651 44.8983 5.73754 44.9183C5.38459 45.9185 5.1632 46.9604 5.07893 48.0177C5.03123 48.6415 5.03404 49.2681 5.08735 49.8915L5.08419 49.8694C4.94952 49.1762 4.57976 48.5508 4.03737 48.0987C3.23178 47.4369 2.09364 47.1933 1.22456 46.6613C1.13219 46.602 1.0248 46.5704 0.915035 46.5701C0.805274 46.5699 0.697728 46.601 0.605077 46.6598C0.512426 46.7187 0.438535 46.8028 0.392122 46.9023C0.345709 47.0017 0.32871 47.1124 0.343127 47.2212C0.344291 47.2289 0.345478 47.2367 0.346683 47.2444C0.476237 47.2972 0.602376 47.358 0.724372 47.4264C0.794187 47.4658 0.862529 47.5076 0.929394 47.5518C1.01339 47.608 1.07848 47.6881 1.11613 47.7819C1.15378 47.8756 1.16223 47.9786 1.14038 48.0772C1.11852 48.1758 1.06739 48.2656 0.993668 48.3346C0.919948 48.4037 0.827083 48.4489 0.727238 48.4643L0.717007 48.4659C0.709641 48.4669 0.70333 48.468 0.695977 48.469C0.917339 48.9976 1.22803 49.4841 1.61443 49.9072C2.09178 50.4194 2.66872 50.8287 3.30986 51.1101C3.95101 51.3914 4.64287 51.5388 5.34301 51.5432H5.34406C5.53412 52.3691 5.80949 53.173 6.16574 53.942H9.10103C9.11156 53.9093 9.12102 53.8757 9.1305 53.8431C8.8588 53.8601 8.58603 53.8439 8.31828 53.7947C8.53607 53.5274 8.75384 53.2581 8.97163 52.9909C8.97648 52.9859 8.98105 52.9806 8.98531 52.9751C9.09577 52.8383 9.2073 52.7026 9.31776 52.5658L9.31782 52.5657C9.32371 52.1464 9.2756 51.7282 9.17468 51.3212L9.17458 51.3212Z" fill="#F2F2F2"/>
<path d="M57.3676 51.3212C57.4433 51.3247 57.5182 51.3048 57.5823 51.2642C57.6463 51.2237 57.6964 51.1644 57.7256 51.0945C57.7548 51.0246 57.7619 50.9474 57.7458 50.8733C57.7296 50.7992 57.6911 50.7319 57.6355 50.6805C57.6262 50.6434 57.6195 50.6168 57.6102 50.5798C57.6135 50.5717 57.6168 50.5637 57.6202 50.5556C57.6965 50.3754 57.8243 50.2218 57.9876 50.1141C58.1509 50.0063 58.3424 49.9492 58.538 49.95C58.7337 49.9507 58.9247 50.0092 59.0872 50.1182C59.2497 50.2271 59.3764 50.3817 59.4513 50.5624C59.7508 51.2837 60.1321 52.0062 60.226 52.7689C60.2673 53.106 60.2499 53.4477 60.1744 53.7789C60.8778 52.2445 61.2431 50.5768 61.2455 48.8888C61.2456 48.4653 61.2221 48.042 61.175 47.6211C61.136 47.276 61.082 46.9334 61.0129 46.5932C60.6359 44.7474 59.8265 43.0175 58.651 41.5453C58.0821 41.2349 57.622 40.7576 57.3328 40.1776C57.228 39.9691 57.1539 39.7466 57.1129 39.5169C57.1771 39.5253 57.2423 39.5306 57.3065 39.5348C57.3265 39.5358 57.3475 39.5369 57.3675 39.5379L57.375 39.5383C57.4456 39.5414 57.5155 39.5242 57.5764 39.4885C57.6374 39.4528 57.6867 39.4003 57.7185 39.3373C57.7503 39.2742 57.7632 39.2033 57.7556 39.1331C57.748 39.0629 57.7203 38.9964 57.6758 38.9416C57.6481 38.9075 57.6204 38.8734 57.5926 38.8394C57.5506 38.7868 57.5074 38.7352 57.4653 38.6826C57.4605 38.6776 57.4559 38.6723 57.4517 38.6668C57.4033 38.6068 57.3549 38.5479 57.3065 38.488C57.3948 38.3508 57.5136 38.236 57.6537 38.1524C58.1387 37.8683 58.8078 38.065 59.1581 38.5037C59.5095 38.9425 59.5758 39.5579 59.4538 40.1061C59.3338 40.5725 59.1352 41.0151 58.8667 41.4148C58.893 41.4485 58.9204 41.4811 58.9467 41.5148C59.4275 42.1331 59.8465 42.7969 60.1978 43.4969C60.1124 42.7127 60.2144 41.9194 60.4953 41.1823C60.7801 40.4954 61.3138 39.9168 61.7839 39.323C62.3484 38.6096 63.5061 38.9209 63.6056 39.8252C63.6066 39.834 63.6075 39.8427 63.6084 39.8515C63.5386 39.8908 63.4703 39.9326 63.4034 39.9769C63.3194 40.033 63.2543 40.1132 63.2167 40.2069C63.179 40.3007 63.1706 40.4036 63.1924 40.5022C63.2143 40.6009 63.2654 40.6906 63.3391 40.7597C63.4129 40.8287 63.5057 40.8739 63.6056 40.8893L63.6158 40.8909C63.5909 41.1425 63.547 41.3919 63.4843 41.6368C63.3027 42.3207 62.9818 42.9596 62.5417 43.5136C62.1015 44.0676 61.5517 44.5247 60.9267 44.8562C60.8857 44.8772 60.8457 44.8983 60.8046 44.9183C61.1576 45.9185 61.379 46.9604 61.4632 48.0177C61.511 48.6415 61.5081 49.2681 61.4548 49.8915L61.458 49.8694C61.5927 49.1762 61.9624 48.5508 62.5048 48.0987C63.3104 47.4369 64.4485 47.1933 65.3176 46.6613C65.41 46.602 65.5174 46.5704 65.6271 46.5701C65.7369 46.5698 65.8444 46.601 65.9371 46.6598C66.0298 46.7187 66.1036 46.8028 66.1501 46.9023C66.1965 47.0017 66.2135 47.1124 66.1991 47.2212C66.1979 47.2289 66.1967 47.2367 66.1955 47.2444C66.0659 47.2972 65.9398 47.358 65.8178 47.4264C65.748 47.4658 65.6796 47.5076 65.6128 47.5518C65.5288 47.608 65.4637 47.6881 65.426 47.7819C65.3884 47.8756 65.3799 47.9786 65.4018 48.0772C65.4237 48.1758 65.4748 48.2656 65.5485 48.3346C65.6222 48.4037 65.7151 48.4489 65.8149 48.4643L65.8252 48.4659C65.8325 48.4669 65.8388 48.468 65.8462 48.469C65.6248 48.9976 65.3141 49.4841 64.9277 49.9072C64.4504 50.4194 63.8735 50.8287 63.2323 51.1101C62.5912 51.3914 61.8993 51.5388 61.1992 51.5432H61.1981C61.0081 52.3691 60.7327 53.173 60.3764 53.9419H57.4411C57.4306 53.9093 57.4211 53.8757 57.4117 53.843C57.6834 53.8601 57.9561 53.8439 58.2239 53.7947C58.0061 53.5274 57.7883 53.2581 57.5705 52.9909C57.5657 52.9859 57.5611 52.9806 57.5569 52.9751C57.4464 52.8383 57.3349 52.7026 57.2244 52.5658L57.2244 52.5657C57.2185 52.1464 57.2667 51.7281 57.3676 51.3212Z" fill="#F2F2F2"/>
<path d="M21.0209 52.6298H21.7315L22.0697 49.8887H21.0209V52.6298Z" fill="#9E616A"/>
<path d="M20.7889 52.143L21.9243 52.0752V52.5616L23.0037 53.3071C23.057 53.3439 23.0972 53.3968 23.1183 53.4581C23.1394 53.5193 23.1404 53.5857 23.1211 53.6476C23.1019 53.7094 23.0633 53.7635 23.0111 53.8019C22.9589 53.8403 22.8958 53.861 22.831 53.861H21.4793L21.2464 53.3798L21.1554 53.861H20.6457L20.7889 52.143Z" fill="#2F2E41"/>
<path d="M12.1139 52.0263L12.7742 52.2891L14.1021 49.8674L13.1277 49.4795L12.1139 52.0263Z" fill="#9E616A"/>
<path d="M12.0784 51.4883L13.1583 51.8452L12.9784 52.2972L13.7056 53.389C13.7415 53.4429 13.7593 53.5069 13.7562 53.5717C13.7532 53.6364 13.7296 53.6984 13.6888 53.7488C13.648 53.7991 13.5922 53.8351 13.5295 53.8515C13.4668 53.8678 13.4005 53.8637 13.3403 53.8398L12.0845 53.3399L12.046 52.8066L11.7835 53.2201L11.31 53.0316L12.0784 51.4883Z" fill="#2F2E41"/>
<path d="M19.5884 44.4728L18.4033 38.9426L16.5528 45.0871L13.6227 50.9137L13.6072 50.9447L12.679 50.4449C12.548 48.0791 12.8591 45.8621 13.997 43.9235L14.5358 38.6024C14.5523 38.4206 14.9542 34.1522 16.2269 33.3953L16.5996 32.5454L20.3066 31.6299L20.3201 31.6451C20.6765 32.0457 20.912 32.5393 20.9991 33.0684L22.1068 39.7788L22.1074 39.7825L21.8104 44.4638L22.2167 51.3701H20.7467C19.8373 49.659 19.4512 47.3599 19.5884 44.4728Z" fill="#2F2E41"/>
<path d="M37.693 21.9075C37.693 23.4792 40.027 26.2394 40.539 24.7534C41.1657 22.934 42.5027 21.7807 43.3849 21.9075C44.9407 22.131 42.1107 19.0615 40.539 19.0615C39.7842 19.0615 39.0603 19.3614 38.5266 19.8951C37.9929 20.4288 37.693 21.1527 37.693 21.9075Z" fill="#E6E6E6"/>
<path d="M37.0952 12.9938C36.7261 14.5216 38.3694 15.8397 39.9412 15.8397C40.3149 15.8397 40.685 15.7661 41.0303 15.6231C41.3755 15.4801 41.6893 15.2704 41.9535 15.0062C42.2178 14.7419 42.4274 14.4282 42.5705 14.0829C42.7135 13.7376 42.7871 13.3675 42.7871 12.9938C42.7871 11.422 40.6686 11.5411 39.9412 10.1479C39.1084 8.55285 37.8886 9.70965 37.0952 12.9938Z" fill="#E6E6E6"/>
<path d="M23.9437 12.8743C23.9437 13.6291 24.2436 14.353 24.7773 14.8867C25.311 15.4204 26.0349 15.7202 26.7896 15.7202C28.3614 15.7202 29.6813 14.4454 29.6356 12.8743C29.5399 9.58303 28.2649 8.29335 26.7896 10.0284C25.7715 11.2258 23.9437 11.3025 23.9437 12.8743Z" fill="#E6E6E6"/>
<path d="M23.7046 21.9075C22.3764 21.3333 24.6831 24.2757 26.5505 24.7534C28.0733 25.1429 29.3965 23.4792 29.3965 21.9075C29.3965 21.5337 29.3229 21.1636 29.1798 20.8184C29.0368 20.4731 28.8272 20.1593 28.5629 19.8951C28.2986 19.6308 27.9849 19.4212 27.6396 19.2782C27.2943 19.1351 26.9243 19.0615 26.5505 19.0615C24.9788 19.0615 25.1473 22.5311 23.7046 21.9075Z" fill="#E6E6E6"/>
<path d="M55.7291 3.52785H9.25275C9.20441 3.52682 9.1584 3.50689 9.12458 3.47235C9.09076 3.4378 9.07182 3.39137 9.07182 3.34302C9.07182 3.29468 9.09076 3.24825 9.12458 3.21371C9.1584 3.17916 9.20441 3.15923 9.25275 3.1582H55.7291C55.7774 3.15923 55.8234 3.17916 55.8572 3.21371C55.8911 3.24825 55.91 3.29468 55.91 3.34302C55.91 3.39137 55.8911 3.4378 55.8572 3.47235C55.8234 3.50689 55.7774 3.52682 55.7291 3.52785Z" fill="#CACACA"/>
<path d="M12.4165 2.21458C13.0147 2.21458 13.4996 1.71883 13.4996 1.10729C13.4996 0.495751 13.0147 0 12.4165 0C11.8182 0 11.3333 0.495751 11.3333 1.10729C11.3333 1.71883 11.8182 2.21458 12.4165 2.21458Z" fill="#3F3D56"/>
<path d="M16.1583 2.21458C16.7565 2.21458 17.2414 1.71883 17.2414 1.10729C17.2414 0.495751 16.7565 0 16.1583 0C15.56 0 15.0751 0.495751 15.0751 1.10729C15.0751 1.71883 15.56 2.21458 16.1583 2.21458Z" fill="#3F3D56"/>
<path d="M19.9 2.21458C20.4983 2.21458 20.9832 1.71883 20.9832 1.10729C20.9832 0.495751 20.4983 0 19.9 0C19.3018 0 18.8169 0.495751 18.8169 1.10729C18.8169 1.71883 19.3018 2.21458 19.9 2.21458Z" fill="#3F3D56"/>
<path d="M53.4762 0.274414H50.8182C50.7655 0.275456 50.7154 0.297119 50.6785 0.334749C50.6416 0.372378 50.6209 0.422975 50.6209 0.475672C50.6209 0.528369 50.6416 0.578965 50.6785 0.616594C50.7154 0.654223 50.7655 0.675886 50.8182 0.676928H53.4762C53.5289 0.675886 53.5791 0.654223 53.616 0.616594C53.6529 0.578965 53.6735 0.528369 53.6735 0.475672C53.6735 0.422975 53.6529 0.372378 53.616 0.334749C53.5791 0.297119 53.5289 0.275456 53.4762 0.274414Z" fill="#3F3D56"/>
<path d="M53.4762 1.03027H50.8182C50.7655 1.03132 50.7154 1.05299 50.6785 1.09062C50.6416 1.12824 50.6209 1.17884 50.6209 1.23153C50.6209 1.28422 50.6416 1.33482 50.6785 1.37244C50.7154 1.41007 50.7655 1.43174 50.8182 1.43279H53.4762C53.5289 1.43174 53.5791 1.41007 53.616 1.37244C53.6528 1.33482 53.6735 1.28422 53.6735 1.23153C53.6735 1.17884 53.6528 1.12824 53.616 1.09062C53.5791 1.05299 53.5289 1.03132 53.4762 1.03027Z" fill="#3F3D56"/>
<path d="M53.4762 1.78418H50.8182C50.7655 1.78523 50.7154 1.80689 50.6785 1.84452C50.6416 1.88215 50.6209 1.93274 50.6209 1.98544C50.6209 2.03813 50.6416 2.08872 50.6785 2.12635C50.7154 2.16398 50.7655 2.18564 50.8182 2.18669H53.4762C53.5289 2.18564 53.5791 2.16398 53.616 2.12635C53.6528 2.08872 53.6735 2.03813 53.6735 1.98544C53.6735 1.93274 53.6528 1.88215 53.616 1.84452C53.5791 1.80689 53.5289 1.78523 53.4762 1.78418Z" fill="#3F3D56"/>
<path d="M40.2205 11.7021H36.4138C36.3347 11.7021 36.2563 11.7177 36.1832 11.748C36.1101 11.7783 36.0437 11.8227 35.9878 11.8786C35.9319 11.9345 35.8875 12.001 35.8572 12.074C35.8269 12.1471 35.8113 12.2255 35.8113 12.3046V16.1114C35.8113 16.2711 35.8748 16.4244 35.9878 16.5374C36.1008 16.6503 36.254 16.7138 36.4138 16.7138H40.2205C40.3803 16.7138 40.5336 16.6503 40.6465 16.5374C40.7595 16.4244 40.823 16.2711 40.823 16.1114V12.3046C40.823 12.1448 40.7595 11.9916 40.6465 11.8786C40.5336 11.7656 40.3803 11.7021 40.2205 11.7021ZM39.5057 12.9874H39.0692C38.7711 12.9874 38.7131 13.1285 38.7131 13.3369V13.7787H39.424L39.3316 14.4724H38.7118V16.2813C38.4468 16.3311 38.1747 16.3304 37.9099 16.2794V14.4724H37.3415V13.7787H37.9205V13.2657C37.9205 12.6524 38.3465 12.3174 38.8951 12.3174C39.1589 12.3174 39.4411 12.3372 39.5057 12.3464V12.9874Z" fill="#7000FF"/>
<path d="M30.6984 11.7021H26.8916C26.7319 11.7021 26.5786 11.7656 26.4656 11.8786C26.3526 11.9916 26.2892 12.1448 26.2892 12.3046V16.1114C26.2892 16.2711 26.3526 16.4244 26.4656 16.5374C26.5786 16.6503 26.7319 16.7138 26.8916 16.7138H30.6984C30.8582 16.7138 31.0114 16.6503 31.1244 16.5374C31.2374 16.4244 31.3008 16.2711 31.3008 16.1114V12.3046C31.3008 12.1448 31.2374 11.9916 31.1244 11.8786C31.0114 11.7656 30.8582 11.7021 30.6984 11.7021ZM28.795 15.5444C28.5307 15.5444 28.2723 15.466 28.0525 15.3192C27.8327 15.1723 27.6614 14.9636 27.5603 14.7194C27.4591 14.4752 27.4327 14.2065 27.4842 13.9473C27.5358 13.688 27.6631 13.4499 27.85 13.263C28.0369 13.0761 28.275 12.9488 28.5343 12.8972C28.7935 12.8456 29.0622 12.8721 29.3064 12.9733C29.5506 13.0744 29.7594 13.2457 29.9062 13.4655C30.0531 13.6853 30.1314 13.9437 30.1314 14.208C30.1314 14.5624 29.9906 14.9024 29.74 15.153C29.4894 15.4036 29.1494 15.5444 28.795 15.5444ZM30.2985 12.8715C30.2324 12.8715 30.1678 12.8519 30.1129 12.8152C30.0579 12.7785 30.0151 12.7263 29.9898 12.6653C29.9645 12.6042 29.9579 12.5371 29.9708 12.4722C29.9837 12.4074 30.0155 12.3479 30.0622 12.3012C30.109 12.2544 30.1685 12.2226 30.2333 12.2097C30.2981 12.1968 30.3653 12.2035 30.4264 12.2287C30.4874 12.254 30.5396 12.2969 30.5763 12.3518C30.613 12.4067 30.6326 12.4713 30.6326 12.5374C30.6326 12.626 30.5974 12.711 30.5347 12.7737C30.4721 12.8363 30.3871 12.8715 30.2985 12.8715Z" fill="#7000FF"/>
<path d="M41.1377 20.6934C41.2462 20.6942 41.3533 20.7188 41.4513 20.7654C41.5494 20.812 41.636 20.8796 41.7051 20.9633C41.7742 21.047 41.8241 21.1449 41.8513 21.2499C41.8785 21.355 41.8823 21.4648 41.8625 21.5716L43.2848 22.497L42.9332 23.4985L40.943 22.1634C40.7659 22.1182 40.6115 22.0096 40.5091 21.8582C40.4067 21.7068 40.3634 21.5231 40.3874 21.3419C40.4114 21.1607 40.501 20.9946 40.6393 20.8751C40.7776 20.7556 40.9549 20.691 41.1377 20.6934Z" fill="#FFB6B6"/>
<path d="M41.6442 23.1271L42.6594 21.9551L43.9711 22.5634L46.6516 24.6966C47.003 24.7377 49.6695 25.0818 49.6205 26.0611C49.6193 26.1755 49.5933 26.2883 49.5444 26.3918C49.4954 26.4953 49.4247 26.5869 49.337 26.6604C48.9161 27.0078 48.1868 26.9092 48.1595 26.9052L46.4145 26.8179C46.3232 26.8399 45.3759 27.0575 44.8745 26.7461C44.7224 26.6516 41.6442 23.1271 41.6442 23.1271Z" fill="#3F3D56"/>
<path d="M44.5718 53.0645L43.7404 53.0644L43.3449 49.8574H44.5719L44.5718 53.0645Z" fill="#FFB6B6"/>
<path d="M44.7839 53.8699L42.103 53.8698V53.8359C42.103 53.5591 42.2129 53.2937 42.4086 53.0981C42.6043 52.9024 42.8697 52.7924 43.1464 52.7924L43.6362 52.4209L44.5499 52.7925L44.7839 52.7925L44.7839 53.8699Z" fill="#2F2E41"/>
<path d="M53.6976 52.4135L52.8962 52.6349L51.661 49.6489L52.8439 49.3223L53.6976 52.4135Z" fill="#FFB6B6"/>
<path d="M54.1166 53.1341L51.5325 53.8478L51.5234 53.8151C51.4498 53.5484 51.4851 53.2633 51.6216 53.0226C51.7581 52.7818 51.9847 52.6052 52.2514 52.5315L52.6246 52.043L53.6042 52.1578L53.8298 52.0955L54.1166 53.1341Z" fill="#2F2E41"/>
<path d="M44.6085 33.6562L50.8911 33.9768L50.8931 33.9825C51.2694 35.0278 51.3573 36.1552 51.1475 37.2463L51.3398 38.849L52.3014 43.8494L53.5836 50.2602C53.5836 50.2602 55.2504 50.709 53.0707 51.4783C50.8911 52.2475 51.3398 51.7988 51.6604 51.2218C51.9809 50.6448 50.0897 44.1379 50.0897 44.1379L47.7818 38.9452L45.538 44.3302L45.2816 50.2923C45.2816 50.2923 45.9548 51.0936 44.0315 51.4141C42.1083 51.7347 42.2044 51.1257 42.6532 50.6769C43.1019 50.2281 43.4866 44.2661 43.4866 44.2661L43.9354 38.6246C43.9354 38.6246 43.8071 35.3551 44.6085 33.6562Z" fill="#2F2E41"/>
<path d="M50.7516 26.332L50.2465 25.0071L48.6198 23.4049L46.5597 23.2432L45.0456 24.5988L44.6174 25.9473C45.179 28.5475 45.1675 30.9423 44.3718 33.2624C44.3153 33.4227 44.2944 33.5935 44.3107 33.7628C44.327 33.9321 44.38 34.0958 44.466 34.2425C44.5521 34.3892 44.6691 34.5153 44.8089 34.6121C44.9487 34.709 45.1079 34.7741 45.2755 34.8031C47.6094 35.1953 51.9553 35.7833 51.656 34.6638C51.26 33.1829 49.8823 29.9953 50.3926 28.3098C50.5784 27.7241 50.6952 27.1189 50.7409 26.5062L50.7516 26.332Z" fill="#3F3D56"/>
<path d="M47.2434 22.7262C48.2588 22.7262 49.082 21.903 49.082 20.8875C49.082 19.872 48.2588 19.0488 47.2434 19.0488C46.2279 19.0488 45.4047 19.872 45.4047 20.8875C45.4047 21.903 46.2279 22.7262 47.2434 22.7262Z" fill="#FFB6B6"/>
<path d="M46.7416 22.6299L48.1431 22.5584C48.3227 22.5493 48.5187 22.5334 48.6493 22.4098C48.7196 22.3335 48.7736 22.2437 48.8082 22.1459C48.9378 21.8449 49.0674 21.5439 49.1936 21.2416C49.3683 20.8233 49.5398 20.3817 49.4952 19.9307C49.4848 19.7247 49.3984 19.5299 49.2527 19.3838C49.1784 19.3135 49.0829 19.2697 48.981 19.2594C48.8792 19.2491 48.7768 19.2728 48.6899 19.3268C48.6683 19.1841 48.6145 19.0482 48.5327 18.9294C48.4508 18.8106 48.343 18.7119 48.2174 18.6409C47.9638 18.5007 47.6742 18.4393 47.3855 18.4645C46.9667 18.4915 46.5668 18.6491 46.2421 18.9151C46.1508 18.9994 46.0533 19.0767 45.9504 19.1463C45.8987 19.1809 45.8404 19.2046 45.7792 19.2159C45.718 19.2272 45.6551 19.226 45.5944 19.2122C45.5343 19.1961 45.482 19.1588 45.4472 19.1072C45.4125 19.0556 45.3975 18.9931 45.4053 18.9313C45.3066 19.0051 45.2389 19.1131 45.2154 19.2341C45.192 19.3551 45.2145 19.4805 45.2785 19.5858C45.2057 19.6163 45.1263 19.6274 45.048 19.6181C44.9696 19.6089 44.895 19.5795 44.8314 19.5329C44.7632 19.5667 44.7029 19.6144 44.6542 19.6729C44.6055 19.7314 44.5696 19.7994 44.5487 19.8726C44.5278 19.9458 44.5225 20.0226 44.533 20.0979C44.5435 20.1733 44.5696 20.2457 44.6097 20.3104C44.6498 20.3751 44.7029 20.4307 44.7658 20.4736C44.8286 20.5166 44.8997 20.546 44.9745 20.5599C45.0493 20.5738 45.1262 20.5719 45.2003 20.5544C45.2744 20.5368 45.3439 20.504 45.4046 20.458C45.4896 20.5772 45.458 20.7391 45.4469 20.8851C45.4358 21.031 45.4749 21.2124 45.6157 21.2528C45.8059 21.3073 45.96 21.0512 46.1579 21.0539C46.2067 21.0579 46.2538 21.0738 46.295 21.1004C46.3361 21.1269 46.3701 21.1632 46.3939 21.206C46.4405 21.292 46.4724 21.3852 46.4884 21.4818L46.7416 22.6219" fill="#2F2E41"/>
<path d="M37.3537 25.555C36.6535 25.5555 35.9684 25.3524 35.3816 24.9705L35.0863 24.7786L35.4364 24.8174C35.528 24.8276 35.6268 24.8335 35.7298 24.835C36.2017 24.8354 36.6636 24.6996 37.0602 24.444C36.8245 24.393 36.6062 24.2813 36.427 24.12C36.2477 23.9587 36.1137 23.7534 36.0382 23.5243L35.9944 23.3893L36.1337 23.4166C36.197 23.4291 36.2612 23.4363 36.3257 23.4382C36.1049 23.3246 35.9195 23.1524 35.79 22.9406C35.6604 22.7288 35.5915 22.4854 35.5909 22.237V22.0939L35.7155 22.149C35.7893 22.1906 35.8676 22.2238 35.9488 22.2482C35.7567 22.0327 35.6375 21.7622 35.6079 21.4751C35.5784 21.188 35.64 20.8989 35.7842 20.6488L35.845 20.5439L35.9214 20.6381C36.4775 21.3262 37.2743 21.7773 38.1505 21.8999C38.1745 21.9033 38.199 21.9015 38.2223 21.8946C38.2456 21.8876 38.267 21.8757 38.2853 21.8597C38.3039 21.8435 38.3188 21.8235 38.3291 21.801C38.3393 21.7786 38.3446 21.7542 38.3446 21.7295C38.3425 21.4625 38.42 21.2009 38.5672 20.978C38.7144 20.7552 38.9246 20.5813 39.171 20.4784C39.4174 20.3755 39.6889 20.3483 39.9508 20.4003C40.2128 20.4523 40.4533 20.5811 40.6417 20.7703C40.8996 20.714 41.1468 20.6169 41.3741 20.4827L41.5658 20.3691L41.4959 20.5807C41.4312 20.777 41.3226 20.956 41.1783 21.104C41.3063 21.0707 41.4314 21.0272 41.5526 20.9741L41.8124 20.8599L41.6558 21.0966C41.49 21.3477 41.2828 21.569 41.0431 21.7509V21.8717C41.0431 23.6823 39.6658 25.555 37.3611 25.555L37.3537 25.555Z" fill="#7000FF"/>
<path d="M39.0047 24.2663C39.1132 24.2618 39.2213 24.2812 39.3215 24.323C39.4217 24.3648 39.5114 24.4281 39.5845 24.5084C39.6576 24.5887 39.7121 24.6841 39.7444 24.7877C39.7766 24.8914 39.7857 25.0009 39.771 25.1084L41.2363 25.9643L40.9334 26.9816L38.8811 25.7439C38.7021 25.7073 38.5426 25.6063 38.4331 25.46C38.3235 25.3137 38.2714 25.1323 38.2866 24.9502C38.3019 24.768 38.3834 24.5978 38.5157 24.4718C38.6481 24.3457 38.8221 24.2726 39.0047 24.2663Z" fill="#FFB6B6"/>
<path d="M40.73 27.4593L39.6356 26.275L40.3943 25.1408L41.2119 25.8268L42.1059 26.0407L43.3673 26.519C43.5429 26.2119 44.9055 23.8941 45.787 24.3233C45.8918 24.3693 45.9854 24.4375 46.0614 24.5231C46.1374 24.6087 46.1939 24.7097 46.2271 24.8192C46.3816 25.3426 46.0048 25.9748 45.9904 25.9983L45.2255 27.5692C45.21 27.6618 45.0385 28.6185 44.5554 28.9576C44.4871 29.0075 44.4092 29.0427 44.3266 29.061C44.244 29.0792 44.1585 29.0801 44.0755 29.0636C42.5742 28.7797 41.5163 28.3406 40.9765 27.782C40.8813 27.6851 40.7985 27.5767 40.73 27.4593Z" fill="#3F3D56"/>
<path d="M21.2634 22.881C21.0949 22.5186 21.3623 22.1141 21.4577 21.724C21.6357 20.9962 21.1341 20.2082 20.4541 19.9559C19.7742 19.7037 18.9928 19.9145 18.4087 20.3559C17.8361 20.7885 17.4336 20.9923 17.0392 21.6036C16.9069 21.8086 16.7669 22.445 16.7418 22.6905C16.7168 22.936 16.8438 23.2173 17.0754 23.2712C17.0532 23.315 17.0435 23.364 17.0472 23.413C17.051 23.4619 17.0681 23.5089 17.0967 23.5488C17.1253 23.5887 17.1643 23.62 17.2095 23.6393C17.2546 23.6586 17.3042 23.6651 17.3528 23.6582C17.7961 23.5725 18.6101 23.8079 18.6101 23.8079C19.3692 23.8513 20.1282 23.8948 20.8872 23.9382C21.0817 23.9494 21.2835 23.9595 21.4582 23.852C21.5066 23.8237 21.5482 23.7853 21.5803 23.7394C21.6124 23.6935 21.6341 23.6412 21.6441 23.586C21.6885 23.2985 21.3795 23.1308 21.2634 22.881Z" fill="#2F2E41"/>
<path d="M21.8366 26.051L21.6705 27.1565L21.4071 28.9081L21.3625 29.5571L21.0347 34.3135L20.1319 35.0079C19.6093 35.4099 18.9569 35.6055 18.2992 35.5572C17.6415 35.509 17.0247 35.2203 16.5663 34.7462L15.4701 34.2185C16.0576 33.6405 15.9483 30.9618 15.9483 30.9618L15.9417 25.7006L17.4277 25.2009L17.9172 24.2373H19.6731L20.1121 25.2616L20.9088 25.626L21.2717 25.7928L21.8366 26.051Z" fill="#E6E6E6"/>
<path d="M18.8676 23.7437C19.6876 23.7437 20.3523 23.079 20.3523 22.2591C20.3523 21.4391 19.6876 20.7744 18.8676 20.7744C18.0477 20.7744 17.383 21.4391 17.383 22.2591C17.383 23.079 18.0477 23.7437 18.8676 23.7437Z" fill="#9E616A"/>
<path d="M18.0194 21.7925C17.6272 21.7931 17.2444 21.6723 16.9235 21.4467L16.9128 21.4392C16.9128 21.2496 16.9501 21.0618 17.0227 20.8866C17.0953 20.7114 17.2017 20.5522 17.3358 20.4181C17.4699 20.284 17.6291 20.1776 17.8043 20.105C17.9795 20.0325 18.1673 19.9951 18.3569 19.9951H18.9464C19.1348 19.9953 19.3213 20.0327 19.4952 20.1051C19.6691 20.1775 19.8271 20.2834 19.96 20.417C20.0929 20.5505 20.1982 20.7089 20.2698 20.8831C20.3415 21.0574 20.378 21.244 20.3774 21.4324C20.3762 21.5184 20.3414 21.6005 20.2806 21.6613C20.2197 21.7221 20.1375 21.7567 20.0515 21.7577L18.0533 21.7922C18.042 21.7924 18.0307 21.7925 18.0194 21.7925Z" fill="#2F2E41"/>
<path d="M22.3653 29.1035L21.0205 29.1145L20.9216 31.5081L19.829 32.8458C19.6961 32.8682 19.5719 32.9269 19.4702 33.0154C19.3686 33.1039 19.2934 33.2188 19.2529 33.3474C19.2124 33.476 19.2083 33.6132 19.2409 33.744C19.2736 33.8748 19.3417 33.994 19.4378 34.0885C19.534 34.183 19.6544 34.249 19.7857 34.2794C19.917 34.3097 20.0542 34.3032 20.182 34.2605C20.3099 34.2178 20.4235 34.1406 20.5102 34.0374C20.5969 33.9342 20.6534 33.809 20.6735 33.6757L22.1787 31.5891L22.3653 29.1035Z" fill="#9E616A"/>
<path d="M15.2744 29.1747L13.8958 28.5303L12.3905 30.3939L10.716 30.8174C10.5959 30.7562 10.4612 30.7294 10.3268 30.7399C10.1924 30.7504 10.0636 30.7979 9.95448 30.877C9.84537 30.9562 9.76028 31.064 9.70858 31.1885C9.65689 31.313 9.64061 31.4493 9.66154 31.5825C9.68248 31.7156 9.73981 31.8404 9.82721 31.943C9.91461 32.0456 10.0287 32.1221 10.1568 32.164C10.2849 32.2058 10.4221 32.2115 10.5533 32.1803C10.6844 32.149 10.8043 32.0822 10.8999 31.9871L13.3519 31.2078L15.2744 29.1747Z" fill="#9E616A"/>
<path d="M19.6105 23.6286L20.1245 22.9874C20.18 22.9312 20.2162 22.8587 20.2277 22.7806C20.2304 22.7022 20.1565 22.6183 20.082 22.6429C20.0129 22.6657 19.6145 21.6675 19.5417 21.6678C19.4663 21.668 19.4416 21.5674 19.4407 21.4919C19.4371 21.206 19.6694 21.513 19.7463 21.2376C19.8231 20.9622 20.1226 21.199 20.3807 21.076C20.6388 20.953 20.9895 21.0089 21.149 21.2461C21.2673 21.4221 21.2629 21.6506 21.2473 21.862C21.2108 22.3526 21.137 22.8397 21.0265 23.319C20.9993 23.4368 20.9589 23.5684 20.8504 23.6216C20.7906 23.6452 20.7263 23.6548 20.6622 23.6497L19.8708 23.6458" fill="#2F2E41"/>
<path d="M20.8437 20.8715C21.2478 20.8715 21.5754 20.5439 21.5754 20.1398C21.5754 19.7358 21.2478 19.4082 20.8437 19.4082C20.4396 19.4082 20.1121 19.7358 20.1121 20.1398C20.1121 20.5439 20.4396 20.8715 20.8437 20.8715Z" fill="#2F2E41"/>
<path d="M22.4892 29.0804C22.4102 29.2179 22.2419 29.2728 22.0882 29.3153C21.8805 29.3731 21.8197 29.4316 21.6119 29.4894C21.5293 29.5128 21.4459 29.5362 21.3625 29.5574C21.2255 29.5943 21.0865 29.6229 20.9461 29.643C20.8284 29.6599 20.6893 29.6599 20.6125 29.5684C20.5616 29.4899 20.541 29.3954 20.5547 29.3028C20.5847 28.179 20.615 27.0552 20.6454 25.9314L20.7091 25.9534C20.7378 25.9345 20.7676 25.9174 20.7984 25.9022C20.9448 25.8275 21.1074 25.7901 21.2717 25.7931C21.3658 25.7939 21.4592 25.8084 21.549 25.8363C21.6885 25.8806 21.8166 25.9547 21.9245 26.0535C22.0324 26.1523 22.1175 26.2734 22.1738 26.4084C22.2468 26.6123 22.2815 26.8278 22.2763 27.0442C22.277 27.0772 22.277 27.1101 22.2777 27.143C22.2821 27.424 22.1395 27.7049 22.1438 27.9859C22.1405 28.065 22.1514 28.144 22.176 28.2193C22.2053 28.2939 22.2624 28.3561 22.2843 28.4336C22.3063 28.5104 22.2704 28.6158 22.1907 28.6217C22.247 28.6157 22.3039 28.6253 22.3551 28.6497C22.4062 28.674 22.4497 28.712 22.4806 28.7595C22.5115 28.807 22.5286 28.8621 22.5302 28.9187C22.5317 28.9754 22.5175 29.0313 22.4892 29.0804Z" fill="#E6E6E6"/>
<path d="M15.9479 25.7075C16.0942 25.7163 16.2367 25.7573 16.3654 25.8276C16.494 25.8978 16.6056 25.9956 16.692 26.1139C16.7785 26.2323 16.8378 26.3682 16.8657 26.5121C16.8936 26.656 16.8894 26.8043 16.8534 26.9464C16.7769 27.1837 16.6567 27.4047 16.4989 27.5978L16.0072 28.2823C15.9573 28.3436 15.9189 28.4135 15.8939 28.4885C15.8732 28.5661 15.8814 28.6502 15.853 28.7254C15.8247 28.8005 15.7334 28.8636 15.6656 28.8205C15.7145 28.8492 15.7544 28.8909 15.781 28.9409C15.8076 28.9909 15.8199 29.0473 15.8165 29.1039C15.8131 29.1604 15.7941 29.2149 15.7616 29.2613C15.7292 29.3078 15.6845 29.3443 15.6326 29.367C15.4867 29.4307 15.3191 29.3739 15.1704 29.317L14.5665 29.0859C14.3517 29.0092 14.1425 28.918 13.9401 28.8129C13.8356 28.7555 13.724 28.6728 13.7166 28.5538C13.7108 28.4612 13.7891 28.39 13.8284 28.3059C14.3202 27.253 15.0435 26.4151 15.9417 25.7012L15.9479 25.7075Z" fill="#E6E6E6"/>
<path d="M16.6544 32.0452C16.6544 31.4564 16.2205 30.982 15.6777 30.982C14.9508 30.9471 14.2113 30.9346 13.4551 30.9346H13.2193C12.4645 30.9346 11.7223 30.9471 10.9967 30.982C10.4624 30.982 10.0285 31.4578 10.0285 32.048C9.99497 32.5154 9.98101 32.9814 9.98241 33.4432C9.98381 33.905 9.99497 34.3766 10.0271 34.8384C10.0271 35.4286 10.461 35.9071 10.9953 35.9071C11.7571 35.942 12.5399 35.9574 13.3351 35.9574C14.1304 35.9574 14.9117 35.9434 15.6763 35.9071C16.2121 35.9071 16.653 35.4286 16.653 34.8384C16.6837 34.371 16.699 33.905 16.6976 33.4362C16.6962 32.9674 16.6851 32.5042 16.6544 32.041L16.6544 32.0452ZM12.7017 34.7338V32.1582L14.602 33.4446L12.7017 34.7338Z" fill="#7000FF"/>
<path d="M66.1597 54.143L0.403367 54.1745C0.371121 54.1744 0.340227 54.1615 0.317459 54.1387C0.294691 54.1158 0.281908 54.0849 0.281908 54.0527C0.281908 54.0204 0.294691 53.9895 0.317459 53.9667C0.340227 53.9438 0.371121 53.9309 0.403367 53.9309L66.1597 53.8994C66.192 53.8995 66.2229 53.9124 66.2457 53.9352C66.2684 53.958 66.2812 53.989 66.2812 54.0212C66.2812 54.0535 66.2684 54.0844 66.2457 54.1072C66.2229 54.1301 66.192 54.1429 66.1597 54.143Z" fill="#CACACA"/>
</g>
<defs>
<clipPath id="clip0_612_6847">
<rect width="66" height="54.1741" fill="white" transform="translate(0.281555)"/>
</clipPath>
</defs>
</svg>
