<svg width="78" height="78" viewBox="0 0 78 78" fill="none" xmlns="http://www.w3.org/2000/svg">
<g clip-path="url(#clip0_709_4783)">
<rect width="77.2815" height="77.2815" rx="15" fill="white"/>
<g clip-path="url(#clip1_709_4783)">
<path d="M17.9391 58.2913C24.5322 58.2808 29.8764 57.9248 29.8757 57.4963C29.875 57.0678 24.5297 56.729 17.9366 56.7396C11.3435 56.7502 5.99931 57.1061 6 57.5346C6.00069 57.9631 11.346 58.3019 17.9391 58.2913Z" fill="#E6E6E6"/>
<path d="M43.1908 48.1252C48.3676 48.1169 52.5638 47.8374 52.5633 47.501C52.5628 47.1645 48.3657 46.8985 43.1888 46.9068C38.012 46.9151 33.8158 47.1946 33.8163 47.5311C33.8169 47.8675 38.014 48.1335 43.1908 48.1252Z" fill="#E6E6E6"/>
<path d="M60.1596 58.6698C66.7007 58.6593 72.0019 57.7137 72 56.5578C71.9981 55.402 66.694 54.4734 60.1529 54.4839C53.6118 54.4944 48.3106 55.44 48.3125 56.5959C48.3143 57.7518 53.6185 58.6803 60.1596 58.6698Z" fill="#E6E6E6"/>
<path d="M19.7092 36.3897L21.0534 36.0155C21.0534 36.0155 21.5799 35.9104 21.2582 34.8821C20.9365 33.8538 20.2984 34.1416 20.2984 34.1416L19.1059 34.488L18.6352 34.6334L19.2976 35.5627L19.3531 36.1821L19.7092 36.3897Z" fill="#3F3D56"/>
<path d="M17.1118 33.673L16.69 35.3576L18.851 37.4518L19.0367 37.4984L19.5323 37.3592L19.9541 35.6747L19.5269 35.2254L19.9635 35.111L19.0317 34.2063L18.5454 34.3084L18.1554 33.9211L18.4186 33.8159L18.4435 33.7168L18.1246 33.4658L17.1118 33.673Z" fill="#3F3D56"/>
<path d="M19.1363 36.0495L18.8572 37.1642L17.5693 35.9467L17.8918 34.8164L19.1363 36.0495Z" fill="#6C63FF"/>
<path d="M17.1118 33.673L17.0526 33.9092L19.2014 35.9995L19.3872 36.0461L19.8674 35.9161L19.8938 35.9156L19.9541 35.6747L19.5269 35.2254L19.9635 35.111L19.0317 34.2063L18.5454 34.3084L18.1554 33.9211L18.4186 33.8159L18.4435 33.7168L18.1246 33.4658L17.1118 33.673Z" stroke="#3F3D56" stroke-miterlimit="10"/>
<path d="M18.2778 33.6947C18.2941 33.6298 18.2296 33.5576 18.1338 33.5337C18.0381 33.5097 17.9472 33.5429 17.931 33.6079C17.9147 33.6729 17.9791 33.745 18.0749 33.769C18.1707 33.793 18.2615 33.7597 18.2778 33.6947Z" fill="#6C63FF"/>
<path d="M19.6429 35.4985C19.6592 35.4335 19.5947 35.3613 19.499 35.3374C19.4032 35.3134 19.3123 35.3466 19.2961 35.4116C19.2798 35.4766 19.3443 35.5487 19.44 35.5727C19.5358 35.5967 19.6266 35.5635 19.6429 35.4985Z" fill="#6C63FF"/>
<path d="M20.6023 38.488L20.3091 37.4913C20.3091 37.4913 21.0713 35.6738 20.1919 35.498C19.3125 35.3221 19.2538 37.1982 19.2538 37.1982L19.6056 38.3121L20.6023 38.488Z" fill="#FFB6B6"/>
<path d="M15.1598 36.5503C16.446 36.5503 17.4886 35.5076 17.4886 34.2214C17.4886 32.9352 16.446 31.8926 15.1598 31.8926C13.8736 31.8926 12.8309 32.9352 12.8309 34.2214C12.8309 35.5076 13.8736 36.5503 15.1598 36.5503Z" fill="#FFB6B6"/>
<path d="M15.9132 35.8661C15.9132 35.8661 16.0502 37.5785 16.3927 37.7154C16.7352 37.8524 13.3307 38.8114 13.3307 38.8114L14.3581 37.6469C14.3581 37.6469 13.9268 35.8661 13.4474 35.4551L15.9132 35.8661Z" fill="#FFB6B6"/>
<path d="M19.1952 37.961L20.1333 37.8438C20.1333 37.8438 21.2472 38.43 21.2472 39.1922C21.2472 39.9544 21.8921 41.1855 21.8921 41.1855C21.8921 41.1855 22.3611 42.8271 21.3058 42.9444C20.2505 43.0616 19.3125 41.1855 19.3125 41.1855L19.1952 37.961Z" fill="#6C63FF"/>
<path d="M19.7229 47.2826L21.6139 45.9799C21.913 45.77 22.268 45.6544 22.6333 45.6478C22.9986 45.6412 23.3575 45.7439 23.664 45.9428C23.9245 46.1166 24.12 46.3446 24.12 46.6377C24.12 47.5171 22.1852 49.5691 22.1852 49.5691C22.1852 49.5691 20.7195 52.7936 19.3125 52.9109C18.3869 52.9948 17.4669 53.1318 16.557 53.3213C16.557 53.3213 17.2019 55.6664 16.8501 56.3113C16.4983 56.9562 15.1499 57.7184 15.0326 57.6597C14.9154 57.6011 13.2738 56.0768 12.5703 53.9075C11.8667 51.7383 11.3977 50.0967 12.0426 49.9795C12.6875 49.8622 19.7229 47.2826 19.7229 47.2826Z" fill="#2F2E41"/>
<path d="M23.9441 46.4616C23.9441 46.4616 24.3545 46.403 24.2958 47.3996C24.2372 48.3963 24.0613 51.9726 23.7682 52.6761C23.475 53.3797 23.4164 54.2005 23.5337 54.4936C23.6509 54.7867 23.8854 55.2558 23.475 55.3144C23.0647 55.373 21.3644 55.1385 21.1886 55.0799C21.0127 55.0213 21.8921 52.7348 21.7748 52.6175C21.6576 52.5003 21.5403 49.7448 21.5403 49.7448L23.9441 46.4616Z" fill="#2F2E41"/>
<path d="M23.3578 55.1388C23.3578 55.1388 24.3545 54.8457 24.4717 55.4906C24.4717 55.4906 24.6476 56.4873 23.8854 56.8391C23.3936 57.0715 22.9228 57.3461 22.4784 57.6598C22.4784 57.6598 21.2472 58.1289 21.1886 57.5426C21.1299 56.9563 21.4231 54.8457 21.4231 54.8457L23.3578 55.1388Z" fill="#2F2E41"/>
<path d="M16.7328 55.8427L14.8568 54.3184C14.8568 54.3184 15.2085 56.1945 14.7395 56.5462L14.5253 57.1726L15.1252 57.6633C15.1252 57.6633 16.9674 57.367 16.7328 55.8427Z" fill="#2F2E41"/>
<path d="M14.0946 53.2628C14.0946 53.2628 15.3258 53.6146 15.1499 54.8458C14.974 56.077 14.7485 57.4146 14.7485 57.4146C14.7485 57.4146 14.6809 60.7086 13.8015 60.9431C12.922 61.1776 12.6875 60.7086 12.6875 60.7086C12.6875 60.7086 11.6879 58.1345 11.984 57.3668C12.3424 56.4375 12.8589 55.394 12.6875 55.0803C12.5189 54.7716 12.8048 53.0869 14.0946 53.2628Z" fill="#2F2E41"/>
<path d="M13.3911 37.0811C13.3911 37.0811 13.8601 37.1398 14.6222 37.257C15.3844 37.3743 15.9121 36.788 16.3224 36.9052C16.7328 37.0225 20.1333 37.8433 20.1333 37.8433L19.8391 40.0982C19.7427 40.8373 19.5033 41.545 19.1966 42.2243C18.7021 43.3196 19.4348 46.751 20.1333 47.3996C20.7408 47.9639 21.5403 48.1032 20.6609 49.0998C19.7815 50.0965 18.2572 50.9759 15.1499 50.6828C12.0426 50.3897 11.6322 50.4483 11.6322 49.9793C11.6322 49.5102 12.738 43.3543 12.3863 43.0025C12.0345 42.6508 11.8586 42.299 11.8586 42.1231C11.8586 42.0056 11.4919 40.6829 11.2487 39.8188C11.072 39.2089 11.1377 38.5544 11.4322 37.9917C11.5422 37.7858 11.6681 37.6276 11.8 37.6088C12.2104 37.5501 11.9253 37.257 12.2185 37.257C12.5116 37.257 12.6875 37.3156 12.8634 37.257L13.3911 37.0811Z" fill="#6C63FF"/>
<path d="M17.8846 32.6513C17.8846 32.6513 17.8316 29.7734 15.0068 31.1357C15.0068 31.1357 12.8347 31.0591 12.5308 33.8066L12.2369 36.6831L12.5517 36.4464L12.7626 36.7717L13.3379 36.8305L13.5059 36.3245L13.7049 36.8796L18.3142 36.6635C18.3142 36.6635 16.1025 35.7599 15.7527 33.6082L16.2005 33.9607L17.8846 32.6513Z" fill="#2F2E41"/>
<path d="M12.5756 32.6763C13.2132 32.6763 13.7302 32.1594 13.7302 31.5217C13.7302 30.8841 13.2132 30.3672 12.5756 30.3672C11.938 30.3672 11.421 30.8841 11.421 31.5217C11.421 32.1594 11.938 32.6763 12.5756 32.6763Z" fill="#2F2E41"/>
<path d="M13.7114 31.0685C13.65 30.7815 13.4814 30.5287 13.2401 30.3616C12.9987 30.1945 12.7028 30.1256 12.4125 30.1691C12.4356 30.1626 12.4585 30.1556 12.4823 30.1505C12.6306 30.1188 12.7836 30.1166 12.9327 30.1441C13.0818 30.1716 13.2241 30.2282 13.3513 30.3106C13.4785 30.3931 13.5883 30.4998 13.6743 30.6247C13.7603 30.7495 13.8209 30.8901 13.8525 31.0384C13.8842 31.1867 13.8864 31.3397 13.8589 31.4888C13.8314 31.6379 13.7748 31.7802 13.6924 31.9074C13.6099 32.0347 13.5032 32.1444 13.3783 32.2304C13.2535 32.3164 13.1129 32.377 12.9646 32.4086C12.9408 32.4137 12.917 32.4166 12.8933 32.4202C13.176 32.3412 13.418 32.1575 13.57 31.9064C13.722 31.6553 13.7726 31.3556 13.7114 31.0685Z" fill="#2F2E41"/>
<path d="M41.9608 22.9781C43.0118 22.9781 43.8639 22.126 43.8639 21.075C43.8639 20.0239 43.0118 19.1719 41.9608 19.1719C40.9097 19.1719 40.0577 20.0239 40.0577 21.075C40.0577 22.126 40.9097 22.9781 41.9608 22.9781Z" fill="#2F2E41"/>
<path d="M42.9628 22.3418C42.9628 22.3418 42.9341 23.5165 43.0487 23.5452C43.1634 23.5738 41.4729 24.0323 41.4729 24.0323L41.301 22.4278L42.9628 22.3418Z" fill="#FFB8B8"/>
<path d="M29.611 32.37C29.611 32.37 28.3503 32.37 28.3216 32.2267C28.293 32.0834 28.0351 33.4014 28.0351 33.4014L28.5509 33.5733C28.5509 33.5733 29.525 33.1436 29.611 33.1436C29.6969 33.1436 29.611 32.37 29.611 32.37Z" fill="#FFB8B8"/>
<path d="M28.2357 32.8859C28.2357 32.8859 28.4649 32.1123 28.7514 32.0836C28.7514 32.0836 27.7773 31.4533 27.7486 31.2527C27.72 31.0522 27.3761 30.5364 27.2329 30.7083C27.0896 30.8803 27.0896 33.6022 27.3475 33.8887C27.6053 34.1752 28.7514 33.486 28.7514 33.486C28.7514 33.486 28.0351 33.1724 28.2357 32.8859Z" fill="#2F2E41"/>
<path d="M43.7937 43.8594L44.0229 45.0914L42.9628 45.2633V43.8594H43.7937Z" fill="#FFB8B8"/>
<path d="M43.7937 44.9481C43.7937 44.9481 43.9656 44.4037 44.0802 44.4897C44.1948 44.5756 44.3667 45.12 44.3381 45.2633C44.3094 45.4065 44.1089 46.524 44.1948 46.7245C44.2808 46.9251 43.765 47.9566 43.106 47.8706C42.4471 47.7847 42.5044 47.2116 42.5044 47.2116L42.7336 46.3234L42.8195 44.9195C42.8195 44.9195 43.5645 44.8048 43.7937 44.9481Z" fill="#2F2E41"/>
<path d="M42.6265 19.8601C43.0614 19.8601 43.414 19.5076 43.414 19.0726C43.414 18.6377 43.0614 18.2852 42.6265 18.2852C42.1916 18.2852 41.839 18.6377 41.839 19.0726C41.839 19.5076 42.1916 19.8601 42.6265 19.8601Z" fill="#2F2E41"/>
<path d="M43.6765 18.6459C43.6765 18.4512 43.6044 18.2635 43.4741 18.1188C43.3439 17.9742 43.1646 17.8829 42.9711 17.8627C42.9983 17.8598 43.0257 17.8584 43.0531 17.8584C43.2618 17.8586 43.4619 17.9416 43.6095 18.0893C43.757 18.237 43.8399 18.4372 43.8399 18.6459C43.8399 18.8546 43.757 19.0548 43.6095 19.2025C43.4619 19.3501 43.2618 19.4332 43.0531 19.4334C43.0257 19.4334 42.9983 19.432 42.9711 19.4291C43.1646 19.4088 43.3439 19.3176 43.4741 19.1729C43.6044 19.0283 43.6765 18.8405 43.6765 18.6459Z" fill="#2F2E41"/>
<path d="M41.96 23.1441C42.6246 23.1441 43.1633 22.6053 43.1633 21.9407C43.1633 21.2761 42.6246 20.7373 41.96 20.7373C41.2954 20.7373 40.7566 21.2761 40.7566 21.9407C40.7566 22.6053 41.2954 23.1441 41.96 23.1441Z" fill="#FFB8B8"/>
<path d="M44.3381 30.307C44.3381 30.307 44.2808 31.7396 44.0516 32.4846C43.8223 33.2295 42.996 38.5349 43.1679 38.936C43.3398 39.3371 44.2235 43.7734 44.0229 44.0313C43.8223 44.2892 42.8768 44.2032 42.8768 44.2032L41.592 38.8214C41.592 38.8214 41.8454 32.8857 39.7251 32.7424C37.6049 32.5992 34.138 32.5132 34.138 32.5132C34.138 32.5132 31.9031 33.1722 30.9003 33.1436C29.8975 33.1149 29.3245 33.4014 29.3245 33.4014L29.1526 32.2267L33.5936 31.2526C33.5936 31.2526 37.6622 29.8486 39.897 30.2211C42.1319 30.5936 44.3381 30.307 44.3381 30.307Z" fill="#2F2E41"/>
<path d="M42.7336 23.1731C42.7336 23.1731 43.0774 22.9726 43.1633 23.1731C43.2493 23.3737 43.851 23.5456 44.0802 23.3737C44.3094 23.2018 44.8825 23.431 44.8825 23.431L45.5128 25.2934C45.5128 25.2934 45.1976 26.8979 44.9111 27.7861C44.6246 28.6743 44.51 30.508 44.6246 30.6799C44.7392 30.8519 42.3324 31.5395 41.1577 31.1097C39.983 30.6799 39.7251 30.1929 39.7251 30.1929C39.7251 30.1929 41.0144 28.3591 40.5847 27.4996C40.1549 26.64 40.4987 25.6658 40.4987 25.6658L40.3268 24.6917L41.301 24.1473C41.301 24.1473 41.3583 23.6316 41.5875 23.6316C41.8167 23.6316 42.7336 23.1731 42.7336 23.1731Z" fill="#D0CDE1"/>
<path d="M40.7566 24.7207H40.3268C40.2076 24.8323 40.1187 24.9723 40.0686 25.1277C40.0185 25.2831 40.0087 25.4487 40.0403 25.6089C40.1549 26.1533 40.6718 27.9581 40.6718 27.9581L41.1004 26.8409L40.7566 24.7207Z" fill="#D0CDE1"/>
<path d="M39.5224 29.3213C39.5224 29.3213 38.665 30.2498 39.2953 30.7369C39.9257 31.2239 40.081 29.6194 40.081 29.6194L39.5224 29.3213Z" fill="#FFB8B8"/>
<path d="M40.7566 27.3848L40.556 28.187L40.2122 28.8174C40.2122 28.8174 39.0375 29.591 39.0375 29.8775C39.0375 29.8775 39.5532 29.2185 40.2122 29.8775L40.7996 28.4592L40.7566 27.3848Z" fill="#D0CDE1"/>
<path d="M41.7394 21.4588C42.4643 21.4588 43.0519 21.1062 43.0519 20.6713C43.0519 20.2364 42.4643 19.8838 41.7394 19.8838C41.0145 19.8838 40.4269 20.2364 40.4269 20.6713C40.4269 21.1062 41.0145 21.4588 41.7394 21.4588Z" fill="#2F2E41"/>
<path d="M44.3381 20.7374C44.3381 20.7374 43.4212 20.2216 43.0487 20.5941C42.6763 20.9666 44.1662 21.5396 44.1662 21.5396L44.3381 20.7374Z" fill="#FFB8B8"/>
<path d="M44.6819 23.5737L44.8825 23.4305C44.8825 23.4305 45.1117 23.0866 45.3122 23.2013C45.5128 23.3159 46.6875 22.7715 46.6875 22.7715C46.6875 22.7715 46.2578 22.972 46.2578 22.6282C46.2578 22.2844 46.2005 22.3417 45.9139 22.3417C45.6274 22.3417 45.6274 22.485 45.5128 22.2844C45.3982 22.0838 45.4555 21.9692 45.2549 22.0838C45.0544 22.1984 44.8252 22.1125 44.7679 22.0265C44.7106 21.9406 43.6791 21.7973 43.6791 21.7973C43.6791 21.7973 44.0802 20.6226 44.1662 20.5366C44.2521 20.4507 46.4583 21.4248 46.4583 21.4248C46.4583 21.4248 49.2376 22.1984 48.5213 23.0866C47.805 23.9749 45.2263 25.3215 45.2263 25.3215L44.6819 23.5737Z" fill="#D0CDE1"/>
<path d="M50.0447 16L55.2137 16.0321C55.2137 16.0321 63.7217 20.559 57.7501 29.9339C57.7501 29.9339 55.31 29.356 52.6131 31.3466C52.6131 31.3466 51.0399 16.3532 50.0447 16Z" fill="#6C63FF"/>
<path opacity="0.2" d="M51.5823 16.0467C52.5083 19.915 53.5552 29.8921 53.5552 29.8921C55.9647 28.1136 58.1676 28.3852 58.6101 28.4634C58.3491 28.9801 58.062 29.4833 57.7501 29.971C57.7501 29.971 55.31 29.3931 52.6131 31.3837C52.6131 31.3837 51.0399 16.3903 50.0447 16.0371L51.5823 16.0467Z" fill="black"/>
<path d="M57.7822 20.8482L58.2316 23.0314L63.8804 22.0046L63.8822 22.004L64.0107 19.4355H62.9191L57.7822 20.8482Z" fill="#3F3D56"/>
<path opacity="0.2" d="M63.0102 19.4355L63.8804 22.0046L63.8822 22.004L64.0107 19.4355H63.0102Z" fill="black"/>
<path d="M57.9748 23.2877C58.3294 23.2877 58.6169 22.6265 58.6169 21.8109C58.6169 20.9952 58.3294 20.334 57.9748 20.334C57.6202 20.334 57.3327 20.9952 57.3327 21.8109C57.3327 22.6265 57.6202 23.2877 57.9748 23.2877Z" fill="#3F3D56"/>
<path d="M61.3138 53.022C61.288 53.022 61.2625 53.0169 61.2387 53.0071C61.2149 52.9972 61.1933 52.9827 61.175 52.9645C61.1568 52.9463 61.1424 52.9247 61.1325 52.9009C61.1226 52.877 61.1175 52.8515 61.1175 52.8257V21.8115C61.1175 21.7595 61.1382 21.7095 61.175 21.6727C61.2118 21.6359 61.2618 21.6152 61.3138 21.6152C61.3659 21.6152 61.4158 21.6359 61.4526 21.6727C61.4894 21.7095 61.5101 21.7595 61.5101 21.8115V52.8257C61.5101 52.8515 61.505 52.877 61.4952 52.9008C61.4853 52.9246 61.4708 52.9463 61.4526 52.9645C61.4344 52.9827 61.4128 52.9972 61.3889 53.007C61.3651 53.0169 61.3396 53.022 61.3138 53.022Z" fill="#3F3D56"/>
<path d="M58.6172 58.4798C58.5882 58.4798 58.5596 58.4735 58.5333 58.4611C58.5071 58.4488 58.4839 58.4308 58.4655 58.4084C58.447 58.3861 58.4338 58.3599 58.4267 58.3318C58.4195 58.3037 58.4187 58.2744 58.4243 58.246L60.9297 45.4018L54.3505 55.4374C54.3364 55.459 54.3181 55.4776 54.2968 55.4921C54.2755 55.5067 54.2515 55.5169 54.2263 55.5222C54.201 55.5274 54.175 55.5277 54.1496 55.5229C54.1242 55.5181 54.1001 55.5083 54.0785 55.4942C54.0569 55.48 54.0384 55.4617 54.0238 55.4404C54.0093 55.4191 53.9992 55.3951 53.9939 55.3698C53.9887 55.3445 53.9885 55.3185 53.9934 55.2931C53.9982 55.2678 54.008 55.2437 54.0222 55.2221L61.1497 44.3503C61.1746 44.3123 61.212 44.2841 61.2554 44.2706C61.2989 44.2571 61.3457 44.259 61.3878 44.2762C61.4299 44.2933 61.4648 44.3246 61.4864 44.3646C61.5081 44.4046 61.5152 44.4509 61.5065 44.4955L58.8096 58.3211C58.8009 58.3657 58.7769 58.406 58.7418 58.4349C58.7067 58.4639 58.6627 58.4797 58.6172 58.4798Z" fill="#3F3D56"/>
<path d="M68.7625 56.0395C68.7299 56.0395 68.6978 56.0314 68.6691 56.016C68.6404 56.0005 68.6161 55.9781 68.5982 55.9508L61.1497 44.5853C61.1355 44.5638 61.1257 44.5396 61.1209 44.5143C61.116 44.489 61.1162 44.4629 61.1215 44.4377C61.1267 44.4124 61.1369 44.3884 61.1514 44.3671C61.1659 44.3458 61.1845 44.3275 61.2061 44.3134C61.2276 44.2992 61.2518 44.2895 61.2771 44.2847C61.3025 44.2799 61.3285 44.2801 61.3538 44.2854C61.3791 44.2907 61.403 44.3009 61.4243 44.3154C61.4456 44.33 61.4638 44.3486 61.478 44.3702L68.9265 55.7356C68.9459 55.7652 68.9569 55.7995 68.9584 55.8349C68.9599 55.8702 68.9519 55.9053 68.935 55.9364C68.9182 55.9676 68.8933 55.9936 68.863 56.0117C68.8326 56.0299 68.7979 56.0394 68.7625 56.0395Z" fill="#3F3D56"/>
</g>
</g>
<defs>
<clipPath id="clip0_709_4783">
<rect width="77.2815" height="77.2815" fill="white"/>
</clipPath>
<clipPath id="clip1_709_4783">
<rect width="66" height="45.0086" fill="white" transform="translate(6 16)"/>
</clipPath>
</defs>
</svg>
