<svg width="67" height="56" viewBox="0 0 67 56" fill="none" xmlns="http://www.w3.org/2000/svg">
<path d="M59.1334 39.4658H8.4268V54.4735H59.1334V39.4658Z" fill="#F0F0F0"/>
<path d="M36.7363 42.5674H30.8239V54.4735H36.7363V42.5674Z" fill="#CACACA"/>
<path d="M56.1772 21.7578H11.383V35.5649H56.1772V21.7578Z" fill="#F0F0F0"/>
<path d="M60.7185 22.6078H6.84169C6.75174 22.6078 6.66385 22.5809 6.58931 22.5307C6.51477 22.4804 6.45699 22.409 6.42339 22.3257C6.38979 22.2424 6.38191 22.151 6.40076 22.0632C6.41962 21.9754 6.46434 21.8952 6.52919 21.833L21.2538 7.70209V1.54698C21.2539 1.42762 21.3015 1.31318 21.386 1.22877C21.4705 1.14436 21.5852 1.09689 21.7047 1.09675H24.6108C24.7304 1.09688 24.845 1.14436 24.9295 1.22877C25.0141 1.31317 25.0616 1.42761 25.0618 1.54698V4.04768L26.1739 2.98034C27.9939 1.23373 30.4085 0.239575 32.9326 0.19767C35.4567 0.155764 37.9031 1.06921 39.7802 2.75444L61.02 21.8227C61.0879 21.8836 61.1356 21.9636 61.1569 22.0522C61.1783 22.1407 61.1722 22.2337 61.1395 22.3187C61.1069 22.4038 61.0492 22.4769 60.974 22.5285C60.8988 22.5801 60.8097 22.6078 60.7185 22.6078Z" fill="#CACACA"/>
<path d="M23.2079 25.2588C23.5829 25.2588 23.9543 25.3325 24.3008 25.4758C24.6473 25.6191 24.9622 25.8292 25.2274 26.094C25.4926 26.3587 25.7029 26.6731 25.8465 27.019C25.99 27.365 26.0639 27.7358 26.0639 28.1102V31.9622H20.3519V28.1102C20.3519 27.7358 20.4257 27.365 20.5693 27.019C20.7128 26.6731 20.9232 26.3587 21.1884 26.094C21.4536 25.8292 21.7684 25.6191 22.1149 25.4758C22.4614 25.3325 22.8328 25.2588 23.2079 25.2588Z" fill="white"/>
<path d="M33.7801 25.3096C34.5375 25.3096 35.264 25.61 35.7996 26.1447C36.3352 26.6795 36.6361 27.4048 36.6361 28.161V32.013H30.9241V28.161C30.9241 27.4048 31.225 26.6795 31.7606 26.1447C32.2962 25.61 33.0226 25.3096 33.7801 25.3096Z" fill="white"/>
<path d="M44.3523 25.3584C45.1098 25.3584 45.8362 25.6588 46.3718 26.1936C46.9074 26.7283 47.2083 27.4536 47.2083 28.2099V32.0618H41.4963V28.2099C41.4963 27.4536 41.7972 26.7283 42.3328 26.1936C42.8684 25.6588 43.5949 25.3584 44.3523 25.3584Z" fill="white"/>
<path d="M48.5612 42.418C49.3186 42.418 50.0451 42.7184 50.5807 43.2531C51.1163 43.7879 51.4172 44.5132 51.4172 45.2694V49.1214H45.7052V45.2694C45.7052 44.5132 46.0061 43.7879 46.5417 43.2531C47.0773 42.7184 47.8037 42.418 48.5612 42.418Z" fill="white"/>
<path d="M20.3018 42.418C21.0592 42.418 21.7857 42.7184 22.3213 43.2531C22.8569 43.7879 23.1578 44.5132 23.1578 45.2694V49.1214H17.4458V45.2694C17.4458 44.895 17.5196 44.5242 17.6632 44.1782C17.8067 43.8323 18.0171 43.5179 18.2823 43.2531C18.5475 42.9884 18.8623 42.7783 19.2088 42.635C19.5553 42.4917 19.9267 42.418 20.3018 42.418Z" fill="white"/>
<path d="M66.5414 39.7002L57.0294 35.4981C56.9783 35.4755 56.9231 35.4639 56.8672 35.4639H11.5347C11.4829 35.4639 11.4317 35.4739 11.3837 35.4933L1.02995 39.6955C0.943828 39.7304 0.872556 39.7942 0.828329 39.8758C0.784102 39.9575 0.769671 40.0519 0.787507 40.143C0.805342 40.2341 0.854335 40.3162 0.926099 40.3752C0.997862 40.4342 1.08793 40.4664 1.1809 40.4664H3.86721V54.2735H3.56658V55.6742H63.9936V54.2735H63.4925V40.4664H66.3792C66.4711 40.4664 66.5603 40.4349 66.6317 40.3771C66.7031 40.3193 66.7524 40.2388 66.7714 40.149C66.7904 40.0592 66.7779 39.9656 66.7361 39.8839C66.6942 39.8022 66.6255 39.7374 66.5414 39.7002ZM62.6909 54.2735H4.6689V40.4664H62.6909V54.2735Z" fill="#CACACA"/>
<path d="M26.7654 31.4131H19.45V32.6137H26.7654V31.4131Z" fill="#CACACA"/>
<path d="M37.4879 31.4131H30.1725V32.6137H37.4879V31.4131Z" fill="#CACACA"/>
<path d="M48.2104 31.4131H40.8951V32.6137H48.2104V31.4131Z" fill="#CACACA"/>
<path d="M52.2188 48.7217H44.9035V49.9223H52.2188V48.7217Z" fill="#CACACA"/>
<path d="M23.8592 48.7217H16.5439V49.9223H23.8592V48.7217Z" fill="#CACACA"/>
<path d="M50.3085 21.5513C50.3085 21.6297 50.3073 21.7094 50.3061 21.7879C50.3048 21.8823 50.3024 21.9755 50.2987 22.0699C50.295 22.152 50.2913 22.2329 50.2864 22.3139C50.2717 22.5848 50.2483 22.8546 50.2164 23.1255C50.209 23.1942 50.2005 23.2616 50.1906 23.3302C50.1832 23.383 50.1759 23.4369 50.1673 23.4909C50.1587 23.5509 50.1501 23.611 50.1403 23.6711C50.1206 23.7986 50.0985 23.9261 50.0739 24.0536C50.0617 24.1174 50.0494 24.1811 50.0359 24.2449C50.0101 24.3712 49.9818 24.4987 49.9524 24.625C49.95 24.6348 49.9475 24.6458 49.945 24.6556C49.9303 24.7181 49.9156 24.7794 49.8996 24.842C49.8947 24.8604 49.891 24.8775 49.8849 24.8959C49.8738 24.9425 49.8615 24.9891 49.8492 25.0357C49.8321 25.1007 49.8149 25.1644 49.7964 25.2294C49.7669 25.3299 49.7375 25.4293 49.7068 25.5298C49.703 25.5402 49.6997 25.5509 49.697 25.5617C49.638 25.7517 49.5754 25.9393 49.5066 26.1256C49.471 26.2237 49.433 26.323 49.3949 26.4211C49.3568 26.5192 49.3175 26.6173 49.277 26.7141C49.2377 26.8085 49.1972 26.9029 49.1567 26.9961C49.1468 27.0182 49.137 27.0403 49.126 27.0623C49.083 27.1592 49.0388 27.2536 48.9933 27.348C48.9921 27.3492 48.9921 27.3517 48.9909 27.3529C48.9553 27.4289 48.9172 27.5049 48.8791 27.5797C48.8791 27.582 48.8782 27.5842 48.8767 27.5858C48.8398 27.6594 48.8018 27.733 48.7625 27.8053L48.6998 27.9242L48.6925 27.9377C48.6139 28.0836 48.5328 28.2283 48.4469 28.3717C48.4285 28.4036 48.41 28.4355 48.3916 28.4661C48.3732 28.498 48.3536 28.5299 48.3339 28.5605C48.3216 28.5826 48.3081 28.6047 48.2934 28.6268C48.2676 28.6684 48.2418 28.7114 48.2148 28.753C48.2099 28.7616 48.2037 28.7702 48.1988 28.7788C48.1522 28.8511 48.1055 28.9222 48.0588 28.9946C48.0011 29.0816 47.9422 29.1674 47.882 29.2533L46.5484 31.3841L46.4907 31.3363L46.4747 31.3216H46.4735L46.4207 31.2775L46.2758 31.1549C46.2316 31.1978 46.1886 31.2407 46.1444 31.2824C46.1272 31.2995 46.1088 31.3155 46.0916 31.3326C46.0781 31.3449 46.0658 31.3571 46.0523 31.3694C43.7467 33.6173 40.6798 34.9191 37.4588 35.0169H37.4551C35.0167 35.0837 32.603 34.5149 30.4518 33.3666C30.4039 33.3421 30.3573 33.3176 30.3106 33.2894C30.0306 33.1373 29.7568 32.9767 29.4878 32.8051C29.4866 32.8039 29.4854 32.8039 29.4842 32.8026C29.1722 32.5819 28.8677 32.3465 28.5705 32.0964C26.9762 30.7547 25.7149 29.0625 24.8855 27.1526C24.0561 25.2426 23.6811 23.1667 23.79 21.0878C23.7936 21.0056 23.7986 20.9247 23.8047 20.8426C23.8243 20.5459 23.8546 20.2504 23.8955 19.9561C23.9066 19.874 23.9189 19.7919 23.9312 19.7109H50.1832C50.2348 20.0861 50.2704 20.4633 50.2901 20.8426C50.3024 21.0792 50.3085 21.3146 50.3085 21.5513Z" fill="#F0F0F0"/>
<path d="M50.1832 19.7115C49.7106 16.5735 48.1259 13.7089 45.7171 11.6386C43.3084 9.56833 40.2356 8.42969 37.0572 8.42969C33.8789 8.42969 30.806 9.56833 28.3973 11.6386C25.9885 13.7089 24.4038 16.5735 23.9312 19.7115C23.9189 19.7924 23.9066 19.8745 23.8956 19.9567C23.855 20.2509 23.8247 20.5464 23.8047 20.8431H50.2901C50.2704 20.4643 50.2348 20.0871 50.1832 19.7115Z" fill="#6C63FF"/>
<path d="M37.9171 33.3668H30.3112V27.2922C30.4515 24.5161 32.828 24.2919 35.0611 24.4409C35.4362 24.4409 35.8075 24.5146 36.154 24.6579C36.5006 24.8012 36.8154 25.0112 37.0806 25.276C37.3458 25.5407 37.5562 25.8551 37.6997 26.201C37.8432 26.547 37.9171 26.9178 37.9171 27.2922V33.3668Z" fill="#6C63FF"/>
<path d="M30.3106 29.0468V29.0481C30.3106 29.0493 30.3118 29.0493 30.313 29.0493L30.3106 29.0468ZM27.2517 19.7105C27.2467 19.7412 27.2406 19.7718 27.2357 19.8025C27.2406 19.7718 27.2467 19.7412 27.2529 19.7105H27.2517ZM27.0994 20.8421C27.0957 20.8887 27.092 20.9353 27.0895 20.9819C27.092 20.9353 27.0957 20.8887 27.1006 20.8421C27.1004 20.8335 27.1008 20.8249 27.1018 20.8164C27.1006 20.825 27.1006 20.8336 27.0994 20.8421ZM30.3106 29.0481C30.3106 29.0493 30.3118 29.0493 30.313 29.0493L30.3106 29.0468V29.0481ZM27.2517 19.7105C27.2467 19.7412 27.2406 19.7718 27.2357 19.8025C27.2406 19.7718 27.2467 19.7412 27.2529 19.7105H27.2517ZM27.0895 20.9819C27.092 20.9353 27.0957 20.8887 27.1006 20.8421C27.1004 20.8335 27.1008 20.8249 27.1018 20.8164C27.1006 20.825 27.1006 20.8336 27.0994 20.8421C27.0957 20.8887 27.092 20.9353 27.0895 20.9819ZM65.0272 43.5362C65.0034 43.5109 64.978 43.4872 64.9511 43.4651L64.9499 43.4639L58.8689 38.3402L58.7117 38.2078L58.1137 37.7039L57.9638 37.5776L57.1116 36.8592L56.8783 36.663L56.3957 36.256L56.1489 36.0475L53.8206 34.0871L52.4857 32.9628L52.3064 32.812L48.3732 29.498C48.4333 29.4122 48.4923 29.3264 48.55 29.2393C48.5967 29.167 48.6433 29.0959 48.69 29.0235C48.6949 29.015 48.701 29.0064 48.706 28.9978C48.733 28.9561 48.7588 28.9132 48.7845 28.8715C48.7993 28.8494 48.8128 28.8274 48.8251 28.8053C48.8447 28.7747 48.8644 28.7428 48.8828 28.7109C48.9012 28.6802 48.9196 28.6484 48.938 28.6165C49.024 28.4731 49.1051 28.3284 49.1836 28.1825L49.191 28.169L49.2536 28.0501C49.2929 27.9777 49.331 27.9042 49.3678 27.8306C49.3694 27.8289 49.3703 27.8267 49.3703 27.8245C49.4084 27.7497 49.4464 27.6737 49.4821 27.5977C49.4833 27.5964 49.4833 27.594 49.4845 27.5928C49.5299 27.4983 49.5742 27.4039 49.6171 27.3071C49.6282 27.285 49.638 27.2629 49.6478 27.2409C49.6883 27.1477 49.7289 27.0533 49.7682 26.9589C49.8087 26.862 49.848 26.7639 49.8861 26.6659C49.9241 26.5678 49.9622 26.4685 49.9978 26.3704C50.0654 26.1828 50.1288 25.9948 50.1882 25.8064C50.1909 25.7956 50.1941 25.785 50.198 25.7745C50.2287 25.674 50.2581 25.5747 50.2876 25.4741C50.306 25.4092 50.3232 25.3454 50.3404 25.2804C50.3527 25.2338 50.365 25.1873 50.376 25.1407C50.3822 25.1223 50.3858 25.1051 50.3908 25.0867C50.4067 25.0242 50.4215 24.9629 50.4362 24.9004C50.4387 24.8906 50.4411 24.8795 50.4436 24.8697C50.473 24.7434 50.5013 24.6159 50.5271 24.4896C50.5406 24.4259 50.5529 24.3621 50.5651 24.2984C50.5885 24.1709 50.6118 24.0434 50.6314 23.9159C50.6413 23.8558 50.6499 23.7957 50.6585 23.7356C50.667 23.6817 50.6744 23.6277 50.6818 23.575C50.6916 23.5064 50.7002 23.4389 50.7076 23.3703C50.7395 23.0993 50.7628 22.8296 50.7776 22.5586C50.7825 22.4777 50.7862 22.3968 50.7899 22.3146C50.7935 22.2202 50.796 22.1271 50.7972 22.0326C50.7985 21.9542 50.7997 21.8745 50.7997 21.796C50.7997 21.5594 50.7935 21.324 50.7813 21.0874C50.7616 20.7085 50.726 20.3313 50.6744 19.9557C50.2345 16.7453 48.652 13.8002 46.2163 11.6587C43.7806 9.51715 40.6543 8.32232 37.4089 8.29256C34.1636 8.2628 31.0158 9.40011 28.5412 11.4966C26.0665 13.5931 24.4301 16.5087 23.9311 19.7105C23.9189 19.7914 23.9066 19.8736 23.8955 19.9557C23.855 20.25 23.8247 20.5455 23.8047 20.8422C23.7985 20.9243 23.7936 21.0052 23.7899 21.0874C23.6811 23.1663 24.0561 25.2422 24.8855 27.1521C25.7149 29.0621 26.9762 30.7543 28.5705 32.096C28.8677 32.3461 29.1722 32.5815 29.4841 32.8022C29.4854 32.8034 29.4866 32.8034 29.4878 32.8047C29.5922 32.8782 29.6966 32.9505 29.8022 33.0217C29.9704 33.132 30.1399 33.2399 30.3106 33.3429C30.3241 33.3502 30.3376 33.3588 30.3511 33.3662C30.4985 33.4545 30.6471 33.5391 30.7957 33.6212H30.7969C31.35 33.9248 31.9241 34.1887 32.5148 34.4108C34.2481 35.0618 36.0966 35.3514 37.9463 35.2616H37.9499C40.1088 35.1574 42.2109 34.5363 44.0789 33.4508C44.3503 33.2938 44.6179 33.1259 44.8795 32.9469C44.9446 32.9027 45.0109 32.8574 45.0748 32.812C45.1534 32.7568 45.2319 32.6992 45.3106 32.6416C45.3118 32.6416 45.3118 32.6404 45.313 32.6404C45.3188 32.6355 45.325 32.631 45.3314 32.6269C45.3842 32.5864 45.4382 32.546 45.4898 32.5067C45.5034 32.4969 45.5169 32.4871 45.5303 32.4761C45.5339 32.4736 45.5372 32.4707 45.5402 32.4675C45.5709 32.4454 45.6003 32.4209 45.631 32.3976C45.6617 32.3743 45.6912 32.3498 45.7219 32.3253C45.7271 32.322 45.732 32.3183 45.7367 32.3142C45.771 32.286 45.8054 32.2591 45.8398 32.2309C45.8754 32.2027 45.9098 32.1732 45.943 32.145C45.9773 32.1168 46.0105 32.0886 46.0449 32.0592C46.0744 32.0347 46.1051 32.0089 46.1345 31.982C46.1443 31.9746 46.1529 31.966 46.1628 31.9575C46.1666 31.9538 46.1707 31.9505 46.175 31.9476C46.2156 31.9133 46.2549 31.8777 46.2942 31.8422C46.304 31.8336 46.3126 31.825 46.3224 31.8164C46.3826 31.7625 46.4428 31.7086 46.5017 31.6522C46.5152 31.6399 46.53 31.6264 46.5434 31.6142C46.557 31.6019 46.5693 31.5896 46.5827 31.5774C46.6 31.5602 46.6184 31.5443 46.6355 31.5271C46.6798 31.4854 46.7228 31.4425 46.7669 31.3996L46.9118 31.5222L46.9647 31.5663H46.9659L46.9818 31.5811L47.0396 31.6289L47.8967 32.3522L47.9151 32.3682L47.9299 32.3792L48.0269 32.4613L48.2209 32.6256L48.4149 32.7887L48.4432 32.812L49.3457 33.5722L49.471 33.6776L50.3417 34.4108L54.8484 38.2078L55.0056 38.3403L61.1738 43.5362L62.7555 44.8689L63.3437 45.3642C63.4685 45.4697 63.613 45.5496 63.7688 45.5993C63.9246 45.649 64.0886 45.6676 64.2516 45.6539C64.4146 45.6402 64.5733 45.5946 64.7186 45.5197C64.8639 45.4447 64.993 45.3419 65.0985 45.2171C65.1868 45.1136 65.257 44.9958 65.306 44.8689C65.3952 44.6439 65.4163 44.3977 65.3667 44.1608C65.3172 43.924 65.1992 43.7068 65.0272 43.5362ZM29.4559 15.1153C30.6879 13.6577 32.3077 12.5778 34.1283 12.0004C35.9489 11.423 37.8959 11.3716 39.7446 11.8522C41.5932 12.3327 43.2679 13.3256 44.5753 14.7162C45.8827 16.1067 46.7694 17.8382 47.1329 19.7105C47.1489 19.7927 47.1636 19.8736 47.1771 19.9557C47.2274 20.2487 47.2643 20.5454 47.2864 20.8421C47.2925 20.9243 47.2987 21.0052 47.3024 21.0874C47.3134 21.2713 47.3183 21.4564 47.3183 21.6403C47.319 22.7559 47.1339 23.8638 46.7706 24.9187V24.92C46.3646 26.1028 45.7412 27.1997 44.9323 28.1543C44.9151 28.1739 44.8979 28.1947 44.8795 28.2144C44.7174 28.4056 44.5467 28.5895 44.3711 28.7649C44.3699 28.7661 44.3687 28.7685 44.3675 28.7698C44.3073 28.8298 44.2459 28.8911 44.1845 28.9475C44.0592 29.0689 43.9315 29.1842 43.8013 29.2945C43.6061 29.4649 43.4059 29.6247 43.2009 29.7739C43.1321 29.8241 43.0633 29.8732 42.9933 29.9222C42.9246 29.9713 42.8546 30.0179 42.7846 30.0645C42.6445 30.1576 42.5021 30.2471 42.3584 30.3317C42.2872 30.3746 42.2135 30.4163 42.1411 30.4568C42.0686 30.4985 41.995 30.5377 41.9213 30.5757C41.8476 30.615 41.7739 30.6529 41.699 30.6897C41.5504 30.7645 41.4006 30.8344 41.2483 30.8994C41.1722 30.9337 41.0961 30.9656 41.0199 30.995C40.972 31.0146 40.9254 31.0343 40.8775 31.0514C40.8588 31.0601 40.8395 31.0674 40.8198 31.0735C40.794 31.0845 40.7682 31.0943 40.7424 31.1029C40.734 31.1067 40.7254 31.11 40.7166 31.1127C40.6638 31.1336 40.6122 31.152 40.5582 31.1704C40.4808 31.1986 40.4035 31.2243 40.3249 31.2488C40.2463 31.2746 40.1689 31.2991 40.0903 31.3212C40.0117 31.3457 39.9319 31.3677 39.8533 31.3886C39.7735 31.4107 39.6949 31.4315 39.6151 31.4499C39.5304 31.472 39.4456 31.4916 39.3597 31.51C39.2848 31.5271 39.2111 31.5418 39.1362 31.5553C39.0662 31.57 38.995 31.5823 38.925 31.5946C38.8267 31.6117 38.7285 31.6277 38.629 31.6412C38.575 31.6498 38.5222 31.6571 38.4682 31.662C38.4448 31.6657 38.4227 31.6681 38.4006 31.6706C38.3318 31.6804 38.2631 31.6877 38.1955 31.6939C38.1771 31.6951 38.1599 31.6976 38.1427 31.6988C38.0678 31.7061 37.9917 31.7123 37.9168 31.7184C37.7559 31.7294 37.5963 31.7368 37.4354 31.7405C37.3544 31.7417 37.2721 31.7429 37.191 31.7429C37.11 31.7429 37.0289 31.7417 36.9479 31.7392C36.9479 31.7392 36.9479 31.7405 36.9467 31.7392C36.9454 31.7405 36.9454 31.7405 36.9442 31.7392C36.944 31.7394 36.9439 31.7395 36.9436 31.7396C36.9434 31.7397 36.9432 31.7398 36.943 31.7398C36.9427 31.7398 36.9425 31.7397 36.9423 31.7396C36.9421 31.7395 36.9419 31.7394 36.9417 31.7392C36.9378 31.7405 36.9335 31.7405 36.9295 31.7392C36.8718 31.7392 36.814 31.7368 36.7575 31.7331C36.7158 31.7319 36.6728 31.7307 36.6298 31.727C36.5722 31.7245 36.5144 31.7208 36.4567 31.7159C36.4383 31.7159 36.4199 31.7135 36.4014 31.7123C36.3928 31.7121 36.3842 31.7113 36.3757 31.7098C36.3167 31.7049 36.2565 31.7 36.1976 31.6939C36.1681 31.6914 36.1374 31.689 36.1079 31.6853C36.0183 31.6755 35.9286 31.6644 35.8402 31.6522C35.7395 31.6399 35.6389 31.6252 35.5394 31.6068C35.4927 31.6007 35.4473 31.5921 35.4018 31.5835C35.3417 31.5737 35.2815 31.5627 35.2213 31.5504C35.1587 31.5382 35.0961 31.5259 35.0334 31.5112C34.9831 31.5002 34.9315 31.4891 34.8812 31.4769C34.8566 31.472 34.832 31.4658 34.8087 31.4597C34.6798 31.4291 34.5521 31.396 34.4256 31.3592C34.3458 31.3371 34.2659 31.3138 34.1874 31.2893C34.0793 31.2562 33.9725 31.2206 33.8656 31.1826C33.8239 31.1691 33.7833 31.1544 33.7416 31.1385C33.6998 31.125 33.6593 31.1091 33.6176 31.0931C33.5795 31.0796 33.5414 31.0649 33.5046 31.0502C33.4432 31.0269 33.383 31.0024 33.3228 30.9779C33.1988 30.9276 33.0772 30.8749 32.9557 30.8185C32.8869 30.7854 32.8181 30.7535 32.7506 30.7204C32.4841 30.5917 32.2217 30.4486 31.9634 30.2913C31.8996 30.2533 31.8357 30.2128 31.7719 30.1724C31.692 30.1233 31.6147 30.0718 31.5374 30.0203C31.4944 29.9909 31.4526 29.9627 31.4108 29.9333C31.3335 29.8793 31.2573 29.8242 31.1824 29.769C31.1431 29.7408 31.1038 29.7114 31.0658 29.6819C30.9295 29.5789 30.7956 29.4711 30.6642 29.3607C30.6016 29.308 30.539 29.2541 30.4776 29.1989C30.4518 29.1768 30.426 29.1535 30.4002 29.1302C30.3708 29.1033 30.3413 29.0775 30.313 29.0493L30.3106 29.0468C30.2676 29.0088 30.2246 28.9684 30.1828 28.9279C30.1178 28.8666 30.0539 28.8041 29.9925 28.7404C29.9287 28.6778 29.8673 28.6128 29.8071 28.5491C29.7457 28.4853 29.6868 28.4203 29.629 28.3541C29.5701 28.2892 29.5124 28.223 29.4559 28.1555C29.4006 28.0918 29.3466 28.0256 29.295 27.9606C29.1697 27.8061 29.0502 27.6488 28.9364 27.4886C28.8836 27.415 28.8333 27.3414 28.7842 27.2666C28.7314 27.1906 28.681 27.1134 28.6331 27.0361C28.5828 26.9589 28.5349 26.8804 28.4882 26.8007C28.487 26.798 28.4854 26.7955 28.4833 26.7934C28.3912 26.6377 28.3028 26.4807 28.2205 26.3214C28.1358 26.1595 28.056 25.996 27.9811 25.8309C27.943 25.7488 27.9062 25.6654 27.8718 25.5821C27.8005 25.4141 27.7342 25.2461 27.6728 25.0757C27.6421 24.9936 27.6139 24.9114 27.5856 24.828C27.5847 24.8225 27.5831 24.8172 27.5807 24.8121C27.5242 24.6429 27.4727 24.4725 27.4272 24.3008C27.426 24.2984 27.426 24.2959 27.4248 24.2935C27.4014 24.2089 27.3793 24.1243 27.3597 24.0385C27.34 23.9637 27.3229 23.8889 27.3069 23.8129C27.2885 23.7283 27.2701 23.6437 27.2541 23.5579C27.2455 23.5137 27.2369 23.4696 27.2295 23.4254C27.2222 23.3887 27.216 23.3507 27.2099 23.3139C27.2037 23.2771 27.1976 23.2391 27.1914 23.2011C27.1792 23.1263 27.1681 23.0515 27.1583 22.9767C27.146 22.8884 27.1362 22.8002 27.1264 22.7107C27.1153 22.604 27.1055 22.4973 27.0969 22.3894C27.0908 22.3171 27.0871 22.2435 27.0834 22.17C27.0797 22.1025 27.076 22.0351 27.0748 21.9677C27.0736 21.9641 27.0736 21.9602 27.0748 21.9566C27.0746 21.9565 27.0745 21.9563 27.0744 21.9561C27.0743 21.9559 27.0743 21.9557 27.0743 21.9554C27.0743 21.9552 27.0743 21.955 27.0744 21.9548C27.0745 21.9545 27.0746 21.9544 27.0748 21.9542C27.0736 21.953 27.0736 21.953 27.0748 21.9517C27.0746 21.9516 27.0745 21.9514 27.0744 21.9512C27.0743 21.951 27.0743 21.9507 27.0743 21.9505C27.0743 21.9503 27.0743 21.9501 27.0744 21.9499C27.0745 21.9496 27.0746 21.9494 27.0748 21.9493C27.0736 21.9223 27.0723 21.8954 27.0723 21.8684C27.0699 21.7887 27.0687 21.709 27.0687 21.6293C27.0687 21.557 27.0699 21.4858 27.0711 21.4135C27.0736 21.313 27.0773 21.2124 27.0821 21.1119C27.0821 21.0898 27.0846 21.069 27.0859 21.0469C27.0871 21.0249 27.0883 21.004 27.0895 20.9819C27.092 20.9353 27.0957 20.8887 27.1006 20.8421C27.1004 20.8335 27.1008 20.8249 27.1018 20.8164C27.1055 20.7637 27.1104 20.711 27.1153 20.6583C27.1251 20.5528 27.1374 20.4462 27.1509 20.3407C27.1583 20.288 27.1644 20.2353 27.173 20.1826C27.178 20.1458 27.1841 20.1078 27.1902 20.0698C27.1951 20.0318 27.2013 19.9938 27.2087 19.9557C27.2172 19.9055 27.2259 19.854 27.2357 19.8025C27.2406 19.7718 27.2467 19.7412 27.2529 19.7105C27.2762 19.5879 27.302 19.4653 27.3302 19.3427C27.3584 19.2189 27.3904 19.0963 27.4248 18.9737C27.4579 18.8499 27.4948 18.726 27.5341 18.6022C27.5525 18.5397 27.5721 18.4784 27.5942 18.4171C27.6347 18.2932 27.6777 18.1706 27.7256 18.0493C27.7477 17.9892 27.7711 17.9279 27.7968 17.8678C27.846 17.7464 27.8975 17.625 27.9503 17.5061C27.9774 17.446 28.0044 17.386 28.0338 17.3259C28.0891 17.207 28.1468 17.088 28.2095 16.9716C28.2696 16.8526 28.3347 16.7362 28.401 16.6209C28.4674 16.5057 28.5361 16.3904 28.6086 16.2764C28.6417 16.22 28.6785 16.1624 28.7166 16.1072C28.7903 15.9944 28.8677 15.8816 28.9463 15.7713C29.1047 15.5481 29.2754 15.3286 29.4559 15.1153ZM27.0994 20.8421C27.0957 20.8887 27.092 20.9353 27.0895 20.9819C27.092 20.9353 27.0957 20.8887 27.1006 20.8421C27.1004 20.8335 27.1008 20.8249 27.1018 20.8164C27.1006 20.825 27.1006 20.8336 27.0994 20.8421ZM27.2517 19.7105C27.2467 19.7412 27.2406 19.7718 27.2357 19.8025C27.2406 19.7718 27.2467 19.7412 27.2529 19.7105H27.2517ZM30.3106 29.0468V29.0481C30.3106 29.0493 30.3118 29.0493 30.313 29.0493L30.3106 29.0468Z" fill="#3F3D56"/>
<path opacity="0.3" d="M30.6644 29.361C28.722 27.7245 27.4671 25.4185 27.1488 22.901C26.8306 20.3835 27.4722 17.8385 28.9463 15.7715C28.7527 15.9661 28.5655 16.17 28.3848 16.3831C27.5274 17.3976 26.8785 18.5709 26.4752 19.8359C26.0719 21.1008 25.9221 22.4327 26.0343 23.7555C26.1465 25.0782 26.5186 26.366 27.1293 27.5452C27.74 28.7243 28.5774 29.7719 29.5936 30.628C31.6459 32.3569 34.302 33.2011 36.9777 32.9748C39.6534 32.7485 42.1295 31.4702 43.8612 29.4212C44.0415 29.2078 44.2113 28.9894 44.3706 28.7657C42.5777 30.5643 40.173 31.6239 37.6338 31.7341C35.0947 31.8444 32.6069 30.9973 30.6644 29.361Z" fill="black"/>
</svg>
