<svg width="361" height="138" viewBox="0 0 361 138" fill="none" xmlns="http://www.w3.org/2000/svg">
<rect y="14" width="361" height="124" rx="15" fill="url(#paint0_radial_783_6460)"/>
<path d="M13.683 43V31.1H24.206V43H22.03V32.426L22.54 32.97H15.349L15.859 32.426V43H13.683ZM32.3555 43.119C31.6188 43.119 30.9445 42.949 30.3325 42.609C29.7318 42.269 29.2502 41.759 28.8875 41.079C28.5362 40.3877 28.3605 39.515 28.3605 38.461C28.3605 37.3957 28.5305 36.523 28.8705 35.843C29.2218 35.163 29.6978 34.6587 30.2985 34.33C30.8992 33.99 31.5848 33.82 32.3555 33.82C33.2508 33.82 34.0385 34.0127 34.7185 34.398C35.4098 34.7833 35.9538 35.3217 36.3505 36.013C36.7585 36.7043 36.9625 37.5203 36.9625 38.461C36.9625 39.4017 36.7585 40.2233 36.3505 40.926C35.9538 41.6173 35.4098 42.1557 34.7185 42.541C34.0385 42.9263 33.2508 43.119 32.3555 43.119ZM27.3235 46.298V33.922H29.3465V36.064L29.2785 38.478L29.4485 40.892V46.298H27.3235ZM32.1175 41.3C32.6275 41.3 33.0808 41.1867 33.4775 40.96C33.8855 40.7333 34.2085 40.4047 34.4465 39.974C34.6845 39.5433 34.8035 39.039 34.8035 38.461C34.8035 37.8717 34.6845 37.3673 34.4465 36.948C34.2085 36.5173 33.8855 36.1887 33.4775 35.962C33.0808 35.7353 32.6275 35.622 32.1175 35.622C31.6075 35.622 31.1485 35.7353 30.7405 35.962C30.3325 36.1887 30.0095 36.5173 29.7715 36.948C29.5335 37.3673 29.4145 37.8717 29.4145 38.461C29.4145 39.039 29.5335 39.5433 29.7715 39.974C30.0095 40.4047 30.3325 40.7333 30.7405 40.96C31.1485 41.1867 31.6075 41.3 32.1175 41.3ZM43.3104 43.119C42.3017 43.119 41.4177 42.9207 40.6584 42.524C39.9104 42.116 39.3267 41.5607 38.9074 40.858C38.4994 40.1553 38.2954 39.3563 38.2954 38.461C38.2954 37.5543 38.4937 36.7553 38.8904 36.064C39.2984 35.3613 39.8537 34.8117 40.5564 34.415C41.2704 34.0183 42.0807 33.82 42.9874 33.82C43.8714 33.82 44.6591 34.0127 45.3504 34.398C46.0417 34.7833 46.5857 35.3273 46.9824 36.03C47.3791 36.7327 47.5774 37.56 47.5774 38.512C47.5774 38.6027 47.5717 38.7047 47.5604 38.818C47.5604 38.9313 47.5547 39.039 47.5434 39.141H39.9784V37.73H46.4214L45.5884 38.172C45.5997 37.6507 45.4921 37.1917 45.2654 36.795C45.0387 36.3983 44.7271 36.0867 44.3304 35.86C43.9451 35.6333 43.4974 35.52 42.9874 35.52C42.4661 35.52 42.0071 35.6333 41.6104 35.86C41.2251 36.0867 40.9191 36.404 40.6924 36.812C40.4771 37.2087 40.3694 37.679 40.3694 38.223V38.563C40.3694 39.107 40.4941 39.5887 40.7434 40.008C40.9927 40.4273 41.3441 40.7503 41.7974 40.977C42.2507 41.2037 42.7721 41.317 43.3614 41.317C43.8714 41.317 44.3304 41.2377 44.7384 41.079C45.1464 40.9203 45.5091 40.671 45.8264 40.331L46.9654 41.64C46.5574 42.116 46.0417 42.4843 45.4184 42.745C44.8064 42.9943 44.1037 43.119 43.3104 43.119ZM49.9016 43V33.922H54.3386C55.438 33.922 56.2993 34.126 56.9226 34.534C57.5573 34.942 57.8746 35.52 57.8746 36.268C57.8746 37.0047 57.58 37.5827 56.9906 38.002C56.4013 38.41 55.6193 38.614 54.6446 38.614L54.8996 38.087C55.999 38.087 56.815 38.291 57.3476 38.699C57.8916 39.0957 58.1636 39.6793 58.1636 40.45C58.1636 41.2547 57.8633 41.8837 57.2626 42.337C56.662 42.779 55.7496 43 54.5256 43H49.9016ZM51.9246 41.453H54.3556C54.9336 41.453 55.37 41.3623 55.6646 41.181C55.9593 40.9883 56.1066 40.6993 56.1066 40.314C56.1066 39.906 55.9706 39.6057 55.6986 39.413C55.4266 39.2203 55.0016 39.124 54.4236 39.124H51.9246V41.453ZM51.9246 37.713H54.1516C54.6956 37.713 55.1036 37.6167 55.3756 37.424C55.659 37.22 55.8006 36.9367 55.8006 36.574C55.8006 36.2 55.659 35.9223 55.3756 35.741C55.1036 35.5597 54.6956 35.469 54.1516 35.469H51.9246V37.713ZM65.459 43.119C64.7224 43.119 64.048 42.949 63.436 42.609C62.8354 42.269 62.3537 41.759 61.991 41.079C61.6397 40.3877 61.464 39.515 61.464 38.461C61.464 37.3957 61.634 36.523 61.974 35.843C62.3254 35.163 62.8014 34.6587 63.402 34.33C64.0027 33.99 64.6884 33.82 65.459 33.82C66.3544 33.82 67.142 34.0127 67.822 34.398C68.5134 34.7833 69.0574 35.3217 69.454 36.013C69.862 36.7043 70.066 37.5203 70.066 38.461C70.066 39.4017 69.862 40.2233 69.454 40.926C69.0574 41.6173 68.5134 42.1557 67.822 42.541C67.142 42.9263 66.3544 43.119 65.459 43.119ZM60.427 46.298V33.922H62.45V36.064L62.382 38.478L62.552 40.892V46.298H60.427ZM65.221 41.3C65.731 41.3 66.1844 41.1867 66.581 40.96C66.989 40.7333 67.312 40.4047 67.55 39.974C67.788 39.5433 67.907 39.039 67.907 38.461C67.907 37.8717 67.788 37.3673 67.55 36.948C67.312 36.5173 66.989 36.1887 66.581 35.962C66.1844 35.7353 65.731 35.622 65.221 35.622C64.711 35.622 64.252 35.7353 63.844 35.962C63.436 36.1887 63.113 36.5173 62.875 36.948C62.637 37.3673 62.518 37.8717 62.518 38.461C62.518 39.039 62.637 39.5433 62.875 39.974C63.113 40.4047 63.436 40.7333 63.844 40.96C64.252 41.1867 64.711 41.3 65.221 41.3ZM77.5727 43V41.164L77.4537 40.773V37.56C77.4537 36.9367 77.2667 36.455 76.8927 36.115C76.5187 35.7637 75.9521 35.588 75.1927 35.588C74.6827 35.588 74.1784 35.6673 73.6797 35.826C73.1924 35.9847 72.7787 36.2057 72.4387 36.489L71.6057 34.942C72.0931 34.568 72.6711 34.2903 73.3397 34.109C74.0197 33.9163 74.7224 33.82 75.4477 33.82C76.7624 33.82 77.7767 34.1373 78.4907 34.772C79.2161 35.3953 79.5787 36.3643 79.5787 37.679V43H77.5727ZM74.7167 43.119C74.0367 43.119 73.4417 43.0057 72.9317 42.779C72.4217 42.541 72.0251 42.218 71.7417 41.81C71.4697 41.3907 71.3337 40.9203 71.3337 40.399C71.3337 39.889 71.4527 39.43 71.6907 39.022C71.9401 38.614 72.3424 38.291 72.8977 38.053C73.4531 37.815 74.1897 37.696 75.1077 37.696H77.7427V39.107H75.2607C74.5354 39.107 74.0481 39.226 73.7987 39.464C73.5494 39.6907 73.4247 39.974 73.4247 40.314C73.4247 40.6993 73.5777 41.0053 73.8837 41.232C74.1897 41.4587 74.6147 41.572 75.1587 41.572C75.6801 41.572 76.1447 41.453 76.5527 41.215C76.9721 40.977 77.2724 40.6257 77.4537 40.161L77.8107 41.436C77.6067 41.9687 77.2384 42.3823 76.7057 42.677C76.1844 42.9717 75.5214 43.119 74.7167 43.119ZM84.0953 43V35.214L84.5883 35.724H80.8993V33.922H89.3993V35.724H85.7273L86.2203 35.214V43H84.0953ZM90.9407 43V33.922H93.0657V39.906L98.0807 33.922H100.019V43H97.8937V37.016L92.8957 43H90.9407ZM111.706 43.119C110.754 43.119 109.904 42.9207 109.156 42.524C108.42 42.116 107.842 41.5607 107.422 40.858C107.003 40.1553 106.793 39.3563 106.793 38.461C106.793 37.5543 107.003 36.7553 107.422 36.064C107.842 35.3613 108.42 34.8117 109.156 34.415C109.904 34.0183 110.754 33.82 111.706 33.82C112.59 33.82 113.367 34.0013 114.035 34.364C114.715 34.7153 115.231 35.2367 115.582 35.928L113.95 36.88C113.678 36.4493 113.344 36.132 112.947 35.928C112.562 35.724 112.143 35.622 111.689 35.622C111.168 35.622 110.698 35.7353 110.278 35.962C109.859 36.1887 109.53 36.5173 109.292 36.948C109.054 37.3673 108.935 37.8717 108.935 38.461C108.935 39.0503 109.054 39.5603 109.292 39.991C109.53 40.4103 109.859 40.7333 110.278 40.96C110.698 41.1867 111.168 41.3 111.689 41.3C112.143 41.3 112.562 41.198 112.947 40.994C113.344 40.79 113.678 40.4727 113.95 40.042L115.582 40.994C115.231 41.674 114.715 42.201 114.035 42.575C113.367 42.9377 112.59 43.119 111.706 43.119ZM117.453 43V33.922H121.89C122.99 33.922 123.851 34.126 124.474 34.534C125.109 34.942 125.426 35.52 125.426 36.268C125.426 37.0047 125.132 37.5827 124.542 38.002C123.953 38.41 123.171 38.614 122.196 38.614L122.451 38.087C123.551 38.087 124.367 38.291 124.899 38.699C125.443 39.0957 125.715 39.6793 125.715 40.45C125.715 41.2547 125.415 41.8837 124.814 42.337C124.214 42.779 123.301 43 122.077 43H117.453ZM119.476 41.453H121.907C122.485 41.453 122.922 41.3623 123.216 41.181C123.511 40.9883 123.658 40.6993 123.658 40.314C123.658 39.906 123.522 39.6057 123.25 39.413C122.978 39.2203 122.553 39.124 121.975 39.124H119.476V41.453ZM119.476 37.713H121.703C122.247 37.713 122.655 37.6167 122.927 37.424C123.211 37.22 123.352 36.9367 123.352 36.574C123.352 36.2 123.211 35.9223 122.927 35.741C122.655 35.5597 122.247 35.469 121.703 35.469H119.476V37.713ZM132.025 43.119C131.095 43.119 130.268 42.9207 129.543 42.524C128.817 42.116 128.245 41.5607 127.826 40.858C127.406 40.1553 127.197 39.3563 127.197 38.461C127.197 37.5543 127.406 36.7553 127.826 36.064C128.245 35.3613 128.817 34.8117 129.543 34.415C130.268 34.0183 131.095 33.82 132.025 33.82C132.965 33.82 133.798 34.0183 134.524 34.415C135.26 34.8117 135.833 35.3557 136.241 36.047C136.66 36.7383 136.87 37.543 136.87 38.461C136.87 39.3563 136.66 40.1553 136.241 40.858C135.833 41.5607 135.26 42.116 134.524 42.524C133.798 42.9207 132.965 43.119 132.025 43.119ZM132.025 41.3C132.546 41.3 133.011 41.1867 133.419 40.96C133.827 40.7333 134.144 40.4047 134.371 39.974C134.609 39.5433 134.728 39.039 134.728 38.461C134.728 37.8717 134.609 37.3673 134.371 36.948C134.144 36.5173 133.827 36.1887 133.419 35.962C133.011 35.7353 132.552 35.622 132.042 35.622C131.52 35.622 131.056 35.7353 130.648 35.962C130.251 36.1887 129.934 36.5173 129.696 36.948C129.458 37.3673 129.339 37.8717 129.339 38.461C129.339 39.039 129.458 39.5433 129.696 39.974C129.934 40.4047 130.251 40.7333 130.648 40.96C131.056 41.1867 131.515 41.3 132.025 41.3ZM143.202 43.119C142.193 43.119 141.309 42.9207 140.55 42.524C139.802 42.116 139.218 41.5607 138.799 40.858C138.391 40.1553 138.187 39.3563 138.187 38.461C138.187 37.5543 138.385 36.7553 138.782 36.064C139.19 35.3613 139.745 34.8117 140.448 34.415C141.162 34.0183 141.972 33.82 142.879 33.82C143.763 33.82 144.551 34.0127 145.242 34.398C145.933 34.7833 146.477 35.3273 146.874 36.03C147.271 36.7327 147.469 37.56 147.469 38.512C147.469 38.6027 147.463 38.7047 147.452 38.818C147.452 38.9313 147.446 39.039 147.435 39.141H139.87V37.73H146.313L145.48 38.172C145.491 37.6507 145.384 37.1917 145.157 36.795C144.93 36.3983 144.619 36.0867 144.222 35.86C143.837 35.6333 143.389 35.52 142.879 35.52C142.358 35.52 141.899 35.6333 141.502 35.86C141.117 36.0867 140.811 36.404 140.584 36.812C140.369 37.2087 140.261 37.679 140.261 38.223V38.563C140.261 39.107 140.386 39.5887 140.635 40.008C140.884 40.4273 141.236 40.7503 141.689 40.977C142.142 41.2037 142.664 41.317 143.253 41.317C143.763 41.317 144.222 41.2377 144.63 41.079C145.038 40.9203 145.401 40.671 145.718 40.331L146.857 41.64C146.449 42.116 145.933 42.4843 145.31 42.745C144.698 42.9943 143.995 43.119 143.202 43.119ZM12.085 64L16.08 58.798L16.046 59.937L12.238 54.922H14.601L17.27 58.492H16.369L19.055 54.922H21.35L17.508 59.937L17.525 58.798L21.503 64H19.106L16.301 60.209L17.185 60.328L14.431 64H12.085ZM26.7709 64.119C25.8415 64.119 25.0142 63.9207 24.2889 63.524C23.5635 63.116 22.9912 62.5607 22.5719 61.858C22.1525 61.1553 21.9429 60.3563 21.9429 59.461C21.9429 58.5543 22.1525 57.7553 22.5719 57.064C22.9912 56.3613 23.5635 55.8117 24.2889 55.415C25.0142 55.0183 25.8415 54.82 26.7709 54.82C27.7115 54.82 28.5445 55.0183 29.2699 55.415C30.0065 55.8117 30.5789 56.3557 30.9869 57.047C31.4062 57.7383 31.6159 58.543 31.6159 59.461C31.6159 60.3563 31.4062 61.1553 30.9869 61.858C30.5789 62.5607 30.0065 63.116 29.2699 63.524C28.5445 63.9207 27.7115 64.119 26.7709 64.119ZM26.7709 62.3C27.2922 62.3 27.7569 62.1867 28.1649 61.96C28.5729 61.7333 28.8902 61.4047 29.1169 60.974C29.3549 60.5433 29.4739 60.039 29.4739 59.461C29.4739 58.8717 29.3549 58.3673 29.1169 57.948C28.8902 57.5173 28.5729 57.1887 28.1649 56.962C27.7569 56.7353 27.2979 56.622 26.7879 56.622C26.2665 56.622 25.8019 56.7353 25.3939 56.962C24.9972 57.1887 24.6799 57.5173 24.4419 57.948C24.2039 58.3673 24.0849 58.8717 24.0849 59.461C24.0849 60.039 24.2039 60.5433 24.4419 60.974C24.6799 61.4047 24.9972 61.7333 25.3939 61.96C25.8019 62.1867 26.2609 62.3 26.7709 62.3ZM38.0501 64.17C37.3021 64.17 36.6334 64.0567 36.0441 63.83C35.4548 63.6033 34.9448 63.2577 34.5141 62.793C34.0948 62.317 33.7718 61.7163 33.5451 60.991C33.3184 60.2657 33.2051 59.4043 33.2051 58.407C33.2051 57.6817 33.2674 57.0187 33.3921 56.418C33.5168 55.8173 33.7038 55.279 33.9531 54.803C34.2024 54.3157 34.5141 53.885 34.8881 53.511C35.2734 53.137 35.7211 52.8253 36.2311 52.576C36.7411 52.3267 37.3191 52.134 37.9651 51.998L42.1811 51.097L42.4871 53.001L38.6621 53.783C38.4468 53.8283 38.1861 53.8963 37.8801 53.987C37.5854 54.0663 37.2794 54.191 36.9621 54.361C36.6561 54.5197 36.3671 54.752 36.0951 55.058C35.8344 55.3527 35.6191 55.738 35.4491 56.214C35.2904 56.6787 35.2111 57.2623 35.2111 57.965C35.2111 58.1803 35.2168 58.3447 35.2281 58.458C35.2508 58.56 35.2678 58.6733 35.2791 58.798C35.3018 58.9113 35.3131 59.0813 35.3131 59.308L34.5141 58.475C34.7408 57.897 35.0524 57.404 35.4491 56.996C35.8571 56.5767 36.3274 56.2593 36.8601 56.044C37.4041 55.8173 37.9934 55.704 38.6281 55.704C39.4781 55.704 40.2318 55.8797 40.8891 56.231C41.5464 56.5823 42.0621 57.0753 42.4361 57.71C42.8101 58.3447 42.9971 59.0643 42.9971 59.869C42.9971 60.7077 42.7931 61.45 42.3851 62.096C41.9771 62.742 41.3991 63.252 40.6511 63.626C39.9144 63.9887 39.0474 64.17 38.0501 64.17ZM38.2201 62.453C38.7301 62.453 39.1778 62.3453 39.5631 62.13C39.9598 61.9033 40.2658 61.5973 40.4811 61.212C40.7078 60.8267 40.8211 60.396 40.8211 59.92C40.8211 59.444 40.7078 59.0303 40.4811 58.679C40.2658 58.3163 39.9598 58.0273 39.5631 57.812C39.1778 57.5967 38.7188 57.489 38.1861 57.489C37.6761 57.489 37.2171 57.591 36.8091 57.795C36.4124 57.999 36.1008 58.2823 35.8741 58.645C35.6588 58.9963 35.5511 59.4043 35.5511 59.869C35.5511 60.345 35.6644 60.7813 35.8911 61.178C36.1178 61.5747 36.4294 61.8863 36.8261 62.113C37.2341 62.3397 37.6988 62.453 38.2201 62.453ZM49.389 64.17C48.641 64.17 47.9723 64.0567 47.383 63.83C46.7936 63.6033 46.2836 63.2577 45.853 62.793C45.4336 62.317 45.1106 61.7163 44.884 60.991C44.6573 60.2657 44.544 59.4043 44.544 58.407C44.544 57.6817 44.6063 57.0187 44.731 56.418C44.8556 55.8173 45.0426 55.279 45.292 54.803C45.5413 54.3157 45.853 53.885 46.227 53.511C46.6123 53.137 47.06 52.8253 47.57 52.576C48.08 52.3267 48.658 52.134 49.304 51.998L53.52 51.097L53.826 53.001L50.001 53.783C49.7856 53.8283 49.525 53.8963 49.219 53.987C48.9243 54.0663 48.6183 54.191 48.301 54.361C47.995 54.5197 47.706 54.752 47.434 55.058C47.1733 55.3527 46.958 55.738 46.788 56.214C46.6293 56.6787 46.55 57.2623 46.55 57.965C46.55 58.1803 46.5556 58.3447 46.567 58.458C46.5896 58.56 46.6066 58.6733 46.618 58.798C46.6406 58.9113 46.652 59.0813 46.652 59.308L45.853 58.475C46.0796 57.897 46.3913 57.404 46.788 56.996C47.196 56.5767 47.6663 56.2593 48.199 56.044C48.743 55.8173 49.3323 55.704 49.967 55.704C50.817 55.704 51.5706 55.8797 52.228 56.231C52.8853 56.5823 53.401 57.0753 53.775 57.71C54.149 58.3447 54.336 59.0643 54.336 59.869C54.336 60.7077 54.132 61.45 53.724 62.096C53.316 62.742 52.738 63.252 51.99 63.626C51.2533 63.9887 50.3863 64.17 49.389 64.17ZM49.559 62.453C50.069 62.453 50.5166 62.3453 50.902 62.13C51.2986 61.9033 51.6046 61.5973 51.82 61.212C52.0466 60.8267 52.16 60.396 52.16 59.92C52.16 59.444 52.0466 59.0303 51.82 58.679C51.6046 58.3163 51.2986 58.0273 50.902 57.812C50.5166 57.5967 50.0576 57.489 49.525 57.489C49.015 57.489 48.556 57.591 48.148 57.795C47.7513 57.999 47.4396 58.2823 47.213 58.645C46.9976 58.9963 46.89 59.4043 46.89 59.869C46.89 60.345 47.0033 60.7813 47.23 61.178C47.4566 61.5747 47.7683 61.8863 48.165 62.113C48.573 62.3397 49.0376 62.453 49.559 62.453ZM56.3928 64V54.922H58.5178V60.906L63.5328 54.922H65.4708V64H63.3458V58.016L58.3478 64H56.3928ZM73.0276 64V54.922H77.4646C78.5639 54.922 79.4253 55.126 80.0486 55.534C80.6833 55.942 81.0006 56.52 81.0006 57.268C81.0006 58.0047 80.7059 58.5827 80.1166 59.002C79.5273 59.41 78.7453 59.614 77.7706 59.614L78.0256 59.087C79.1249 59.087 79.9409 59.291 80.4736 59.699C81.0176 60.0957 81.2896 60.6793 81.2896 61.45C81.2896 62.2547 80.9893 62.8837 80.3886 63.337C79.7879 63.779 78.8756 64 77.6516 64H73.0276ZM75.0506 62.453H77.4816C78.0596 62.453 78.4959 62.3623 78.7906 62.181C79.0853 61.9883 79.2326 61.6993 79.2326 61.314C79.2326 60.906 79.0966 60.6057 78.8246 60.413C78.5526 60.2203 78.1276 60.124 77.5496 60.124H75.0506V62.453ZM75.0506 58.713H77.2776C77.8216 58.713 78.2296 58.6167 78.5016 58.424C78.7849 58.22 78.9266 57.9367 78.9266 57.574C78.9266 57.2 78.7849 56.9223 78.5016 56.741C78.2296 56.5597 77.8216 56.469 77.2776 56.469H75.0506V58.713ZM88.2512 64V54.922H90.3762V60.906L95.3912 54.922H97.3292V64H95.2042V58.016L90.2062 64H88.2512ZM104.319 64.119C103.367 64.119 102.517 63.9207 101.769 63.524C101.032 63.116 100.454 62.5607 100.035 61.858C99.6154 61.1553 99.4058 60.3563 99.4058 59.461C99.4058 58.5543 99.6154 57.7553 100.035 57.064C100.454 56.3613 101.032 55.8117 101.769 55.415C102.517 55.0183 103.367 54.82 104.319 54.82C105.203 54.82 105.979 55.0013 106.648 55.364C107.328 55.7153 107.843 56.2367 108.195 56.928L106.563 57.88C106.291 57.4493 105.956 57.132 105.56 56.928C105.174 56.724 104.755 56.622 104.302 56.622C103.78 56.622 103.31 56.7353 102.891 56.962C102.471 57.1887 102.143 57.5173 101.905 57.948C101.667 58.3673 101.548 58.8717 101.548 59.461C101.548 60.0503 101.667 60.5603 101.905 60.991C102.143 61.4103 102.471 61.7333 102.891 61.96C103.31 62.1867 103.78 62.3 104.302 62.3C104.755 62.3 105.174 62.198 105.56 61.994C105.956 61.79 106.291 61.4727 106.563 61.042L108.195 61.994C107.843 62.674 107.328 63.201 106.648 63.575C105.979 63.9377 105.203 64.119 104.319 64.119ZM111.886 64V56.214L112.379 56.724H108.69V54.922H117.19V56.724H113.518L114.011 56.214V64H111.886ZM122.379 64.119C121.45 64.119 120.623 63.9207 119.897 63.524C119.172 63.116 118.6 62.5607 118.18 61.858C117.761 61.1553 117.551 60.3563 117.551 59.461C117.551 58.5543 117.761 57.7553 118.18 57.064C118.6 56.3613 119.172 55.8117 119.897 55.415C120.623 55.0183 121.45 54.82 122.379 54.82C123.32 54.82 124.153 55.0183 124.878 55.415C125.615 55.8117 126.187 56.3557 126.595 57.047C127.015 57.7383 127.224 58.543 127.224 59.461C127.224 60.3563 127.015 61.1553 126.595 61.858C126.187 62.5607 125.615 63.116 124.878 63.524C124.153 63.9207 123.32 64.119 122.379 64.119ZM122.379 62.3C122.901 62.3 123.365 62.1867 123.773 61.96C124.181 61.7333 124.499 61.4047 124.725 60.974C124.963 60.5433 125.082 60.039 125.082 59.461C125.082 58.8717 124.963 58.3673 124.725 57.948C124.499 57.5173 124.181 57.1887 123.773 56.962C123.365 56.7353 122.906 56.622 122.396 56.622C121.875 56.622 121.41 56.7353 121.002 56.962C120.606 57.1887 120.288 57.5173 120.05 57.948C119.812 58.3673 119.693 58.8717 119.693 59.461C119.693 60.039 119.812 60.5433 120.05 60.974C120.288 61.4047 120.606 61.7333 121.002 61.96C121.41 62.1867 121.869 62.3 122.379 62.3ZM135.053 60.413C134.622 60.617 134.163 60.787 133.676 60.923C133.2 61.0477 132.695 61.11 132.163 61.11C131.018 61.11 130.128 60.8437 129.494 60.311C128.859 59.7783 128.542 58.951 128.542 57.829V54.922H130.667V57.693C130.667 58.2937 130.837 58.73 131.177 59.002C131.528 59.274 132.01 59.41 132.622 59.41C133.03 59.41 133.438 59.359 133.846 59.257C134.254 59.155 134.656 59.0133 135.053 58.832V60.413ZM134.9 64V54.922H137.025V64H134.9ZM139.882 64V54.922H142.007V58.611H146.58V54.922H148.705V64H146.58V60.413H142.007V64H139.882ZM151.553 64V54.922H153.678V60.906L158.693 54.922H160.631V64H158.506V58.016L153.508 64H151.553ZM170.001 64L166.72 59.648L168.454 58.577L172.5 64H170.001ZM163.49 64V54.922H165.615V64H163.49ZM164.986 60.362V58.594H168.063V60.362H164.986ZM168.658 59.716L166.669 59.478L170.001 54.922H172.279L168.658 59.716ZM19.65 84.014V77.724H16.165L16.114 79.186C16.0913 79.7073 16.0573 80.2117 16.012 80.699C15.9667 81.175 15.893 81.617 15.791 82.025C15.689 82.4217 15.5417 82.7503 15.349 83.011C15.1563 83.2717 14.9013 83.4417 14.584 83.521L12.476 83.198C12.816 83.198 13.088 83.0903 13.292 82.875C13.5073 82.6483 13.6717 82.3423 13.785 81.957C13.9097 81.5603 14.0003 81.1127 14.057 80.614C14.1137 80.104 14.1533 79.577 14.176 79.033L14.295 75.922H21.775V84.014H19.65ZM12.153 87.023V83.198H23.118V87.023H21.129V85H14.125V87.023H12.153ZM29.0619 85.119C28.1326 85.119 27.3052 84.9207 26.5799 84.524C25.8546 84.116 25.2822 83.5607 24.8629 82.858C24.4436 82.1553 24.2339 81.3563 24.2339 80.461C24.2339 79.5543 24.4436 78.7553 24.8629 78.064C25.2822 77.3613 25.8546 76.8117 26.5799 76.415C27.3052 76.0183 28.1326 75.82 29.0619 75.82C30.0026 75.82 30.8356 76.0183 31.5609 76.415C32.2976 76.8117 32.8699 77.3557 33.2779 78.047C33.6972 78.7383 33.9069 79.543 33.9069 80.461C33.9069 81.3563 33.6972 82.1553 33.2779 82.858C32.8699 83.5607 32.2976 84.116 31.5609 84.524C30.8356 84.9207 30.0026 85.119 29.0619 85.119ZM29.0619 83.3C29.5832 83.3 30.0479 83.1867 30.4559 82.96C30.8639 82.7333 31.1812 82.4047 31.4079 81.974C31.6459 81.5433 31.7649 81.039 31.7649 80.461C31.7649 79.8717 31.6459 79.3673 31.4079 78.948C31.1812 78.5173 30.8639 78.1887 30.4559 77.962C30.0479 77.7353 29.5889 77.622 29.0789 77.622C28.5576 77.622 28.0929 77.7353 27.6849 77.962C27.2882 78.1887 26.9709 78.5173 26.7329 78.948C26.4949 79.3673 26.3759 79.8717 26.3759 80.461C26.3759 81.039 26.4949 81.5433 26.7329 81.974C26.9709 82.4047 27.2882 82.7333 27.6849 82.96C28.0929 83.1867 28.5519 83.3 29.0619 83.3ZM34.3643 85L38.3593 79.798L38.3253 80.937L34.5173 75.922H36.8803L39.5493 79.492H38.6483L41.3343 75.922H43.6293L39.7873 80.937L39.8043 79.798L43.7823 85H41.3853L38.5803 81.209L39.4643 81.328L36.7103 85H34.3643ZM49.0502 85.119C48.1208 85.119 47.2935 84.9207 46.5682 84.524C45.8428 84.116 45.2705 83.5607 44.8512 82.858C44.4318 82.1553 44.2222 81.3563 44.2222 80.461C44.2222 79.5543 44.4318 78.7553 44.8512 78.064C45.2705 77.3613 45.8428 76.8117 46.5682 76.415C47.2935 76.0183 48.1208 75.82 49.0502 75.82C49.9908 75.82 50.8238 76.0183 51.5492 76.415C52.2858 76.8117 52.8582 77.3557 53.2662 78.047C53.6855 78.7383 53.8952 79.543 53.8952 80.461C53.8952 81.3563 53.6855 82.1553 53.2662 82.858C52.8582 83.5607 52.2858 84.116 51.5492 84.524C50.8238 84.9207 49.9908 85.119 49.0502 85.119ZM49.0502 83.3C49.5715 83.3 50.0362 83.1867 50.4442 82.96C50.8522 82.7333 51.1695 82.4047 51.3962 81.974C51.6342 81.5433 51.7532 81.039 51.7532 80.461C51.7532 79.8717 51.6342 79.3673 51.3962 78.948C51.1695 78.5173 50.8522 78.1887 50.4442 77.962C50.0362 77.7353 49.5772 77.622 49.0672 77.622C48.5458 77.622 48.0812 77.7353 47.6732 77.962C47.2765 78.1887 46.9592 78.5173 46.7212 78.948C46.4832 79.3673 46.3642 79.8717 46.3642 80.461C46.3642 81.039 46.4832 81.5433 46.7212 81.974C46.9592 82.4047 47.2765 82.7333 47.6732 82.96C48.0812 83.1867 48.5402 83.3 49.0502 83.3ZM62.1168 84.014V77.724H58.6318L58.5808 79.186C58.5581 79.7073 58.5241 80.2117 58.4788 80.699C58.4335 81.175 58.3598 81.617 58.2578 82.025C58.1558 82.4217 58.0085 82.7503 57.8158 83.011C57.6231 83.2717 57.3681 83.4417 57.0508 83.521L54.9428 83.198C55.2828 83.198 55.5548 83.0903 55.7588 82.875C55.9741 82.6483 56.1385 82.3423 56.2518 81.957C56.3765 81.5603 56.4671 81.1127 56.5238 80.614C56.5805 80.104 56.6201 79.577 56.6428 79.033L56.7618 75.922H64.2418V84.014H62.1168ZM54.6198 87.023V83.198H65.5848V87.023H63.5958V85H56.5918V87.023H54.6198ZM72.9907 85V83.164L72.8717 82.773V79.56C72.8717 78.9367 72.6847 78.455 72.3107 78.115C71.9367 77.7637 71.37 77.588 70.6107 77.588C70.1007 77.588 69.5964 77.6673 69.0977 77.826C68.6104 77.9847 68.1967 78.2057 67.8567 78.489L67.0237 76.942C67.511 76.568 68.089 76.2903 68.7577 76.109C69.4377 75.9163 70.1404 75.82 70.8657 75.82C72.1804 75.82 73.1947 76.1373 73.9087 76.772C74.634 77.3953 74.9967 78.3643 74.9967 79.679V85H72.9907ZM70.1347 85.119C69.4547 85.119 68.8597 85.0057 68.3497 84.779C67.8397 84.541 67.443 84.218 67.1597 83.81C66.8877 83.3907 66.7517 82.9203 66.7517 82.399C66.7517 81.889 66.8707 81.43 67.1087 81.022C67.358 80.614 67.7604 80.291 68.3157 80.053C68.871 79.815 69.6077 79.696 70.5257 79.696H73.1607V81.107H70.6787C69.9534 81.107 69.466 81.226 69.2167 81.464C68.9674 81.6907 68.8427 81.974 68.8427 82.314C68.8427 82.6993 68.9957 83.0053 69.3017 83.232C69.6077 83.4587 70.0327 83.572 70.5767 83.572C71.098 83.572 71.5627 83.453 71.9707 83.215C72.39 82.977 72.6904 82.6257 72.8717 82.161L73.2287 83.436C73.0247 83.9687 72.6564 84.3823 72.1237 84.677C71.6024 84.9717 70.9394 85.119 70.1347 85.119Z" fill="white"/>
<g clip-path="url(#clip0_783_6460)">
<path opacity="0.5" d="M290.527 96.922C291.578 96.7084 292.653 96.6497 293.72 96.7478C293.819 96.747 293.914 96.7073 293.984 96.637C294.053 96.5668 294.093 96.4718 294.094 96.3725C294.092 96.2736 294.052 96.1793 293.982 96.1093C293.913 96.0394 293.819 95.9992 293.72 95.9972C292.586 95.8983 291.444 95.9661 290.329 96.1982C290.233 96.2247 290.152 96.2883 290.103 96.3748C290.055 96.4614 290.042 96.5639 290.068 96.6598C290.095 96.7557 290.158 96.8372 290.244 96.8864C290.33 96.9355 290.432 96.9484 290.527 96.922Z" fill="#CCCCCC"/>
<path d="M264.894 90.3932C262.84 87.6479 261.653 84.5779 261.615 81.0779C261.548 80.8893 261.559 80.682 261.645 80.5015C261.731 80.3211 261.884 80.1821 262.072 80.1152L269.071 77.626C269.258 77.5595 269.464 77.5705 269.644 77.6567C269.824 77.7428 269.962 77.897 270.028 78.0855L273.307 87.4008C273.374 87.5894 273.363 87.7967 273.277 87.9772C273.191 88.1576 273.038 88.2966 272.85 88.3635L265.851 90.8527C265.664 90.9192 265.458 90.9082 265.278 90.822C265.098 90.7359 264.96 90.5817 264.894 90.3932Z" fill="#F2F2F2"/>
<path opacity="0.2" d="M266.474 90.2274C266.286 90.2939 266.08 90.2828 265.9 90.1967C265.721 90.1106 265.582 89.9563 265.516 89.7679C263.463 87.0225 262.276 83.9526 262.237 80.4526C262.194 80.3285 262.185 80.1953 262.209 80.0664L262.072 80.1154C261.884 80.1823 261.731 80.3213 261.645 80.5017C261.559 80.6822 261.548 80.8895 261.615 81.0781C261.653 84.5781 262.84 87.6481 264.894 90.3934C264.96 90.5819 265.098 90.7361 265.278 90.8222C265.458 90.9084 265.664 90.9194 265.851 90.8529L272.85 88.3637C272.974 88.3191 273.085 88.2423 273.17 88.141C273.255 88.0397 273.312 87.9177 273.335 87.7872L266.474 90.2274Z" fill="black"/>
<path d="M269.753 83.2552L265.067 84.9364C264.993 84.9631 264.91 84.959 264.839 84.9249C264.767 84.8908 264.712 84.8296 264.686 84.7546C264.659 84.6797 264.663 84.5972 264.697 84.5253C264.731 84.4534 264.792 84.3979 264.866 84.3712L269.552 82.6901C269.626 82.6635 269.708 82.6678 269.78 82.7019C269.851 82.736 269.906 82.7972 269.933 82.872C269.959 82.9468 269.955 83.0292 269.921 83.101C269.888 83.1729 269.827 83.2283 269.753 83.2552Z" fill="white"/>
<path d="M265.548 83.0169L264.517 83.3867C264.48 83.4002 264.441 83.4061 264.402 83.4043C264.362 83.4025 264.324 83.393 264.288 83.3762C264.253 83.3595 264.221 83.3359 264.195 83.3067C264.168 83.2776 264.148 83.2435 264.134 83.2064C264.121 83.1693 264.115 83.1299 264.117 83.0905C264.119 83.0511 264.128 83.0125 264.145 82.9768C264.162 82.9411 264.185 82.9091 264.214 82.8826C264.243 82.856 264.277 82.8355 264.314 82.8222L264.316 82.8216L265.347 82.4517C265.421 82.4253 265.503 82.4296 265.575 82.4637C265.646 82.4978 265.701 82.559 265.728 82.6337C265.754 82.7085 265.75 82.7909 265.716 82.8627C265.683 82.9345 265.622 82.99 265.548 83.0169Z" fill="white"/>
<path d="M270.635 85.7396L265.949 87.4207C265.875 87.4472 265.793 87.4429 265.722 87.4087C265.65 87.3746 265.595 87.3135 265.569 87.2387C265.542 87.1639 265.546 87.0816 265.58 87.0097C265.614 86.9379 265.674 86.8825 265.749 86.8555L270.434 85.1744C270.509 85.1475 270.591 85.1515 270.662 85.1853C270.734 85.2192 270.789 85.2802 270.816 85.355C270.843 85.4298 270.839 85.5123 270.805 85.5843C270.772 85.6562 270.711 85.7119 270.637 85.7389L270.635 85.7396Z" fill="white"/>
<path d="M270.194 84.4974L265.508 86.1785C265.434 86.2054 265.352 86.2014 265.28 86.1674C265.208 86.1334 265.153 86.0722 265.127 85.9973C265.1 85.9224 265.104 85.8399 265.138 85.7679C265.171 85.696 265.232 85.6405 265.307 85.6136L265.308 85.6134L269.993 83.9322C270.068 83.9057 270.15 83.91 270.221 83.9441C270.292 83.9782 270.347 84.0394 270.374 84.1142C270.4 84.189 270.396 84.2714 270.363 84.3432C270.329 84.4151 270.268 84.4705 270.194 84.4974Z" fill="white"/>
<path d="M265.385 80.2116C266.072 80.2116 266.629 79.6515 266.629 78.9605C266.629 78.2696 266.072 77.7095 265.385 77.7095C264.697 77.7095 264.14 78.2696 264.14 78.9605C264.14 79.6515 264.697 80.2116 265.385 80.2116Z" fill="#CCCCCC"/>
<path d="M310.939 24.9242C310.959 26.7558 311.539 30.569 311.123 32.3631L311.056 32.2129C310.71 32.4883 310.343 32.7351 309.958 32.9511C309.68 32.2719 309.265 31.6584 308.738 31.1495C308.808 31.9914 308.709 32.8388 308.447 33.6417C306.891 34.2046 304.16 32.4306 302.468 32.3931C299.744 32.3305 297.091 31.65 294.49 30.9293C293.566 30.6741 292.55 30.3413 292.132 29.5707C291.714 28.8 292.462 27.9682 292.413 27.0986C292.065 20.9043 295 19.8661 297.793 18.2109C298.407 17.8467 298.709 17.0624 299.403 16.7572C300.367 16.3343 301.514 16.537 302.562 16.7497C302.302 16.6635 302.068 16.5114 301.883 16.3081C301.698 16.1047 301.569 15.857 301.507 15.5887C301.463 15.3257 301.493 15.0557 301.592 14.8084C301.691 14.5612 301.856 14.3463 302.069 14.1875C302.647 13.7396 303.508 13.6845 304.245 13.8747C304.957 14.0985 305.63 14.431 306.241 14.8606C306.656 15.0894 307.027 15.3911 307.337 15.7513C307.482 15.9218 307.573 16.1329 307.596 16.3565C307.619 16.5801 307.574 16.8054 307.466 17.0024C307.333 17.1712 307.164 17.3078 306.972 17.4018C306.779 17.4958 306.568 17.5449 306.353 17.5454C306.023 17.555 305.694 17.5205 305.373 17.4428C306.844 17.8076 308.17 18.614 309.174 19.7548C310.421 21.2135 310.916 23.0926 310.939 24.9242Z" fill="#2F2E41"/>
<path d="M267.426 42.5755C267.679 43.1155 268.132 43.5349 268.688 43.7445C269.244 43.9541 269.86 43.9373 270.404 43.6977C270.513 43.6472 270.619 43.5877 270.719 43.5198L277.129 48.2533L280.662 45.8292L271.185 40.299C270.872 39.9039 270.438 39.6238 269.951 39.5025C269.464 39.3812 268.95 39.4255 268.49 39.6285C268.23 39.7465 267.995 39.915 267.799 40.1242C267.604 40.3334 267.451 40.5794 267.35 40.848C267.248 41.1166 267.201 41.4026 267.21 41.6896C267.218 41.9767 267.283 42.2592 267.401 42.521C267.409 42.5393 267.417 42.5574 267.426 42.5755Z" fill="#FFB6B6"/>
<path d="M333.489 38.2796C332.9 38.3534 332.362 38.6554 331.991 39.1214C331.62 39.5875 331.445 40.1807 331.502 40.7748C331.515 40.8954 331.539 41.0147 331.572 41.1314L325.102 45.7819L326.295 49.9119L334.472 42.5781C334.943 42.4026 335.343 42.0754 335.609 41.6475C335.875 41.2196 335.993 40.7152 335.944 40.2128C335.914 39.9273 335.828 39.6506 335.691 39.3985C335.554 39.1465 335.369 38.924 335.146 38.7438C334.924 38.5636 334.668 38.4292 334.394 38.3483C334.12 38.2674 333.833 38.2416 333.548 38.2723C333.529 38.2745 333.509 38.2769 333.489 38.2796Z" fill="#FFB6B6"/>
<path d="M286.575 133.59L284.492 133.572L283.57 125.307L286.645 125.333L286.575 133.59Z" fill="#FFB6B6"/>
<path d="M279.902 136.92C279.9 137.168 279.996 137.407 280.17 137.584C280.343 137.761 280.579 137.862 280.826 137.864L284.968 137.899L285.693 136.422L285.959 137.907L287.522 137.921L287.127 132.624L286.584 132.588L284.366 132.434L283.65 132.386L283.638 133.885L280.31 136.153C280.186 136.238 280.083 136.353 280.012 136.486C279.941 136.62 279.903 136.768 279.902 136.92Z" fill="#2F2E41"/>
<path d="M314.038 124.313L312.337 125.522L306.784 119.356L309.295 117.571L314.038 124.313Z" fill="#FFB6B6"/>
<path d="M310.558 130.935C310.701 131.137 310.918 131.274 311.161 131.316C311.405 131.358 311.655 131.302 311.857 131.159L315.238 128.754L314.968 127.129L316.047 128.178L317.324 127.272L313.925 123.205L313.463 123.495L311.573 124.673L310.965 125.054L311.826 126.278L310.444 130.073C310.392 130.215 310.376 130.368 310.395 130.518C310.415 130.668 310.471 130.811 310.558 130.935Z" fill="#2F2E41"/>
<path d="M288.138 66.5756L294.19 52.4497H308.129L304.108 67.1918L288.138 66.5756Z" fill="#FFB6B6"/>
<path d="M275.342 133.653C275.227 133.659 275.112 133.628 275.014 133.566C274.916 133.503 274.84 133.412 274.795 133.305C274.751 133.198 274.74 133.079 274.765 132.965C274.789 132.851 274.848 132.748 274.933 132.669L274.972 132.514C274.967 132.502 274.962 132.49 274.956 132.477C274.84 132.2 274.645 131.965 274.395 131.799C274.145 131.633 273.853 131.546 273.554 131.547C273.255 131.548 272.963 131.638 272.714 131.805C272.466 131.973 272.273 132.21 272.158 132.488C271.7 133.596 271.118 134.706 270.974 135.877C270.911 136.395 270.938 136.92 271.053 137.429C269.978 135.072 269.42 132.51 269.416 129.917C269.416 129.266 269.452 128.616 269.524 127.969C269.583 127.439 269.666 126.913 269.772 126.391C270.348 123.555 271.585 120.898 273.381 118.636C274.251 118.16 274.954 117.426 275.396 116.536C275.556 116.215 275.669 115.873 275.732 115.521C275.634 115.534 275.362 114.032 275.436 113.94C275.299 113.732 275.055 113.628 274.905 113.425C274.163 112.413 273.14 112.589 272.606 113.964C271.466 114.543 271.454 115.503 272.154 116.426C272.6 117.013 272.661 117.807 273.052 118.436C273.011 118.488 272.97 118.538 272.929 118.59C272.195 119.539 271.554 120.559 271.017 121.634C271.148 120.43 270.992 119.211 270.563 118.079C270.127 117.024 269.312 116.135 268.594 115.223C268.404 114.978 268.146 114.795 267.852 114.697C267.559 114.599 267.243 114.591 266.945 114.674C266.647 114.756 266.38 114.926 266.178 115.161C265.976 115.396 265.848 115.686 265.809 115.994C265.808 116.008 265.807 116.021 265.805 116.035C265.912 116.095 266.016 116.159 266.118 116.227C266.247 116.313 266.346 116.437 266.404 116.581C266.461 116.725 266.474 116.883 266.441 117.034C266.408 117.186 266.329 117.324 266.217 117.43C266.104 117.536 265.962 117.605 265.81 117.629L265.794 117.631C265.832 118.018 265.899 118.401 265.995 118.777C265.073 122.359 267.063 123.664 269.903 123.722C269.966 123.755 270.027 123.787 270.09 123.818C269.551 125.354 269.212 126.955 269.083 128.579C269.011 129.537 269.015 130.499 269.096 131.457L269.092 131.423C268.886 130.358 268.321 129.398 267.492 128.703C266.261 127.687 264.521 127.312 263.193 126.495C263.052 126.404 262.888 126.355 262.72 126.355C262.552 126.355 262.388 126.402 262.246 126.493C262.105 126.583 261.992 126.712 261.921 126.865C261.85 127.018 261.824 127.188 261.846 127.355L261.852 127.391C262.05 127.472 262.242 127.565 262.429 127.67C262.535 127.731 262.64 127.795 262.742 127.863C262.87 127.949 262.97 128.072 263.027 128.216C263.085 128.361 263.098 128.519 263.065 128.67C263.031 128.822 262.953 128.959 262.84 129.066C262.728 129.172 262.586 129.241 262.433 129.265L262.418 129.267C262.406 129.269 262.397 129.27 262.385 129.272C262.724 130.084 263.198 130.831 263.789 131.481C264.365 134.608 266.84 134.905 269.487 133.994H269.489C269.779 135.263 270.2 136.498 270.744 137.679H275.23C275.246 137.629 275.261 137.577 275.275 137.527C274.86 137.553 274.443 137.528 274.034 137.453C274.367 137.042 274.699 136.629 275.032 136.218C275.04 136.21 275.047 136.202 275.053 136.194C275.222 135.984 275.392 135.775 275.561 135.565L275.561 135.565C275.57 134.921 275.497 134.278 275.342 133.653Z" fill="#F2F2F2"/>
<path d="M323.882 133.653C323.998 133.659 324.113 133.628 324.211 133.566C324.308 133.503 324.385 133.412 324.43 133.305C324.474 133.198 324.485 133.079 324.46 132.965C324.436 132.851 324.377 132.748 324.292 132.669L324.253 132.514C324.258 132.502 324.263 132.49 324.268 132.477C324.385 132.2 324.58 131.965 324.83 131.799C325.079 131.633 325.372 131.546 325.671 131.547C325.97 131.548 326.262 131.638 326.51 131.805C326.759 131.973 326.952 132.21 327.067 132.488C327.524 133.596 328.107 134.706 328.251 135.877C328.314 136.395 328.287 136.92 328.172 137.428C329.247 135.072 329.805 132.51 329.809 129.917C329.809 129.266 329.773 128.616 329.701 127.969C329.641 127.439 329.559 126.913 329.453 126.391C328.877 123.555 327.64 120.898 325.844 118.636C324.974 118.16 324.271 117.426 323.829 116.536C323.669 116.215 323.556 115.873 323.493 115.521C323.591 115.534 323.863 114.032 323.789 113.94C323.926 113.732 324.17 113.628 324.32 113.425C325.062 112.413 326.085 112.589 326.619 113.964C327.759 114.543 327.77 115.503 327.071 116.426C326.625 117.013 326.564 117.807 326.173 118.436C326.214 118.488 326.255 118.538 326.296 118.59C327.03 119.539 327.671 120.559 328.208 121.634C328.077 120.43 328.233 119.211 328.662 118.079C329.097 117.024 329.913 116.135 330.631 115.223C330.821 114.978 331.079 114.795 331.373 114.697C331.666 114.599 331.982 114.591 332.28 114.674C332.578 114.756 332.845 114.926 333.047 115.161C333.249 115.396 333.377 115.686 333.415 115.994C333.417 116.008 333.418 116.021 333.42 116.035C333.313 116.095 333.209 116.159 333.106 116.227C332.978 116.313 332.879 116.437 332.821 116.581C332.763 116.725 332.751 116.883 332.784 117.034C332.817 117.186 332.896 117.324 333.008 117.43C333.121 117.536 333.263 117.605 333.415 117.629L333.431 117.631C333.393 118.018 333.326 118.401 333.23 118.777C334.151 122.359 332.162 123.664 329.321 123.722C329.259 123.755 329.198 123.787 329.135 123.818C329.674 125.354 330.013 126.955 330.141 128.579C330.214 129.537 330.21 130.499 330.129 131.457L330.133 131.423C330.339 130.358 330.904 129.398 331.733 128.703C332.964 127.687 334.704 127.312 336.032 126.495C336.173 126.404 336.337 126.355 336.505 126.355C336.672 126.355 336.837 126.402 336.978 126.493C337.12 126.583 337.233 126.712 337.304 126.865C337.375 127.018 337.401 127.188 337.379 127.355L337.373 127.391C337.175 127.472 336.982 127.565 336.796 127.67C336.689 127.731 336.585 127.795 336.483 127.863C336.354 127.949 336.255 128.072 336.197 128.216C336.14 128.36 336.127 128.519 336.16 128.67C336.194 128.822 336.272 128.959 336.385 129.066C336.497 129.172 336.639 129.241 336.792 129.265L336.807 129.267C336.819 129.269 336.828 129.27 336.839 129.272C336.501 130.084 336.026 130.831 335.436 131.481C334.86 134.608 332.385 134.905 329.738 133.994H329.736C329.446 135.263 329.025 136.498 328.481 137.679H323.995C323.979 137.629 323.964 137.577 323.95 137.527C324.365 137.553 324.782 137.528 325.191 137.453C324.858 137.042 324.525 136.628 324.193 136.218C324.185 136.21 324.178 136.202 324.172 136.194C324.003 135.984 323.832 135.775 323.664 135.565L323.663 135.565C323.654 134.921 323.728 134.278 323.882 133.653Z" fill="#F2F2F2"/>
<path d="M288.138 65.5146L282.13 78.1134L282.559 128.321H287.705C287.705 128.321 288.705 126.964 288.705 126.014C288.705 125.063 287.003 124.926 288.138 123.759C289.273 122.592 289.651 122.212 289.651 121.072V102.825L293.709 85.1368L293.28 104.572L307.861 122.064L311.257 118.65C311.257 118.65 312.251 118.21 311.257 117.265C310.264 116.319 309.645 117.989 309.576 115.348C309.508 112.708 310.075 113.278 309.508 112.708C308.94 112.137 300.999 102.609 300.999 102.609C300.999 102.609 308.184 71.8387 304.591 65.9459L288.138 65.5146Z" fill="#2F2E41"/>
<path d="M304.969 66.8967C304.969 66.8967 289.462 61.3841 290.597 58.3427C291.731 55.3013 293.637 55.8865 291.36 54.9286C289.084 53.9707 287.575 53.7806 288.991 52.4499C290.407 51.1193 292.488 49.7887 292.488 48.4581C292.488 47.1275 294.19 36.6726 294.19 36.6726H296.914L299.674 31.9204H303.572L305.536 36.2924H309.683L309.886 42.9455C309.886 42.9455 310.154 55.7982 308.885 56.3101C307.617 56.822 306.482 56.822 307.617 57.9625C308.751 59.103 309.397 59.6928 308.885 60.7285C308.373 61.7643 304.969 66.8967 304.969 66.8967Z" fill="#E6E6E6"/>
<path d="M307.238 38.1934L309.683 36.2925C309.683 36.2925 313.857 36.2925 314.425 38.5735C314.992 40.8546 318.407 46.4329 318.407 46.4329C318.407 46.4329 321.8 44.4663 323.124 44.4663C324.447 44.4663 325.393 45.4167 325.393 44.2762C325.393 43.1357 324.637 42.9456 325.771 42.9456C326.906 42.9456 329.932 41.8051 329.932 41.8051L333.159 45.0493C333.159 45.0493 332.768 48.078 331.445 47.8879C330.121 47.6978 329.364 46.7473 329.364 47.8879C329.364 49.0284 330.121 50.7392 328.419 50.9293C326.717 51.1194 315.37 53.9707 315.37 53.9707L307.617 42.5654L307.238 38.1934Z" fill="#E6E6E6"/>
<path d="M297.404 38.1934L294.959 36.2925C294.959 36.2925 290.786 36.2925 290.218 38.5735C289.651 40.8546 286.046 46.4329 286.046 46.4329C286.046 46.4329 282.843 44.4663 281.519 44.4663C280.195 44.4663 279.25 45.4167 279.25 44.2762C279.25 43.1357 280.006 42.9456 278.872 42.9456C277.737 42.9456 274.711 41.8051 274.711 41.8051L271.484 45.0493C271.484 45.0493 271.874 48.078 273.198 47.8879C274.522 47.6978 275.278 46.7473 275.278 47.8879C275.278 49.0284 274.522 50.7392 276.224 50.9293C277.926 51.1194 289.273 53.9707 289.273 53.9707L297.026 42.5654L297.404 38.1934Z" fill="#E6E6E6"/>
<path d="M301.17 30.8878C304.503 30.8878 307.205 28.1719 307.205 24.8216C307.205 21.4713 304.503 18.7554 301.17 18.7554C297.837 18.7554 295.135 21.4713 295.135 24.8216C295.135 28.1719 297.837 30.8878 301.17 30.8878Z" fill="#FFB6B6"/>
<path d="M307.755 23.9059C307.045 24.7691 305.99 24.7241 305.052 24.5865C304.755 24.5439 304.459 24.4964 304.163 24.4413C304.111 24.2737 304.051 24.1061 303.984 23.9434C303.706 23.2643 303.291 22.6507 302.764 22.1419C302.819 22.8072 302.768 23.4771 302.612 24.1261C302.062 23.9985 301.514 23.8558 300.969 23.6982C300.487 23.6194 300.053 23.3573 299.757 22.9661C299.462 22.575 299.327 22.0846 299.381 21.5964C298.597 22.1969 297.743 22.7174 296.847 22.7274C296.342 22.7142 295.854 22.5387 295.455 22.2267C295.057 21.9146 294.768 21.4824 294.631 20.9934C294.387 20.2427 294.425 19.377 294.524 18.5663C294.644 17.603 294.913 16.5446 295.56 16.1567C296.08 15.8415 296.68 16.0667 297.215 16.3219C298.394 16.8907 299.512 17.5799 300.551 18.3786L300.563 18.6414C300.832 17.3478 301.721 16.3494 302.689 16.2493C303.341 16.1843 303.979 16.487 304.594 16.7923C305.397 17.1486 306.144 17.6216 306.812 18.196C307.565 18.885 308.089 19.7913 308.31 20.7907C308.542 21.8742 308.367 23.1603 307.755 23.9059Z" fill="#2F2E41"/>
<path d="M301.781 15.4874C301.843 15.4926 301.691 15.4576 301.74 15.4784C301.716 15.4673 301.693 15.4542 301.67 15.4393C301.667 15.4369 301.618 15.397 301.65 15.4248C301.576 15.367 301.52 15.289 301.49 15.2001C301.421 14.9843 301.389 14.7583 301.395 14.5318C301.408 14.234 301.357 13.9371 301.247 13.6604C301.214 13.5854 301.165 13.5193 301.102 13.4673C301.039 13.4153 300.965 13.3789 300.886 13.3611C300.806 13.3433 300.724 13.3446 300.645 13.3648C300.566 13.3851 300.493 13.4237 300.432 13.4776C300.228 13.6784 300.212 14.0176 300.198 14.2874C300.182 14.5674 300.212 14.8482 300.285 15.1188C300.411 15.5638 300.664 15.9622 301.011 16.2656C301.413 16.619 301.917 16.833 302.449 16.8756C302.522 16.874 302.593 16.851 302.654 16.8095C302.714 16.768 302.761 16.7097 302.789 16.6418C302.817 16.5739 302.825 16.4993 302.811 16.427C302.798 16.3548 302.764 16.2881 302.713 16.2349L302.045 15.5973C301.975 15.527 301.88 15.4874 301.781 15.4874C301.682 15.4874 301.587 15.527 301.517 15.5973C301.447 15.6677 301.407 15.7632 301.407 15.8627C301.407 15.9623 301.447 16.0577 301.517 16.1281L302.185 16.7657L302.449 16.125C302.339 16.115 302.23 16.0927 302.125 16.0584C302.01 16.0265 301.901 15.9784 301.801 15.9156C301.702 15.8613 301.609 15.7962 301.525 15.7217C301.47 15.6738 301.419 15.6232 301.37 15.5701C301.352 15.5508 301.334 15.5311 301.317 15.5111C301.318 15.5126 301.247 15.4223 301.278 15.4636C301.2 15.3574 301.133 15.2442 301.077 15.1255C301.057 15.0834 301.041 15.0398 301.028 14.9951C301.004 14.9215 300.985 14.8465 300.97 14.7707C300.941 14.6113 300.933 14.4489 300.944 14.2874C300.948 14.2189 300.954 14.1506 300.965 14.0828C300.974 14.047 300.981 14.0107 300.986 13.974C300.987 13.8828 300.973 14.0226 300.926 14.0439L300.737 14.0951C300.707 14.0926 300.677 14.0831 300.65 14.0675C300.624 14.0519 300.601 14.0304 300.584 14.0047C300.576 13.9734 300.578 13.979 300.591 14.0214C300.605 14.0712 300.616 14.1219 300.623 14.1731C300.638 14.2922 300.646 14.4119 300.648 14.5318C300.651 14.7858 300.68 15.0389 300.736 15.2866C300.788 15.5356 300.917 15.7616 301.105 15.9324C301.293 16.1033 301.529 16.2103 301.781 16.2381C301.88 16.2373 301.974 16.1975 302.044 16.1273C302.114 16.0571 302.153 15.9621 302.154 15.8628C302.152 15.7638 302.112 15.6695 302.043 15.5995C301.973 15.5296 301.879 15.4894 301.781 15.4874Z" fill="#2F2E41"/>
<path d="M332.602 39.8502C330.549 37.1049 329.362 34.035 329.323 30.535C329.257 30.3464 329.268 30.1391 329.354 29.9586C329.439 29.7781 329.593 29.6391 329.78 29.5722L336.779 27.083C336.967 27.0165 337.173 27.0275 337.353 27.1137C337.532 27.1998 337.67 27.3541 337.737 27.5425L341.016 36.8578C341.082 37.0464 341.071 37.2537 340.986 37.4342C340.9 37.6147 340.746 37.7536 340.559 37.8205L333.56 40.3098C333.372 40.3763 333.166 40.3652 332.987 40.2791C332.807 40.1929 332.669 40.0387 332.602 39.8502Z" fill="#6C63FF"/>
<path opacity="0.2" d="M334.182 39.6839C333.995 39.7504 333.788 39.7394 333.609 39.6532C333.429 39.5671 333.291 39.4129 333.224 39.2244C331.171 36.4791 329.984 33.4091 329.945 29.9091C329.903 29.7851 329.893 29.6519 329.918 29.5229L329.78 29.5719C329.593 29.6389 329.439 29.7778 329.354 29.9583C329.268 30.1388 329.257 30.3461 329.323 30.5347C329.362 34.0347 330.549 37.1046 332.602 39.8499C332.669 40.0384 332.807 40.1926 332.987 40.2788C333.166 40.3649 333.372 40.376 333.56 40.3095L340.559 37.8203C340.683 37.7756 340.793 37.6988 340.878 37.5975C340.963 37.4963 341.02 37.3742 341.043 37.2437L334.182 39.6839Z" fill="black"/>
<path d="M337.461 32.7115L332.776 34.3927C332.701 34.4194 332.619 34.4153 332.548 34.3812C332.476 34.3472 332.421 34.2859 332.394 34.211C332.368 34.136 332.372 34.0535 332.406 33.9816C332.439 33.9097 332.5 33.8543 332.575 33.8275L337.26 32.1464C337.297 32.1331 337.337 32.1273 337.376 32.1293C337.415 32.1312 337.453 32.1409 337.489 32.1578C337.524 32.1747 337.556 32.1984 337.582 32.2276C337.608 32.2568 337.629 32.291 337.642 32.3281C337.655 32.3652 337.661 32.4045 337.659 32.4439C337.657 32.4833 337.647 32.5218 337.631 32.5574C337.614 32.5931 337.59 32.625 337.561 32.6514C337.532 32.6779 337.498 32.6983 337.461 32.7115Z" fill="white"/>
<path d="M333.256 32.4731L332.225 32.843C332.188 32.8563 332.149 32.8621 332.11 32.8602C332.071 32.8583 332.033 32.8487 331.997 32.8318C331.962 32.815 331.93 32.7913 331.904 32.7621C331.877 32.7329 331.857 32.6988 331.844 32.6617C331.83 32.6246 331.825 32.5853 331.827 32.5459C331.828 32.5066 331.838 32.468 331.855 32.4324C331.872 32.3967 331.895 32.3648 331.924 32.3383C331.953 32.3118 331.987 32.2914 332.024 32.2781L332.025 32.2778L333.055 31.908C333.13 31.8813 333.212 31.8855 333.283 31.9196C333.355 31.9537 333.41 32.0149 333.437 32.0898C333.463 32.1647 333.459 32.2471 333.425 32.319C333.391 32.3909 333.331 32.4463 333.256 32.4731Z" fill="white"/>
<path d="M338.344 35.1963L333.658 36.8774C333.584 36.9043 333.501 36.9003 333.43 36.8663C333.358 36.8323 333.303 36.7711 333.276 36.6962C333.25 36.6213 333.254 36.5388 333.287 36.4668C333.321 36.3948 333.382 36.3393 333.457 36.3125L333.457 36.3123L338.143 34.6311C338.217 34.6045 338.299 34.6086 338.371 34.6427C338.442 34.6768 338.497 34.7381 338.524 34.8129C338.551 34.8878 338.547 34.9703 338.513 35.0422C338.479 35.114 338.418 35.1695 338.344 35.1963Z" fill="white"/>
<path d="M337.902 33.9538L333.217 35.635C333.18 35.6483 333.141 35.6541 333.102 35.6522C333.063 35.6503 333.024 35.6407 332.989 35.6238C332.953 35.607 332.921 35.5833 332.895 35.5541C332.869 35.5249 332.848 35.4908 332.835 35.4537C332.822 35.4166 332.816 35.3773 332.818 35.3379C332.82 35.2986 332.83 35.26 332.846 35.2244C332.863 35.1887 332.887 35.1568 332.916 35.1303C332.945 35.1038 332.979 35.0833 333.016 35.0701L333.016 35.0698L337.702 33.3887C337.739 33.3754 337.778 33.3695 337.817 33.3714C337.856 33.3734 337.894 33.383 337.93 33.3998C337.965 33.4167 337.997 33.4404 338.023 33.4695C338.05 33.4987 338.07 33.5328 338.083 33.5699C338.097 33.607 338.102 33.6464 338.101 33.6857C338.099 33.7251 338.089 33.7637 338.072 33.7993C338.056 33.8349 338.032 33.8669 338.003 33.8934C337.974 33.9199 337.94 33.9403 337.903 33.9536L337.902 33.9538Z" fill="white"/>
<path d="M333.093 29.6682C333.781 29.6682 334.338 29.108 334.338 28.4171C334.338 27.7261 333.781 27.166 333.093 27.166C332.406 27.166 331.849 27.7261 331.849 28.4171C331.849 29.108 332.406 29.6682 333.093 29.6682Z" fill="#3F3D56"/>
<path d="M271.633 7.96159C272.887 4.76643 274.869 2.14378 277.816 0.279548C277.942 0.124205 278.123 0.0251744 278.321 0.00417644C278.519 -0.0168215 278.717 0.04193 278.872 0.167544L284.644 4.86112C284.798 4.98709 284.897 5.16953 284.917 5.36842C284.938 5.56731 284.88 5.7664 284.755 5.92203L278.572 13.6041C278.447 13.7594 278.265 13.8584 278.067 13.8794C277.87 13.9004 277.671 13.8417 277.517 13.7161L271.745 9.0225C271.59 8.89653 271.492 8.71409 271.471 8.5152C271.45 8.31631 271.508 8.11721 271.633 7.96159Z" fill="#6C63FF"/>
<path opacity="0.2" d="M272.601 9.22839C272.446 9.10243 272.348 8.91999 272.327 8.7211C272.306 8.52221 272.364 8.32311 272.489 8.16748C273.743 4.97231 275.725 2.34966 278.672 0.485431C278.755 0.383852 278.863 0.306057 278.985 0.259915L278.872 0.167547C278.717 0.041935 278.519 -0.0168204 278.321 0.00417556C278.123 0.0251715 277.942 0.124205 277.816 0.279543C274.869 2.14378 272.887 4.76641 271.633 7.96159C271.508 8.11722 271.45 8.31632 271.471 8.51521C271.492 8.7141 271.59 8.89654 271.745 9.0225L277.517 13.7161C277.619 13.7991 277.742 13.8533 277.873 13.8733C278.003 13.8932 278.136 13.8781 278.259 13.8296L272.601 9.22839Z" fill="black"/>
<path d="M280.228 8.39002L276.351 5.25554C276.29 5.20559 276.25 5.13317 276.242 5.05418C276.234 4.97518 276.257 4.89605 276.306 4.83415C276.356 4.77224 276.428 4.73261 276.506 4.72396C276.585 4.7153 276.664 4.73832 276.725 4.78796L280.602 7.92244C280.663 7.9724 280.703 8.04481 280.711 8.12379C280.719 8.20278 280.696 8.2819 280.647 8.34379C280.597 8.40569 280.525 8.44532 280.447 8.45398C280.368 8.46264 280.289 8.43965 280.228 8.39002Z" fill="white"/>
<path d="M278.23 4.6632L277.377 3.97361C277.316 3.92363 277.277 3.85123 277.268 3.77228C277.26 3.69334 277.283 3.61427 277.333 3.55241C277.382 3.49055 277.454 3.45093 277.532 3.44223C277.611 3.43354 277.69 3.45648 277.751 3.50603L278.604 4.19562C278.666 4.24559 278.705 4.31799 278.713 4.39696C278.722 4.47592 278.699 4.55501 278.649 4.61689C278.6 4.67877 278.528 4.71839 278.449 4.72707C278.371 4.73575 278.292 4.71278 278.23 4.6632Z" fill="white"/>
<path d="M278.583 10.4457L274.706 7.31121C274.645 7.26126 274.605 7.18885 274.597 7.10985C274.589 7.03085 274.612 6.95172 274.661 6.88981C274.711 6.8279 274.783 6.78828 274.861 6.77962C274.94 6.77096 275.019 6.79398 275.08 6.84363L278.957 9.97811C279.018 10.0281 279.057 10.1005 279.066 10.1794C279.074 10.2584 279.051 10.3374 279.001 10.3993C278.952 10.4612 278.88 10.5008 278.802 10.5095C278.723 10.5182 278.644 10.4952 278.583 10.4457Z" fill="white"/>
<path d="M279.405 9.41785L275.529 6.28337C275.498 6.25876 275.473 6.22832 275.454 6.19381C275.435 6.15929 275.423 6.12137 275.418 6.08221C275.41 6.00312 275.433 5.92377 275.482 5.86163C275.531 5.79949 275.603 5.75965 275.682 5.75086C275.761 5.74207 275.84 5.76506 275.902 5.81477L275.903 5.81579L279.779 8.95027C279.841 8.99998 279.881 9.07234 279.89 9.15143C279.898 9.23053 279.875 9.30987 279.826 9.37201C279.777 9.43415 279.705 9.474 279.626 9.48278C279.547 9.49157 279.468 9.46858 279.406 9.41887L279.405 9.41785Z" fill="white"/>
<path d="M281.584 3.65302C282.271 3.65302 282.829 3.0929 282.829 2.40195C282.829 1.711 282.271 1.15088 281.584 1.15088C280.897 1.15088 280.339 1.711 280.339 2.40195C280.339 3.0929 280.897 3.65302 281.584 3.65302Z" fill="#3F3D56"/>
<path d="M257.357 45.3641C254.319 41.3034 252.564 36.7625 252.506 31.5855C252.408 31.3065 252.425 30.9999 252.551 30.7329C252.678 30.466 252.905 30.2605 253.183 30.1615L263.535 26.4796C263.813 26.3812 264.118 26.3975 264.383 26.525C264.649 26.6524 264.853 26.8805 264.952 27.1593L269.802 40.9378C269.9 41.2168 269.883 41.5235 269.757 41.7904C269.63 42.0574 269.403 42.2629 269.126 42.3619L258.773 46.0438C258.496 46.1422 258.191 46.1258 257.925 45.9984C257.659 45.871 257.455 45.6429 257.357 45.3641Z" fill="#6C63FF"/>
<path opacity="0.2" d="M259.694 45.1184C259.416 45.2167 259.111 45.2004 258.846 45.073C258.58 44.9456 258.376 44.7175 258.277 44.4387C255.24 40.378 253.484 35.8371 253.427 30.6601C253.364 30.4766 253.35 30.2795 253.386 30.0889L253.183 30.1613C252.905 30.2603 252.678 30.4658 252.552 30.7328C252.425 30.9998 252.408 31.3064 252.506 31.5854C252.564 36.7623 254.319 41.3032 257.357 45.3639C257.455 45.6427 257.659 45.8708 257.925 45.9982C258.191 46.1257 258.496 46.142 258.773 46.0436L269.126 42.3618C269.309 42.2957 269.472 42.1821 269.598 42.0323C269.724 41.8826 269.808 41.702 269.842 41.509L259.694 45.1184Z" fill="black"/>
<path d="M264.544 34.8056L257.613 37.2923C257.559 37.3121 257.501 37.3208 257.443 37.318C257.385 37.3153 257.328 37.301 257.275 37.2761C257.223 37.2512 257.175 37.2161 257.136 37.1728C257.097 37.1295 257.067 37.0789 257.048 37.0239C257.028 36.9689 257.02 36.9106 257.023 36.8523C257.026 36.794 257.04 36.7368 257.065 36.6841C257.09 36.6314 257.125 36.5841 257.168 36.545C257.211 36.5059 257.262 36.4758 257.316 36.4563L264.247 33.9697C264.302 33.9501 264.359 33.9415 264.417 33.9444C264.475 33.9473 264.532 33.9616 264.584 33.9866C264.637 34.0116 264.684 34.0466 264.723 34.0899C264.762 34.1331 264.792 34.1836 264.811 34.2385C264.831 34.2934 264.839 34.3516 264.836 34.4098C264.833 34.468 264.819 34.5251 264.794 34.5777C264.769 34.6304 264.735 34.6776 264.692 34.7167C264.649 34.7558 264.598 34.7861 264.544 34.8056Z" fill="white"/>
<path d="M258.324 34.4527L256.799 34.9997C256.689 35.0389 256.568 35.0325 256.462 34.9821C256.357 34.9316 256.275 34.8411 256.236 34.7305C256.197 34.6199 256.203 34.4981 256.253 34.3918C256.303 34.2856 256.392 34.2036 256.502 34.1638L258.027 33.6167C258.137 33.5775 258.258 33.5839 258.364 33.6343C258.47 33.6848 258.551 33.7753 258.59 33.8859C258.629 33.9966 258.623 34.1184 258.574 34.2246C258.524 34.3308 258.434 34.4128 258.324 34.4527Z" fill="white"/>
<path d="M265.849 38.4805L258.918 40.9671C258.808 41.0067 258.687 41.0006 258.581 40.9502C258.475 40.8998 258.393 40.8092 258.354 40.6983C258.315 40.5874 258.321 40.4654 258.371 40.359C258.421 40.2527 258.511 40.1707 258.621 40.1311L265.552 37.6445C265.607 37.6249 265.665 37.6163 265.722 37.6192C265.78 37.6221 265.837 37.6364 265.89 37.6614C265.942 37.6864 265.989 37.7215 266.028 37.7647C266.067 37.8079 266.097 37.8584 266.116 37.9133C266.136 37.9682 266.144 38.0264 266.141 38.0846C266.139 38.1428 266.124 38.1999 266.099 38.2525C266.075 38.3052 266.04 38.3524 265.997 38.3915C265.954 38.4306 265.903 38.4609 265.849 38.4805Z" fill="white"/>
<path d="M265.196 36.6431L258.266 39.1297C258.211 39.1493 258.153 39.1579 258.095 39.155C258.037 39.1521 257.981 39.1377 257.928 39.1128C257.876 39.0878 257.829 39.0527 257.79 39.0095C257.751 38.9663 257.721 38.9158 257.702 38.8609C257.682 38.806 257.674 38.7478 257.676 38.6896C257.679 38.6314 257.694 38.5743 257.718 38.5216C257.743 38.469 257.778 38.4217 257.821 38.3826C257.864 38.3435 257.914 38.3133 257.969 38.2937L264.899 35.8071C264.954 35.7875 265.012 35.7789 265.07 35.7818C265.128 35.7847 265.185 35.799 265.237 35.824C265.289 35.849 265.336 35.8841 265.375 35.9273C265.414 35.9705 265.444 36.021 265.464 36.0759C265.483 36.1308 265.492 36.189 265.489 36.2472C265.486 36.3054 265.472 36.3625 265.447 36.4151C265.422 36.4678 265.387 36.515 265.344 36.5541C265.301 36.5932 265.251 36.6235 265.196 36.6431Z" fill="white"/>
<path d="M258.083 30.304C259.1 30.304 259.924 29.4755 259.924 28.4535C259.924 27.4315 259.1 26.603 258.083 26.603C257.066 26.603 256.242 27.4315 256.242 28.4535C256.242 29.4755 257.066 30.304 258.083 30.304Z" fill="#3F3D56"/>
<path d="M325.672 112.293C322.255 112.275 319.106 111.368 316.31 109.282C316.12 109.221 315.963 109.086 315.871 108.909C315.78 108.731 315.763 108.524 315.823 108.333L318.086 101.226C318.147 101.036 318.28 100.877 318.457 100.786C318.634 100.694 318.84 100.677 319.029 100.737L328.392 103.748C328.582 103.81 328.739 103.944 328.83 104.122C328.921 104.299 328.939 104.506 328.878 104.697L326.616 111.804C326.555 111.995 326.421 112.153 326.245 112.245C326.068 112.336 325.862 112.354 325.672 112.293Z" fill="#F2F2F2"/>
<path opacity="0.2" d="M326.497 110.928C326.436 111.118 326.302 111.276 326.126 111.368C325.949 111.46 325.743 111.477 325.553 111.416C322.136 111.399 318.987 110.491 316.19 108.405C316.066 108.364 315.955 108.291 315.868 108.193L315.823 108.333C315.763 108.524 315.78 108.731 315.871 108.909C315.963 109.086 316.12 109.221 316.31 109.282C319.106 111.368 322.255 112.275 325.672 112.293C325.862 112.353 326.068 112.336 326.245 112.245C326.421 112.153 326.555 111.995 326.616 111.804L328.878 104.697C328.918 104.57 328.924 104.436 328.895 104.306C328.866 104.177 328.804 104.057 328.715 103.96L326.497 110.928Z" fill="black"/>
<path d="M322.957 104.085L321.454 108.852C321.443 108.89 321.424 108.925 321.399 108.955C321.374 108.986 321.343 109.011 321.308 109.029C321.273 109.047 321.235 109.058 321.196 109.062C321.157 109.066 321.118 109.061 321.08 109.05C321.043 109.038 321.008 109.019 320.978 108.994C320.948 108.968 320.923 108.937 320.905 108.902C320.887 108.867 320.876 108.829 320.872 108.79C320.869 108.751 320.873 108.711 320.885 108.673L320.885 108.671L322.388 103.904C322.412 103.828 322.465 103.766 322.536 103.729C322.606 103.693 322.687 103.686 322.763 103.71C322.838 103.734 322.901 103.787 322.937 103.857C322.974 103.927 322.981 104.009 322.957 104.085Z" fill="white"/>
<path d="M320.225 107.306L319.894 108.355C319.882 108.393 319.863 108.428 319.838 108.458C319.813 108.488 319.782 108.513 319.748 108.531C319.713 108.55 319.675 108.561 319.636 108.565C319.597 108.568 319.557 108.564 319.52 108.552C319.483 108.54 319.448 108.521 319.418 108.496C319.388 108.471 319.363 108.44 319.345 108.405C319.326 108.37 319.315 108.332 319.312 108.293C319.308 108.253 319.312 108.214 319.324 108.176L319.325 108.174L319.655 107.125C319.667 107.088 319.686 107.053 319.711 107.022C319.736 106.992 319.767 106.967 319.802 106.949C319.837 106.931 319.875 106.919 319.914 106.916C319.953 106.912 319.992 106.916 320.029 106.928C320.067 106.94 320.102 106.959 320.132 106.984C320.162 107.009 320.187 107.04 320.205 107.075C320.223 107.11 320.234 107.148 320.238 107.188C320.241 107.227 320.237 107.266 320.225 107.304L320.225 107.306Z" fill="white"/>
<path d="M325.459 104.882L323.956 109.649C323.945 109.687 323.926 109.722 323.901 109.752C323.876 109.782 323.845 109.807 323.81 109.826C323.775 109.844 323.737 109.855 323.698 109.859C323.659 109.862 323.62 109.858 323.583 109.846C323.545 109.835 323.51 109.815 323.48 109.79C323.45 109.765 323.425 109.734 323.407 109.699C323.389 109.664 323.378 109.626 323.374 109.587C323.371 109.548 323.375 109.508 323.387 109.47L323.387 109.468L324.89 104.701C324.902 104.663 324.921 104.628 324.946 104.598C324.971 104.568 325.002 104.543 325.037 104.524C325.071 104.506 325.109 104.495 325.148 104.491C325.188 104.487 325.227 104.492 325.264 104.503C325.302 104.515 325.337 104.534 325.367 104.56C325.397 104.585 325.422 104.616 325.44 104.651C325.458 104.686 325.469 104.724 325.473 104.763C325.476 104.803 325.472 104.842 325.46 104.88L325.459 104.882Z" fill="white"/>
<path d="M324.208 104.484L322.705 109.251C322.694 109.288 322.675 109.323 322.65 109.354C322.625 109.384 322.594 109.409 322.559 109.427C322.524 109.446 322.486 109.457 322.447 109.461C322.408 109.464 322.369 109.46 322.331 109.448C322.294 109.436 322.259 109.417 322.229 109.392C322.199 109.367 322.174 109.336 322.156 109.301C322.138 109.266 322.127 109.228 322.123 109.188C322.12 109.149 322.124 109.109 322.136 109.072L322.136 109.07L323.639 104.302C323.651 104.265 323.67 104.23 323.695 104.2C323.72 104.169 323.751 104.144 323.786 104.126C323.82 104.108 323.858 104.097 323.897 104.093C323.936 104.089 323.976 104.094 324.013 104.105C324.051 104.117 324.085 104.136 324.115 104.161C324.146 104.187 324.17 104.218 324.189 104.253C324.207 104.288 324.218 104.326 324.221 104.365C324.225 104.404 324.221 104.444 324.209 104.481L324.208 104.484Z" fill="white"/>
<path d="M316.913 106.234C317.6 106.234 318.158 105.674 318.158 104.983C318.158 104.292 317.6 103.732 316.913 103.732C316.226 103.732 315.668 104.292 315.668 104.983C315.668 105.674 316.226 106.234 316.913 106.234Z" fill="#CCCCCC"/>
<path d="M344.312 56.1345C344.434 55.6521 343.973 55.1186 343.284 54.9429C342.594 54.7671 341.936 55.0157 341.814 55.4981C341.693 55.9805 342.153 56.514 342.843 56.6898C343.533 56.8655 344.191 56.6169 344.312 56.1345Z" fill="white"/>
<path d="M335.888 56.0798C336.009 55.5974 335.549 55.0639 334.859 54.8882C334.169 54.7125 333.511 54.9611 333.39 55.4434C333.268 55.9258 333.729 56.4594 334.418 56.6351C335.108 56.8108 335.766 56.5622 335.888 56.0798Z" fill="#3F3D56"/>
<path d="M345.893 63.1604C346.015 62.678 345.554 62.1445 344.864 61.9688C344.175 61.793 343.517 62.0416 343.395 62.524C343.274 63.0064 343.734 63.5399 344.424 63.7157C345.114 63.8914 345.772 63.6428 345.893 63.1604Z" fill="#FF6584"/>
<path d="M347.857 65.8095C347.907 65.3602 347.696 64.9677 347.385 64.9327C347.074 64.8978 346.781 65.2337 346.731 65.683C346.681 66.1323 346.893 66.5249 347.204 66.5598C347.515 66.5947 347.807 66.2588 347.857 65.8095Z" fill="#E6E6E6"/>
<path d="M348.55 71.1162C348.6 70.6669 348.388 70.2743 348.077 70.2394C347.766 70.2045 347.474 70.5404 347.424 70.9897C347.374 71.439 347.586 71.8315 347.897 71.8665C348.207 71.9014 348.5 71.5655 348.55 71.1162Z" fill="#3F3D56"/>
<path d="M339.937 61.0034C339.987 60.5541 339.775 60.1615 339.464 60.1266C339.153 60.0916 338.861 60.4276 338.811 60.8769C338.761 61.3262 338.973 61.7187 339.283 61.7537C339.594 61.7886 339.887 61.4527 339.937 61.0034Z" fill="#E6E6E6"/>
<path d="M344.177 59.4023C344.227 58.953 344.015 58.5604 343.704 58.5255C343.393 58.4906 343.101 58.8265 343.051 59.2758C343.001 59.7251 343.212 60.1177 343.523 60.1526C343.834 60.1875 344.127 59.8516 344.177 59.4023Z" fill="#FF6584"/>
<path d="M338.954 55.0771C339.004 54.6278 338.792 54.2352 338.481 54.2003C338.17 54.1654 337.877 54.5013 337.827 54.9506C337.778 55.3999 337.989 55.7925 338.3 55.8274C338.611 55.8623 338.904 55.5264 338.954 55.0771Z" fill="#3F3D56"/>
<path d="M265.651 53.1321C265.773 52.6497 265.312 52.1162 264.622 51.9405C263.932 51.7647 263.274 52.0133 263.153 52.4957C263.031 52.9781 263.492 53.5116 264.182 53.6873C264.872 53.8631 265.529 53.6145 265.651 53.1321Z" fill="white"/>
<path d="M257.226 53.0774C257.348 52.595 256.887 52.0615 256.197 51.8858C255.508 51.71 254.85 51.9586 254.728 52.441C254.607 52.9234 255.067 53.4569 255.757 53.6326C256.447 53.8084 257.105 53.5598 257.226 53.0774Z" fill="#3F3D56"/>
<path d="M267.232 60.158C267.354 59.6756 266.893 59.1421 266.203 58.9663C265.513 58.7906 264.855 59.0392 264.734 59.5216C264.612 60.004 265.073 60.5375 265.763 60.7132C266.452 60.8889 267.11 60.6403 267.232 60.158Z" fill="#FF6584"/>
<path d="M269.196 62.8071C269.246 62.3578 269.034 61.9652 268.723 61.9303C268.412 61.8954 268.12 62.2313 268.07 62.6806C268.02 63.1299 268.231 63.5225 268.542 63.5574C268.853 63.5923 269.146 63.2564 269.196 62.8071Z" fill="#E6E6E6"/>
<path d="M269.889 68.1132C269.939 67.6639 269.727 67.2714 269.416 67.2364C269.105 67.2015 268.812 67.5374 268.762 67.9867C268.713 68.4361 268.924 68.8286 269.235 68.8635C269.546 68.8985 269.839 68.5625 269.889 68.1132Z" fill="#3F3D56"/>
<path d="M261.276 58.0009C261.326 57.5516 261.114 57.1591 260.803 57.1241C260.492 57.0892 260.199 57.4251 260.15 57.8744C260.1 58.3238 260.311 58.7163 260.622 58.7512C260.933 58.7862 261.226 58.4502 261.276 58.0009Z" fill="#E6E6E6"/>
<path d="M265.515 56.3998C265.565 55.9505 265.354 55.558 265.043 55.5231C264.732 55.4881 264.439 55.8241 264.389 56.2734C264.339 56.7227 264.551 57.1152 264.862 57.1502C265.173 57.1851 265.465 56.8492 265.515 56.3998Z" fill="#FF6584"/>
<path d="M260.292 52.0747C260.342 51.6253 260.13 51.2328 259.82 51.1979C259.509 51.1629 259.216 51.4989 259.166 51.9482C259.116 52.3975 259.328 52.79 259.639 52.825C259.95 52.8599 260.242 52.524 260.292 52.0747Z" fill="#3F3D56"/>
<path d="M319.409 77.132C317.356 74.3867 316.169 71.3167 316.13 67.8167C316.064 67.6281 316.075 67.4208 316.16 67.2403C316.246 67.0598 316.4 66.9209 316.587 66.854L323.586 64.3647C323.774 64.2982 323.98 64.3093 324.159 64.3954C324.339 64.4816 324.477 64.6358 324.544 64.8243L327.823 74.1395C327.889 74.3281 327.878 74.5354 327.792 74.7159C327.707 74.8964 327.553 75.0354 327.366 75.1023L320.367 77.5915C320.179 77.658 319.973 77.647 319.793 77.5608C319.614 77.4747 319.475 77.3204 319.409 77.132Z" fill="#F2F2F2"/>
<path opacity="0.2" d="M320.989 76.9662C320.801 77.0327 320.595 77.0216 320.416 76.9355C320.236 76.8493 320.098 76.6951 320.031 76.5066C317.978 73.7613 316.791 70.6914 316.752 67.1914C316.709 67.0673 316.7 66.9341 316.725 66.8052L316.587 66.8542C316.4 66.9211 316.246 67.06 316.16 67.2405C316.075 67.421 316.064 67.6283 316.13 67.8169C316.169 71.3169 317.356 74.3869 319.409 77.1322C319.476 77.3206 319.614 77.4749 319.793 77.561C319.973 77.6472 320.179 77.6582 320.367 77.5917L327.366 75.1025C327.49 75.0579 327.6 74.981 327.685 74.8798C327.77 74.7785 327.827 74.6564 327.85 74.5259L320.989 76.9662Z" fill="black"/>
<path d="M324.268 69.9938L319.582 71.6749C319.508 71.7017 319.426 71.6975 319.354 71.6635C319.283 71.6294 319.228 71.5681 319.201 71.4932C319.174 71.4182 319.178 71.3357 319.212 71.2638C319.246 71.1919 319.307 71.1365 319.382 71.1097L324.067 69.4286C324.104 69.4154 324.143 69.4095 324.182 69.4115C324.222 69.4135 324.26 69.4232 324.295 69.44C324.331 69.4569 324.363 69.4806 324.389 69.5098C324.415 69.5391 324.436 69.5732 324.449 69.6103C324.462 69.6474 324.468 69.6868 324.466 69.7261C324.464 69.7655 324.454 69.8041 324.437 69.8397C324.421 69.8753 324.397 69.9072 324.368 69.9337C324.339 69.9601 324.305 69.9805 324.268 69.9938Z" fill="white"/>
<path d="M320.063 69.7554L319.032 70.1252C318.995 70.1385 318.956 70.1444 318.917 70.1424C318.878 70.1405 318.839 70.1309 318.804 70.1141C318.768 70.0972 318.737 70.0735 318.71 70.0444C318.684 70.0152 318.664 69.9811 318.65 69.944C318.637 69.9069 318.631 69.8675 318.633 69.8282C318.635 69.7888 318.645 69.7502 318.662 69.7146C318.678 69.679 318.702 69.647 318.731 69.6205C318.76 69.5941 318.794 69.5736 318.831 69.5603L318.831 69.5601L319.862 69.1902C319.937 69.1636 320.019 69.1677 320.09 69.2018C320.162 69.2359 320.217 69.2971 320.243 69.372C320.27 69.4469 320.266 69.5294 320.232 69.6012C320.198 69.6731 320.137 69.7286 320.063 69.7554Z" fill="white"/>
<path d="M325.15 72.4785L320.465 74.1597C320.428 74.1729 320.389 74.1788 320.35 74.1769C320.31 74.175 320.272 74.1653 320.237 74.1485C320.201 74.1317 320.169 74.108 320.143 74.0788C320.117 74.0496 320.096 74.0155 320.083 73.9784C320.07 73.9413 320.064 73.902 320.066 73.8626C320.068 73.8232 320.077 73.7847 320.094 73.749C320.111 73.7134 320.135 73.6814 320.164 73.655C320.193 73.6285 320.227 73.608 320.263 73.5947L320.264 73.5945L324.95 71.9134C325.024 71.8867 325.106 71.8909 325.178 71.925C325.249 71.9591 325.304 72.0203 325.331 72.0952C325.357 72.1701 325.353 72.2525 325.319 72.3244C325.286 72.3963 325.225 72.4517 325.15 72.4785Z" fill="white"/>
<path d="M324.709 71.2361L320.024 72.9172C319.987 72.9305 319.948 72.9364 319.908 72.9344C319.869 72.9325 319.831 72.9229 319.795 72.906C319.76 72.8892 319.728 72.8655 319.702 72.8363C319.676 72.8072 319.655 72.773 319.642 72.736C319.629 72.6989 319.623 72.6595 319.625 72.6202C319.627 72.5808 319.636 72.5422 319.653 72.5066C319.67 72.471 319.693 72.439 319.722 72.4125C319.751 72.386 319.785 72.3656 319.822 72.3523L319.823 72.352L324.508 70.6709C324.583 70.6441 324.665 70.6481 324.737 70.6821C324.808 70.7161 324.863 70.7772 324.89 70.8522C324.917 70.9271 324.913 71.0096 324.879 71.0815C324.845 71.1535 324.784 71.209 324.71 71.2358L324.709 71.2361Z" fill="white"/>
<path d="M319.9 66.9504C320.588 66.9504 321.145 66.3903 321.145 65.6993C321.145 65.0084 320.588 64.4482 319.9 64.4482C319.213 64.4482 318.656 65.0084 318.656 65.6993C318.656 66.3903 319.213 66.9504 319.9 66.9504Z" fill="#CCCCCC"/>
</g>
<path d="M19.14 120.67C18.2333 120.67 17.389 120.523 16.607 120.228C15.8363 119.922 15.162 119.497 14.584 118.953C14.0173 118.398 13.5753 117.746 13.258 116.998C12.9407 116.25 12.782 115.434 12.782 114.55C12.782 113.666 12.9407 112.85 13.258 112.102C13.5753 111.354 14.023 110.708 14.601 110.164C15.179 109.609 15.8533 109.184 16.624 108.889C17.3947 108.583 18.239 108.43 19.157 108.43C20.1317 108.43 21.0213 108.6 21.826 108.94C22.6307 109.269 23.3107 109.762 23.866 110.419L22.438 111.762C22.0073 111.297 21.5257 110.952 20.993 110.725C20.4603 110.487 19.8823 110.368 19.259 110.368C18.6357 110.368 18.0633 110.47 17.542 110.674C17.032 110.878 16.5843 111.167 16.199 111.541C15.825 111.915 15.5303 112.357 15.315 112.867C15.111 113.377 15.009 113.938 15.009 114.55C15.009 115.162 15.111 115.723 15.315 116.233C15.5303 116.743 15.825 117.185 16.199 117.559C16.5843 117.933 17.032 118.222 17.542 118.426C18.0633 118.63 18.6357 118.732 19.259 118.732C19.8823 118.732 20.4603 118.619 20.993 118.392C21.5257 118.154 22.0073 117.797 22.438 117.321L23.866 118.681C23.3107 119.327 22.6307 119.82 21.826 120.16C21.0213 120.5 20.126 120.67 19.14 120.67ZM27.3179 120.5V112.714L27.8109 113.224H24.1219V111.422H32.6219V113.224H28.9499L29.4429 112.714V120.5H27.3179ZM39.6714 120.5V118.664L39.5524 118.273V115.06C39.5524 114.437 39.3654 113.955 38.9914 113.615C38.6174 113.264 38.0507 113.088 37.2914 113.088C36.7814 113.088 36.277 113.167 35.7784 113.326C35.291 113.485 34.8774 113.706 34.5374 113.989L33.7044 112.442C34.1917 112.068 34.7697 111.79 35.4384 111.609C36.1184 111.416 36.821 111.32 37.5464 111.32C38.861 111.32 39.8754 111.637 40.5894 112.272C41.3147 112.895 41.6774 113.864 41.6774 115.179V120.5H39.6714ZM36.8154 120.619C36.1354 120.619 35.5404 120.506 35.0304 120.279C34.5204 120.041 34.1237 119.718 33.8404 119.31C33.5684 118.891 33.4324 118.42 33.4324 117.899C33.4324 117.389 33.5514 116.93 33.7894 116.522C34.0387 116.114 34.441 115.791 34.9964 115.553C35.5517 115.315 36.2884 115.196 37.2064 115.196H39.8414V116.607H37.3594C36.634 116.607 36.1467 116.726 35.8974 116.964C35.648 117.191 35.5234 117.474 35.5234 117.814C35.5234 118.199 35.6764 118.505 35.9824 118.732C36.2884 118.959 36.7134 119.072 37.2574 119.072C37.7787 119.072 38.2434 118.953 38.6514 118.715C39.0707 118.477 39.371 118.126 39.5524 117.661L39.9094 118.936C39.7054 119.469 39.337 119.882 38.8044 120.177C38.283 120.472 37.62 120.619 36.8154 120.619ZM46.1939 120.5V112.714L46.6869 113.224H42.9979V111.422H51.4979V113.224H47.8259L48.3189 112.714V120.5H46.1939ZM57.5953 114.414C58.7627 114.414 59.6523 114.675 60.2643 115.196C60.8763 115.717 61.1823 116.454 61.1823 117.406C61.1823 118.392 60.8423 119.163 60.1623 119.718C59.4823 120.262 58.5247 120.528 57.2893 120.517L53.0393 120.5V111.422H55.1643V114.397L57.5953 114.414ZM57.1023 118.953C57.7257 118.964 58.2017 118.834 58.5303 118.562C58.859 118.29 59.0233 117.893 59.0233 117.372C59.0233 116.851 58.859 116.477 58.5303 116.25C58.213 116.012 57.737 115.887 57.1023 115.876L55.1643 115.859V118.936L57.1023 118.953ZM73.4773 116.913C73.0466 117.117 72.5876 117.287 72.1003 117.423C71.6243 117.548 71.12 117.61 70.5873 117.61C69.4426 117.61 68.553 117.344 67.9183 116.811C67.2836 116.278 66.9663 115.451 66.9663 114.329V111.422H69.0913V114.193C69.0913 114.794 69.2613 115.23 69.6013 115.502C69.9526 115.774 70.4343 115.91 71.0463 115.91C71.4543 115.91 71.8623 115.859 72.2703 115.757C72.6783 115.655 73.0806 115.513 73.4773 115.332V116.913ZM73.3243 120.5V111.422H75.4493V120.5H73.3243ZM83.8149 120.5V118.664L83.6959 118.273V115.06C83.6959 114.437 83.5089 113.955 83.1349 113.615C82.7609 113.264 82.1942 113.088 81.4349 113.088C80.9249 113.088 80.4206 113.167 79.9219 113.326C79.4346 113.485 79.0209 113.706 78.6809 113.989L77.8479 112.442C78.3352 112.068 78.9132 111.79 79.5819 111.609C80.2619 111.416 80.9646 111.32 81.6899 111.32C83.0046 111.32 84.0189 111.637 84.7329 112.272C85.4582 112.895 85.8209 113.864 85.8209 115.179V120.5H83.8149ZM80.9589 120.619C80.2789 120.619 79.6839 120.506 79.1739 120.279C78.6639 120.041 78.2672 119.718 77.9839 119.31C77.7119 118.891 77.5759 118.42 77.5759 117.899C77.5759 117.389 77.6949 116.93 77.9329 116.522C78.1822 116.114 78.5846 115.791 79.1399 115.553C79.6952 115.315 80.4319 115.196 81.3499 115.196H83.9849V116.607H81.5029C80.7776 116.607 80.2902 116.726 80.0409 116.964C79.7916 117.191 79.6669 117.474 79.6669 117.814C79.6669 118.199 79.8199 118.505 80.1259 118.732C80.4319 118.959 80.8569 119.072 81.4009 119.072C81.9222 119.072 82.3869 118.953 82.7949 118.715C83.2142 118.477 83.5146 118.126 83.6959 117.661L84.0529 118.936C83.8489 119.469 83.4806 119.882 82.9479 120.177C82.4266 120.472 81.7636 120.619 80.9589 120.619ZM92.5815 120.619C91.6295 120.619 90.7795 120.421 90.0315 120.024C89.2948 119.616 88.7168 119.061 88.2975 118.358C87.8781 117.655 87.6685 116.856 87.6685 115.961C87.6685 115.054 87.8781 114.255 88.2975 113.564C88.7168 112.861 89.2948 112.312 90.0315 111.915C90.7795 111.518 91.6295 111.32 92.5815 111.32C93.4655 111.32 94.2418 111.501 94.9105 111.864C95.5905 112.215 96.1061 112.737 96.4575 113.428L94.8255 114.38C94.5535 113.949 94.2191 113.632 93.8225 113.428C93.4371 113.224 93.0178 113.122 92.5645 113.122C92.0431 113.122 91.5728 113.235 91.1535 113.462C90.7341 113.689 90.4055 114.017 90.1675 114.448C89.9295 114.867 89.8105 115.372 89.8105 115.961C89.8105 116.55 89.9295 117.06 90.1675 117.491C90.4055 117.91 90.7341 118.233 91.1535 118.46C91.5728 118.687 92.0431 118.8 92.5645 118.8C93.0178 118.8 93.4371 118.698 93.8225 118.494C94.2191 118.29 94.5535 117.973 94.8255 117.542L96.4575 118.494C96.1061 119.174 95.5905 119.701 94.9105 120.075C94.2418 120.438 93.4655 120.619 92.5815 120.619ZM100.149 120.5V112.714L100.642 113.224H96.953V111.422H105.453V113.224H101.781L102.274 112.714V120.5H100.149ZM111.55 114.414C112.718 114.414 113.607 114.675 114.219 115.196C114.831 115.717 115.137 116.454 115.137 117.406C115.137 118.392 114.797 119.163 114.117 119.718C113.437 120.262 112.48 120.528 111.244 120.517L106.994 120.5V111.422H109.119V114.397L111.55 114.414ZM111.057 118.953C111.681 118.964 112.157 118.834 112.485 118.562C112.814 118.29 112.978 117.893 112.978 117.372C112.978 116.851 112.814 116.477 112.485 116.25C112.168 116.012 111.692 115.887 111.057 115.876L109.119 115.859V118.936L111.057 118.953ZM117.005 120.5V111.422H119.13V114.941H121.833V116.862H119.13V120.5H117.005ZM125.301 120.619C124.394 120.619 123.584 120.421 122.87 120.024C122.167 119.616 121.612 119.061 121.204 118.358C120.796 117.655 120.592 116.856 120.592 115.961C120.592 115.054 120.796 114.25 121.204 113.547C121.612 112.844 122.167 112.3 122.87 111.915C123.584 111.518 124.394 111.32 125.301 111.32C126.219 111.32 127.029 111.518 127.732 111.915C128.446 112.3 129.007 112.844 129.415 113.547C129.823 114.25 130.027 115.054 130.027 115.961C130.027 116.856 129.823 117.661 129.415 118.375C129.007 119.078 128.446 119.627 127.732 120.024C127.029 120.421 126.219 120.619 125.301 120.619ZM125.301 118.817C125.811 118.817 126.259 118.698 126.644 118.46C127.041 118.222 127.352 117.893 127.579 117.474C127.806 117.055 127.919 116.55 127.919 115.961C127.919 115.372 127.806 114.867 127.579 114.448C127.352 114.017 127.041 113.689 126.644 113.462C126.259 113.235 125.817 113.122 125.318 113.122C124.819 113.122 124.372 113.235 123.975 113.462C123.578 113.689 123.267 114.017 123.04 114.448C122.813 114.867 122.7 115.372 122.7 115.961C122.7 116.55 122.813 117.055 123.04 117.474C123.267 117.893 123.578 118.222 123.975 118.46C124.372 118.698 124.814 118.817 125.301 118.817ZM143.322 120.5L140.041 116.148L141.775 115.077L145.821 120.5H143.322ZM136.811 120.5V111.422H138.936V120.5H136.811ZM138.307 116.862V115.094H141.384V116.862H138.307ZM141.979 116.216L139.99 115.978L143.322 111.422H145.6L141.979 116.216ZM151.067 120.619C150.137 120.619 149.31 120.421 148.585 120.024C147.859 119.616 147.287 119.061 146.868 118.358C146.448 117.655 146.239 116.856 146.239 115.961C146.239 115.054 146.448 114.255 146.868 113.564C147.287 112.861 147.859 112.312 148.585 111.915C149.31 111.518 150.137 111.32 151.067 111.32C152.007 111.32 152.84 111.518 153.566 111.915C154.302 112.312 154.875 112.856 155.283 113.547C155.702 114.238 155.912 115.043 155.912 115.961C155.912 116.856 155.702 117.655 155.283 118.358C154.875 119.061 154.302 119.616 153.566 120.024C152.84 120.421 152.007 120.619 151.067 120.619ZM151.067 118.8C151.588 118.8 152.053 118.687 152.461 118.46C152.869 118.233 153.186 117.905 153.413 117.474C153.651 117.043 153.77 116.539 153.77 115.961C153.77 115.372 153.651 114.867 153.413 114.448C153.186 114.017 152.869 113.689 152.461 113.462C152.053 113.235 151.594 113.122 151.084 113.122C150.562 113.122 150.098 113.235 149.69 113.462C149.293 113.689 148.976 114.017 148.738 114.448C148.5 114.867 148.381 115.372 148.381 115.961C148.381 116.539 148.5 117.043 148.738 117.474C148.976 117.905 149.293 118.233 149.69 118.46C150.098 118.687 150.557 118.8 151.067 118.8ZM158.011 120.5V111.422H160.238L163.893 117.865H163.009L166.851 111.422H168.84L168.857 120.5H166.936V113.7L167.276 113.921L163.876 119.548H162.958L159.541 113.768L159.949 113.666V120.5H158.011ZM177.215 120.5V118.664L177.096 118.273V115.06C177.096 114.437 176.909 113.955 176.535 113.615C176.161 113.264 175.595 113.088 174.835 113.088C174.325 113.088 173.821 113.167 173.322 113.326C172.835 113.485 172.421 113.706 172.081 113.989L171.248 112.442C171.736 112.068 172.314 111.79 172.982 111.609C173.662 111.416 174.365 111.32 175.09 111.32C176.405 111.32 177.419 111.637 178.133 112.272C178.859 112.895 179.221 113.864 179.221 115.179V120.5H177.215ZM174.359 120.619C173.679 120.619 173.084 120.506 172.574 120.279C172.064 120.041 171.668 119.718 171.384 119.31C171.112 118.891 170.976 118.42 170.976 117.899C170.976 117.389 171.095 116.93 171.333 116.522C171.583 116.114 171.985 115.791 172.54 115.553C173.096 115.315 173.832 115.196 174.75 115.196H177.385V116.607H174.903C174.178 116.607 173.691 116.726 173.441 116.964C173.192 117.191 173.067 117.474 173.067 117.814C173.067 118.199 173.22 118.505 173.526 118.732C173.832 118.959 174.257 119.072 174.801 119.072C175.323 119.072 175.787 118.953 176.195 118.715C176.615 118.477 176.915 118.126 177.096 117.661L177.453 118.936C177.249 119.469 176.881 119.882 176.348 120.177C175.827 120.472 175.164 120.619 174.359 120.619ZM181.851 120.5V111.422H183.976V115.111H188.549V111.422H190.674V120.5H188.549V116.913H183.976V120.5H181.851ZM199.744 119.514V113.224H196.259L196.208 114.686C196.185 115.207 196.151 115.712 196.106 116.199C196.06 116.675 195.987 117.117 195.885 117.525C195.783 117.922 195.635 118.25 195.443 118.511C195.25 118.772 194.995 118.942 194.678 119.021L192.57 118.698C192.91 118.698 193.182 118.59 193.386 118.375C193.601 118.148 193.765 117.842 193.879 117.457C194.003 117.06 194.094 116.613 194.151 116.114C194.207 115.604 194.247 115.077 194.27 114.533L194.389 111.422H201.869V119.514H199.744ZM192.247 122.523V118.698H203.212V122.523H201.223V120.5H194.219V122.523H192.247ZM214.273 120.5V111.422H216.398V120.5H214.273ZM209.53 114.414C210.697 114.414 211.581 114.675 212.182 115.196C212.794 115.717 213.1 116.454 213.1 117.406C213.1 118.392 212.76 119.163 212.08 119.718C211.411 120.262 210.459 120.528 209.224 120.517L205.11 120.5V111.422H207.235V114.397L209.53 114.414ZM209.037 118.953C209.66 118.964 210.136 118.834 210.465 118.562C210.793 118.29 210.958 117.893 210.958 117.372C210.958 116.851 210.793 116.477 210.465 116.25C210.147 116.012 209.671 115.887 209.037 115.876L207.235 115.859V118.936L209.037 118.953Z" fill="white"/>
<path fill-rule="evenodd" clip-rule="evenodd" d="M231.026 118C230.734 117.707 230.735 117.232 231.028 116.94L233.981 114L231.028 111.061C230.735 110.768 230.734 110.294 231.026 110C231.318 109.706 231.793 109.705 232.087 109.998L235.573 113.469C235.714 113.609 235.794 113.801 235.794 114C235.794 114.2 235.714 114.391 235.573 114.532L232.087 118.003C231.793 118.295 231.318 118.294 231.026 118Z" fill="white"/>
<path fill-rule="evenodd" clip-rule="evenodd" d="M233 124C227.478 124 223 119.523 223 114C223 108.478 227.478 104 233 104C238.522 104 243 108.478 243 114C243 119.523 238.522 124 233 124ZM224.5 114C224.5 118.695 228.306 122.5 233 122.5C237.694 122.5 241.5 118.695 241.5 114C241.5 109.306 237.694 105.5 233 105.5C228.306 105.5 224.5 109.306 224.5 114Z" fill="white"/>
<defs>
<radialGradient id="paint0_radial_783_6460" cx="0" cy="0" r="1" gradientUnits="userSpaceOnUse" gradientTransform="translate(354.5 125) rotate(-162.357) scale(366.227 321.434)">
<stop stop-color="#430099"/>
<stop offset="0.302618" stop-color="#A158FF"/>
<stop offset="0.498609" stop-color="#8F37FF"/>
<stop offset="0.661259" stop-color="#7B13FF"/>
<stop offset="0.785411" stop-color="#7000FF"/>
<stop offset="1" stop-color="#B77FFF"/>
</radialGradient>
<clipPath id="clip0_783_6460">
<rect width="97" height="138" fill="white" transform="translate(252)"/>
</clipPath>
</defs>
</svg>
