<svg width="20" height="22" viewBox="0 0 20 22" fill="none" xmlns="http://www.w3.org/2000/svg">
<path fill-rule="evenodd" clip-rule="evenodd" d="M0.0925293 8.15417C0.0925293 7.73996 0.428316 7.40417 0.842529 7.40417H18.6665C19.0807 7.40417 19.4165 7.73996 19.4165 8.15417C19.4165 8.56839 19.0807 8.90417 18.6665 8.90417H0.842529C0.428316 8.90417 0.0925293 8.56839 0.0925293 8.15417Z" fill="black"/>
<path fill-rule="evenodd" clip-rule="evenodd" d="M13.4419 12.0597C13.4419 11.6455 13.7777 11.3097 14.1919 11.3097H14.2012C14.6154 11.3097 14.9512 11.6455 14.9512 12.0597C14.9512 12.4739 14.6154 12.8097 14.2012 12.8097H14.1919C13.7777 12.8097 13.4419 12.4739 13.4419 12.0597Z" fill="black"/>
<path fill-rule="evenodd" clip-rule="evenodd" d="M9.00464 12.0597C9.00464 11.6455 9.34043 11.3097 9.75464 11.3097H9.7639C10.1781 11.3097 10.5139 11.6455 10.5139 12.0597C10.5139 12.4739 10.1781 12.8097 9.7639 12.8097H9.75464C9.34043 12.8097 9.00464 12.4739 9.00464 12.0597Z" fill="black"/>
<path fill-rule="evenodd" clip-rule="evenodd" d="M4.55786 12.0597C4.55786 11.6455 4.89365 11.3097 5.30786 11.3097H5.31713C5.73134 11.3097 6.06713 11.6455 6.06713 12.0597C6.06713 12.4739 5.73134 12.8097 5.31713 12.8097H5.30786C4.89365 12.8097 4.55786 12.4739 4.55786 12.0597Z" fill="black"/>
<path fill-rule="evenodd" clip-rule="evenodd" d="M13.4419 15.9462C13.4419 15.532 13.7777 15.1962 14.1919 15.1962H14.2012C14.6154 15.1962 14.9512 15.532 14.9512 15.9462C14.9512 16.3604 14.6154 16.6962 14.2012 16.6962H14.1919C13.7777 16.6962 13.4419 16.3604 13.4419 15.9462Z" fill="black"/>
<path fill-rule="evenodd" clip-rule="evenodd" d="M9.00464 15.9462C9.00464 15.532 9.34043 15.1962 9.75464 15.1962H9.7639C10.1781 15.1962 10.5139 15.532 10.5139 15.9462C10.5139 16.3604 10.1781 16.6962 9.7639 16.6962H9.75464C9.34043 16.6962 9.00464 16.3604 9.00464 15.9462Z" fill="black"/>
<path fill-rule="evenodd" clip-rule="evenodd" d="M4.55786 15.9462C4.55786 15.532 4.89365 15.1962 5.30786 15.1962H5.31713C5.73134 15.1962 6.06713 15.532 6.06713 15.9462C6.06713 16.3604 5.73134 16.6962 5.31713 16.6962H5.30786C4.89365 16.6962 4.55786 16.3604 4.55786 15.9462Z" fill="black"/>
<path fill-rule="evenodd" clip-rule="evenodd" d="M13.7937 0C14.2079 0 14.5437 0.335786 14.5437 0.75V4.04078C14.5437 4.45499 14.2079 4.79078 13.7937 4.79078C13.3795 4.79078 13.0437 4.45499 13.0437 4.04078V0.75C13.0437 0.335786 13.3795 0 13.7937 0Z" fill="black"/>
<path fill-rule="evenodd" clip-rule="evenodd" d="M5.71533 0C6.12955 0 6.46533 0.335786 6.46533 0.75V4.04078C6.46533 4.45499 6.12955 4.79078 5.71533 4.79078C5.30112 4.79078 4.96533 4.45499 4.96533 4.04078V0.75C4.96533 0.335786 5.30112 0 5.71533 0Z" fill="black"/>
<path fill-rule="evenodd" clip-rule="evenodd" d="M1.51749 2.97949C2.51914 2.02732 3.91751 1.57922 5.52096 1.57922H13.9883C15.5957 1.57922 16.9949 2.02698 17.9948 2.98022C19.0004 3.93879 19.5048 5.31561 19.5 6.97329V16.0975C19.5 17.7552 18.993 19.1335 17.9871 20.0939C16.9866 21.0492 15.5877 21.5 13.979 21.5H5.52096C3.91301 21.5 2.51302 21.0399 1.51225 20.0699C0.507741 19.0963 0 17.7008 0 16.0219V6.97225C0 5.31342 0.510038 3.93718 1.51749 2.97949ZM2.55096 4.06666C1.9071 4.67872 1.5 5.62399 1.5 6.97225V16.0219C1.5 17.3974 1.9094 18.3659 2.5562 18.9928C3.20673 19.6233 4.19222 20 5.52096 20H13.979C15.3163 20 16.3028 19.6281 16.9513 19.009C17.5944 18.3949 18 17.447 18 16.0975V6.97225L18 6.96994C18.0041 5.62109 17.6007 4.67686 16.9598 4.06594C16.3131 3.44944 15.3268 3.07922 13.9883 3.07922H5.52096C4.18772 3.07922 3.20061 3.4491 2.55096 4.06666Z" fill="black"/>
</svg>
