<svg width="22" height="20" viewBox="0 0 22 20" fill="none" xmlns="http://www.w3.org/2000/svg">
<path fill-rule="evenodd" clip-rule="evenodd" d="M4.53484 6.13045C4.79484 5.808 5.26701 5.75738 5.58945 6.01738L10.0677 9.62836C10.633 10.0753 11.4247 10.0756 11.9902 9.62924L16.4297 6.01932C16.7511 5.758 17.2234 5.80668 17.4848 6.12805C17.7461 6.44943 17.6974 6.9218 17.376 7.18312L12.9257 10.8019C11.8132 11.6845 10.2458 11.6844 9.13333 10.8018L9.12867 10.7981L4.6479 7.18506C4.32546 6.92506 4.27483 6.45289 4.53484 6.13045Z" fill="black"/>
<path fill-rule="evenodd" clip-rule="evenodd" d="M1.91122 1.61909C2.99323 0.574459 4.51943 0 6.31429 0H15.6857C17.4849 0 19.0115 0.574192 20.0927 1.61943C21.1752 2.66588 21.75 4.1258 21.75 5.77664V13.7234C21.75 15.3742 21.1752 16.8341 20.0927 17.8806C19.0115 18.9258 17.4849 19.5 15.6857 19.5H6.31429C4.51514 19.5 2.98854 18.9258 1.9073 17.8806C0.824786 16.8341 0.25 15.3742 0.25 13.7234V5.77664C0.25 4.1248 0.827831 2.66504 1.91122 1.61909ZM2.95307 2.69823C2.19598 3.42916 1.75 4.48271 1.75 5.77664V13.7234C1.75 15.0183 2.19426 16.0717 2.94985 16.8021C3.7067 17.5338 4.83724 18 6.31429 18H15.6857C17.1628 18 18.2933 17.5338 19.0502 16.8021C19.8057 16.0717 20.25 15.0183 20.25 13.7234V5.77664C20.25 4.48171 19.8057 3.42831 19.0502 2.69789C18.2933 1.96625 17.1628 1.5 15.6857 1.5H6.31429C4.84247 1.5 3.71153 1.96598 2.95307 2.69823Z" fill="black"/>
</svg>
