<svg width="22" height="22" viewBox="0 0 22 22" fill="none" xmlns="http://www.w3.org/2000/svg">
<path fill-rule="evenodd" clip-rule="evenodd" d="M9.17291 2.63766C8.40067 3.10601 7.4937 3.8182 6.21471 4.82487L4.85756 5.89304C4.14854 6.45109 3.65232 6.8424 3.28371 7.18489C2.92417 7.51896 2.72477 7.77232 2.59321 8.03498C2.31852 8.58339 2.30015 9.21592 2.30015 10.9808V16.2652C2.30015 17.4632 2.30203 18.2796 2.39161 18.8914C2.477 19.4746 2.62826 19.7617 2.85241 19.9676C3.08567 20.1818 3.42533 20.3321 4.0923 20.4144C4.77476 20.4987 5.67968 20.5 6.97872 20.5H15.1216C16.4206 20.5 17.3255 20.4987 18.008 20.4144C18.675 20.3321 19.0146 20.1818 19.2479 19.9676C19.472 19.7617 19.6233 19.4746 19.7087 18.8914C19.7983 18.2796 19.8001 17.4632 19.8001 16.2652V10.9808C19.8001 9.21592 19.7818 8.58339 19.5071 8.03498C19.3755 7.77232 19.1761 7.51896 18.8166 7.18489C18.448 6.8424 17.9518 6.45109 17.2427 5.89304L15.8856 4.82487C14.6066 3.8182 13.6996 3.10601 12.9274 2.63766C12.1739 2.18068 11.6172 2 11.0501 2C10.4831 2 9.92642 2.18068 9.17291 2.63766ZM8.39508 1.3551C9.28249 0.816907 10.1111 0.5 11.0501 0.5C11.9892 0.5 12.8178 0.816907 13.7052 1.3551C14.5649 1.87647 15.543 2.64636 16.7746 3.61569L18.1952 4.73384C18.8737 5.26787 19.4186 5.69675 19.8376 6.08602C20.2707 6.48845 20.6073 6.88221 20.8482 7.36321C21.3013 8.26766 21.3008 9.28402 21.3002 10.8048C21.3002 10.8627 21.3001 10.9214 21.3001 10.9808V16.3228C21.3002 17.4487 21.3002 18.3755 21.1929 19.1087C21.0795 19.8829 20.8333 20.5482 20.2624 21.0724C19.7007 21.5882 19.0031 21.8029 18.1918 21.9031C17.4066 22 16.4087 22 15.172 22H6.92829C5.69161 22 4.69369 22 3.90851 21.9031C3.09721 21.8029 2.39961 21.5882 1.83787 21.0724C1.26702 20.5482 1.02079 19.8829 0.907432 19.1087C0.800088 18.3755 0.800114 17.4487 0.800144 16.3228L0.800145 10.9808C0.800145 10.9214 0.800121 10.8627 0.800096 10.8048C0.799455 9.28402 0.799026 8.26766 1.25204 7.36321C1.49297 6.88221 1.82957 6.48845 2.26269 6.08602C2.68163 5.69676 3.22653 5.26789 3.90502 4.73387L5.32569 3.6157C6.55724 2.64636 7.53539 1.87647 8.39508 1.3551Z" fill="black"/>
<path fill-rule="evenodd" clip-rule="evenodd" d="M6.80005 15.4643C6.80005 14.3794 7.67949 13.5 8.76433 13.5H13.3358C14.4206 13.5 15.3 14.3794 15.3 15.4643V21.25C15.3 21.6642 14.9643 22 14.55 22C14.1358 22 13.8 21.6642 13.8 21.25V15.4643C13.8 15.2079 13.5922 15 13.3358 15H8.76433C8.50792 15 8.30005 15.2079 8.30005 15.4643V21.25C8.30005 21.6642 7.96426 22 7.55005 22C7.13584 22 6.80005 21.6642 6.80005 21.25V15.4643Z" fill="black"/>
</svg>
