<svg width="20" height="20" viewBox="0 0 20 20" fill="none" xmlns="http://www.w3.org/2000/svg">
<path fill-rule="evenodd" clip-rule="evenodd" d="M5.14111 14.2236C5.14111 13.8094 5.4769 13.4736 5.89111 13.4736H13.7128C14.127 13.4736 14.4628 13.8094 14.4628 14.2236C14.4628 14.6378 14.127 14.9736 13.7128 14.9736H5.89111C5.4769 14.9736 5.14111 14.6378 5.14111 14.2236Z" fill="black"/>
<path fill-rule="evenodd" clip-rule="evenodd" d="M5.14111 10.0371C5.14111 9.6229 5.4769 9.28711 5.89111 9.28711H13.7128C14.127 9.28711 14.4628 9.6229 14.4628 10.0371C14.4628 10.4513 14.127 10.7871 13.7128 10.7871H5.89111C5.4769 10.7871 5.14111 10.4513 5.14111 10.0371Z" fill="black"/>
<path fill-rule="evenodd" clip-rule="evenodd" d="M5.14111 5.86035C5.14111 5.44614 5.4769 5.11035 5.89111 5.11035H8.8757C9.28991 5.11035 9.6257 5.44614 9.6257 5.86035C9.6257 6.27457 9.28991 6.61035 8.8757 6.61035H5.89111C5.4769 6.61035 5.14111 6.27457 5.14111 5.86035Z" fill="black"/>
<path fill-rule="evenodd" clip-rule="evenodd" d="M13.9212 0C15.5802 5.96046e-08 17.0002 0.503705 18.0108 1.46649C19.0248 2.43258 19.5538 3.79201 19.5538 5.357V14.553C19.5538 16.1106 19.0287 17.464 18.0229 18.4287C17.0205 19.3901 15.6116 19.8976 13.9655 19.907L13.9613 19.907L5.63215 19.91C3.97311 19.91 2.55265 19.4063 1.54233 18.4434C0.528554 17.4773 0 16.1179 0 14.553V5.357C0 3.79954 0.524704 2.44631 1.53032 1.48184C2.53254 0.520624 3.94118 0.0133705 5.58715 0.00401217L5.59142 0.00398791L13.9212 0ZM13.9213 1.5L5.59568 1.50399L5.59379 1.504C4.2507 1.51201 3.23927 1.92118 2.5686 2.56441C1.901 3.20469 1.5 4.14446 1.5 5.357V14.553C1.5 15.7721 1.9042 16.7162 2.57717 17.3576C3.25357 18.0022 4.27445 18.41 5.63132 18.41L13.957 18.407L13.9588 18.407C15.3018 18.399 16.3136 17.9896 16.9846 17.3461C17.6525 16.7055 18.0538 15.7654 18.0538 14.553V5.357C18.0538 4.13799 17.6494 3.19392 16.9761 2.55251C16.2994 1.90784 15.2782 1.50005 13.9213 1.5Z" fill="black"/>
</svg>
