<svg width="18" height="21" viewBox="0 0 18 21" fill="none" xmlns="http://www.w3.org/2000/svg">
<path fill-rule="evenodd" clip-rule="evenodd" d="M3.65235 5.77776C3.66516 2.85017 6.04745 0.488125 8.97398 0.500045C11.9004 0.500928 14.2733 2.87438 14.2733 5.80104V7.94804C14.2733 8.36226 13.9376 8.69804 13.5233 8.69804C13.1091 8.69804 12.7733 8.36226 12.7733 7.94804V5.80104C12.7733 3.70226 11.0711 2.00004 8.97234 2.00004H8.96906C6.87086 1.99086 5.16237 3.68363 5.15234 5.78276V7.94804C5.15234 8.36226 4.81656 8.69804 4.40234 8.69804C3.98813 8.69804 3.65234 8.36226 3.65234 7.94804L3.65235 5.77776Z" fill="black"/>
<path fill-rule="evenodd" clip-rule="evenodd" d="M5.1421 8.62683C3.46218 8.62683 2.1001 9.98817 2.1001 11.6688V15.9578C2.1001 17.6385 3.46218 18.9998 5.1421 18.9998H12.7831C14.463 18.9998 15.8251 17.6385 15.8251 15.9578V11.6688C15.8251 9.98817 14.463 8.62683 12.7831 8.62683H5.1421ZM0.600098 11.6688C0.600098 9.15949 2.63401 7.12683 5.1421 7.12683H12.7831C15.2912 7.12683 17.3251 9.15949 17.3251 11.6688V15.9578C17.3251 18.4672 15.2912 20.4998 12.7831 20.4998H5.1421C2.63401 20.4998 0.600098 18.4672 0.600098 15.9578V11.6688Z" fill="black"/>
<path fill-rule="evenodd" clip-rule="evenodd" d="M8.96289 11.953C9.3771 11.953 9.71289 12.2888 9.71289 12.703V14.924C9.71289 15.3382 9.3771 15.674 8.96289 15.674C8.54868 15.674 8.21289 15.3382 8.21289 14.924V12.703C8.21289 12.2888 8.54868 11.953 8.96289 11.953Z" fill="black"/>
</svg>
