<svg width="16" height="20" viewBox="0 0 16 20" fill="none" xmlns="http://www.w3.org/2000/svg">
<path fill-rule="evenodd" clip-rule="evenodd" d="M2.64647 13.12C4.07642 12.6406 5.97078 12.496 7.92048 12.496C9.88195 12.496 11.7769 12.6462 13.2049 13.1319C13.9229 13.376 14.5776 13.7229 15.0592 14.2277C15.5582 14.7507 15.84 15.412 15.84 16.1936C15.84 16.9768 15.5556 17.6378 15.0538 18.1588C14.5698 18.6613 13.9128 19.0048 13.1941 19.2458C11.7644 19.7254 9.87025 19.8703 7.92048 19.8703C5.95908 19.8703 4.06389 19.7203 2.63563 19.2348C1.91756 18.9906 1.26275 18.6439 0.78095 18.139C0.281859 17.6159 0 16.9545 0 16.1726C0 15.3892 0.284399 14.7281 0.786368 14.207C1.27054 13.7044 1.92769 13.361 2.64647 13.12ZM1.86664 15.2477C1.62846 15.4949 1.5 15.7852 1.5 16.1726C1.5 16.5617 1.62838 16.8542 1.86616 17.1034C2.12124 17.3707 2.52994 17.6145 3.11842 17.8146C4.30325 18.2174 5.9933 18.3703 7.92048 18.3703C9.83832 18.3703 11.529 18.2222 12.7171 17.8237C13.3074 17.6257 13.7176 17.3839 13.9735 17.1182C14.2116 16.8709 14.34 16.5808 14.34 16.1936C14.34 15.8047 14.2117 15.5123 13.974 15.2632C13.7189 14.9959 13.3103 14.7521 12.722 14.552C11.5374 14.1491 9.84757 13.996 7.92048 13.996C6.00256 13.996 4.31167 14.1438 3.12329 14.5422C2.5329 14.7401 2.12261 14.982 1.86664 15.2477Z" fill="black"/>
<path fill-rule="evenodd" clip-rule="evenodd" d="M2.60989 5.30831C2.61054 2.37609 4.98838 0 7.92037 0C10.853 0 13.2299 2.37694 13.2299 5.30952C13.2299 8.24192 10.8531 10.62 7.92037 10.62H7.88799L7.88556 10.62C4.96274 10.6101 2.60064 8.2316 2.60989 5.30831ZM2.60989 5.30831L2.60989 5.3071L3.32418 5.30952H2.60989L2.60989 5.30831ZM7.92037 1.42857C5.77657 1.42857 4.03846 3.16611 4.03846 5.30952V5.31194C4.03123 7.4468 5.75591 9.18361 7.88933 9.19143H7.92037C10.0638 9.19143 11.8013 7.45332 11.8013 5.30952C11.8013 3.16592 10.064 1.42857 7.92037 1.42857Z" fill="black"/>
</svg>
