<svg width="21" height="21" viewBox="0 0 21 21" fill="none" xmlns="http://www.w3.org/2000/svg">
<path fill-rule="evenodd" clip-rule="evenodd" d="M9.73856 1.5C5.18853 1.5 1.5 5.18853 1.5 9.73856C1.5 14.2886 5.18853 17.9771 9.73856 17.9771C14.2886 17.9771 17.9771 14.2886 17.9771 9.73856C17.9771 5.18853 14.2886 1.5 9.73856 1.5ZM0 9.73856C0 4.3601 4.3601 0 9.73856 0C15.117 0 19.4771 4.3601 19.4771 9.73856C19.4771 15.117 15.117 19.4771 9.73856 19.4771C4.3601 19.4771 0 15.117 0 9.73856Z" fill="black"/>
<path fill-rule="evenodd" clip-rule="evenodd" d="M15.4592 15.9275C15.7517 15.6342 16.2266 15.6336 16.5199 15.9261L20.0439 19.441C20.3372 19.7335 20.3378 20.2084 20.0453 20.5017C19.7528 20.7949 19.2779 20.7956 18.9846 20.503L15.4606 16.9882C15.1673 16.6957 15.1667 16.2208 15.4592 15.9275Z" fill="black"/>
</svg>
